<?xml version="1.0" standalone="no"?>
<!DOCTYPE svg PUBLIC "-//W3C//DTD SVG 1.1//EN" "http://www.w3.org/Graphics/SVG/1.1/DTD/svg11.dtd" >
<svg xmlns="http://www.w3.org/2000/svg" xmlns:xlink="http://www.w3.org/1999/xlink" version="1.1">
<metadata>
Created by FontForge 20161116 at Mon Nov 21 07:15:03 2011
 By Jimmy Warting
\2512003 Prescott Design. All rights reserved.
</metadata>
<defs>
<font id="ClementePDac-ExtraLight" horiz-adv-x="512" >
  <font-face 
    font-family="ClementePDac"
    font-weight="200"
    font-stretch="normal"
    units-per-em="1000"
    panose-1="0 0 0 0 0 0 0 0 0 0"
    ascent="800"
    descent="-200"
    x-height="515"
    cap-height="720"
    bbox="-330 -223 1045 929"
    underline-thickness="30"
    underline-position="-54"
    unicode-range="U+000D-FB02"
  />
<missing-glyph horiz-adv-x="285" 
 />
    <glyph glyph-name=".notdef" horiz-adv-x="285" 
 />
    <glyph glyph-name="Eth" horiz-adv-x="523" 
d="M441 360q0 69 -15.5 127.5t-48.5 101t-85.5 67t-125.5 24.5h-67v-292h177v-32h-177v-316h51q72 0 126 24.5t91 67.5t55.5 101.5t18.5 126.5zM486 360q0 -80 -22 -146t-65 -113.5t-106.5 -74t-145.5 -26.5h-93v355h-63v33h63v332h125q81 0 139 -28.5t95.5 -77t55 -114
t17.5 -140.5z" />
    <glyph glyph-name="Eth" horiz-adv-x="523" 
d="M441 360q0 69 -15.5 127.5t-48.5 101t-85.5 67t-125.5 24.5h-67v-292h177v-32h-177v-316h51q72 0 126 24.5t91 67.5t55.5 101.5t18.5 126.5zM486 360q0 -80 -22 -146t-65 -113.5t-106.5 -74t-145.5 -26.5h-93v355h-63v33h63v332h125q81 0 139 -28.5t95.5 -77t55 -114
t17.5 -140.5z" />
    <glyph glyph-name="nonmarkingreturn" unicode="&#xd;" horiz-adv-x="0" 
 />
    <glyph glyph-name="space" unicode=" " horiz-adv-x="285" 
 />
    <glyph glyph-name="eth" unicode="&#xf0;" horiz-adv-x="550" 
d="M471 248q0 44 -13 84.5t-37.5 71t-61 49t-84.5 18.5t-84.5 -18.5t-61 -49t-37.5 -71t-13 -84.5q0 -45 12.5 -85.5t37.5 -71.5t61.5 -49.5t84.5 -18.5t84.5 18.5t61.5 49.5t37.5 72t12.5 85zM513 253q0 -54 -15.5 -102t-46 -84.5t-75 -57.5t-102.5 -21q-56 0 -100 20.5
t-74.5 55.5t-46.5 82t-16 101q0 52 15.5 99t45.5 82.5t73.5 56t99.5 20.5q44 0 86.5 -17t70.5 -52q-13 25 -31 51.5t-39 52t-43 48.5t-44 41l-115 -64l-22 23l111 62q-39 31 -85 56l32 23q23 -12 46 -28t43 -32l114 63l23 -24l-110 -61q44 -41 81.5 -84t65 -91t43 -102
t15.5 -117z" />
    <glyph glyph-name="Lslash" unicode="&#x141;" 
d="M512 94q0 -19 -4.5 -36t-16.5 -30t-31.5 -20.5t-49.5 -7.5h-356v260l-54 -38v38l54 37v423h45v-391l187 131v-38l-187 -131v-251h300q27 0 43 6t23.5 15.5t9.5 22t2 24.5l35 -14v0z" />
    <glyph glyph-name="lslash" unicode="&#x142;" horiz-adv-x="150" 
d="M96 394v-394h-42v360l-54 -46v34l54 46v326h42v-291l54 46v-35z" />
    <glyph glyph-name="Scaron" unicode="&#x160;" horiz-adv-x="581" 
d="M560 183q0 -53 -20.5 -91t-55 -62t-78.5 -35.5t-92 -11.5q-57 0 -111 14t-96 44.5t-67.5 79t-24.5 118.5h45q0 -60 20 -101.5t55 -67.5t82 -38t100 -12q38 0 74 9t63.5 28.5t44 50t16.5 73.5q0 49 -21.5 78.5t-55.5 46.5t-76.5 27t-84.5 20q-43 10 -86 21.5t-77 32
t-55.5 53t-21.5 85.5q0 54 22 91t57.5 59.5t80 32t89.5 9.5q53 0 99 -12t80.5 -38t55 -68t23.5 -103h-43q-2 51 -19 86t-45.5 56.5t-67 31.5t-83.5 10q-35 0 -71 -7t-66 -24.5t-49 -46.5t-19 -73q0 -45 21 -72t55 -43.5t77 -27t88 -21.5q48 -12 91.5 -24.5t76 -33.5
t51.5 -55t19 -89zM309 788h-33l-115 141h36l97 -117l93 117h36z" />
    <glyph glyph-name="scaron" unicode="&#x161;" horiz-adv-x="451" 
d="M428 136q0 -41 -17.5 -69t-45.5 -45.5t-63 -25.5t-70 -8q-100 0 -157 45t-57 142h41q0 -79 46 -116.5t128 -37.5q25 0 52.5 6t50 19t37 34t14.5 51q0 31 -14 50.5t-37 32t-54 20t-64 15.5q-35 8 -67.5 16.5t-58 23.5t-40.5 39.5t-15 64.5q0 25 11 49t33.5 43t57 30.5
t81.5 11.5q43 0 78.5 -9.5t61 -29t40 -51t14.5 -74.5h-40q0 70 -43 101.5t-110 31.5q-49 0 -77.5 -13t-43 -30t-18.5 -34t-4 -24q0 -35 19.5 -55.5t48.5 -32.5t62 -18.5t60 -13.5q29 -8 58 -17t51.5 -24t36.5 -38.5t14 -59.5zM243 589h-34l-115 140h36l97 -117l94 117h36z
" />
    <glyph glyph-name="Yacute" unicode="&#xdd;" 
d="M458 543q0 -92 -45.5 -143.5t-133.5 -56.5v-343h-45v343q-90 5 -135 56.5t-45 143.5v177h45v-155q0 -43 8 -77.5t26 -58.5t48 -37t75 -13t75 13t48.5 37t26 58.5t7.5 77.5v155h45v-177v0zM239 784h-30l127 145h52z" />
    <glyph glyph-name="yacute" unicode="&#xfd;" horiz-adv-x="517" 
d="M463 -12q0 -102 -55 -156.5t-166 -54.5q-40 0 -76.5 9t-64.5 28.5t-45.5 50.5t-19.5 75h42q2 -35 15.5 -59.5t35.5 -40.5t50.5 -23.5t60.5 -7.5q88 0 134.5 45t46.5 133v131q-20 -65 -69 -97.5t-116 -32.5q-85 0 -133.5 49.5t-48.5 134.5v343h42v-330q0 -72 38 -116
t113 -44q43 0 75.5 16.5t54 44t32.5 64t11 76.5v289h43v-527v0zM219 585h-31l128 144h52z" />
    <glyph glyph-name="Thorn" unicode="&#xde;" horiz-adv-x="513" 
d="M432 399q0 80 -47 121t-138 41h-148v-324h146q39 0 73.5 10.5t59.5 31t39.5 50.5t14.5 70zM476 400q0 -50 -17.5 -87.5t-48.5 -63t-74 -38.5t-94 -13h-143v-198h-45v720h45v-119h154q108 0 165.5 -53t57.5 -148z" />
    <glyph glyph-name="thorn" unicode="&#xfe;" horiz-adv-x="551" 
d="M472 248q0 43 -10.5 86.5t-35 78.5t-64.5 56.5t-98 21.5q-30 0 -60 -10.5t-54 -29t-39 -43.5t-15 -54v-175q0 -36 14.5 -65t39.5 -49.5t57 -31t67 -10.5q49 0 86 18t62 49t37.5 72t12.5 86zM514 248q0 -54 -16 -101t-46 -82.5t-74 -56t-99 -20.5q-63 0 -110 26.5
t-73 75.5v-296h-42v926h42v-285q26 45 72.5 68.5t100.5 23.5q61 0 107 -22.5t77 -60.5t46 -88.5t15 -107.5z" />
    <glyph glyph-name="Zcaron" unicode="&#x17d;" horiz-adv-x="539" 
d="M547 94q0 -19 -4.5 -36t-16 -30t-31.5 -20.5t-50 -7.5h-442v45l483 635h-451v40h505v-44l-484 -636h378q27 0 43 6t23.5 15.5t9.5 22t2 24.5l35 -14v0zM297 788h-34l-115 141h36l97 -117l94 117h36z" />
    <glyph glyph-name="zcaron" unicode="&#x17e;" horiz-adv-x="426" 
d="M426 90q0 -18 -4.5 -34.5t-16 -29t-30.5 -19.5t-47 -7h-322v41l346 438h-319v36h369v-41l-345 -439h261q27 0 42 6t22.5 15.5t9.5 21t2 23.5l32 -11v0zM231 589h-34l-115 140h36l97 -117l94 117h36z" />
    <glyph glyph-name="onehalf" unicode="&#xbd;" horiz-adv-x="642" 
d="M624 58q0 -26 -13 -42t-47 -16h-221q-1 27 10.5 50t29.5 42.5t40.5 36t44.5 31.5q20 13 38.5 28t33 31t23.5 33.5t9 36.5q0 38 -26 61t-66 23q-53 0 -75.5 -33.5t-22.5 -83.5h-32q-1 67 32.5 107t97.5 40q25 0 48 -7.5t40 -22t27 -35.5t10 -48q0 -31 -14.5 -55.5t-37 -46
t-49 -40.5t-51 -37.5t-43.5 -38.5t-25 -42h173q27 0 32 10.5t5 27.5l29 -10v0zM55 0h-34l447 720h34zM110 324v365h-7q-27 0 -32 -11t-5 -27l-29 10q0 25 13 42t48 17h46v-396h-34z" />
    <glyph glyph-name="onequarter" unicode="&#xbc;" horiz-adv-x="577" 
d="M431 352l-154 -209h154v209zM540 171q0 -25 -12.5 -41.5t-47.5 -16.5h-16v-113h-33v113h-188v30l188 253h33v-253h11q27 0 32 10.5t5 27.5l28 -10v0zM55 0h-34l447 720h34zM110 324v365h-7q-27 0 -32 -11t-5 -27l-29 10q0 25 13 42t48 17h46v-396h-34z" />
    <glyph glyph-name="onesuperior" unicode="&#xb9;" horiz-adv-x="198" 
d="M110 324v365h-7q-27 0 -32 -11t-5 -27l-29 10q0 25 13 42t48 17h46v-396h-34z" />
    <glyph glyph-name="threequarters" unicode="&#xbe;" horiz-adv-x="696" 
d="M549 352l-153 -209h153v209zM659 171q0 -25 -12.5 -41.5t-47.5 -16.5h-16v-113h-34v113h-187v30l188 253h33v-253h11q26 0 31 10.5t5 27.5l29 -10v0zM174 0h-34l447 720h34zM307 441q0 -27 -11.5 -49t-30.5 -37.5t-43.5 -23.5t-50.5 -8q-33 0 -60.5 9.5t-47 28.5
t-29.5 46t-7 63h32q-4 -57 27 -87.5t85 -30.5q21 0 39.5 6.5t32.5 18t22 28.5t8 38q0 42 -26.5 63t-68.5 21h-17v27h17q37 0 63 19t26 56t-29 55.5t-65 18.5q-49 0 -77 -27.5t-27 -79.5h-32q0 66 36.5 101t99.5 35q23 0 45.5 -6t40.5 -18.5t29 -31.5t11 -45q0 -29 -15 -54
t-44 -35q32 -11 49.5 -39t17.5 -62z" />
    <glyph glyph-name="threesuperior" unicode="&#xb3;" horiz-adv-x="343" 
d="M307 441q0 -27 -11.5 -49t-30.5 -37.5t-43.5 -23.5t-50.5 -8q-33 0 -60.5 9.5t-47 28.5t-29.5 46t-7 63h32q-4 -57 27 -87.5t85 -30.5q21 0 39.5 6.5t32.5 18t22 28.5t8 38q0 42 -26.5 63t-68.5 21h-17v27h17q37 0 63 19t26 56t-29 55.5t-65 18.5q-49 0 -77 -27.5
t-27 -79.5h-32q0 66 36.5 101t99.5 35q23 0 45.5 -6t40.5 -18.5t29 -31.5t11 -45q0 -29 -15 -54t-44 -35q32 -11 49.5 -39t17.5 -62z" />
    <glyph glyph-name="twosuperior" unicode="&#xb2;" horiz-adv-x="330" 
d="M311 387q0 -26 -13 -42t-47 -16h-221q-1 28 10.5 51t29.5 42.5t41 36t45 31.5q19 13 38 27.5t33 30.5t23 33.5t9 36.5q0 38 -25.5 61.5t-66.5 23.5q-53 0 -75.5 -34t-22.5 -84h-32q0 68 33 107.5t98 39.5q25 0 47.5 -7.5t40 -21.5t27.5 -35t10 -48q0 -31 -14.5 -55.5
t-37 -46t-49.5 -40.5t-51.5 -37.5t-43.5 -38.5t-25 -42h173q28 0 33 10t5 27l28 -10v0z" />
    <glyph glyph-name="brokenbar" unicode="&#xa6;" horiz-adv-x="145" 
d="M54 0v272h37v-272h-37zM54 448v272h37v-272h-37z" />
    <glyph glyph-name="minus" unicode="&#x2212;" horiz-adv-x="594" 
d="M45 342v36h504v-36h-504z" />
    <glyph glyph-name="multiply" unicode="&#xd7;" horiz-adv-x="419" 
d="M393 151l-184 185l-183 -185l-26 26l184 183l-184 184l26 25l183 -185l184 185l26 -25l-185 -184l185 -183z" />
    <glyph glyph-name="exclam" unicode="!" horiz-adv-x="150" 
d="M113 24q0 -16 -11.5 -26t-26.5 -10t-26.5 10t-11.5 26t11.5 26t26.5 10t26.5 -10t11.5 -26zM90 104h-30l-12 616h54z" />
    <glyph glyph-name="quotedbl" unicode="&#x22;" horiz-adv-x="235" 
d="M54 476v244h37v-244h-37zM145 476v244h36v-244h-36z" />
    <glyph glyph-name="numbersign" unicode="#" horiz-adv-x="570" 
d="M217 439l-22 -158h158l22 158h-158zM566 439h-158l-22 -158h158l-5 -32h-157l-36 -249h-33l35 249h-157l-35 -249h-34l36 249h-158l5 32h157l22 158h-157l4 32h158l35 249h33l-35 -249h157l35 249h34l-35 -249h157z" />
    <glyph glyph-name="dollar" unicode="$" horiz-adv-x="451" 
d="M428 239q0 -39 -16.5 -67t-42.5 -45.5t-59 -26t-67 -9.5v-91h-32v91q-92 5 -142.5 50t-50.5 137h41q0 -79 46 -117t128 -38q25 0 52.5 6t50 19t37 34.5t14.5 51.5q0 31 -14 50.5t-37 32t-54 20t-64 15.5q-35 8 -67.5 16.5t-58 23.5t-40.5 39.5t-15 64.5q0 24 10 47.5
t31 42t54 30.5t79 13v91h32v-91q77 -5 124 -43.5t47 -120.5h-40q0 71 -43 102t-110 31q-49 0 -77.5 -13t-43 -29.5t-18.5 -33.5t-4 -24q0 -35 19.5 -56t48.5 -33t62 -18.5t60 -13.5q29 -8 58 -17t51.5 -24t36.5 -38t14 -59z" />
    <glyph glyph-name="percent" unicode="%" horiz-adv-x="676" 
d="M606 160q0 64 -29.5 105t-94.5 41q-32 0 -55 -11.5t-38 -31t-22 -46t-7 -57.5q0 -29 7 -55t22 -46t38 -31.5t55 -11.5q31 0 54.5 12t39 31.5t23 45.5t7.5 55zM639 161q0 -36 -10 -67.5t-30 -55t-49 -37t-68 -13.5q-40 0 -69.5 14t-48.5 38t-28 55t-9 65q0 38 10 70
t29.5 55.5t48.5 36.5t67 13q39 0 68 -13t49 -36.5t30 -55.5t10 -70v1zM316 545q0 64 -30 105.5t-94 41.5q-32 0 -55 -11.5t-37.5 -31t-21.5 -46.5t-7 -58q0 -29 7 -55t22 -45.5t37.5 -31t54.5 -11.5q31 0 54.5 11.5t39 31.5t23 45.5t7.5 54.5zM129 0h-34l433 692h-246
q34 -22 51 -59.5t17 -86.5q0 -36 -10 -67.5t-30 -55t-49.5 -37t-68.5 -13.5q-40 0 -69.5 14t-48.5 38t-28 55t-9 65q0 38 10 70t30 55.5t48.5 36.5t66.5 13h370v-28z" />
    <glyph glyph-name="ampersand" unicode="&#x26;" horiz-adv-x="669" 
d="M669 336q0 -19 -4.5 -35.5t-16 -29t-31 -20t-49.5 -7.5h-38q4 -61 -14 -108.5t-53 -80.5t-85 -50t-110 -17q-48 0 -92 14.5t-78 42t-54.5 66.5t-20.5 89q0 35 10.5 67t30 57.5t48.5 42t65 19.5q-33 3 -59 18t-44 38t-27.5 52t-9.5 60q0 45 19 78.5t50.5 55.5t70.5 33
t80 11q55 0 99.5 -16t75.5 -46t47.5 -73.5t16.5 -99.5h-41q2 94 -51.5 146t-145.5 52q-33 0 -65.5 -9t-58 -27t-41.5 -45.5t-16 -64.5t14 -64.5t38 -46t55 -28t65 -9.5h21v-33h-21q-39 0 -72.5 -10.5t-58 -31.5t-38.5 -52t-14 -72t17 -73.5t45.5 -55.5t65 -35.5t75.5 -12.5
q50 0 92 15t72 43t45 69t11 92h-54q-27 0 -42.5 -6t-23 -15.5t-9.5 -21.5t-2 -24l-34 13q0 19 4.5 35.5t16 29t31 20t49.5 7.5h133q27 0 42.5 6t23 15.5t9.5 21.5t2 24l34 -13v0z" />
    <glyph glyph-name="quotesingle" unicode="'" horiz-adv-x="145" 
d="M54 476v244h37v-244h-37z" />
    <glyph glyph-name="parenleft" unicode="(" horiz-adv-x="191" 
d="M153 -206q-29 58 -51 113.5t-36.5 112.5t-21.5 116.5t-7 124.5q0 121 29.5 237t85.5 222h39q-55 -107 -84 -222.5t-29 -236.5q0 -123 28.5 -240.5t85.5 -226.5h-39z" />
    <glyph glyph-name="parenright" unicode=")" horiz-adv-x="191" 
d="M155 253q0 -121 -29.5 -237t-85.5 -222h-39q55 107 84 222.5t29 236.5q0 123 -28.5 240.5t-85.5 226.5h39q29 -58 50.5 -113.5t36 -112.5t22 -116.5t7.5 -124.5z" />
    <glyph glyph-name="asterisk" unicode="*" horiz-adv-x="316" 
d="M182 552l87 -109l-34 -24l-77 116l-77 -116l-33 24l86 109l-134 38l13 39l130 -48l-5 139h41l-6 -139l131 48l12 -39z" />
    <glyph glyph-name="plus" unicode="+" horiz-adv-x="594" 
d="M315 342v-235h-36v235h-234v36h234v235h36v-235h234v-36h-234z" />
    <glyph glyph-name="comma" unicode="," horiz-adv-x="154" 
d="M32 -117l-32 18l122 212l32 -19z" />
    <glyph glyph-name="hyphen" unicode="-" horiz-adv-x="282" 
d="M45 249v38h192v-38h-192z" />
    <glyph glyph-name="period" unicode="." horiz-adv-x="150" 
d="M113 24q0 -16 -11.5 -26t-26.5 -10t-26.5 10t-11.5 26t11.5 26t26.5 10t26.5 -10t11.5 -26z" />
    <glyph glyph-name="slash" unicode="/" horiz-adv-x="345" 
d="M37 0h-37l309 720h36z" />
    <glyph glyph-name="zero" unicode="0" horiz-adv-x="581" 
d="M511 360q0 53 -10 112t-34.5 108.5t-67.5 82t-109 32.5t-108.5 -32.5t-67 -82t-34.5 -108.5t-10 -112t10 -112t34.5 -108.5t67 -82t108.5 -32.5t109 32.5t67.5 82t34.5 108.5t10 112zM552 360q0 -62 -13 -128t-43.5 -120t-80.5 -89t-125 -35t-125 35t-80.5 89t-43.5 120
t-13 128t13 128t43.5 120t80.5 89t125 35t125 -35t80.5 -89t43.5 -120t13 -128z" />
    <glyph glyph-name="one" unicode="1" horiz-adv-x="581" 
d="M276 0v680h-19q-27 0 -43 -6t-23.5 -15.5t-9.5 -22t-2 -24.5l-35 14q0 19 4.5 36t16.5 30t31.5 20.5t49.5 7.5h75v-720h-45z" />
    <glyph glyph-name="two" unicode="2" horiz-adv-x="581" 
d="M540 92q0 -39 -21.5 -65.5t-79.5 -26.5h-392q-1 46 19 86t52 74.5t72.5 64.5t80.5 57q36 25 70.5 52.5t61.5 58t43.5 64.5t16.5 72q0 37 -13 67.5t-36.5 52.5t-56 34t-70.5 12q-51 0 -86.5 -17.5t-58 -47.5t-32.5 -69.5t-10 -84.5h-41q0 58 14.5 105t43.5 80.5t72 52
t99 18.5q45 0 84.5 -13.5t69 -39t47 -62.5t17.5 -85q0 -42 -16.5 -79.5t-43.5 -71t-62.5 -63.5t-72.5 -56t-72 -52.5t-64 -54t-49 -57t-26 -59.5h329q27 0 42.5 6t23 15.5t9.5 21.5t2 24l34 -14v0z" />
    <glyph glyph-name="three" unicode="3" horiz-adv-x="581" 
d="M537 200q0 -49 -20 -88.5t-53 -67t-76 -42t-89 -14.5q-58 0 -106.5 17.5t-83 50.5t-52 80.5t-13.5 107.5h42q-4 -51 10 -92t42 -69t69 -43t91 -15q39 0 74 12.5t62 35.5t43 55.5t16 73.5t-14 72t-38.5 52t-57.5 31.5t-72 10.5h-22v33h22q34 0 65 9.5t54.5 28t37.5 46
t14 64.5t-15.5 64.5t-41 45.5t-58 27t-65.5 9q-46 0 -83 -13.5t-63 -39t-39.5 -62.5t-12.5 -83h-41q0 112 64.5 173.5t175.5 61.5q40 0 79.5 -11t71 -33t50.5 -55.5t19 -78.5q0 -31 -9.5 -60t-27.5 -52t-44 -38t-59 -18q36 -3 65 -19.5t48.5 -42t30 -57.5t10.5 -67z" />
    <glyph glyph-name="four" unicode="4" horiz-adv-x="581" 
d="M374 674l-306 -425h306v425zM555 303q0 -19 -4.5 -36t-16 -29.5t-30.5 -20t-49 -7.5h-37v-210h-44v210h-341v45l338 465h46v-471h27q27 0 42.5 6t23 15.5t9.5 21.5t2 24l34 -13v0z" />
    <glyph glyph-name="five" unicode="5" horiz-adv-x="581" 
d="M526 614q1 40 -19 53.5t-58 13.5h-285l-65 -308q30 46 80.5 67.5t104.5 21.5q52 0 95 -17t74 -48t48 -74.5t17 -95.5q0 -55 -18 -99t-50.5 -75t-77.5 -48t-99 -17q-53 0 -98.5 15t-78 44t-50.5 72t-17 99h42q0 -95 55.5 -144t147.5 -49q46 0 83 14.5t63 41t40.5 64
t14.5 83.5q0 45 -14.5 81.5t-41 63t-63 41t-81.5 14.5q-55 0 -103.5 -23.5t-75.5 -73.5h-46l81 389h329q47 0 74 -21.5t26 -70.5z" />
    <glyph glyph-name="six" unicode="6" horiz-adv-x="581" 
d="M514 238q0 44 -16.5 83t-45.5 67.5t-68 45t-83 16.5t-82.5 -16.5t-67.5 -45t-45.5 -67.5t-16.5 -83t16.5 -83t45 -68t67.5 -45.5t83 -16.5t83 16.5t68 45.5t45.5 68t16.5 83zM555 239q0 -54 -19.5 -99.5t-54 -79.5t-81 -53t-99.5 -19q-64 0 -121 30t-91 82
q-17 25 -27 54.5t-15 60t-6.5 62.5t-1.5 62q0 67 13 136.5t44.5 126.5t84.5 93.5t134 36.5q36 0 71 -8.5t65 -28.5l-24 -30q-26 17 -54.5 24t-58.5 7q-72 0 -117.5 -35t-72 -88.5t-36 -117.5t-9.5 -121v-17q10 37 32.5 68t53 53.5t67.5 34.5t76 12q51 0 96 -19.5t78.5 -52.5
t53 -78t19.5 -96z" />
    <glyph glyph-name="seven" unicode="7" horiz-adv-x="581" 
d="M297 0h-48l243 681h-342q-27 0 -43 -6t-23.5 -15.5t-9.5 -21.5t-2 -24l-34 14q0 19 4.5 35.5t16 29t31 20t49.5 7.5h401v-39z" />
    <glyph glyph-name="eight" unicode="8" horiz-adv-x="581" 
d="M477 207q0 39 -14.5 72.5t-40 58t-59 39t-72.5 14.5t-73 -14t-59.5 -39t-40 -58.5t-14.5 -72.5t15 -72t40.5 -58t59 -39t71.5 -14t72 14t59.5 39t40.5 58t15 72zM430 560q0 29 -11 54t-29.5 43.5t-44 29t-54.5 10.5t-54.5 -10.5t-44.5 -29t-30 -43.5t-11 -54t11 -54
t30 -43t44 -28.5t54 -10.5t54.5 10.5t44.5 28.5t30 43t11 54zM519 207q0 -48 -18.5 -88t-50 -69t-72.5 -45.5t-87 -16.5q-47 0 -88.5 16.5t-72.5 45.5t-49.5 69t-18.5 88q0 37 11.5 69.5t32 59t48.5 45.5t62 28q-48 18 -76.5 59t-28.5 95q0 37 14.5 68t39.5 53.5t57 35
t68 12.5t68.5 -12.5t57.5 -35t39.5 -53.5t14.5 -68q0 -53 -29 -95t-76 -59q34 -9 62 -28t48.5 -46t32 -59.5t11.5 -68.5z" />
    <glyph glyph-name="nine" unicode="9" horiz-adv-x="581" 
d="M503 482q0 44 -16.5 83t-45 68t-67.5 45.5t-83 16.5t-83 -16.5t-68 -45.5t-45.5 -68t-16.5 -83t16.5 -83t45.5 -67.5t68 -45t83 -16.5t83 16.5t67.5 45t45 67.5t16.5 83zM554 381q0 -67 -13 -136.5t-45 -126.5t-85 -93.5t-134 -36.5q-36 0 -71 8.5t-65 28.5l24 30
q26 -17 55 -24t58 -7q72 0 117.5 35t72 88.5t36 117.5t9.5 121v17q-10 -38 -32.5 -68.5t-53 -53t-67.5 -34.5t-76 -12q-51 0 -96 19.5t-78.5 52.5t-53 78t-19.5 96q0 54 19.5 99.5t54 79.5t81 53t99.5 19q65 0 121 -30t91 -83q33 -51 42 -114t9 -124z" />
    <glyph glyph-name="colon" unicode=":" horiz-adv-x="150" 
d="M113 24q0 -16 -11.5 -26t-26.5 -10t-26.5 10t-11.5 26t11.5 26t26.5 10t26.5 -10t11.5 -26zM113 491q0 -16 -11.5 -26t-26.5 -10t-26.5 10t-11.5 26q0 15 11.5 25.5t26.5 10.5t26.5 -10.5t11.5 -25.5z" />
    <glyph glyph-name="semicolon" unicode=";" horiz-adv-x="150" 
d="M32 -117l-32 18l122 212l32 -19zM113 491q0 -16 -11.5 -26t-26.5 -10t-26.5 10t-11.5 26q0 15 11.5 25.5t26.5 10.5t26.5 -10.5t11.5 -25.5z" />
    <glyph glyph-name="less" unicode="&#x3c;" horiz-adv-x="598" 
d="M45 342v36l508 243v-39l-463 -222l463 -222v-39z" />
    <glyph glyph-name="equal" unicode="=" horiz-adv-x="594" 
d="M45 242v36h504v-36h-504zM45 442v36h504v-36h-504z" />
    <glyph glyph-name="greater" unicode="&#x3e;" horiz-adv-x="598" 
d="M45 99v39l463 222l-463 222v39l508 -243v-36z" />
    <glyph glyph-name="question" unicode="?" horiz-adv-x="504" 
d="M289 24q0 -16 -11.5 -26t-26.5 -10q-16 0 -27.5 10t-11.5 26t11.5 26t27.5 10q15 0 26.5 -10t11.5 -26zM467 560q0 -39 -11 -67t-27 -49t-33.5 -36t-30.5 -27q-27 -24 -45 -43.5t-29 -41t-15.5 -46.5t-4.5 -59v-99h-41v99q0 31 4 58t15 51.5t29 48.5t47 50q7 6 23 18
t32.5 31.5t29.5 46.5t13 63q0 32 -12 57t-33.5 42t-51.5 26t-65 9q-46 0 -80.5 -15t-57 -41.5t-33.5 -63.5t-9 -81h-44q-2 51 12.5 95t43 76.5t71 50.5t98.5 18q45 0 82.5 -12t64.5 -34.5t42.5 -54t15.5 -70.5z" />
    <glyph glyph-name="at" unicode="@" horiz-adv-x="784" 
d="M545 455q-11 47 -46.5 69t-81.5 22q-45 0 -82 -25t-64 -62.5t-42 -82.5t-15 -85q0 -25 8.5 -47.5t24 -39t37 -26t47.5 -9.5q56 0 92 31.5t56 81.5q17 42 33 86t33 87zM747 424q0 -64 -24 -121q-15 -35 -41.5 -69.5t-61.5 -60.5q-23 -16 -48 -26t-52 -10q-23 0 -42 13
t-20 39q0 2 0.5 5t0.5 7q-25 -35 -60 -49.5t-76 -14.5q-32 0 -58.5 12t-45 33t-29 48.5t-10.5 58.5q0 49 17.5 100.5t49 93.5t75.5 69t97 27q21 0 43 -5.5t40.5 -16t33 -27t22.5 -37.5l24 66h30l-104 -281q-6 -17 -11.5 -35.5t-5.5 -36.5q0 -39 40 -39q20 0 38 7.5t35 18.5
q27 18 47.5 44t35 56t22 62.5t7.5 64.5q0 66 -24 118.5t-65.5 89t-97 55.5t-118.5 19q-72 0 -134.5 -26t-109 -71.5t-73 -107.5t-26.5 -134q0 -77 24.5 -140.5t69.5 -109t108 -70.5t140 -25q86 0 161 40.5t126 109.5h34q-26 -41 -61 -74.5t-76.5 -57t-88.5 -36t-95 -12.5
q-83 0 -152 27.5t-118 77t-76 118.5t-27 152q0 79 29 146.5t79.5 117t118.5 77.5t147 28q68 0 129 -21t107 -61t73 -97t27 -129z" />
    <glyph glyph-name="A" unicode="A" 
d="M413 512q0 43 -8 77.5t-26 58.5t-48 37t-75 13t-75 -13t-48.5 -37t-26 -58.5t-7.5 -77.5v-133h314v133zM413 0v341h-314v-341h-45v534q0 99 51 151t151 52t151 -52.5t51 -150.5v-534h-45z" />
    <glyph glyph-name="B" unicode="B" 
d="M430 200q0 41 -15 71t-40.5 49.5t-59.5 28.5t-72 9h-144v-319h140q38 0 72.5 9.5t61 29t42 50t15.5 72.5zM408 535q0 37 -13 64.5t-35.5 45.5t-53.5 27t-66 9h-141v-289h141q33 0 63.5 9t53.5 27t37 44.5t14 62.5zM475 198q0 -52 -19.5 -89.5t-52 -61.5t-75.5 -35.5
t-90 -11.5h-184v720h193q42 0 79 -11t65 -33.5t44 -56t16 -78.5q0 -32 -10.5 -60t-29.5 -49.5t-45.5 -36t-57.5 -17.5q37 -2 68 -16.5t53 -38.5t34 -56t12 -69z" />
    <glyph glyph-name="C" unicode="C" horiz-adv-x="710" 
d="M673 280q-8 -65 -31.5 -119t-62.5 -94t-93 -62t-121 -22q-79 0 -140 30.5t-103 82t-63.5 118.5t-21.5 141q0 77 22 146t65 121.5t106 83.5t146 31q51 0 102.5 -16.5t93.5 -47.5t70 -75t31 -99h-44q-5 46 -29 83t-59.5 62.5t-78.5 39t-86 13.5q-72 0 -127 -28.5t-92 -76.5
t-56 -109.5t-19 -127.5q0 -63 18 -123t54 -106.5t88.5 -74.5t121.5 -28q59 0 105 19.5t79 53.5t53 81t28 103h44v0z" />
    <glyph glyph-name="D" unicode="D" horiz-adv-x="523" 
d="M441 360q0 69 -15.5 127.5t-48.5 101t-85.5 67t-125.5 24.5h-67v-640h51q72 0 126 24.5t91 67.5t55.5 101.5t18.5 126.5zM486 360q0 -80 -22 -146t-65 -113.5t-106.5 -74t-145.5 -26.5h-93v720h125q81 0 139 -28.5t95.5 -77t55 -114t17.5 -140.5z" />
    <glyph glyph-name="E" unicode="E" 
d="M54 0v720h408v-40h-363v-301h335v-38h-335v-301h368v-40h-413z" />
    <glyph glyph-name="F" unicode="F" 
d="M99 680v-301h335v-38h-335v-341h-45v720h408v-40h-363z" />
    <glyph glyph-name="G" unicode="G" horiz-adv-x="727" 
d="M727 -5q-32 0 -49.5 11.5t-26 33.5t-11 55t-3.5 77q-32 -85 -100 -137t-172 -52q-79 0 -140 30.5t-103 82t-63.5 118.5t-21.5 141q0 77 22 146t65 121.5t106 83.5t146 31q51 0 102.5 -16.5t93.5 -47.5t70 -75t31 -99h-44q-5 46 -29 83t-59.5 62.5t-78.5 39t-86 13.5
q-72 0 -127 -28.5t-92 -76.5t-56 -109.5t-19 -127.5q0 -63 18 -123t54 -106.5t88.5 -74.5t121.5 -28q58 0 103.5 19t78 52t53 79t28.5 100h-252v39h298v-202q0 -27 6 -43t15.5 -24t22 -10t24.5 -2z" />
    <glyph glyph-name="H" unicode="H" horiz-adv-x="527" 
d="M428 0v343h-329v-343h-45v720h45v-338h328v338h46v-720h-45z" />
    <glyph glyph-name="I" unicode="I" horiz-adv-x="153" 
d="M54 0v720h45v-720h-45z" />
    <glyph glyph-name="J" unicode="J" 
d="M458 195q0 -48 -11 -87.5t-36 -67t-64 -42.5t-94 -15q-53 0 -90.5 15.5t-61.5 42.5t-35.5 64t-11.5 81v94h42v-92q0 -166 156 -166q80 0 120.5 42t40.5 144v472h-239q-27 0 -43 -6t-23.5 -15.5t-9.5 -22t-2 -24.5l-35 14q0 19 4.5 36t16.5 30t31.5 20.5t49.5 7.5h295
v-525v0z" />
    <glyph glyph-name="K" unicode="K" horiz-adv-x="394" 
d="M340 0l-241 322v-322h-45v720h45v-322l241 322h54l-268 -360l268 -360h-54z" />
    <glyph glyph-name="L" unicode="L" 
d="M512 94q0 -19 -4.5 -36t-16.5 -30t-31.5 -20.5t-49.5 -7.5h-356v720h45v-680h300q27 0 43 6t23.5 15.5t9.5 22t2 24.5l35 -14v0z" />
    <glyph glyph-name="M" unicode="M" horiz-adv-x="871" 
d="M772 0v512q0 43 -8 77.5t-26 58.5t-48 37t-75 13t-75 -13t-48.5 -37t-26 -58.5t-7.5 -77.5v-512h-45v512q0 43 -8 77.5t-26 58.5t-48 37t-75 13t-75 -13t-48.5 -37t-26 -58.5t-7.5 -77.5v-512h-45v534q0 99 51 151t151 52q140 0 180 -109q38 109 179 109q100 0 151 -52
t51 -151v-534h-45z" />
    <glyph glyph-name="N" unicode="N" 
d="M413 0v512q0 43 -8 77.5t-26 58.5t-48 37t-75 13t-75 -13t-48.5 -37t-26 -58.5t-7.5 -77.5v-512h-45v534q0 99 51 151t151 52t151 -52.5t51 -150.5v-534h-45z" />
    <glyph glyph-name="O" unicode="O" horiz-adv-x="740" 
d="M658 360q0 66 -18 127t-54 107.5t-90 74.5t-126 28t-126 -28t-90 -74.5t-54 -107.5t-18 -127t18 -127t54 -107.5t90 -74.5t126 -28t126 28t90 74.5t54 107.5t18 127zM703 360q0 -76 -21.5 -144.5t-63.5 -120t-104.5 -82t-143.5 -30.5t-143 30.5t-104.5 82t-64 120
t-21.5 144.5t21.5 144t64 120t104.5 82.5t143 30.5t143.5 -30.5t104.5 -82.5t63.5 -120t21.5 -144z" />
    <glyph glyph-name="P" unicode="P" horiz-adv-x="513" 
d="M432 518q0 80 -47 121t-138 41h-148v-324h146q39 0 73.5 10.5t59.5 31t39.5 50.5t14.5 70zM476 519q0 -50 -17.5 -87.5t-48.5 -63t-74 -38.5t-94 -13h-143v-317h-45v720h199q108 0 165.5 -53t57.5 -148z" />
    <glyph glyph-name="Q" unicode="Q" horiz-adv-x="740" 
d="M658 360q0 66 -18 127t-54 107.5t-90 74.5t-126 28t-126 -28t-90 -74.5t-54 -107.5t-18 -127t18 -127t54 -107.5t90 -74.5t126 -28q62 0 115 23t92 72l-96 90q-12 11 -26.5 21.5t-30.5 10.5q-14 0 -25.5 -7.5t-20.5 -17.5l-11 35q13 13 29 22t35 9q21 0 39 -11.5
t35 -27.5l96 -90q31 46 44 100t13 108zM855 -30q-13 -13 -29.5 -22t-34.5 -9q-21 0 -39 11.5t-35 27.5l-115 108q-44 -53 -103.5 -78t-128.5 -25q-81 0 -143 30.5t-104.5 82t-64 120t-21.5 144.5t21.5 144t64 120t104.5 82.5t143 30.5t143.5 -30.5t104.5 -82.5t63.5 -120
t21.5 -144q0 -66 -17 -129.5t-54 -116.5l109 -102q12 -11 26 -21.5t31 -10.5q14 0 25.5 7.5t20.5 17.5l11 -35v0z" />
    <glyph glyph-name="R" unicode="R" horiz-adv-x="513" 
d="M431 531q-1 71 -43 110.5t-139 39.5h-150v-314h142q36 0 70.5 9t61 29t42.5 51.5t16 75.5v-1zM476 530q0 -71 -39.5 -117.5t-107.5 -62.5q44 -6 70.5 -23t41 -42.5t19.5 -58.5t5 -73v-153h-44v151q0 49 -8.5 83t-29.5 55.5t-55 31t-85 9.5h-144v-330h-45v720h202
q49 0 89.5 -10t69.5 -32.5t45 -59t16 -88.5z" />
    <glyph glyph-name="S" unicode="S" horiz-adv-x="581" 
d="M560 183q0 -53 -20.5 -91t-55 -62t-78.5 -35.5t-92 -11.5q-57 0 -111 14t-96 44.5t-67.5 79t-24.5 118.5h45q0 -60 20 -101.5t55 -67.5t82 -38t100 -12q38 0 74 9t63.5 28.5t44 50t16.5 73.5q0 49 -21.5 78.5t-55.5 46.5t-76.5 27t-84.5 20q-43 10 -86 21.5t-77 32
t-55.5 53t-21.5 85.5q0 54 22 91t57.5 59.5t80 32t89.5 9.5q53 0 99 -12t80.5 -38t55 -68t23.5 -103h-43q-2 51 -19 86t-45.5 56.5t-67 31.5t-83.5 10q-35 0 -71 -7t-66 -24.5t-49 -46.5t-19 -73q0 -45 21 -72t55 -43.5t77 -27t88 -21.5q48 -12 91.5 -24.5t76 -33.5
t51.5 -55t19 -89z" />
    <glyph glyph-name="T" unicode="T" 
d="M279 680v-680h-45v680h-121q-27 0 -43 -6t-23.5 -15.5t-9.5 -22t-2 -24.5l-35 14q0 19 4.5 36t16.5 30t31.5 20.5t49.5 7.5h410v-40h-233z" />
    <glyph glyph-name="U" unicode="U" 
d="M458 186q0 -99 -51 -151t-151 -52t-151 52.5t-51 150.5v534h45v-512q0 -44 8 -78.5t26 -58.5t48 -36.5t75 -12.5t75 13t48.5 37t26 58.5t7.5 77.5v512h45v-534v0z" />
    <glyph glyph-name="V" unicode="V" horiz-adv-x="558" 
d="M303 0h-48l-255 720h48l231 -644l231 644h48z" />
    <glyph glyph-name="W" unicode="W" horiz-adv-x="871" 
d="M817 186q0 -99 -51 -151t-151 -52q-140 0 -180 109q-38 -109 -179 -109q-100 0 -151 52t-51 151v534h45v-512q0 -44 8 -78.5t26 -58.5t48 -36.5t75 -12.5t75 12.5t48.5 36.5t26 58.5t7.5 78.5v512h45v-512q0 -44 8 -78.5t26 -58.5t48 -36.5t75 -12.5t75 12.5t48.5 36.5
t26 58.5t7.5 78.5v512h45v-534v0z" />
    <glyph glyph-name="X" unicode="X" horiz-adv-x="590" 
d="M535 0l-240 322l-241 -322h-54l268 360l-268 360h54l241 -322l240 322h55l-268 -360l268 -360h-55z" />
    <glyph glyph-name="Y" unicode="Y" 
d="M458 543q0 -92 -45.5 -143.5t-133.5 -56.5v-343h-45v343q-90 5 -135 56.5t-45 143.5v177h45v-155q0 -43 8 -77.5t26 -58.5t48 -37t75 -13t75 13t48.5 37t26 58.5t7.5 77.5v155h45v-177v0z" />
    <glyph glyph-name="Z" unicode="Z" horiz-adv-x="539" 
d="M547 94q0 -19 -4.5 -36t-16 -30t-31.5 -20.5t-50 -7.5h-442v45l483 635h-451v40h505v-44l-484 -636h378q27 0 43 6t23.5 15.5t9.5 22t2 24.5l35 -14v0z" />
    <glyph glyph-name="bracketleft" unicode="[" horiz-adv-x="239" 
d="M54 -206v926h140v-37h-100v-852h100v-37h-140z" />
    <glyph glyph-name="backslash" unicode="\" horiz-adv-x="345" 
d="M309 0l-309 720h36l309 -720h-36z" />
    <glyph glyph-name="bracketright" unicode="]" horiz-adv-x="239" 
d="M46 -206v37h101v852h-101v37h141v-926h-141z" />
    <glyph glyph-name="asciicircum" unicode="^" horiz-adv-x="481" 
d="M444 278l-204 403l-203 -403h-37l224 442h33l224 -442h-37z" />
    <glyph glyph-name="underscore" unicode="_" horiz-adv-x="500" 
d="M0 -125v50h500v-50h-500z" />
    <glyph glyph-name="grave" unicode="`" horiz-adv-x="0" 
d="M188 710h52l122 -144h-31z" />
    <glyph glyph-name="a" unicode="a" horiz-adv-x="551" 
d="M455 353q0 29 -15 54.5t-39 44t-54 29t-60 10.5q-58 0 -98 -21.5t-64.5 -56.5t-35 -78.5t-10.5 -86.5q0 -45 12.5 -86t37.5 -72t62 -49t86 -18q35 0 67 10.5t57 31t39.5 49.5t14.5 65v174zM455 0v90q-26 -49 -73 -75.5t-110 -26.5q-56 0 -99.5 20.5t-73.5 56t-46 82.5
t-16 101q0 56 15 106.5t46 89t76.5 61t107.5 22.5q54 0 100.5 -23.5t72.5 -68.5v80h42v-515h-42z" />
    <glyph glyph-name="b" unicode="b" horiz-adv-x="551" 
d="M472 248q0 43 -10.5 86.5t-35 78.5t-64.5 56.5t-98 21.5q-30 0 -60 -10.5t-54 -29t-39 -43.5t-15 -54v-175q0 -36 14.5 -65t39.5 -49.5t57 -31t67 -10.5q49 0 86 18t62 49t37.5 72t12.5 86zM514 248q0 -54 -16 -101t-46 -82.5t-74 -56t-99 -20.5q-63 0 -110 26.5
t-73 75.5v-90h-42v720h42v-285q26 45 72.5 68.5t100.5 23.5q61 0 107 -22.5t77 -60.5t46 -88.5t15 -107.5z" />
    <glyph glyph-name="c" unicode="c" horiz-adv-x="524" 
d="M487 179q-9 -90 -67.5 -140.5t-147.5 -50.5q-56 0 -99.5 21t-73.5 56.5t-46 82.5t-16 100q0 57 15.5 107.5t46 88.5t76.5 60.5t107 22.5q40 0 75 -12t62.5 -34.5t45 -54.5t22.5 -73h-41q-10 66 -54 102t-109 36q-54 0 -92.5 -20t-63 -53.5t-36.5 -77.5t-12 -92
q0 -44 12 -85t36.5 -72t60.5 -49.5t84 -18.5q35 0 65.5 11t54 31.5t37.5 49t17 64.5h41v0z" />
    <glyph glyph-name="d" unicode="d" horiz-adv-x="551" 
d="M455 353q0 29 -15 54.5t-39 44t-54 29t-60 10.5q-58 0 -98 -21.5t-64.5 -56.5t-35 -78.5t-10.5 -86.5q0 -45 12.5 -86t37.5 -72t62 -49t86 -18q35 0 67 10.5t57 31t39.5 49.5t14.5 65v174zM455 0v90q-26 -49 -73 -75.5t-110 -26.5q-56 0 -99.5 20.5t-73.5 56t-46 82.5
t-16 101q0 56 15 106.5t46 89t76.5 61t107.5 22.5q54 0 100.5 -23.5t72.5 -68.5v285h42v-720h-42z" />
    <glyph glyph-name="e" unicode="e" horiz-adv-x="524" 
d="M442 370q-14 57 -56.5 89t-102.5 32q-53 0 -91 -19.5t-62.5 -52t-37 -75t-12.5 -89.5v-17l362 132v0zM487 179q-9 -90 -67.5 -140.5t-147.5 -50.5q-56 0 -99.5 21t-73.5 56.5t-46 82.5t-16 100q0 57 15.5 107.5t46 88.5t76.5 60.5t107 22.5q40 0 75 -12t62.5 -34
t45 -54.5t22.5 -72.5l-405 -148q5 -38 19.5 -71t38 -58t57 -39.5t75.5 -14.5q35 0 65.5 11t54 31.5t37.5 49t17 64.5h41v0z" />
    <glyph glyph-name="f" unicode="f" horiz-adv-x="150" 
d="M208 693q-5 2 -17 2.5t-27 0.5q-12 0 -24.5 -2t-22 -9.5t-15.5 -23.5t-6 -43v-103h54v-35h-54v-480h-42v480h-54v33h54v116q0 31 7.5 51t21 32t30.5 16.5t37 4.5q24 0 35.5 -1.5t22.5 -2.5v-36v0z" />
    <glyph glyph-name="g" unicode="g" horiz-adv-x="544" 
d="M455 353q0 29 -15 54.5t-39 44t-54 29t-60 10.5q-58 0 -98 -21.5t-64.5 -56.5t-35 -78.5t-10.5 -86.5q0 -45 12.5 -86t37.5 -72t62 -49t86 -18q35 0 67 10.5t57 31t39.5 49.5t14.5 65v174zM497 -12q0 -102 -54.5 -156.5t-166.5 -54.5q-40 0 -76 9t-64 28.5t-45.5 50.5
t-19.5 75h42q1 -35 15 -59.5t35.5 -40.5t50 -23.5t60.5 -7.5q88 0 134.5 45t46.5 133v103q-26 -49 -73 -75.5t-110 -26.5q-56 0 -99.5 20.5t-73.5 56t-46 82.5t-16 101q0 56 15 106.5t46 89t76.5 61t107.5 22.5q54 0 100.5 -23.5t72.5 -68.5v80h42v-527v0z" />
    <glyph glyph-name="h" unicode="h" horiz-adv-x="517" 
d="M421 0v330q0 72 -38.5 116t-112.5 44q-43 0 -75.5 -16.5t-54.5 -44.5t-33 -64t-11 -76v-289h-42v720h42v-324q20 65 69 98t115 33q85 0 134 -49.5t49 -134.5v-343h-42z" />
    <glyph glyph-name="i" unicode="i" horiz-adv-x="150" 
d="M54 0v515h42v-515h-42zM113 701q0 -16 -11.5 -26t-26.5 -10t-26.5 10t-11.5 26t11.5 26t26.5 10t26.5 -10t11.5 -26z" />
    <glyph glyph-name="j" unicode="j" horiz-adv-x="150" 
d="M96 -12q0 -102 -54.5 -156.5t-166.5 -54.5q-40 0 -76 9t-64 28.5t-45.5 50.5t-19.5 75h42q2 -35 15.5 -59.5t35.5 -40.5t50.5 -23.5t60.5 -7.5q88 0 134 45t46 133v528h42v-527v0zM113 701q0 -16 -11.5 -26t-26.5 -10t-26.5 10t-11.5 26t11.5 26t26.5 10t26.5 -10
t11.5 -26z" />
    <glyph glyph-name="k" unicode="k" horiz-adv-x="312" 
d="M264 0l-168 223v-223h-42v720h42v-428l168 223h48l-191 -258l191 -257h-48z" />
    <glyph glyph-name="l" unicode="l" horiz-adv-x="150" 
d="M54 0v720h42v-720h-42z" />
    <glyph glyph-name="m" unicode="m" horiz-adv-x="883" 
d="M787 0v330q0 72 -38 116t-113 44q-43 0 -75.5 -16.5t-54 -44.5t-32.5 -64t-11 -76v-289h-42v330q0 72 -38 116t-113 44q-43 0 -75.5 -16.5t-54.5 -44.5t-33 -64t-11 -76v-289h-42v515h42v-119q20 65 69 98t115 33q74 0 121 -38.5t58 -105.5q18 72 66 108t122 36
q85 0 133.5 -49.5t48.5 -134.5v-343h-42z" />
    <glyph glyph-name="n" unicode="n" horiz-adv-x="517" 
d="M421 0v330q0 72 -38.5 116t-112.5 44q-43 0 -75.5 -16.5t-54.5 -44.5t-33 -64t-11 -76v-289h-42v515h42v-119q20 65 69 98t115 33q85 0 134 -49.5t49 -134.5v-343h-42z" />
    <glyph glyph-name="o" unicode="o" horiz-adv-x="550" 
d="M471 257q0 45 -12.5 87t-37 74.5t-61 52.5t-85.5 20t-86 -20t-61.5 -52.5t-36.5 -74.5t-12 -87t12 -87t36.5 -75t61.5 -52.5t86 -19.5t85.5 19.5t61 52.5t37 75t12.5 87zM513 257q0 -53 -15.5 -101.5t-45.5 -86t-74.5 -59.5t-102.5 -22q-59 0 -103.5 22t-74.5 59.5
t-45 86t-15 101.5t15 101.5t45 86t74.5 60t103.5 22.5q58 0 102.5 -22.5t74.5 -60t45.5 -86t15.5 -101.5z" />
    <glyph glyph-name="p" unicode="p" horiz-adv-x="551" 
d="M472 248q0 43 -10.5 86.5t-35 78.5t-64.5 56.5t-98 21.5q-30 0 -60 -10.5t-54 -29t-39 -43.5t-15 -54v-175q0 -36 14.5 -65t39.5 -49.5t57 -31t67 -10.5q49 0 86 18t62 49t37.5 72t12.5 86zM514 248q0 -54 -16 -101t-46 -82.5t-74 -56t-99 -20.5q-63 0 -110 26.5
t-73 75.5v-296h-42v721h42v-80q26 45 72.5 68.5t100.5 23.5q61 0 107 -22.5t77 -60.5t46 -88.5t15 -107.5z" />
    <glyph glyph-name="q" unicode="q" horiz-adv-x="551" 
d="M455 353q0 29 -15 54.5t-39 44t-54 29t-60 10.5q-58 0 -98 -21.5t-64.5 -56.5t-35 -78.5t-10.5 -86.5q0 -45 12.5 -86t37.5 -72t62 -49t86 -18q35 0 67 10.5t57 31t39.5 49.5t14.5 65v174zM455 -206v296q-26 -49 -73 -75.5t-110 -26.5q-56 0 -99.5 20.5t-73.5 56
t-46 82.5t-16 101q0 56 15 106.5t46 89t76.5 61t107.5 22.5q54 0 100.5 -23.5t72.5 -68.5v80h42v-721h-42z" />
    <glyph glyph-name="r" unicode="r" horiz-adv-x="299" 
d="M270 490q-43 0 -75.5 -16.5t-54.5 -44.5t-33 -64t-11 -76v-289h-42v515h42v-119q20 65 69 98t115 33h9.5t9.5 -1z" />
    <glyph glyph-name="s" unicode="s" horiz-adv-x="451" 
d="M428 136q0 -41 -17.5 -69t-45.5 -45.5t-63 -25.5t-70 -8q-100 0 -157 45t-57 142h41q0 -79 46 -116.5t128 -37.5q25 0 52.5 6t50 19t37 34t14.5 51q0 31 -14 50.5t-37 32t-54 20t-64 15.5q-35 8 -67.5 16.5t-58 23.5t-40.5 39.5t-15 64.5q0 25 11 49t33.5 43t57 30.5
t81.5 11.5q43 0 78.5 -9.5t61 -29t40 -51t14.5 -74.5h-40q0 70 -43 101.5t-110 31.5q-49 0 -77.5 -13t-43 -30t-18.5 -34t-4 -24q0 -35 19.5 -55.5t48.5 -32.5t62 -18.5t60 -13.5q29 -8 58 -17t51.5 -24t36.5 -38.5t14 -59.5z" />
    <glyph glyph-name="t" unicode="t" horiz-adv-x="150" 
d="M96 482v-482h-42v482h-54v33h54v132l42 46v-178h54v-33h-54z" />
    <glyph glyph-name="u" unicode="u" horiz-adv-x="517" 
d="M421 0v118q-20 -65 -69 -97.5t-116 -32.5q-85 0 -133.5 49.5t-48.5 134.5v343h42v-330q0 -72 38 -116t113 -44q43 0 75.5 16.5t54 44t32.5 64t11 76.5v289h43v-515h-42z" />
    <glyph glyph-name="v" unicode="v" horiz-adv-x="415" 
d="M231 0h-46l-185 515h46l162 -448l162 448h45z" />
    <glyph glyph-name="w" unicode="w" horiz-adv-x="883" 
d="M787 0v118q-19 -65 -68.5 -97.5t-115.5 -32.5q-74 0 -121 38.5t-58 104.5q-17 -71 -65.5 -107t-122.5 -36q-85 0 -133.5 49.5t-48.5 134.5v343h42v-330q0 -72 38 -116t113 -44q43 0 75.5 16.5t54 44t32.5 64t11 76.5v289h43v-330q0 -72 38 -116t112 -44q43 0 76 16.5
t54.5 44t32.5 64t11 76.5v289h42v-515h-42z" />
    <glyph glyph-name="x" unicode="x" horiz-adv-x="432" 
d="M383 0l-167 223l-167 -223h-49l192 257l-192 258h49l167 -223l167 223h49l-192 -258l192 -257h-49z" />
    <glyph glyph-name="y" unicode="y" horiz-adv-x="517" 
d="M463 -12q0 -102 -55 -156.5t-166 -54.5q-40 0 -76.5 9t-64.5 28.5t-45.5 50.5t-19.5 75h42q2 -35 15.5 -59.5t35.5 -40.5t50.5 -23.5t60.5 -7.5q88 0 134.5 45t46.5 133v131q-20 -65 -69 -97.5t-116 -32.5q-85 0 -133.5 49.5t-48.5 134.5v343h42v-330q0 -72 38 -116
t113 -44q43 0 75.5 16.5t54 44t32.5 64t11 76.5v289h43v-527v0z" />
    <glyph glyph-name="z" unicode="z" horiz-adv-x="426" 
d="M426 90q0 -18 -4.5 -34.5t-16 -29t-30.5 -19.5t-47 -7h-322v41l346 438h-319v36h369v-41l-345 -439h261q27 0 42 6t22.5 15.5t9.5 21t2 23.5l32 -11v0z" />
    <glyph glyph-name="braceleft" unicode="{" horiz-adv-x="303" 
d="M200 -206q-44 0 -62.5 28t-18.5 85v175q0 58 -15.5 96t-58.5 63v37q16 2 29 15.5t23 34.5t15.5 47.5t5.5 55.5v178q0 57 19 84t63 27h58v-37h-46q-30 0 -42.5 -22t-12.5 -79v-171q0 -23 -5 -47t-14.5 -45t-24.5 -37.5t-34 -23.5q35 -14 56.5 -56.5t21.5 -99.5v-168
q0 -62 13.5 -82.5t42.5 -20.5h45v-37h-58z" />
    <glyph glyph-name="bar" unicode="|" horiz-adv-x="145" 
d="M54 0v720h37v-720h-37z" />
    <glyph glyph-name="braceright" unicode="}" horiz-adv-x="303" 
d="M258 241q-43 -25 -58 -63t-15 -96v-175q0 -57 -19 -85t-63 -28h-58v37h45q29 0 42.5 20.5t13.5 82.5v168q0 57 21.5 99.5t56.5 56.5q-20 7 -34.5 23.5t-24 37.5t-14.5 45t-5 47v171q0 57 -12.5 79t-42.5 22h-46v37h58q44 0 63 -27t19 -84v-178q0 -29 5.5 -55.5t15 -47.5
t23 -34.5t29.5 -15.5v-37v0z" />
    <glyph glyph-name="asciitilde" unicode="~" horiz-adv-x="522" 
d="M485 393q-10 -16 -21 -31.5t-24.5 -27.5t-29.5 -19.5t-36 -7.5q-25 0 -48.5 10t-49.5 22q-26 11 -54 24t-67 13q-34 0 -56.5 -21t-39.5 -52l-22 23q19 35 47 60.5t72 26.5q27 0 57 -10.5t59 -23.5q30 -13 56.5 -24t46.5 -11q15 0 27.5 6.5t23 16.5t19.5 23l18 26l22 -23
v0z" />
    <glyph glyph-name="Adieresis" unicode="&#xc4;" 
d="M413 512q0 43 -8 77.5t-26 58.5t-48 37t-75 13t-75 -13t-48.5 -37t-26 -58.5t-7.5 -77.5v-133h314v133zM413 0v341h-314v-341h-45v534q0 99 51 151t151 52t151 -52.5t51 -150.5v-534h-45zM212 812q0 -15 -11.5 -25.5t-26.5 -10.5t-26.5 10.5t-11.5 25.5q0 16 11.5 26
t26.5 10t26.5 -10t11.5 -26zM381 812q0 -15 -11.5 -25.5t-26.5 -10.5t-26.5 10.5t-11.5 25.5q0 16 11.5 26t26.5 10t26.5 -10t11.5 -26z" />
    <glyph glyph-name="Aring" unicode="&#xc5;" 
d="M413 512q0 43 -8 77.5t-26 58.5t-48 37t-75 13t-75 -13t-48.5 -37t-26 -58.5t-7.5 -77.5v-133h314v133zM322 833q0 27 -19.5 46.5t-46.5 19.5t-46.5 -19.5t-19.5 -46.5t19.5 -46.5t46.5 -19.5t46.5 19.5t19.5 46.5zM413 0v341h-314v-341h-45v534q0 99 51 151t151 52
t151 -52.5t51 -150.5v-534h-45zM347 833q0 -38 -26.5 -64.5t-64.5 -26.5q-18 0 -34.5 7t-29 19.5t-20 29t-7.5 35.5q0 18 7.5 34.5t20 29t29 20t34.5 7.5t34.5 -7.5t29 -20t20 -29t7.5 -34.5z" />
    <glyph glyph-name="Ccedilla" unicode="&#xc7;" horiz-adv-x="710" 
d="M673 280q-8 -63 -30.5 -116t-59.5 -92.5t-88.5 -63t-116.5 -25.5l-29 -40q7 1 14 3.5t20 2.5q31 0 55 -14t24 -49q0 -23 -8.5 -37.5t-23 -22.5t-33 -11.5t-37.5 -3.5q-29 0 -51 6.5t-39 11.5l11 23q18 -6 36.5 -11.5t38.5 -5.5q13 0 26.5 2.5t24 8.5t17 15.5t6.5 24.5
q0 10 -5.5 17.5t-13.5 12.5t-17.5 7.5t-16.5 2.5q-32 0 -52 -13l-17 12l45 58q-76 3 -135 34.5t-99 82.5t-61 117t-21 138q0 77 22 146t65 121.5t106 83.5t146 31q51 0 102.5 -16.5t93.5 -47.5t70 -75t31 -99h-44q-5 46 -29 83t-59.5 62.5t-78.5 39t-86 13.5
q-72 0 -127 -28.5t-92 -76.5t-56 -109.5t-19 -127.5q0 -63 18 -123t54 -106.5t88.5 -74.5t121.5 -28q59 0 105 19.5t79 53.5t53 81t28 103h44v0z" />
    <glyph glyph-name="Eacute" unicode="&#xc9;" horiz-adv-x="520" 
d="M54 0v720h408v-40h-363v-301h335v-38h-335v-301h368v-40h-413zM241 765h-30l128 145h51z" />
    <glyph glyph-name="Ntilde" unicode="&#xd1;" 
d="M413 0v512q0 43 -8 77.5t-26 58.5t-48 37t-75 13t-75 -13t-48.5 -37t-26 -58.5t-7.5 -77.5v-512h-45v534q0 99 51 151t151 52t151 -52.5t51 -150.5v-534h-45zM421 863q0 -33 -18.5 -58t-56.5 -25q-20 0 -36.5 8.5t-32 19t-30.5 19t-31 8.5q-21 0 -34 -19.5t-14 -37.5h-27
q0 15 5.5 30.5t15.5 28t23.5 20.5t28.5 8q18 0 35.5 -9t34 -19.5t32 -19t29.5 -8.5q22 0 34.5 16t13.5 38h28v0z" />
    <glyph glyph-name="Odieresis" unicode="&#xd6;" horiz-adv-x="740" 
d="M658 360q0 66 -18 127t-54 107.5t-90 74.5t-126 28t-126 -28t-90 -74.5t-54 -107.5t-18 -127t18 -127t54 -107.5t90 -74.5t126 -28t126 28t90 74.5t54 107.5t18 127zM703 360q0 -76 -21.5 -144.5t-63.5 -120t-104.5 -82t-143.5 -30.5t-143 30.5t-104.5 82t-64 120
t-21.5 144.5t21.5 144t64 120t104.5 82.5t143 30.5t143.5 -30.5t104.5 -82.5t63.5 -120t21.5 -144zM319 812q0 -15 -11.5 -25.5t-26.5 -10.5t-26.5 10.5t-11.5 25.5q0 16 11.5 26t26.5 10t26.5 -10t11.5 -26zM488 812q0 -15 -11.5 -25.5t-26.5 -10.5t-26.5 10.5t-11.5 25.5
q0 16 11.5 26t26.5 10t26.5 -10t11.5 -26z" />
    <glyph glyph-name="Udieresis" unicode="&#xdc;" 
d="M458 186q0 -99 -51 -151t-151 -52t-151 52.5t-51 150.5v534h45v-512q0 -44 8 -78.5t26 -58.5t48 -36.5t75 -12.5t75 13t48.5 37t26 58.5t7.5 77.5v512h45v-534v0zM218 812q0 -15 -12 -25.5t-27 -10.5t-26.5 10.5t-11.5 25.5q0 16 11.5 26t26.5 10t27 -10t12 -26zM386 812
q0 -15 -11.5 -25.5t-26.5 -10.5t-26.5 10.5t-11.5 25.5q0 16 11.5 26t26.5 10t26.5 -10t11.5 -26z" />
    <glyph glyph-name="aacute" unicode="&#xe1;" horiz-adv-x="551" 
d="M455 353q0 29 -15 54.5t-39 44t-54 29t-60 10.5q-58 0 -98 -21.5t-64.5 -56.5t-35 -78.5t-10.5 -86.5q0 -45 12.5 -86t37.5 -72t62 -49t86 -18q35 0 67 10.5t57 31t39.5 49.5t14.5 65v174zM455 0v90q-26 -49 -73 -75.5t-110 -26.5q-56 0 -99.5 20.5t-73.5 56t-46 82.5
t-16 101q0 56 15 106.5t46 89t76.5 61t107.5 22.5q54 0 100.5 -23.5t72.5 -68.5v80h42v-515h-42zM218 565h-30l128 145h52z" />
    <glyph glyph-name="agrave" unicode="&#xe0;" horiz-adv-x="551" 
d="M455 353q0 29 -15 54.5t-39 44t-54 29t-60 10.5q-58 0 -98 -21.5t-64.5 -56.5t-35 -78.5t-10.5 -86.5q0 -45 12.5 -86t37.5 -72t62 -49t86 -18q35 0 67 10.5t57 31t39.5 49.5t14.5 65v174zM455 0v90q-26 -49 -73 -75.5t-110 -26.5q-56 0 -99.5 20.5t-73.5 56t-46 82.5
t-16 101q0 56 15 106.5t46 89t76.5 61t107.5 22.5q54 0 100.5 -23.5t72.5 -68.5v80h42v-515h-42zM326 565l-143 145h52l122 -144z" />
    <glyph glyph-name="acircumflex" unicode="&#xe2;" horiz-adv-x="551" 
d="M455 353q0 29 -15 54.5t-39 44t-54 29t-60 10.5q-58 0 -98 -21.5t-64.5 -56.5t-35 -78.5t-10.5 -86.5q0 -45 12.5 -86t37.5 -72t62 -49t86 -18q35 0 67 10.5t57 31t39.5 49.5t14.5 65v174zM455 0v90q-26 -49 -73 -75.5t-110 -26.5q-56 0 -99.5 20.5t-73.5 56t-46 82.5
t-16 101q0 56 15 106.5t46 89t76.5 61t107.5 22.5q54 0 100.5 -23.5t72.5 -68.5v80h42v-515h-42zM373 570l-97 117l-93 -117h-36l114 140h33l115 -140h-36z" />
    <glyph glyph-name="adieresis" unicode="&#xe4;" horiz-adv-x="551" 
d="M455 353q0 29 -15 54.5t-39 44t-54 29t-60 10.5q-58 0 -98 -21.5t-64.5 -56.5t-35 -78.5t-10.5 -86.5q0 -45 12.5 -86t37.5 -72t62 -49t86 -18q35 0 67 10.5t57 31t39.5 49.5t14.5 65v174zM455 0v90q-26 -49 -73 -75.5t-110 -26.5q-56 0 -99.5 20.5t-73.5 56t-46 82.5
t-16 101q0 56 15 106.5t46 89t76.5 61t107.5 22.5q54 0 100.5 -23.5t72.5 -68.5v80h42v-515h-42zM245 613q0 -16 -11.5 -26t-26.5 -10t-26.5 10t-11.5 26t11.5 26t26.5 10t26.5 -10t11.5 -26zM414 613q0 -16 -11.5 -26t-26.5 -10t-26.5 10t-11.5 26t11.5 26t26.5 10
t26.5 -10t11.5 -26z" />
    <glyph glyph-name="atilde" unicode="&#xe3;" horiz-adv-x="551" 
d="M455 353q0 29 -15 54.5t-39 44t-54 29t-60 10.5q-58 0 -98 -21.5t-64.5 -56.5t-35 -78.5t-10.5 -86.5q0 -45 12.5 -86t37.5 -72t62 -49t86 -18q35 0 67 10.5t57 31t39.5 49.5t14.5 65v174zM455 0v90q-26 -49 -73 -75.5t-110 -26.5q-56 0 -99.5 20.5t-73.5 56t-46 82.5
t-16 101q0 56 15 106.5t46 89t76.5 61t107.5 22.5q54 0 100.5 -23.5t72.5 -68.5v80h42v-515h-42zM431 663q0 -32 -18.5 -57.5t-55.5 -25.5q-20 0 -36.5 8.5t-32 19t-31 19.5t-31.5 9q-10 0 -18.5 -5.5t-15 -14t-10 -18.5t-3.5 -19h-27q0 15 5.5 30t15.5 28t23.5 21t28.5 8
q18 0 35.5 -9t34 -19.5t31.5 -19t29 -8.5q23 0 35.5 15.5t13.5 37.5h28h-1z" />
    <glyph glyph-name="aring" unicode="&#xe5;" horiz-adv-x="551" 
d="M455 353q0 29 -15 54.5t-39 44t-54 29t-60 10.5q-58 0 -98 -21.5t-64.5 -56.5t-35 -78.5t-10.5 -86.5q0 -45 12.5 -86t37.5 -72t62 -49t86 -18q35 0 67 10.5t57 31t39.5 49.5t14.5 65v174zM352 673q0 27 -20 46.5t-46 19.5q-27 0 -47 -19.5t-20 -46.5t20 -46.5t47 -19.5
q26 0 46 19.5t20 46.5zM455 0v90q-26 -49 -73 -75.5t-110 -26.5q-56 0 -99.5 20.5t-73.5 56t-46 82.5t-16 101q0 56 15 106.5t46 89t76.5 61t107.5 22.5q54 0 100.5 -23.5t72.5 -68.5v80h42v-515h-42zM377 673q0 -19 -7.5 -35.5t-20 -29t-29 -19.5t-34.5 -7t-35 7
t-29.5 19.5t-20 29t-7.5 35.5q0 18 7.5 34.5t20 29t29.5 20t35 7.5t34.5 -7.5t29 -20t20 -29t7.5 -34.5z" />
    <glyph glyph-name="ccedilla" unicode="&#xe7;" horiz-adv-x="524" 
d="M487 179q-8 -87 -63.5 -137t-140.5 -54l-32 -45q7 1 14 3.5t20 2.5q31 0 55 -14t24 -49q0 -23 -8.5 -37.5t-23 -22.5t-33 -11.5t-37.5 -3.5q-29 0 -51 6.5t-39 11.5l11 23q18 -6 36.5 -11.5t38.5 -5.5q13 0 26.5 2.5t24 8.5t17 15.5t6.5 24.5q0 10 -5.5 17.5t-13.5 12.5
t-17.5 7.5t-16.5 2.5q-32 0 -52 -13l-17 12l48 63q-53 3 -94 24.5t-69.5 56.5t-43 81.5t-14.5 97.5q0 57 15.5 107.5t46 88.5t76.5 60.5t107 22.5q40 0 75 -12t62.5 -34.5t45 -54.5t22.5 -73h-41q-10 66 -54 102t-109 36q-54 0 -92.5 -20t-63 -53.5t-36.5 -77.5t-12 -92
q0 -44 12 -85t36.5 -72t60.5 -49.5t84 -18.5q35 0 65.5 11t54 31.5t37.5 49t17 64.5h41v0z" />
    <glyph glyph-name="eacute" unicode="&#xe9;" horiz-adv-x="517" 
d="M442 370q-14 57 -56.5 89t-102.5 32q-53 0 -91 -19.5t-62.5 -52t-37 -75t-12.5 -89.5v-17l362 132v0zM487 179q-9 -90 -67.5 -140.5t-147.5 -50.5q-56 0 -99.5 21t-73.5 56.5t-46 82.5t-16 100q0 57 15.5 107.5t46 88.5t76.5 60.5t107 22.5q40 0 75 -12t62.5 -34
t45 -54.5t22.5 -72.5l-405 -148q5 -38 19.5 -71t38 -58t57 -39.5t75.5 -14.5q35 0 65.5 11t54 31.5t37.5 49t17 64.5h41v0zM221 565h-30l128 145h51z" />
    <glyph glyph-name="egrave" unicode="&#xe8;" horiz-adv-x="517" 
d="M442 370q-14 57 -56.5 89t-102.5 32q-53 0 -91 -19.5t-62.5 -52t-37 -75t-12.5 -89.5v-17l362 132v0zM487 179q-9 -90 -67.5 -140.5t-147.5 -50.5q-56 0 -99.5 21t-73.5 56.5t-46 82.5t-16 100q0 57 15.5 107.5t46 88.5t76.5 60.5t107 22.5q40 0 75 -12t62.5 -34
t45 -54.5t22.5 -72.5l-405 -148q5 -38 19.5 -71t38 -58t57 -39.5t75.5 -14.5q35 0 65.5 11t54 31.5t37.5 49t17 64.5h41v0zM333 565l-143 145h51l122 -144z" />
    <glyph glyph-name="ecircumflex" unicode="&#xea;" horiz-adv-x="517" 
d="M442 370q-14 57 -56.5 89t-102.5 32q-53 0 -91 -19.5t-62.5 -52t-37 -75t-12.5 -89.5v-17l362 132v0zM487 179q-9 -90 -67.5 -140.5t-147.5 -50.5q-56 0 -99.5 21t-73.5 56.5t-46 82.5t-16 100q0 57 15.5 107.5t46 88.5t76.5 60.5t107 22.5q40 0 75 -12t62.5 -34
t45 -54.5t22.5 -72.5l-405 -148q5 -38 19.5 -71t38 -58t57 -39.5t75.5 -14.5q35 0 65.5 11t54 31.5t37.5 49t17 64.5h41v0zM380 570l-97 117l-94 -117h-36l114 140h34l115 -140h-36z" />
    <glyph glyph-name="edieresis" unicode="&#xeb;" horiz-adv-x="517" 
d="M442 370q-14 57 -56.5 89t-102.5 32q-53 0 -91 -19.5t-62.5 -52t-37 -75t-12.5 -89.5v-17l362 132v0zM487 179q-9 -90 -67.5 -140.5t-147.5 -50.5q-56 0 -99.5 21t-73.5 56.5t-46 82.5t-16 100q0 57 15.5 107.5t46 88.5t76.5 60.5t107 22.5q40 0 75 -12t62.5 -34
t45 -54.5t22.5 -72.5l-405 -148q5 -38 19.5 -71t38 -58t57 -39.5t75.5 -14.5q35 0 65.5 11t54 31.5t37.5 49t17 64.5h41v0zM239 613q0 -16 -11.5 -26t-26.5 -10t-26.5 10t-11.5 26t11.5 26t26.5 10t26.5 -10t11.5 -26zM408 613q0 -16 -11.5 -26t-26.5 -10t-26.5 10t-11.5 26
t11.5 26t26.5 10t26.5 -10t11.5 -26z" />
    <glyph glyph-name="iacute" unicode="&#xed;" horiz-adv-x="150" 
d="M54 0v515h42v-515h-42zM22 565h-30l128 145h51z" />
    <glyph glyph-name="igrave" unicode="&#xec;" horiz-adv-x="150" 
d="M54 0v515h42v-515h-42zM135 565l-143 145h51l122 -144z" />
    <glyph glyph-name="icircumflex" unicode="&#xee;" horiz-adv-x="150" 
d="M54 0v515h42v-515h-42zM172 570l-97 117l-94 -117h-36l114 140h34l115 -140h-36z" />
    <glyph glyph-name="idieresis" unicode="&#xef;" horiz-adv-x="150" 
d="M54 0v515h42v-515h-42zM31 613q0 -16 -11.5 -26t-26.5 -10t-26.5 10t-11.5 26t11.5 26t26.5 10t26.5 -10t11.5 -26zM200 613q0 -16 -11.5 -26t-26.5 -10t-26.5 10t-11.5 26t11.5 26t26.5 10t26.5 -10t11.5 -26z" />
    <glyph glyph-name="ntilde" unicode="&#xf1;" horiz-adv-x="517" 
d="M421 0v330q0 72 -38.5 116t-112.5 44q-43 0 -75.5 -16.5t-54.5 -44.5t-33 -64t-11 -76v-289h-42v515h42v-119q20 65 69 98t115 33q85 0 134 -49.5t49 -134.5v-343h-42zM417 663q-1 -32 -19.5 -57.5t-55.5 -25.5q-20 0 -36.5 8.5t-32 19t-31 19.5t-31.5 9
q-10 0 -18.5 -5.5t-14.5 -14t-10 -18.5t-4 -19h-27q0 15 5.5 30t15.5 28t23.5 21t28.5 8q18 0 35.5 -9t34 -19.5t31.5 -19t29 -8.5q23 0 35.5 15.5t13.5 37.5h28v0z" />
    <glyph glyph-name="oacute" unicode="&#xf3;" horiz-adv-x="550" 
d="M471 257q0 45 -12.5 87t-37 74.5t-61 52.5t-85.5 20t-86 -20t-61.5 -52.5t-36.5 -74.5t-12 -87t12 -87t36.5 -75t61.5 -52.5t86 -19.5t85.5 19.5t61 52.5t37 75t12.5 87zM513 257q0 -53 -15.5 -101.5t-45.5 -86t-74.5 -59.5t-102.5 -22q-59 0 -103.5 22t-74.5 59.5
t-45 86t-15 101.5t15 101.5t45 86t74.5 60t103.5 22.5q58 0 102.5 -22.5t74.5 -60t45.5 -86t15.5 -101.5zM232 565h-30l128 145h52z" />
    <glyph glyph-name="ograve" unicode="&#xf2;" horiz-adv-x="550" 
d="M471 257q0 45 -12.5 87t-37 74.5t-61 52.5t-85.5 20t-86 -20t-61.5 -52.5t-36.5 -74.5t-12 -87t12 -87t36.5 -75t61.5 -52.5t86 -19.5t85.5 19.5t61 52.5t37 75t12.5 87zM513 257q0 -53 -15.5 -101.5t-45.5 -86t-74.5 -59.5t-102.5 -22q-59 0 -103.5 22t-74.5 59.5
t-45 86t-15 101.5t15 101.5t45 86t74.5 60t103.5 22.5q58 0 102.5 -22.5t74.5 -60t45.5 -86t15.5 -101.5zM325 565l-143 145h52l122 -144z" />
    <glyph glyph-name="ocircumflex" unicode="&#xf4;" horiz-adv-x="550" 
d="M471 257q0 45 -12.5 87t-37 74.5t-61 52.5t-85.5 20t-86 -20t-61.5 -52.5t-36.5 -74.5t-12 -87t12 -87t36.5 -75t61.5 -52.5t86 -19.5t85.5 19.5t61 52.5t37 75t12.5 87zM513 257q0 -53 -15.5 -101.5t-45.5 -86t-74.5 -59.5t-102.5 -22q-59 0 -103.5 22t-74.5 59.5
t-45 86t-15 101.5t15 101.5t45 86t74.5 60t103.5 22.5q58 0 102.5 -22.5t74.5 -60t45.5 -86t15.5 -101.5zM371 570l-97 117l-94 -117h-36l114 140h34l115 -140h-36z" />
    <glyph glyph-name="odieresis" unicode="&#xf6;" horiz-adv-x="550" 
d="M471 257q0 45 -12.5 87t-37 74.5t-61 52.5t-85.5 20t-86 -20t-61.5 -52.5t-36.5 -74.5t-12 -87t12 -87t36.5 -75t61.5 -52.5t86 -19.5t85.5 19.5t61 52.5t37 75t12.5 87zM513 257q0 -53 -15.5 -101.5t-45.5 -86t-74.5 -59.5t-102.5 -22q-59 0 -103.5 22t-74.5 59.5
t-45 86t-15 101.5t15 101.5t45 86t74.5 60t103.5 22.5q58 0 102.5 -22.5t74.5 -60t45.5 -86t15.5 -101.5zM230 613q0 -16 -11.5 -26t-26.5 -10t-26.5 10t-11.5 26t11.5 26t26.5 10t26.5 -10t11.5 -26zM399 613q0 -16 -11.5 -26t-26.5 -10t-26.5 10t-11.5 26t11.5 26t26.5 10
t26.5 -10t11.5 -26z" />
    <glyph glyph-name="otilde" unicode="&#xf5;" horiz-adv-x="550" 
d="M471 257q0 45 -12.5 87t-37 74.5t-61 52.5t-85.5 20t-86 -20t-61.5 -52.5t-36.5 -74.5t-12 -87t12 -87t36.5 -75t61.5 -52.5t86 -19.5t85.5 19.5t61 52.5t37 75t12.5 87zM513 257q0 -53 -15.5 -101.5t-45.5 -86t-74.5 -59.5t-102.5 -22q-59 0 -103.5 22t-74.5 59.5
t-45 86t-15 101.5t15 101.5t45 86t74.5 60t103.5 22.5q58 0 102.5 -22.5t74.5 -60t45.5 -86t15.5 -101.5zM415 663q0 -32 -18.5 -57.5t-55.5 -25.5q-20 0 -36.5 8.5t-32 19t-31 19.5t-31.5 9q-10 0 -18.5 -5.5t-15 -14t-10 -18.5t-3.5 -19h-27q0 15 5.5 30t15.5 28t23.5 21
t28.5 8q18 0 35.5 -9t34 -19.5t31.5 -19t29 -8.5q23 0 35.5 15.5t13.5 37.5h28h-1z" />
    <glyph glyph-name="uacute" unicode="&#xfa;" horiz-adv-x="517" 
d="M421 0v118q-20 -65 -69 -97.5t-116 -32.5q-85 0 -133.5 49.5t-48.5 134.5v343h42v-330q0 -72 38 -116t113 -44q43 0 75.5 16.5t54 44t32.5 64t11 76.5v289h43v-515h-42zM206 565h-30l128 145h51z" />
    <glyph glyph-name="ugrave" unicode="&#xf9;" horiz-adv-x="517" 
d="M421 0v118q-20 -65 -69 -97.5t-116 -32.5q-85 0 -133.5 49.5t-48.5 134.5v343h42v-330q0 -72 38 -116t113 -44q43 0 75.5 16.5t54 44t32.5 64t11 76.5v289h43v-515h-42zM299 565l-143 145h51l122 -144z" />
    <glyph glyph-name="ucircumflex" unicode="&#xfb;" horiz-adv-x="517" 
d="M421 0v118q-20 -65 -69 -97.5t-116 -32.5q-85 0 -133.5 49.5t-48.5 134.5v343h42v-330q0 -72 38 -116t113 -44q43 0 75.5 16.5t54 44t32.5 64t11 76.5v289h43v-515h-42zM354 570l-97 117l-94 -117h-36l114 140h34l115 -140h-36z" />
    <glyph glyph-name="udieresis" unicode="&#xfc;" horiz-adv-x="517" 
d="M421 0v118q-20 -65 -69 -97.5t-116 -32.5q-85 0 -133.5 49.5t-48.5 134.5v343h42v-330q0 -72 38 -116t113 -44q43 0 75.5 16.5t54 44t32.5 64t11 76.5v289h43v-515h-42zM214 613q0 -16 -11.5 -26t-26.5 -10t-26.5 10t-11.5 26t11.5 26t26.5 10t26.5 -10t11.5 -26z
M383 613q0 -16 -11.5 -26t-26.5 -10t-26.5 10t-11.5 26t11.5 26t26.5 10t26.5 -10t11.5 -26z" />
    <glyph glyph-name="dagger" unicode="&#x2020;" horiz-adv-x="540" 
d="M291 441l6 -647h-54l6 647l-204 -6v49l204 -6l-6 242h54l-6 -242l204 6v-49z" />
    <glyph glyph-name="degree" unicode="&#xb0;" horiz-adv-x="362" 
d="M297 588q0 24 -8.5 45t-24 37t-37 25.5t-46.5 9.5q-24 0 -45 -9.5t-37 -26t-25.5 -37.5t-9.5 -44q0 -26 9.5 -47.5t25.5 -37t37 -24.5t45 -9q25 0 46 9t36.5 25t24.5 37.5t9 46.5zM325 588q0 -30 -11 -56.5t-30.5 -46t-46 -31t-56.5 -11.5t-56.5 11t-46 30.5t-30.5 46
t-11 57.5q0 30 11 56t30.5 45.5t46 31t56.5 11.5t56 -11.5t45.5 -31t31 -45.5t11.5 -56z" />
    <glyph glyph-name="cent" unicode="&#xa2;" horiz-adv-x="524" 
d="M488 282q-8 -84 -60 -134t-132 -56v-92h-32v91q-54 1 -96 22.5t-71 57t-44 82t-15 97.5q0 54 14 103t42.5 87t70.5 61.5t99 26.5v92h32v-91q37 -2 70.5 -14.5t59 -34.5t42 -53.5t20.5 -70.5h-41q-10 65 -54 101.5t-109 36.5q-54 0 -92 -20t-63 -54t-36.5 -78t-11.5 -92
q0 -44 12 -84.5t36 -71.5t60.5 -49.5t84.5 -18.5q35 0 65.5 11t53.5 31.5t37 49t17 64.5h41v0z" />
    <glyph glyph-name="sterling" unicode="&#xa3;" horiz-adv-x="540" 
d="M543 71q-35 -39 -74 -63.5t-93 -24.5q-24 0 -47.5 7t-46.5 15.5t-46 16t-46 8.5q-39 2 -72 -10.5t-64 -36.5l-26 31q22 19 43.5 41t37.5 47t26 53t10 59q0 30 -6.5 63.5t-21.5 59.5h-82v34h67q-10 19 -21.5 39.5t-21 42t-16 43.5t-6.5 44q0 49 19.5 85t51.5 59.5t74 35
t86 11.5q58 0 104 -17.5t76.5 -50t45 -79t9.5 -104.5h-42q4 48 -7 87.5t-36 67.5t-62.5 43.5t-86.5 15.5q-36 0 -70 -8.5t-60.5 -27.5t-42.5 -48t-16 -69q0 -22 7 -44t17.5 -43.5t22.5 -42.5t22 -40h152v-33h-140q16 -29 21.5 -59.5t5.5 -62.5q0 -56 -25.5 -101.5
t-67.5 -80.5q42 33 95 33q25 0 49 -7.5t47.5 -16t46.5 -16t46 -7.5q47 0 79.5 24.5t63.5 56.5l21 -30v0z" />
    <glyph glyph-name="section" unicode="&#xa7;" horiz-adv-x="530" 
d="M465 233q0 43 -20.5 69t-51 42t-67 25t-69.5 17q-24 6 -47.5 11t-46.5 12q-43 -17 -70.5 -48.5t-27.5 -79.5q0 -43 20.5 -69t51.5 -42t67.5 -25t69.5 -17q23 -6 46.5 -11t46.5 -12q43 17 70.5 48.5t27.5 79.5zM511 -55q0 -46 -21 -78t-54.5 -52t-74.5 -29t-80 -9
q-51 0 -95 11t-77 35t-52 63t-20 95h44q1 -46 16.5 -78.5t42 -53t62.5 -30t78 -9.5q31 0 64 7t60 22.5t44 41t17 62.5q0 46 -25.5 73t-63 43t-80 24.5t-76.5 17.5q-36 9 -72 20.5t-64.5 31t-46.5 49t-18 74.5q0 52 24 89t68 62q-47 23 -69.5 56t-22.5 86q0 46 21 78t54.5 52
t74.5 29t80 9q51 0 95 -11t77 -35t52 -63t20 -95h-44q-1 46 -16.5 78.5t-42 53t-62.5 30t-78 9.5q-31 0 -64 -7t-60 -23t-44 -41t-17 -62q0 -46 25.5 -73t63 -43t80 -24.5t76.5 -17.5q36 -9 72 -20.5t64.5 -31t46.5 -49t18 -74.5q0 -52 -24 -89t-68 -62q47 -23 69.5 -56
t22.5 -86z" />
    <glyph glyph-name="bullet" unicode="&#x2022;" horiz-adv-x="275" 
d="M238 360q0 -21 -8 -39.5t-21.5 -32t-32 -21.5t-39.5 -8t-39.5 8t-32 21.5t-21 32t-7.5 39.5t7.5 39t21 31.5t32 21.5t39.5 8t39.5 -8t32 -21.5t21.5 -31.5t8 -39z" />
    <glyph glyph-name="paragraph" unicode="&#xb6;" horiz-adv-x="480" 
d="M392 -206v896h-98v-896h-35v545q-50 0 -91 14.5t-70 40t-45 59.5t-16 73q0 97 60 145.5t166 48.5h163v-926h-34z" />
    <glyph glyph-name="germandbls" unicode="&#xdf;" horiz-adv-x="509" 
d="M472 212q0 -111 -61 -162t-169 -51h-15t-15 1v37q8 -1 14.5 -1.5t13.5 -0.5q91 0 140 43t49 137q0 52 -16 84.5t-44 51t-66.5 25.5t-82.5 7h-8v31h8q36 0 67.5 7.5t55 25t37.5 45t14 67.5q0 33 -12 58t-33 42.5t-48.5 26.5t-58.5 9q-70 0 -108 -37.5t-38 -108.5v-549h-42
v549q0 88 50.5 136t136.5 48q37 0 72 -11.5t62 -33.5t43 -53.5t16 -71.5q0 -61 -30 -105t-92 -57q82 -7 121 -59t39 -130z" />
    <glyph glyph-name="registered" unicode="&#xae;" horiz-adv-x="457" 
d="M288 589q0 24 -16 31.5t-38 7.5h-51v-78h46q10 0 21 1.5t19 5.5t13.5 11.5t5.5 20.5zM312 589q0 -27 -15.5 -41t-36.5 -17l63 -97h-27l-61 95q-12 -1 -28 -1h-24v-94h-23v216h75q77 0 77 -61zM395 545q0 34 -13 63.5t-35.5 51.5t-53 35t-65.5 13t-65 -13t-52.5 -35
t-35.5 -51.5t-13 -63.5t13 -63.5t35.5 -51.5t52.5 -35t65 -13t65 13t52.5 35t35.5 51.5t13 63.5h1zM420 545q0 -39 -15 -73t-41 -59.5t-61 -40t-75 -14.5t-74.5 14.5t-60.5 40t-41 59.5t-15 73t15 73t41 59.5t60.5 40t74.5 14.5t75 -14.5t61 -40t41 -59.5t15 -73z" />
    <glyph glyph-name="copyright" unicode="&#xa9;" horiz-adv-x="822" 
d="M603 283q-16 -71 -64.5 -114t-117.5 -43q-50 0 -90 17.5t-68 48.5t-43.5 73t-15.5 90t14.5 89.5t42 71.5t67.5 47t90 17q71 0 122.5 -38.5t61.5 -112.5h-29q-10 60 -53.5 90.5t-100.5 30.5q-44 0 -78 -14.5t-57.5 -40.5t-36 -61.5t-12.5 -77.5q0 -41 12.5 -77.5
t36.5 -63.5t58.5 -42.5t78.5 -15.5q26 0 50 8t44.5 24t35.5 39.5t22 54.5h30v0zM752 360q0 71 -26.5 133t-73 108.5t-108.5 73.5t-133 27t-133 -27t-108.5 -73.5t-73 -108.5t-26.5 -133t26.5 -133t73 -108.5t108.5 -73.5t133 -27t133 27t108.5 73.5t73 108.5t26.5 133z
M785 360q0 -78 -29.5 -146t-80 -118.5t-118.5 -80t-146 -29.5t-146 29.5t-118.5 80t-80 118.5t-29.5 146t29.5 146t80 118.5t118.5 80t146 29.5t146 -29.5t118.5 -80t80 -118.5t29.5 -146z" />
    <glyph glyph-name="trademark" unicode="&#x2122;" horiz-adv-x="816" 
d="M199 690v-366h-33v366h-62q-27 0 -33 -10t-6 -27l-27 9q0 25 12.5 41.5t47.5 16.5h229v-30h-128zM729 324v280q0 46 -17.5 71t-65.5 25q-47 0 -64.5 -25t-17.5 -71v-280h-33v280q0 46 -17 71t-65 25t-65 -25t-17 -71v-280h-33v292q0 54 29 83.5t86 29.5q72 0 99 -51
q27 51 98 51q57 0 86.5 -29.5t29.5 -83.5v-292h-33z" />
    <glyph glyph-name="acute" unicode="&#xb4;" horiz-adv-x="0" 
d="M215 565h-30l128 145h52z" />
    <glyph glyph-name="dieresis" unicode="&#xa8;" horiz-adv-x="0" 
d="M398 613q0 -16 -12 -26t-27 -10t-26.5 10t-11.5 26t11.5 26t26.5 10t27 -10t12 -26zM229 613q0 -16 -11.5 -26t-27.5 -10q-15 0 -26.5 10t-11.5 26t11.5 26t26.5 10q16 0 27.5 -10t11.5 -26z" />
    <glyph glyph-name="notequal" unicode="&#x2260;" horiz-adv-x="594" 
d="M45 342v36h504v-36h-504z" />
    <glyph glyph-name="AE" unicode="&#xc6;" horiz-adv-x="871" 
d="M413 512q0 43 -8 77.5t-26 58.5t-48 37t-75 13t-75 -13t-48.5 -37t-26 -58.5t-7.5 -77.5v-133h314v133zM413 0v341h-314v-341h-45v534q0 99 51 151t151 52q127 0 173 -87v70h392v-40h-363v-301h335v-38h-335v-301h368v-40h-413z" />
    <glyph glyph-name="Oslash" unicode="&#xd8;" horiz-adv-x="740" 
d="M658 357q0 68 -17.5 125t-50.5 100l-425 -470q37 -43 88.5 -66t116.5 -23q66 0 119 24t90.5 68t58 105.5t20.5 136.5zM575 603q-38 42 -89.5 65t-115.5 23q-66 0 -119 -24t-90.5 -68t-58 -105.5t-20.5 -136.5q0 -69 17.5 -125.5t49.5 -99.5l426 471v0zM703 357
q0 -77 -22 -145t-64 -119t-104 -80.5t-143 -29.5q-75 0 -133.5 26t-100.5 72l-73 -81l-18 15l74 83q-40 51 -61 117.5t-21 141.5q0 77 22 145t64.5 119t104.5 80.5t142 29.5q75 0 133.5 -25.5t100.5 -70.5l62 68l19 -15l-64 -72q41 -50 61.5 -116.5t20.5 -142.5z" />
    <glyph glyph-name="infinity" unicode="&#x221e;" horiz-adv-x="145" 
d="M54 0v272h37v-272h-37zM54 448v272h37v-272h-37z" />
    <glyph glyph-name="plusminus" unicode="&#xb1;" horiz-adv-x="594" 
d="M45 107v37h504v-37h-504zM315 393v-183h-36v183h-234v37h234v183h36v-183h234v-37h-234z" />
    <glyph glyph-name="lessequal" unicode="&#x2264;" horiz-adv-x="581" 
d="M560 183q0 -53 -20.5 -91t-55 -62t-78.5 -35.5t-92 -11.5q-57 0 -111 14t-96 44.5t-67.5 79t-24.5 118.5h45q0 -60 20 -101.5t55 -67.5t82 -38t100 -12q38 0 74 9t63.5 28.5t44 50t16.5 73.5q0 49 -21.5 78.5t-55.5 46.5t-76.5 27t-84.5 20q-43 10 -86 21.5t-77 32
t-55.5 53t-21.5 85.5q0 54 22 91t57.5 59.5t80 32t89.5 9.5q53 0 99 -12t80.5 -38t55 -68t23.5 -103h-43q-2 51 -19 86t-45.5 56.5t-67 31.5t-83.5 10q-35 0 -71 -7t-66 -24.5t-49 -46.5t-19 -73q0 -45 21 -72t55 -43.5t77 -27t88 -21.5q48 -12 91.5 -24.5t76 -33.5
t51.5 -55t19 -89zM309 788h-33l-115 141h36l97 -117l93 117h36z" />
    <glyph glyph-name="greaterequal" unicode="&#x2265;" horiz-adv-x="451" 
d="M428 136q0 -41 -17.5 -69t-45.5 -45.5t-63 -25.5t-70 -8q-100 0 -157 45t-57 142h41q0 -79 46 -116.5t128 -37.5q25 0 52.5 6t50 19t37 34t14.5 51q0 31 -14 50.5t-37 32t-54 20t-64 15.5q-35 8 -67.5 16.5t-58 23.5t-40.5 39.5t-15 64.5q0 25 11 49t33.5 43t57 30.5
t81.5 11.5q43 0 78.5 -9.5t61 -29t40 -51t14.5 -74.5h-40q0 70 -43 101.5t-110 31.5q-49 0 -77.5 -13t-43 -30t-18.5 -34t-4 -24q0 -35 19.5 -55.5t48.5 -32.5t62 -18.5t60 -13.5q29 -8 58 -17t51.5 -24t36.5 -38.5t14 -59.5zM243 589h-34l-115 140h36l97 -117l94 117h36z
" />
    <glyph glyph-name="yen" unicode="&#xa5;" 
d="M458 551q0 -93 -45.5 -144.5t-134.5 -56.5v-90h148v-33h-148v-93h148v-33h-147v-101h-45v101h-148v33h148v93h-148v33h148v90q-90 5 -135 57t-45 144v169h45v-147q0 -44 8 -78.5t26 -58.5t48 -36.5t75 -12.5t75 13t48.5 37t26 58.5t7.5 77.5v147h45v-169v0z" />
    <glyph glyph-name="mu" unicode="&#xb5;" horiz-adv-x="517" 
d="M421 0v118q-17 -63 -64 -95t-110 -34q-53 -1 -91.5 20t-59.5 59v-274h-42v721h42v-330q0 -72 38 -116t113 -44q43 0 75.5 16.5t54 44t32.5 64t11 76.5v289h43v-515h-42z" />
    <glyph glyph-name="partialdiff" unicode="&#x2202;" horiz-adv-x="517" 
d="M463 -12q0 -102 -55 -156.5t-166 -54.5q-40 0 -76.5 9t-64.5 28.5t-45.5 50.5t-19.5 75h42q2 -35 15.5 -59.5t35.5 -40.5t50.5 -23.5t60.5 -7.5q88 0 134.5 45t46.5 133v131q-20 -65 -69 -97.5t-116 -32.5q-85 0 -133.5 49.5t-48.5 134.5v343h42v-330q0 -72 38 -116
t113 -44q43 0 75.5 16.5t54 44t32.5 64t11 76.5v289h43v-527v0zM219 585h-31l128 144h52z" />
    <glyph glyph-name="summation" unicode="&#x2211;" horiz-adv-x="539" 
d="M547 94q0 -19 -4.5 -36t-16 -30t-31.5 -20.5t-50 -7.5h-442v45l483 635h-451v40h505v-44l-484 -636h378q27 0 43 6t23.5 15.5t9.5 22t2 24.5l35 -14v0zM297 788h-34l-115 141h36l97 -117l94 117h36z" />
    <glyph glyph-name="product" unicode="&#x220f;" horiz-adv-x="513" 
d="M432 399q0 80 -47 121t-138 41h-148v-324h146q39 0 73.5 10.5t59.5 31t39.5 50.5t14.5 70zM476 400q0 -50 -17.5 -87.5t-48.5 -63t-74 -38.5t-94 -13h-143v-198h-45v720h45v-119h154q108 0 165.5 -53t57.5 -148z" />
    <glyph glyph-name="pi" unicode="&#x3c0;" horiz-adv-x="551" 
d="M472 248q0 43 -10.5 86.5t-35 78.5t-64.5 56.5t-98 21.5q-30 0 -60 -10.5t-54 -29t-39 -43.5t-15 -54v-175q0 -36 14.5 -65t39.5 -49.5t57 -31t67 -10.5q49 0 86 18t62 49t37.5 72t12.5 86zM514 248q0 -54 -16 -101t-46 -82.5t-74 -56t-99 -20.5q-63 0 -110 26.5
t-73 75.5v-296h-42v926h42v-285q26 45 72.5 68.5t100.5 23.5q61 0 107 -22.5t77 -60.5t46 -88.5t15 -107.5z" />
    <glyph glyph-name="integral" unicode="&#x222b;" horiz-adv-x="710" 
d="M395 788h-34l-115 141h36l97 -117l94 117h36zM673 280q-8 -65 -31.5 -119t-62.5 -94t-93 -62t-121 -22q-79 0 -140 30.5t-103 82t-63.5 118.5t-21.5 141q0 77 22 146t65 121.5t106 83.5t146 31q51 0 102.5 -16.5t93.5 -47.5t70 -75t31 -99h-44q-5 46 -29 83t-59.5 62.5
t-78.5 39t-86 13.5q-72 0 -127 -28.5t-92 -76.5t-56 -109.5t-19 -127.5q0 -63 18 -123t54 -106.5t88.5 -74.5t121.5 -28q59 0 105 19.5t79 53.5t53 81t28 103h44v0z" />
    <glyph glyph-name="ordfeminine" unicode="&#xaa;" horiz-adv-x="378" 
d="M289 627q0 16 -8.5 30t-22.5 24.5t-31.5 16.5t-34.5 6q-33 0 -56.5 -12t-37.5 -32t-20.5 -45t-6.5 -50q0 -26 7.5 -49.5t22 -41t36 -28t49.5 -10.5q21 0 39.5 6t32.5 17.5t22.5 28t8.5 36.5v103zM289 416v42q-39 -49 -106 -49q-34 0 -61 12.5t-45.5 33.5t-28 49.5
t-9.5 60.5q0 33 9 63.5t28 53.5t47 36.5t66 13.5q29 0 54.5 -11t45.5 -34v38h33v-309h-33z" />
    <glyph glyph-name="ordmasculine" unicode="&#xba;" horiz-adv-x="380" 
d="M310 571q0 24 -8 48t-23 43t-37.5 30.5t-51.5 11.5t-51.5 -11.5t-38 -30.5t-23.5 -43t-8 -48q0 -25 8 -49.5t23.5 -43.5t38 -31t51.5 -12t51.5 12t37.5 31t23 43.5t8 49.5zM343 571q0 -32 -9.5 -61.5t-29 -52.5t-48.5 -36.5t-67 -13.5q-37 0 -65.5 13.5t-47.5 36.5
t-29 52.5t-10 61.5q0 31 10 60.5t29 51.5t47.5 35.5t66.5 13.5t66.5 -13.5t48 -35.5t29 -51.5t9.5 -60.5z" />
    <glyph glyph-name="Omega" unicode="&#x2126;" horiz-adv-x="426" 
d="M426 90q0 -18 -4.5 -34.5t-16 -29t-30.5 -19.5t-47 -7h-322v41l346 438h-319v36h369v-41l-345 -439h261q27 0 42 6t22.5 15.5t9.5 21t2 23.5l32 -11v0zM231 589h-34l-115 140h36l97 -117l94 117h36z" />
    <glyph glyph-name="ae" unicode="&#xe6;" horiz-adv-x="942" 
d="M455 353q0 29 -15 54.5t-39 44t-54 29t-60 10.5q-58 0 -98 -21.5t-64.5 -56.5t-35 -78.5t-10.5 -86.5q0 -45 12.5 -86t37.5 -72t62 -49t86 -18q35 0 67 10.5t57 31t39.5 49.5t14.5 65v174zM860 370q-14 57 -56.5 89t-103.5 32q-52 0 -90 -19.5t-63 -52t-37 -75t-12 -89.5
v-17l362 132v0zM905 179q-5 -45 -22.5 -80t-45.5 -60t-65.5 -38t-82.5 -13q-73 0 -123 36.5t-75 93.5v-118h-36v90q-26 -49 -73 -75.5t-110 -26.5q-56 0 -99.5 20.5t-73.5 56t-46 82.5t-16 101q0 56 15 106.5t46 89t76.5 61t107.5 22.5q54 0 100.5 -23.5t72.5 -68.5v80h36
v-128q25 62 76.5 101t132.5 39q40 0 75 -12t62.5 -34t45 -54.5t22.5 -72.5l-405 -148q5 -38 19.5 -71t38 -58t57 -39.5t75.5 -14.5q35 0 65.5 11t53.5 31.5t37.5 49t17.5 64.5h41v0z" />
    <glyph glyph-name="oslash" unicode="&#xf8;" horiz-adv-x="550" 
d="M471 257q0 41 -10.5 78.5t-31.5 69.5l-297 -313q23 -32 59 -50.5t84 -18.5q49 0 85.5 19.5t61 52.5t37 75t12.5 87zM416 425q-23 30 -58 48t-83 18q-49 0 -86 -20t-61.5 -52.5t-36.5 -74.5t-12 -87q0 -40 9.5 -77t29.5 -68l298 313v0zM513 257q0 -53 -15.5 -101.5
t-45.5 -86t-74.5 -59.5t-102.5 -22q-56 0 -98 20t-72 54l-57 -59l-17 16l60 62q-27 35 -40.5 81t-13.5 95q0 53 15 101.5t45 86t74.5 60t103.5 22.5q54 0 96 -19.5t72 -53.5l45 48l17 -16l-47 -50q27 -35 41 -81.5t14 -97.5z" />
    <glyph glyph-name="questiondown" unicode="&#xbf;" horiz-adv-x="504" 
d="M467 228q1 -51 -13 -95t-42.5 -76.5t-71.5 -50.5t-98 -18q-45 0 -82.5 12t-64.5 34.5t-42.5 54t-15.5 70.5t11 67t27 49t33.5 36l31.5 27q26 24 44 43.5t29 41t15.5 46.5t4.5 59v99h41v-99q0 -32 -4 -58.5t-15 -51t-29.5 -48.5t-46.5 -50q-6 -6 -22.5 -18t-33 -31.5
t-29.5 -46.5t-13 -63q0 -32 12 -57t33.5 -42t51.5 -26t65 -9q46 0 80.5 15t57 41.5t33.5 63.5t9 81h44v0zM292 695q0 -16 -11.5 -26t-26.5 -10q-16 0 -27.5 10t-11.5 26t11.5 26t27.5 10q15 0 26.5 -10t11.5 -26z" />
    <glyph glyph-name="exclamdown" unicode="&#xa1;" horiz-adv-x="150" 
d="M48 0l12 616h30l13 -616h-55zM113 696q0 -16 -11.5 -26t-26.5 -10t-26.5 10t-11.5 26t11.5 26t26.5 10t26.5 -10t11.5 -26z" />
    <glyph glyph-name="logicalnot" unicode="&#xac;" horiz-adv-x="150" 
d="M96 394v-394h-42v360l-54 -46v34l54 46v326h42v-291l54 46v-35z" />
    <glyph glyph-name="radical" unicode="&#x221a;" horiz-adv-x="550" 
d="M471 248q0 44 -13 84.5t-37.5 71t-61 49t-84.5 18.5t-84.5 -18.5t-61 -49t-37.5 -71t-13 -84.5q0 -45 12.5 -85.5t37.5 -71.5t61.5 -49.5t84.5 -18.5t84.5 18.5t61.5 49.5t37.5 72t12.5 85zM513 253q0 -54 -15.5 -102t-46 -84.5t-75 -57.5t-102.5 -21q-56 0 -100 20.5
t-74.5 55.5t-46.5 82t-16 101q0 52 15.5 99t45.5 82.5t73.5 56t99.5 20.5q44 0 86.5 -17t70.5 -52q-13 25 -31 51.5t-39 52t-43 48.5t-44 41l-115 -64l-22 23l111 62q-39 31 -85 56l32 23q23 -12 46 -28t43 -32l114 63l23 -24l-110 -61q44 -41 81.5 -84t65 -91t43 -102
t15.5 -117z" />
    <glyph glyph-name="florin" unicode="&#x192;" horiz-adv-x="266" 
d="M297 693q-5 2 -17 2.5t-27 0.5q-12 0 -24.5 -2t-24 -9.5t-20.5 -23.5t-14 -43l-20 -103h117l-8 -35h-117l-119 -588q-6 -31 -18 -51t-27.5 -31.5t-34 -16t-37.5 -4.5l-6 36q12 0 24.5 2t24 10t20.5 24t15 43l115 576h-117l8 33h117l23 116q6 31 18 51t27.5 32t34 16.5
t37.5 4.5q25 0 36 -1.5t22 -2.5z" />
    <glyph glyph-name="approxequal" unicode="&#x2248;" horiz-adv-x="419" 
d="M393 151l-184 185l-183 -185l-26 26l184 183l-184 184l26 25l183 -185l184 185l26 -25l-185 -184l185 -183z" />
    <glyph glyph-name="Delta" unicode="&#x2206;" horiz-adv-x="524" 
d="M301 589h-34l-115 140h36l97 -117l94 117h36zM487 179q-9 -90 -67.5 -140.5t-147.5 -50.5q-56 0 -99.5 21t-73.5 56.5t-46 82.5t-16 100q0 57 15.5 107.5t46 88.5t76.5 60.5t107 22.5q40 0 75 -12t62.5 -34.5t45 -54.5t22.5 -73h-41q-10 66 -54 102t-109 36
q-54 0 -92.5 -20t-63 -53.5t-36.5 -77.5t-12 -92q0 -44 12 -85t36.5 -72t60.5 -49.5t84 -18.5q35 0 65.5 11t54 31.5t37.5 49t17 64.5h41v0z" />
    <glyph glyph-name="guillemotleft" unicode="&#xab;" horiz-adv-x="307" 
d="M45 342v36l111 138v-50l-83 -106l83 -106v-50zM151 342v36l111 138v-50l-83 -106l83 -106v-50z" />
    <glyph glyph-name="guillemotright" unicode="&#xbb;" horiz-adv-x="307" 
d="M45 204v50l82 106l-82 106v50l111 -138v-36zM151 204v50l82 106l-82 106v50l111 -138v-36z" />
    <glyph glyph-name="ellipsis" unicode="&#x2026;" horiz-adv-x="1000" 
d="M205 35q0 -16 -11.5 -26.5t-26.5 -10.5t-26.5 10.5t-11.5 26.5q0 15 11.5 25.5t26.5 10.5t26.5 -10.5t11.5 -25.5zM538 35q0 -16 -11.5 -26.5t-26.5 -10.5t-26.5 10.5t-11.5 26.5q0 15 11.5 25.5t26.5 10.5t26.5 -10.5t11.5 -25.5zM871 35q0 -16 -11.5 -26.5t-26.5 -10.5
t-26.5 10.5t-11.5 26.5q0 15 11.5 25.5t26.5 10.5t26.5 -10.5t11.5 -25.5z" />
    <glyph glyph-name="Agrave" unicode="&#xc0;" 
d="M413 512q0 43 -8 77.5t-26 58.5t-48 37t-75 13t-75 -13t-48.5 -37t-26 -58.5t-7.5 -77.5v-133h314v133zM413 0v341h-314v-341h-45v534q0 99 51 151t151 52t151 -52.5t51 -150.5v-534h-45zM324 765l-143 145h52l122 -145h-31z" />
    <glyph glyph-name="Atilde" unicode="&#xc3;" 
d="M413 512q0 43 -8 77.5t-26 58.5t-48 37t-75 13t-75 -13t-48.5 -37t-26 -58.5t-7.5 -77.5v-133h314v133zM413 0v341h-314v-341h-45v534q0 99 51 151t151 52t151 -52.5t51 -150.5v-534h-45zM407 863q0 -33 -18.5 -58t-56.5 -25q-20 0 -36.5 8.5t-31.5 19t-30.5 19
t-31.5 8.5q-21 0 -34 -19.5t-13 -37.5h-28q0 15 5.5 30.5t15.5 28t23.5 20.5t29.5 8q18 0 35 -9t33.5 -19.5t32 -19t29.5 -8.5q23 0 35 16t13 38h28v0z" />
    <glyph glyph-name="Otilde" unicode="&#xd5;" horiz-adv-x="740" 
d="M658 360q0 66 -18 127t-54 107.5t-90 74.5t-126 28t-126 -28t-90 -74.5t-54 -107.5t-18 -127t18 -127t54 -107.5t90 -74.5t126 -28t126 28t90 74.5t54 107.5t18 127zM703 360q0 -76 -21.5 -144.5t-63.5 -120t-104.5 -82t-143.5 -30.5t-143 30.5t-104.5 82t-64 120
t-21.5 144.5t21.5 144t64 120t104.5 82.5t143 30.5t143.5 -30.5t104.5 -82.5t63.5 -120t21.5 -144zM517 863q-1 -33 -19.5 -58t-55.5 -25q-20 0 -36.5 8.5t-32 19t-31 19t-31.5 8.5q-10 0 -18.5 -5.5t-14.5 -14t-10 -18.5t-4 -19h-27q0 15 5.5 30.5t15.5 28t23.5 20.5
t28.5 8q18 0 35.5 -9t34 -19.5t31.5 -19t29 -8.5q23 0 35.5 16t13.5 38h28v0z" />
    <glyph glyph-name="OE" unicode="&#x152;" horiz-adv-x="1087" 
d="M629 499q-5 46 -29 83t-59.5 62.5t-78.5 39t-86 13.5q-72 0 -127 -28.5t-92 -76.5t-56 -109.5t-19 -127.5q0 -63 18 -123t54 -106.5t88.5 -74.5t121.5 -28q59 0 105 19.5t79 53.5t53 81t28 103v219zM633 0v170q-16 -42 -40.5 -76t-58 -59t-76 -38.5t-93.5 -13.5
q-79 0 -140 30.5t-103 82t-63.5 118.5t-21.5 141q0 77 22 146t65 121.5t106 83.5t146 31q36 0 74 -9.5t73 -27.5t63.5 -43.5t46.5 -57.5v121h405v-40h-363v-301h335v-38h-335v-301h368v-40h-410z" />
    <glyph glyph-name="oe" unicode="&#x153;" horiz-adv-x="958" 
d="M471 257q0 45 -12.5 87t-37 74.5t-61 52.5t-85.5 20t-86 -20t-61.5 -52.5t-36.5 -74.5t-12 -87t12 -87t36.5 -75t61.5 -52.5t86 -19.5t85.5 19.5t61 52.5t37 75t12.5 87zM876 369q-14 57 -56.5 89t-103.5 32q-52 0 -90 -19.5t-63 -52t-37.5 -75t-12.5 -89.5v-9t1 -8
l362 132v0zM921 178q-5 -45 -22.5 -80t-46 -60t-66 -38t-81.5 -13q-42 0 -77 12.5t-62 35t-46 52.5t-29 66q-11 -35 -30 -65.5t-46.5 -52.5t-62.5 -34.5t-77 -12.5q-59 0 -103.5 22t-74.5 59.5t-45 86t-15 101.5t15 101.5t45 86t74.5 60t103.5 22.5q43 0 79 -13.5t63 -36.5
t46 -54.5t30 -67.5q11 37 30 68t46.5 54t64 36t82.5 13q40 0 75 -12t62.5 -34t45 -54.5t22.5 -72.5l-405 -148q4 -38 18.5 -71t38.5 -58t57.5 -39.5t75.5 -14.5q35 0 65.5 11t53.5 31.5t37.5 49t17.5 64.5h41v0z" />
    <glyph glyph-name="endash" unicode="&#x2013;" horiz-adv-x="590" 
d="M45 249v38h500v-38h-500z" />
    <glyph glyph-name="emdash" unicode="&#x2014;" horiz-adv-x="1090" 
d="M45 249v38h1000v-38h-1000z" />
    <glyph glyph-name="quotedblleft" unicode="&#x201c;" horiz-adv-x="250" 
d="M122 502l-122 212l32 18l122 -212zM218 502l-122 212l32 18l122 -212z" />
    <glyph glyph-name="quotedblright" unicode="&#x201d;" horiz-adv-x="250" 
d="M32 502l-32 18l122 212l32 -18zM128 502l-32 18l122 212l32 -18z" />
    <glyph glyph-name="quoteleft" unicode="&#x2018;" horiz-adv-x="154" 
d="M122 502l-122 212l32 18l122 -212z" />
    <glyph glyph-name="quoteright" unicode="&#x2019;" horiz-adv-x="154" 
d="M32 502l-32 18l122 212l32 -18z" />
    <glyph glyph-name="divide" unicode="&#xf7;" horiz-adv-x="594" 
d="M346 149q0 -20 -12 -34.5t-37 -14.5q-24 0 -36 14.5t-12 34.5q0 21 14 34.5t34 13.5t34.5 -14t14.5 -34zM45 342v36h504v-36h-504zM346 571q0 -20 -12 -34t-37 -14q-24 0 -36 14t-12 34q0 21 14 35t34 14t34.5 -14.5t14.5 -34.5z" />
    <glyph glyph-name="lozenge" unicode="&#x25ca;" horiz-adv-x="523" 
d="M441 360q0 69 -15.5 127.5t-48.5 101t-85.5 67t-125.5 24.5h-67v-292h177v-32h-177v-316h51q72 0 126 24.5t91 67.5t55.5 101.5t18.5 126.5zM486 360q0 -80 -22 -146t-65 -113.5t-106.5 -74t-145.5 -26.5h-93v355h-63v33h63v332h125q81 0 139 -28.5t95.5 -77t55 -114
t17.5 -140.5z" />
    <glyph glyph-name="ydieresis" unicode="&#xff;" horiz-adv-x="517" 
d="M463 -12q0 -102 -55 -156.5t-166 -54.5q-40 0 -76.5 9t-64.5 28.5t-45.5 50.5t-19.5 75h42q2 -35 15.5 -59.5t35.5 -40.5t50.5 -23.5t60.5 -7.5q88 0 134.5 45t46.5 133v131q-20 -65 -69 -97.5t-116 -32.5q-85 0 -133.5 49.5t-48.5 134.5v343h42v-330q0 -72 38 -116
t113 -44q43 0 75.5 16.5t54 44t32.5 64t11 76.5v289h43v-527v0zM217 632q0 -15 -11.5 -25.5t-26.5 -10.5t-26.5 10.5t-11.5 25.5q0 16 11.5 26t26.5 10t26.5 -10t11.5 -26zM386 632q0 -15 -11.5 -25.5t-26.5 -10.5t-26.5 10.5t-11.5 25.5q0 16 11.5 26t26.5 10t26.5 -10
t11.5 -26z" />
    <glyph glyph-name="Ydieresis" unicode="&#x178;" 
d="M458 543q0 -92 -45.5 -143.5t-133.5 -56.5v-343h-45v343q-90 5 -135 56.5t-45 143.5v177h45v-155q0 -43 8 -77.5t26 -58.5t48 -37t75 -13t75 13t48.5 37t26 58.5t7.5 77.5v155h45v-177v0zM212 812q0 -15 -11.5 -25.5t-26.5 -10.5t-26.5 10.5t-11.5 25.5q0 16 11.5 26
t26.5 10t26.5 -10t11.5 -26zM381 812q0 -15 -11.5 -25.5t-26.5 -10.5t-26.5 10.5t-11.5 25.5q0 16 11.5 26t26.5 10t26.5 -10t11.5 -26z" />
    <glyph glyph-name="fraction" unicode="&#x2044;" horiz-adv-x="167" 
d="M-124 0h-34l447 720h34z" />
    <glyph glyph-name="currency" unicode="&#xa4;" horiz-adv-x="571" 
d="M498 341q0 45 -17 83.5t-46 67.5t-67.5 45.5t-82.5 16.5q-43 0 -81.5 -16.5t-68 -45.5t-46.5 -68t-17 -83t17 -83t46.5 -68t68 -45.5t81.5 -16.5t82 16.5t68 45.5t46 68t17 83zM534 341q0 -45 -16 -87.5t-47 -76.5l57 -57l-22 -22l-57 58q-34 -31 -76 -46.5t-88 -16.5
q-45 0 -87 15.5t-77 46.5l-57 -57l-22 22l58 57q-31 34 -47 76.5t-16 87.5t16.5 88t46.5 76l-58 57l22 22l57 -57q34 31 76.5 46.5t87.5 15.5t88 -15.5t76 -46.5l57 57l22 -22l-57 -57q31 -33 47 -76t16 -88z" />
    <glyph glyph-name="guilsinglleft" unicode="&#x2039;" horiz-adv-x="201" 
d="M45 342v36l111 138v-50l-83 -106l83 -106v-50z" />
    <glyph glyph-name="guilsinglright" unicode="&#x203a;" horiz-adv-x="201" 
d="M45 204v50l82 106l-82 106v50l111 -138v-36z" />
    <glyph glyph-name="fi" unicode="&#xfb01;" horiz-adv-x="301" 
d="M204 0v480h-108v-480h-42v480h-54v33h54v116q0 31 7.5 51t21 32t30.5 16.5t37 4.5q24 0 35.5 -1.5t22.5 -2.5v-36q-5 2 -17 2.5t-27 0.5q-12 0 -24.5 -2t-22 -9.5t-15.5 -23t-6 -42.5v-104h151v-515h-43z" />
    <glyph glyph-name="fl" unicode="&#xfb02;" horiz-adv-x="301" 
d="M204 0v694q-7 1 -17.5 1.5t-22.5 0.5t-24.5 -2t-22 -9.5t-15.5 -23.5t-6 -43v-103h54v-35h-54v-480h-42v480h-54v33h54v116q0 31 7.5 51t21 32t30.5 16.5t37 4.5q12 0 22.5 -1.5t21.5 -2.5q13 0 24 -1q9 -1 17.5 -1.5t11.5 -1.5v-725h-43z" />
    <glyph glyph-name="daggerdbl" unicode="&#x2021;" horiz-adv-x="540" 
d="M290 53l7 -259h-54l7 259l-205 -7v48l205 -7v396l-205 -7v48l205 -7l-7 203h54l-7 -203l205 7v-48l-205 7v-396l205 7v-48z" />
    <glyph glyph-name="periodcentered" unicode="&#xb7;" horiz-adv-x="150" 
d="M113 360q0 -16 -11.5 -26t-26.5 -10t-26.5 10t-11.5 26t11.5 26t26.5 10t26.5 -10t11.5 -26z" />
    <glyph glyph-name="quotesinglbase" unicode="&#x201a;" horiz-adv-x="154" 
d="M32 -117l-32 18l122 212l32 -19z" />
    <glyph glyph-name="quotedblbase" unicode="&#x201e;" horiz-adv-x="251" 
d="M32 -117l-32 18l122 212l32 -19zM129 -117l-32 18l123 212l31 -19z" />
    <glyph glyph-name="perthousand" unicode="&#x2030;" 
d="M458 543q0 -92 -45.5 -143.5t-133.5 -56.5v-343h-45v343q-90 5 -135 56.5t-45 143.5v177h45v-155q0 -43 8 -77.5t26 -58.5t48 -37t75 -13t75 13t48.5 37t26 58.5t7.5 77.5v155h45v-177v0zM239 784h-30l127 145h52z" />
    <glyph glyph-name="Acircumflex" unicode="&#xc2;" 
d="M353 769l-98 117l-93 -117h-36l114 141h33l115 -141h-35zM413 512q0 43 -8 77.5t-26 58.5t-48 37t-75 13t-75 -13t-48.5 -37t-26 -58.5t-7.5 -77.5v-133h314v133zM413 0v341h-314v-341h-45v534q0 99 51 151t151 52t151 -52.5t51 -150.5v-534h-45z" />
    <glyph glyph-name="Ecircumflex" unicode="&#xca;" 
d="M354 769l-98 117l-93 -117h-36l114 141h33l116 -141h-36zM54 0v720h408v-40h-363v-301h335v-38h-335v-301h368v-40h-413z" />
    <glyph glyph-name="Aacute" unicode="&#xc1;" 
d="M186 765h-30l128 145h51zM413 512q0 43 -8 77.5t-26 58.5t-48 37t-75 13t-75 -13t-48.5 -37t-26 -58.5t-7.5 -77.5v-133h314v133zM413 0v341h-314v-341h-45v534q0 99 51 151t151 52t151 -52.5t51 -150.5v-534h-45z" />
    <glyph glyph-name="Edieresis" unicode="&#xcb;" 
d="M381 812q0 -15 -11.5 -25.5t-27.5 -10.5q-15 0 -26.5 10.5t-11.5 25.5q0 16 11.5 26t26.5 10q16 0 27.5 -10t11.5 -26zM212 812q0 -15 -11.5 -25.5t-26.5 -10.5q-16 0 -27.5 10.5t-11.5 25.5q0 16 11.5 26t27.5 10q15 0 26.5 -10t11.5 -26zM54 0v720h408v-40h-363v-301
h335v-38h-335v-301h368v-40h-413z" />
    <glyph glyph-name="Egrave" unicode="&#xc8;" 
d="M164 910h51l122 -145h-30zM54 0v720h408v-40h-363v-301h335v-38h-335v-301h368v-40h-413z" />
    <glyph glyph-name="Iacute" unicode="&#xcd;" horiz-adv-x="153" 
d="M15 765h-30l127 145h52zM54 0v720h45v-720h-45z" />
    <glyph glyph-name="Icircumflex" unicode="&#xce;" horiz-adv-x="153" 
d="M172 769l-97 117l-93 -117h-36l114 141h33l115 -141h-36zM54 0v720h45v-720h-45z" />
    <glyph glyph-name="Idieresis" unicode="&#xcf;" horiz-adv-x="153" 
d="M201 812q0 -15 -11.5 -25.5t-27.5 -10.5q-15 0 -26.5 10.5t-11.5 25.5q0 16 11.5 26t26.5 10q16 0 27.5 -10t11.5 -26zM32 812q0 -15 -11.5 -25.5t-26.5 -10.5q-16 0 -27.5 10.5t-11.5 25.5q0 16 11.5 26t27.5 10q15 0 26.5 -10t11.5 -26zM54 0v720h45v-720h-45z" />
    <glyph glyph-name="Igrave" unicode="&#xcc;" horiz-adv-x="153" 
d="M-16 910h51l122 -145h-30zM54 0v720h45v-720h-45z" />
    <glyph glyph-name="Oacute" unicode="&#xd3;" horiz-adv-x="740" 
d="M330 765h-30l127 145h52zM658 360q0 66 -18 127t-54 107.5t-90 74.5t-126 28t-126 -28t-90 -74.5t-54 -107.5t-18 -127t18 -127t54 -107.5t90 -74.5t126 -28t126 28t90 74.5t54 107.5t18 127zM703 360q0 -76 -21.5 -144.5t-63.5 -120t-104.5 -82t-143.5 -30.5t-143 30.5
t-104.5 82t-64 120t-21.5 144.5t21.5 144t64 120t104.5 82.5t143 30.5t143.5 -30.5t104.5 -82.5t63.5 -120t21.5 -144z" />
    <glyph glyph-name="Ocircumflex" unicode="&#xd4;" horiz-adv-x="740" 
d="M461 769l-97 117l-94 -117h-36l114 141h34l115 -141h-36zM658 360q0 66 -18 127t-54 107.5t-90 74.5t-126 28t-126 -28t-90 -74.5t-54 -107.5t-18 -127t18 -127t54 -107.5t90 -74.5t126 -28t126 28t90 74.5t54 107.5t18 127zM703 360q0 -76 -21.5 -144.5t-63.5 -120
t-104.5 -82t-143.5 -30.5t-143 30.5t-104.5 82t-64 120t-21.5 144.5t21.5 144t64 120t104.5 82.5t143 30.5t143.5 -30.5t104.5 -82.5t63.5 -120t21.5 -144z" />
    <glyph glyph-name="apple" unicode="&#xf8ff;" 
d="M512 94q0 -19 -4.5 -36t-16.5 -30t-31.5 -20.5t-49.5 -7.5h-356v260l-54 -38v38l54 37v423h45v-391l187 131v-38l-187 -131v-251h300q27 0 43 6t23.5 15.5t9.5 22t2 24.5l35 -14v0z" />
    <glyph glyph-name="Ograve" unicode="&#xd2;" horiz-adv-x="740" 
d="M250 910h51l122 -145h-30zM658 360q0 66 -18 127t-54 107.5t-90 74.5t-126 28t-126 -28t-90 -74.5t-54 -107.5t-18 -127t18 -127t54 -107.5t90 -74.5t126 -28t126 28t90 74.5t54 107.5t18 127zM703 360q0 -76 -21.5 -144.5t-63.5 -120t-104.5 -82t-143.5 -30.5t-143 30.5
t-104.5 82t-64 120t-21.5 144.5t21.5 144t64 120t104.5 82.5t143 30.5t143.5 -30.5t104.5 -82.5t63.5 -120t21.5 -144z" />
    <glyph glyph-name="Uacute" unicode="&#xda;" 
d="M203 765h-30l128 145h51zM458 186q0 -99 -51 -151t-151 -52t-151 52.5t-51 150.5v534h45v-512q0 -44 8 -78.5t26 -58.5t48 -36.5t75 -12.5t75 13t48.5 37t26 58.5t7.5 77.5v512h45v-534v0z" />
    <glyph glyph-name="Ucircumflex" unicode="&#xdb;" 
d="M350 769l-97 117l-94 -117h-36l114 141h34l115 -141h-36zM458 186q0 -99 -51 -151t-151 -52t-151 52.5t-51 150.5v534h45v-512q0 -44 8 -78.5t26 -58.5t48 -36.5t75 -12.5t75 13t48.5 37t26 58.5t7.5 77.5v512h45v-534v0z" />
    <glyph glyph-name="Ugrave" unicode="&#xd9;" 
d="M171 910h51l122 -145h-30zM458 186q0 -99 -51 -151t-151 -52t-151 52.5t-51 150.5v534h45v-512q0 -44 8 -78.5t26 -58.5t48 -36.5t75 -12.5t75 13t48.5 37t26 58.5t7.5 77.5v512h45v-534v0z" />
    <glyph glyph-name="dotlessi" unicode="&#x131;" horiz-adv-x="150" 
d="M54 0v515h42v-515h-42z" />
    <glyph glyph-name="circumflex" unicode="&#x2c6;" horiz-adv-x="0" 
d="M370 570l-97 117l-93 -117h-36l114 140h33l115 -140h-36z" />
    <glyph glyph-name="tilde" unicode="&#x2dc;" horiz-adv-x="0" 
d="M415 663q0 -32 -18.5 -57.5t-56.5 -25.5q-20 0 -36.5 8.5t-32 19t-30.5 19.5t-31 9q-21 0 -34 -19.5t-14 -37.5h-27q0 15 5.5 30t15.5 28t23.5 21t29.5 8q18 0 35 -9t33.5 -19.5t32 -19t29.5 -8.5q22 0 34.5 15.5t13.5 37.5h28v0z" />
    <glyph glyph-name="macron" unicode="&#xaf;" horiz-adv-x="0" 
d="M152 612v29h246v-29h-246z" />
    <glyph glyph-name="breve" unicode="&#x2d8;" horiz-adv-x="0" 
d="M405 693q-5 -54 -42 -83.5t-91 -29.5q-53 0 -87.5 31t-39.5 82h27q5 -38 33.5 -61t67.5 -23q42 0 71 20t34 64h27v0z" />
    <glyph glyph-name="dotaccent" unicode="&#x2d9;" horiz-adv-x="0" 
d="M313 613q0 -16 -11.5 -26t-26.5 -10t-26.5 10t-11.5 26t11.5 26t26.5 10t26.5 -10t11.5 -26z" />
    <glyph glyph-name="ring" unicode="&#x2da;" horiz-adv-x="0" 
d="M341 673q0 27 -19.5 46.5t-46.5 19.5t-46.5 -19.5t-19.5 -46.5t19.5 -46.5t46.5 -19.5t46.5 19.5t19.5 46.5zM366 673q0 -38 -26.5 -64.5t-64.5 -26.5q-18 0 -34.5 7t-29 19.5t-20 29t-7.5 35.5q0 18 7.5 34.5t20 29t29 20t34.5 7.5t34.5 -7.5t29 -20t20 -29t7.5 -34.5z
" />
    <glyph glyph-name="cedilla" unicode="&#xb8;" horiz-adv-x="0" 
d="M371 -114q0 -23 -8.5 -37.5t-23 -22.5t-33 -11.5t-38.5 -3.5q-28 0 -50 6.5t-39 11.5l11 23q18 -6 36 -11.5t38 -5.5q13 0 26.5 2.5t24.5 8.5t17.5 15.5t6.5 24.5q0 10 -5.5 17.5t-13.5 12.5t-17.5 7.5t-16.5 2.5q-32 0 -52 -13l-17 12l57 75h25l-41 -57q7 1 14 3.5
t20 2.5q31 0 55 -14t24 -49z" />
    <glyph glyph-name="hungarumlaut" unicode="&#x2dd;" horiz-adv-x="0" 
d="M135 565h-27l128 145h46zM294 565h-27l128 145h47z" />
    <glyph glyph-name="ogonek" unicode="&#x2db;" horiz-adv-x="0" 
d="M364 -149q-20 -26 -45.5 -35t-51.5 -9q-38 0 -59.5 19.5t-21.5 44.5q0 19 9.5 36.5t24.5 34t32.5 31.5t33.5 27h35q-56 -44 -80 -72.5t-24 -53.5q0 -17 13.5 -30t39.5 -13q29 0 45.5 9.5t25.5 20.5l23 -11v1z" />
    <glyph glyph-name="caron" unicode="&#x2c7;" horiz-adv-x="0" 
d="M292 589h-33l-115 140h35l98 -117l93 117h36z" />
    <glyph glyph-name="NULL" horiz-adv-x="0" 
 />
    </font>
</defs>
</svg>
