<?xml version="1.0" standalone="no"?>
<!DOCTYPE svg PUBLIC "-//W3C//DTD SVG 1.1//EN" "http://www.w3.org/Graphics/SVG/1.1/DTD/svg11.dtd" >
<svg xmlns="http://www.w3.org/2000/svg" xmlns:xlink="http://www.w3.org/1999/xlink" version="1.1">
<metadata>
Created by FontForge 20161116 at Mon Nov 21 07:14:57 2011
 By Jimmy Wärting
\2512003 Prescott Design. All rights reserved.
</metadata>
<defs>
<font id="ClementePDae-Light" horiz-adv-x="530" >
  <font-face 
    font-family="ClementePDae"
    font-weight="300"
    font-stretch="normal"
    units-per-em="1000"
    panose-1="0 0 0 0 0 0 0 0 0 0"
    ascent="800"
    descent="-200"
    x-height="515"
    cap-height="720"
    bbox="-324 -223 1045 931"
    underline-thickness="40"
    underline-position="-54"
    unicode-range="U+000D-FB02"
  />
<missing-glyph horiz-adv-x="292" 
 />
    <glyph glyph-name=".notdef" horiz-adv-x="292" 
 />
    <glyph glyph-name="Eth" horiz-adv-x="551" 
d="M444 361q0 64 -15 119t-46.5 94.5t-80.5 62t-118 22.5h-60v-264h168v-46h-168v-288h48q68 0 119 23t85 63t51 95t17 119zM514 360q0 -81 -22.5 -147.5t-66 -113.5t-107 -73t-146.5 -26h-118v349h-61v45h61v326h152q81 0 139 -28t95.5 -77t55.5 -114.5t18 -140.5z" />
    <glyph glyph-name="Eth" horiz-adv-x="551" 
d="M444 361q0 64 -15 119t-46.5 94.5t-80.5 62t-118 22.5h-60v-264h168v-46h-168v-288h48q68 0 119 23t85 63t51 95t17 119zM514 360q0 -81 -22.5 -147.5t-66 -113.5t-107 -73t-146.5 -26h-118v349h-61v45h61v326h152q81 0 139 -28t95.5 -77t55.5 -114.5t18 -140.5z" />
    <glyph glyph-name="nonmarkingreturn" unicode="&#xd;" horiz-adv-x="0" 
 />
    <glyph glyph-name="space" unicode=" " horiz-adv-x="292" 
 />
    <glyph glyph-name="eth" unicode="&#xf0;" horiz-adv-x="563" 
d="M461 248q0 41 -11.5 78.5t-34 66.5t-56 46.5t-77.5 17.5q-45 0 -79 -17t-56.5 -46t-34 -67t-11.5 -79t11.5 -79t34 -67t56 -46t78.5 -17t78.5 17.5t56 46.5t34 66.5t11.5 78.5zM526 260q0 -56 -16 -105.5t-47 -86.5t-76.5 -58.5t-105.5 -21.5q-57 0 -102.5 20t-77 54.5
t-48 82t-16.5 102.5q0 53 16 99.5t46.5 81.5t74 55t98.5 20q42 0 82 -15t66 -46q-25 47 -65 94.5t-80 81.5l-107 -59l-30 30l102 57q-34 29 -78 52l48 31q19 -10 42.5 -26t40.5 -30l105 59l30 -32l-101 -56q43 -39 79.5 -81.5t63 -89.5t41.5 -100t15 -113z" />
    <glyph glyph-name="Lslash" unicode="&#x141;" 
d="M530 104q0 -21 -4.5 -39.5t-16.5 -33t-33 -23t-54 -8.5h-368v252l-54 -38v50l54 38v418h70v-370l183 128v-50l-183 -128v-239h280q26 0 41 5.5t23 14.5t10 21t2 25l50 -23v0z" />
    <glyph glyph-name="lslash" unicode="&#x142;" horiz-adv-x="173" 
d="M119 397v-397h-65v346l-54 -46v44l54 46v330h64v-279l55 46v-44z" />
    <glyph glyph-name="Scaron" unicode="&#x160;" horiz-adv-x="593" 
d="M574 190q0 -55 -22 -94.5t-58 -64.5t-82.5 -36.5t-95.5 -11.5q-53 0 -107.5 13t-98 43t-70.5 79t-26 121h70q0 -55 18.5 -93.5t50 -62.5t74.5 -35t93 -11q35 0 68 8.5t59 26.5t41.5 46t15.5 67q0 44 -19.5 70.5t-51 42.5t-72.5 25.5t-83 20.5q-44 11 -87 23t-77 32
t-55.5 53t-21.5 86q0 55 22.5 93.5t59 61.5t82 33.5t91.5 10.5q54 0 101 -12t82.5 -38t56.5 -69t24 -104h-67q-1 46 -16.5 78t-42.5 52.5t-62.5 29.5t-75.5 9q-32 0 -65 -6.5t-60.5 -22.5t-45 -42t-17.5 -66q0 -41 21 -66t54 -41t75 -25.5t86 -20.5q47 -12 89.5 -25
t74.5 -34.5t51 -55.5t19 -88zM325 785h-53l-116 142h52l91 -112l89 112h52z" />
    <glyph glyph-name="scaron" unicode="&#x161;" horiz-adv-x="468" 
d="M445 141q0 -42 -18.5 -71.5t-47.5 -47.5t-65.5 -26t-73.5 -8q-50 0 -90.5 11t-69.5 33.5t-45 58t-16 84.5h62q1 -73 43.5 -107.5t116.5 -34.5q24 0 49 5.5t45.5 17.5t34 31t13.5 47t-12.5 46t-34 29.5t-51 18.5t-62.5 15q-38 9 -72 18t-59.5 24.5t-40 40t-14.5 63.5
q0 28 13 53.5t37.5 44.5t60 30t81.5 11q42 0 79 -9t64 -29t43 -51t16 -76h-60q0 64 -40 93t-101 29q-43 0 -69 -11.5t-39.5 -26.5t-18 -30.5t-4.5 -23.5q0 -33 20.5 -52t50 -30t62.5 -17t58 -13q28 -8 56 -17.5t50 -25t35.5 -38.5t13.5 -59zM261 586h-52l-116 142h52
l91 -112l88 112h52z" />
    <glyph glyph-name="Yacute" unicode="&#xdd;" 
d="M476 542q0 -94 -44.5 -146.5t-131.5 -60.5v-335h-70v335q-88 8 -132 60.5t-44 146.5v178h70v-158q0 -39 6.5 -70.5t23 -54.5t43.5 -35.5t68 -12.5t68.5 12.5t43.5 35.5t22.5 54.5t6.5 70.5v158h70v-178v0zM249 781h-46l124 146h74z" />
    <glyph glyph-name="yacute" unicode="&#xfd;" horiz-adv-x="536" 
d="M482 -6q0 -49 -13 -89t-40.5 -68.5t-71 -44t-103.5 -15.5q-41 0 -78.5 8.5t-67 28t-48 51t-21.5 77.5h64q2 -31 14.5 -54t33 -38t46 -22t54.5 -7q82 0 124 44.5t42 124.5v119q-21 -61 -68.5 -91t-112.5 -30q-85 0 -133.5 49t-48.5 133v345h64v-321q0 -68 34 -110t105 -42
q40 0 70 15.5t50 41t30 59t10 70.5v287h65v-522v1zM233 582h-45l124 146h74z" />
    <glyph glyph-name="Thorn" unicode="&#xde;" horiz-adv-x="531" 
d="M427 397q0 75 -44.5 111.5t-129.5 36.5h-129v-298h126q37 0 69 9t56 27.5t38 47t14 66.5zM494 399q0 -52 -18 -91t-49.5 -65.5t-76 -39.5t-96.5 -13h-130v-190h-70v720h70v-114h142q56 0 99 -15t71.5 -42.5t43 -65.5t14.5 -84z" />
    <glyph glyph-name="thorn" unicode="&#xfe;" horiz-adv-x="575" 
d="M473 249q0 42 -10 83t-33 73t-60.5 52t-91.5 20q-27 0 -55.5 -10t-52 -27t-38 -40.5t-14.5 -50.5v-166q0 -34 14.5 -60.5t38 -45t54 -28.5t62.5 -10q46 0 81 16.5t58.5 45t35 67t11.5 81.5zM538 249q0 -55 -17 -102.5t-48 -83t-76 -55.5t-100 -20q-60 0 -106 24t-72 68
v-286h-65v926h64v-276q27 42 72.5 63t97.5 21q61 0 108 -22t78.5 -60t47.5 -89t16 -108z" />
    <glyph glyph-name="Zcaron" unicode="&#x17d;" horiz-adv-x="558" 
d="M566 104q0 -21 -4.5 -39.5t-16.5 -33t-33 -23t-54 -8.5h-452v63l462 596h-431v61h519v-60l-463 -599h346q26 0 41 5.5t23 14.5t10 21t2 25l51 -23v0zM316 785h-52l-116 142h51l92 -112l88 112h52z" />
    <glyph glyph-name="zcaron" unicode="&#x17e;" horiz-adv-x="444" 
d="M444 95q0 -19 -4 -36t-15.5 -30t-31 -21t-49.5 -8h-336v57l331 407h-305v51h384v-56l-329 -408h240q25 0 39 5t21.5 14t9.5 20.5t2 23.5l43 -19v0zM249 586h-52l-116 142h52l91 -112l88 112h52z" />
    <glyph glyph-name="onehalf" unicode="&#xbd;" horiz-adv-x="675" 
d="M657 63q0 -29 -13.5 -46t-49.5 -17h-230q-1 29 11 53t31 44.5t43 37.5t47 32q18 12 35 25.5t30.5 28t21.5 30.5t8 34q0 35 -23.5 56.5t-60.5 21.5q-50 0 -71 -32t-20 -80h-45q-1 70 34 111t102 41q26 0 50 -7.5t42 -22t28.5 -36t10.5 -49.5q0 -44 -28.5 -76.5t-65 -60
t-70.5 -53.5t-46 -57h156q26 0 31 10t5 27l37 -15v0zM87 0h-45l437 720h45zM116 324v353h-7q-25 0 -29.5 -10t-4.5 -27l-38 16q0 26 13 45t52 19h63v-396h-49z" />
    <glyph glyph-name="onequarter" unicode="&#xbc;" horiz-adv-x="622" 
d="M457 340l-141 -190h141v190zM585 172q0 -26 -13 -44.5t-50 -18.5h-17v-109h-48v109h-185v41l187 246h46v-246h10q24 0 28.5 10t4.5 27l37 -15v0zM87 0h-45l437 720h45zM116 324v353h-7q-25 0 -29.5 -10t-4.5 -27l-38 16q0 26 13 45t52 19h63v-396h-49z" />
    <glyph glyph-name="onesuperior" unicode="&#xb9;" horiz-adv-x="219" 
d="M116 324v353h-7q-25 0 -29.5 -10t-4.5 -27l-38 16q0 26 13 45t52 19h63v-396h-49z" />
    <glyph glyph-name="threequarters" unicode="&#xbe;" horiz-adv-x="730" 
d="M565 340l-142 -190h142v190zM693 172q0 -26 -13 -44.5t-51 -18.5h-17v-109h-47v109h-185v41l187 246h45v-246h10q24 0 29 10t5 27l37 -15v0zM194 0h-44l436 720h45zM316 443q0 -29 -12 -51t-31.5 -37.5t-44.5 -23.5t-52 -8q-33 0 -62 9.5t-49 28t-30.5 46.5t-7.5 65h45
q-4 -54 24 -82t79 -28q38 0 66 22.5t28 60.5t-25 57.5t-63 19.5h-17v36h17q34 0 58.5 17t24.5 51t-27 50.5t-60 16.5q-45 0 -71 -25t-24 -73h-45q0 68 38.5 102.5t102.5 34.5q22 0 45.5 -6t42 -18.5t30.5 -31.5t12 -45q0 -28 -14 -53t-42 -36q32 -11 48 -39t16 -60z" />
    <glyph glyph-name="threesuperior" unicode="&#xb3;" horiz-adv-x="350" 
d="M316 443q0 -29 -12 -51t-31.5 -37.5t-44.5 -23.5t-52 -8q-33 0 -62 9.5t-49 28t-30.5 46.5t-7.5 65h45q-4 -54 24 -82t79 -28q38 0 66 22.5t28 60.5t-25 57.5t-63 19.5h-17v36h17q34 0 58.5 17t24.5 51t-27 50.5t-60 16.5q-45 0 -71 -25t-24 -73h-45q0 68 38.5 102.5
t102.5 34.5q22 0 45.5 -6t42 -18.5t30.5 -31.5t12 -45q0 -28 -14 -53t-42 -36q32 -11 48 -39t16 -60z" />
    <glyph glyph-name="twosuperior" unicode="&#xb2;" horiz-adv-x="341" 
d="M323 392q0 -28 -13.5 -45.5t-49.5 -17.5h-230q-1 30 11 54t31 44t42.5 37.5t47.5 32.5q18 12 35 25t30.5 27.5t21.5 30.5t8 34q0 35 -23.5 57t-60.5 22q-50 0 -71 -32t-20 -80h-45q-1 69 34 110t102 41q26 0 50 -7.5t42 -22t28.5 -35.5t10.5 -49q0 -30 -13.5 -54
t-34 -44.5t-45.5 -38.5t-48.5 -36t-42 -36t-26.5 -39h156q26 0 31 10t5 27l37 -15v0z" />
    <glyph glyph-name="brokenbar" unicode="&#xa6;" horiz-adv-x="161" 
d="M54 0v271h53v-271h-53zM54 449v271h53v-271h-53z" />
    <glyph glyph-name="minus" unicode="&#x2212;" horiz-adv-x="594" 
d="M45 333v54h504v-54h-504z" />
    <glyph glyph-name="multiply" unicode="&#xd7;" horiz-adv-x="431" 
d="M393 145l-178 179l-177 -179l-38 38l178 177l-178 178l37 37l177 -179l179 179l38 -37l-179 -178l179 -177z" />
    <glyph glyph-name="exclam" unicode="!" horiz-adv-x="173" 
d="M136 33q0 -20 -15.5 -32.5t-34.5 -12.5t-34 12.5t-15 32.5t15 32.5t34 12.5t34.5 -12.5t15.5 -32.5zM106 121h-39l-21 599h80z" />
    <glyph glyph-name="quotedbl" unicode="&#x22;" horiz-adv-x="269" 
d="M54 456v264h53v-264h-53zM161 456v264h54v-263z" />
    <glyph glyph-name="numbersign" unicode="#" horiz-adv-x="559" 
d="M217 433l-20 -146h145l20 146h-145zM553 433h-145l-21 -145h145l-6 -45h-145l-34 -243h-46l35 243h-145l-35 -243h-45l34 243h-145l6 44h145l21 145h-145l6 45h145l34 243h45l-34 -243h145l34 243h46l-34 -243h145z" />
    <glyph glyph-name="dollar" unicode="$" horiz-adv-x="468" 
d="M445 243q0 -40 -16.5 -68.5t-43 -46.5t-60 -27t-68.5 -10v-91h-44v91q-91 5 -142 50t-52 136h62q1 -72 43.5 -106.5t116.5 -34.5q24 0 49 5.5t45.5 17.5t34 31t13.5 46q0 28 -12.5 46t-34 29.5t-51 18.5t-62.5 15q-38 9 -71.5 18t-59 25t-40.5 40.5t-15 63.5q0 26 11 50
t32.5 43t54.5 30.5t77 13.5v91h45v-91q76 -5 124.5 -43.5t49.5 -119.5h-60q0 64 -40 92.5t-101 28.5q-43 0 -69 -11t-39.5 -26t-18 -30.5t-4.5 -23.5q0 -33 20.5 -52t50 -30.5t62.5 -17.5t58 -13q28 -8 56 -17.5t50 -25t35.5 -38.5t13.5 -59z" />
    <glyph glyph-name="percent" unicode="%" horiz-adv-x="701" 
d="M616 162q0 60 -26 100.5t-86 40.5q-30 0 -51.5 -11t-34.5 -30t-19 -45t-6 -55q0 -27 6 -52t19.5 -43.5t34.5 -30t50 -11.5q30 0 51 11.5t35 30.5t20.5 43.5t6.5 51.5zM664 163q0 -36 -10 -68t-30.5 -56t-50.5 -37.5t-69 -13.5q-41 0 -71 14t-49.5 38t-29 55.5t-9.5 66.5
q0 39 10 71.5t30 56.5t49.5 37t68.5 13q40 0 70 -13t50.5 -36.5t30.5 -56t10 -71.5zM308 543q0 30 -6.5 55.5t-20 44t-35 29.5t-51.5 11t-51 -11t-34.5 -30t-19.5 -44.5t-6 -54.5q0 -27 6.5 -52t20 -44t34.5 -30.5t50 -11.5t50.5 11.5t35.5 30.5t20.5 44t6.5 52zM151 0h-45
l420 683h-231q30 -21 45 -57t15 -82q0 -36 -10 -68t-30 -56t-50 -38t-70 -14q-41 0 -70.5 14t-49 38t-29 56t-9.5 67q0 39 10 71.5t30 56t49.5 36.5t68.5 13h376v-37z" />
    <glyph glyph-name="ampersand" unicode="&#x26;" horiz-adv-x="699" 
d="M699 348q0 -20 -4.5 -38t-16 -32t-32 -22.5t-52.5 -8.5h-34q5 -63 -14.5 -111.5t-57.5 -81.5t-91 -49.5t-115 -16.5q-50 0 -97 14.5t-83 41.5t-58 67t-22 91q0 34 10 65.5t29 57t46.5 42t62.5 19.5q-33 4 -57.5 19.5t-41.5 38.5t-25.5 51t-8.5 57q0 46 20.5 80t52.5 56
t72.5 33t81.5 11q56 0 101.5 -15.5t78 -45.5t50 -74.5t17.5 -101.5h-63q2 86 -47.5 135t-134.5 49q-31 0 -61 -8t-54 -25t-38.5 -42.5t-14.5 -59.5q0 -35 13 -60.5t35.5 -42.5t51 -25.5t60.5 -8.5h21v-47h-21q-36 0 -67 -9.5t-53.5 -29t-35.5 -48t-13 -66.5t17 -68.5
t44.5 -52t62.5 -33t71 -11.5q48 0 88.5 14t69 40.5t43.5 64.5t12 86h-47q-26 0 -40.5 -5.5t-22.5 -14.5t-10 -20.5t-2 -24.5l-48 22q0 20 4.5 38t16 32t32 22.5t52.5 8.5h144q25 0 40 5t23 14t10 20.5t2 24.5l48 -21v0z" />
    <glyph glyph-name="quotesingle" unicode="'" horiz-adv-x="161" 
d="M54 456v264h53v-263z" />
    <glyph glyph-name="parenleft" unicode="(" horiz-adv-x="209" 
d="M152 -206q-29 57 -50.5 113t-36 113t-21.5 116t-7 124q0 121 29 237t85 223h58q-54 -109 -82 -224t-28 -236q0 -123 28 -239.5t83 -226.5h-58z" />
    <glyph glyph-name="parenright" unicode=")" horiz-adv-x="209" 
d="M173 254q0 -121 -29.5 -237t-84.5 -223h-58q54 109 81.5 224t27.5 236q0 246 -110 466h58q28 -57 50 -113t36 -113t21.5 -116.5t7.5 -123.5z" />
    <glyph glyph-name="asterisk" unicode="*" horiz-adv-x="331" 
d="M198 544l86 -108l-42 -31l-76 115l-77 -115l-42 31l86 108l-133 37l16 50l130 -49l-7 138h53l-6 -138l129 49l16 -50z" />
    <glyph glyph-name="plus" unicode="+" horiz-adv-x="594" 
d="M324 333v-226h-53v226h-226v54h225v226h54v-226h225v-54h-225z" />
    <glyph glyph-name="comma" unicode="," horiz-adv-x="178" 
d="M46 -129l-46 26l132 229l46 -27z" />
    <glyph glyph-name="hyphen" unicode="-" horiz-adv-x="300" 
d="M45 240v56h210v-56h-210z" />
    <glyph glyph-name="period" unicode="." horiz-adv-x="173" 
d="M136 33q0 -20 -15.5 -32.5t-34.5 -12.5t-34 12.5t-15 32.5t15 32.5t34 12.5t34.5 -12.5t15.5 -32.5z" />
    <glyph glyph-name="slash" unicode="/" horiz-adv-x="356" 
d="M53 0h-53l303 720h53z" />
    <glyph glyph-name="zero" unicode="0" horiz-adv-x="607" 
d="M507 360q0 49 -9 105t-31.5 103.5t-62.5 79t-101 31.5q-62 0 -102 -31.5t-63 -79t-31.5 -103.5t-8.5 -105t8.5 -105t31.5 -103.5t62.5 -79t101.5 -31.5t101.5 31.5t62.5 79t32 103.5t9 105zM569 360q0 -42 -6 -85.5t-19 -85t-33.5 -78t-50.5 -64t-69 -43.5t-88 -16
q-50 0 -89 16t-68.5 43.5t-50.5 64t-34 78t-19 85t-6 85.5t6 85.5t19 85t33.5 78t50.5 64t68.5 43.5t88.5 16t89 -16t68.5 -43.5t50.5 -64t34 -78t19 -85t6 -85.5z" />
    <glyph glyph-name="one" unicode="1" horiz-adv-x="607" 
d="M275 0v659h-17q-26 0 -41 -5.5t-23 -14.5t-10 -21t-2 -25l-50 23q0 21 4.5 39.5t16.5 33t33 23t54 8.5h105v-720h-70z" />
    <glyph glyph-name="two" unicode="2" horiz-adv-x="607" 
d="M562 101q0 -22 -5 -40.5t-17 -32t-32.5 -21t-50.5 -7.5h-408q-2 49 19 91t55 78t76.5 67t83.5 59q33 22 65 47t57.5 53.5t41 60t15.5 66.5t-12 63.5t-34 49t-51.5 32t-65.5 11.5q-48 0 -81.5 -17t-54.5 -46t-30.5 -67t-9.5 -80h-62q-1 60 14.5 108.5t45.5 83t75 53.5
t103 19q46 0 87.5 -13t73 -39t49.5 -64t18 -88q0 -41 -15.5 -78t-41.5 -69.5t-59.5 -61.5t-69.5 -54q-35 -24 -68 -49t-61 -51t-48.5 -53t-28.5 -55h304q25 0 40 5.5t23 14.5t10 20.5t2 24.5l48 -21v0z" />
    <glyph glyph-name="three" unicode="3" horiz-adv-x="607" 
d="M557 202q0 -51 -20.5 -90.5t-55 -67t-79 -42t-91.5 -14.5q-59 0 -109 17t-86 50t-54.5 81.5t-13.5 110.5h63q-3 -48 9.5 -86t38.5 -64.5t64 -40.5t86 -14q36 0 69 11.5t57.5 32.5t39.5 51.5t15 68.5t-13 67t-36 48.5t-54 29t-67 9.5h-21v47h21q31 0 60 8.5t51.5 25.5
t35.5 42.5t13 60.5q0 34 -14.5 59.5t-38.5 42.5t-54 25t-60 8q-85 0 -135 -49t-48 -135h-62q0 57 17.5 101.5t49.5 74.5t77.5 45.5t101.5 15.5q40 0 81 -11t73 -33t52.5 -55.5t20.5 -79.5q0 -29 -8.5 -57.5t-25 -51.5t-41.5 -38.5t-58 -19.5q36 -3 63.5 -19.5t46.5 -42
t29 -57t10 -65.5z" />
    <glyph glyph-name="four" unicode="4" horiz-adv-x="607" 
d="M369 653l-286 -392h286v392zM582 304q0 -20 -4.5 -38t-16 -32t-32 -22.5t-52.5 -8.5h-41v-203h-67v203h-336v65l334 452h69v-459h24q25 0 40 5.5t22.5 14.5t9.5 20.5t2 24.5l48 -22v0z" />
    <glyph glyph-name="five" unicode="5" horiz-adv-x="607" 
d="M532 598q2 38 -18 51.5t-56 13.5h-274l-60 -283q30 43 79 63t101 20t95 -17t74 -48t47.5 -74.5t16.5 -95.5q0 -56 -19.5 -100.5t-53.5 -75.5t-80.5 -47.5t-100.5 -16.5q-53 0 -99.5 14.5t-81 43.5t-54 71.5t-17.5 99.5h65q1 -87 52.5 -131t135.5 -44q42 0 77 13.5
t59.5 38t38 59t13.5 76.5t-13.5 76t-38 58.5t-58.5 38t-76 13.5q-51 0 -96.5 -21.5t-71.5 -68.5h-65l80 395h342q106 0 105 -101z" />
    <glyph glyph-name="six" unicode="6" horiz-adv-x="607" 
d="M512 240q0 41 -15.5 77t-42.5 62.5t-63.5 42t-77.5 15.5t-76.5 -15.5t-62 -42t-42 -62.5t-15.5 -77t15.5 -77t42 -62.5t62 -42t76.5 -15.5t77.5 15.5t63.5 42t42.5 62.5t15.5 77zM573 241q0 -56 -20 -102t-55 -80t-82.5 -52.5t-102.5 -18.5q-67 0 -124 30t-92 82
q-33 51 -43 113.5t-10 124.5q0 69 13.5 139t46.5 126.5t87.5 92.5t136.5 36q37 0 72.5 -8.5t67.5 -28.5l-37 -43q-23 16 -50 22.5t-55 6.5q-66 0 -108.5 -32t-67 -81t-34 -107.5t-10.5 -111.5v-17q11 35 33.5 63t51.5 48t64 31t72 11q51 0 96 -19t78.5 -52t52.5 -77.5
t19 -95.5z" />
    <glyph glyph-name="seven" unicode="7" horiz-adv-x="607" 
d="M322 0h-73l230 663h-311q-26 0 -40.5 -5.5t-22.5 -14.5t-10 -20.5t-2 -24.5l-48 21q0 20 4.5 38t16.5 32t32.5 22.5t52.5 8.5h402v-57z" />
    <glyph glyph-name="eight" unicode="8" horiz-adv-x="607" 
d="M479 208q0 37 -13.5 68.5t-37.5 54.5t-56 36t-68 13q-37 0 -69 -13t-56 -35.5t-38 -54.5t-14 -69q0 -36 14 -67t38 -53t56 -34.5t68 -12.5q35 0 67 12.5t56 35t38.5 53t14.5 66.5zM438 553q0 29 -10.5 52.5t-29 40.5t-43 26.5t-52.5 9.5t-52.5 -9.5t-42.5 -26.5
t-28.5 -41t-10.5 -52t10.5 -51.5t29 -40.5t43 -26.5t51.5 -9.5t51.5 9.5t43 26.5t29.5 40.5t11 51.5zM543 208q0 -50 -20 -90.5t-53 -69t-76.5 -44.5t-90.5 -16q-48 0 -91.5 15.5t-76.5 44t-52.5 69.5t-19.5 91q0 74 42 126.5t110 70.5q-49 17 -77 58t-28 95q0 40 16 72.5
t43 55t61.5 34.5t72.5 12q37 0 72 -12.5t62 -35t43.5 -54.5t16.5 -72q0 -52 -28.5 -94t-76.5 -59q33 -8 60.5 -26.5t48 -44.5t31.5 -58t11 -68z" />
    <glyph glyph-name="nine" unicode="9" horiz-adv-x="607" 
d="M498 480q0 41 -15.5 77t-42 62.5t-62 42t-76.5 15.5t-77.5 -15.5t-63.5 -42t-42.5 -62.5t-15.5 -77t15.5 -77t42.5 -62.5t63.5 -42t77.5 -15.5t76.5 15.5t62 42t42 62.5t15.5 77zM570 382q0 -69 -13.5 -139t-46 -126.5t-87 -92.5t-136.5 -36q-37 0 -72.5 8.5t-67.5 28.5
l36 43q24 -16 51 -22.5t55 -6.5q66 0 108.5 32t67 81t34 107.5t10.5 111.5v17q-11 -35 -33.5 -63t-51.5 -48t-64 -31t-72 -11q-51 0 -96 19t-78.5 52t-52.5 77.5t-19 95.5q0 55 20 101.5t55 80.5t82.5 52.5t102.5 18.5q66 0 123 -30t92 -82q34 -51 43.5 -113.5t9.5 -124.5z
" />
    <glyph glyph-name="colon" unicode=":" horiz-adv-x="173" 
d="M136 33q0 -20 -15.5 -32.5t-34.5 -12.5t-34 12.5t-15 32.5t15 32.5t34 12.5t34.5 -12.5t15.5 -32.5zM136 482q0 -20 -15.5 -32.5t-34.5 -12.5t-34 12.5t-15 32.5t15 32.5t34 12.5t34.5 -12.5t15.5 -32.5z" />
    <glyph glyph-name="semicolon" unicode=";" horiz-adv-x="173" 
d="M46 -129l-46 26l132 229l46 -27zM136 482q0 -20 -15.5 -32.5t-34.5 -12.5t-34 12.5t-15 32.5t15 32.5t34 12.5t34.5 -12.5t15.5 -32.5z" />
    <glyph glyph-name="less" unicode="&#x3c;" horiz-adv-x="597" 
d="M45 335v50l507 236v-56l-435 -205l435 -205v-56z" />
    <glyph glyph-name="equal" unicode="=" horiz-adv-x="594" 
d="M45 230v54h504v-54h-504zM45 436v54h504v-54h-504z" />
    <glyph glyph-name="greater" unicode="&#x3e;" horiz-adv-x="597" 
d="M45 99v56l436 205l-436 205v56l507 -236v-50z" />
    <glyph glyph-name="question" unicode="?" horiz-adv-x="521" 
d="M306 33q0 -20 -15 -32.5t-34 -12.5t-34 12.5t-15 32.5t15 32.5t34 12.5t34 -12.5t15 -32.5zM484 555q0 -40 -11 -68t-28 -48.5t-35.5 -35.5t-33.5 -27q-25 -21 -42 -39t-27 -38t-14.5 -43.5t-4.5 -54.5v-92h-62v91q0 29 3.5 55.5t13.5 51t28 48.5t46 48q7 6 23.5 17.5
t33 29.5t29 43t12.5 58q0 60 -41 91.5t-106 31.5q-42 0 -73.5 -13.5t-52 -38.5t-30.5 -59t-8 -74h-67q-1 51 13.5 95t43.5 76.5t73 51.5t102 19q49 0 89 -13t68 -36.5t43 -56t15 -70.5z" />
    <glyph glyph-name="at" unicode="@" horiz-adv-x="789" 
d="M538 442q-10 44 -43.5 66t-76.5 22q-41 0 -75.5 -22.5t-59.5 -57t-38.5 -75t-13.5 -77.5q0 -24 8 -44.5t22 -36.5t34.5 -25t44.5 -9q52 0 86 28t53 73q15 37 29.5 78t29.5 80zM752 426q0 -64 -25 -125q-16 -36 -43.5 -70t-64.5 -59q-23 -15 -47.5 -25t-50.5 -10
q-23 0 -41.5 13t-19.5 37q-1 6 0 13q-23 -34 -57.5 -48.5t-73.5 -14.5q-33 0 -60 12.5t-46.5 34t-30 50t-10.5 60.5q0 48 17 98t48 91t74 67t96 26q42 0 81 -20.5t56 -62.5l22 64l39 -1l-94 -267q-6 -17 -11.5 -36t-5.5 -38q0 -37 36 -37q19 0 36 7t31 17q25 18 44.5 42.5
t32.5 53.5t20 59.5t7 60.5q0 65 -23.5 115.5t-64 85.5t-95 53.5t-115.5 18.5q-70 0 -131 -25t-106.5 -69t-71.5 -104.5t-26 -130.5q0 -74 24.5 -135.5t68.5 -105.5t105.5 -68t135.5 -24q81 0 152.5 36.5t121.5 99.5h46q-26 -41 -61 -74t-76.5 -56t-88 -35t-94.5 -12
q-83 0 -152 27.5t-118.5 77t-77 118t-27.5 151.5q0 80 29 148t79.5 117.5t119.5 77t149 27.5q68 0 129 -20.5t107.5 -60t74 -96.5t27.5 -129z" />
    <glyph glyph-name="A" unicode="A" 
d="M406 506q0 39 -6.5 70.5t-23 54.5t-43.5 35.5t-68 12.5t-68.5 -12.5t-43.5 -35.5t-22.5 -54.5t-6.5 -70.5v-117h282v117zM406 0v331h-282v-331h-70v526q0 103 53.5 157t157.5 54q105 0 158 -54t53 -156v-527h-70z" />
    <glyph glyph-name="B" unicode="B" 
d="M423 206q0 37 -13.5 64.5t-37 45t-54.5 26t-66 8.5h-128v-293h123q35 0 67 8.5t56 26.5t38.5 46.5t14.5 67.5zM401 530q0 34 -12 59t-33 41.5t-49 24.5t-61 8h-122v-265h122q31 0 59 8t49 24.5t33.5 41.5t12.5 58h1zM493 201q0 -52 -19.5 -90t-52.5 -62.5t-76.5 -36.5
t-90.5 -12h-200v720h206q42 0 80 -11t66.5 -33t45 -55.5t16.5 -79.5q0 -31 -10 -58t-28 -48t-43 -35.5t-55 -18.5q73 -8 117 -57t44 -123z" />
    <glyph glyph-name="C" unicode="C" horiz-adv-x="717" 
d="M680 280q-6 -65 -30.5 -119.5t-64 -94t-94 -61.5t-121.5 -22q-80 0 -141.5 30.5t-104.5 81.5t-65 118.5t-22 141.5q0 78 22.5 147.5t66 121.5t107 82.5t146.5 30.5q53 0 105.5 -17t95 -48.5t70 -76.5t30.5 -102h-68q-5 43 -27 77t-54.5 58t-72.5 37t-80 13
q-68 0 -118.5 -27.5t-84.5 -72.5t-51 -103t-17 -119q0 -59 16.5 -115.5t49 -100.5t81.5 -71t114 -27q55 0 97 18t72 50t48.5 75.5t26.5 94.5h68v0z" />
    <glyph glyph-name="D" unicode="D" horiz-adv-x="551" 
d="M444 361q0 64 -15 119t-46.5 94.5t-80.5 62t-118 22.5h-60v-598h48q68 0 119 23t85 63t51 95t17 119zM514 360q0 -81 -22.5 -147.5t-66 -113.5t-107 -73t-146.5 -26h-118v720h152q81 0 139 -28t95.5 -77t55.5 -114.5t18 -140.5z" />
    <glyph glyph-name="E" unicode="E" 
d="M54 0v720h425v-61h-355v-270h327v-58h-327v-270h361v-61h-431z" />
    <glyph glyph-name="F" unicode="F" 
d="M124 659v-270h327v-58h-327v-331h-70v720h425v-61h-355z" />
    <glyph glyph-name="G" unicode="G" horiz-adv-x="734" 
d="M723 -5q-30 0 -47 10t-26.5 30t-14 49t-7.5 68q-33 -76 -97 -122.5t-161 -46.5q-80 0 -141.5 30.5t-104.5 81.5t-65 118.5t-22 141.5q0 78 22.5 147.5t66 121.5t107 82.5t146.5 30.5q53 0 105.5 -17t95 -48.5t70 -76.5t30.5 -102h-68q-5 43 -27 77t-54.5 58t-72.5 37
t-80 13q-68 0 -118.5 -27.5t-84.5 -72.5t-51 -103t-17 -119q0 -59 16.5 -115.5t49 -100.5t81.5 -71t114 -27q52 0 93 17t71 46.5t48.5 70.5t26.5 89h-229v58h302v-197q0 -26 5.5 -41.5t15 -23.5t21.5 -10t25 -2z" />
    <glyph glyph-name="H" unicode="H" horiz-adv-x="560" 
d="M435 0v336h-311v-336h-70v720h70v-326h311v326h70v-720h-70z" />
    <glyph glyph-name="I" unicode="I" horiz-adv-x="178" 
d="M54 0v720h70v-720h-70z" />
    <glyph glyph-name="J" unicode="J" 
d="M476 204q0 -104 -49.5 -162.5t-164.5 -58.5q-55 0 -94 15.5t-64.5 43.5t-37.5 66.5t-12 84.5v87h64v-82q0 -76 34.5 -117t108.5 -41q75 0 110 41.5t35 132.5v445h-212q-26 0 -40.5 -5.5t-22.5 -14.5t-10 -21t-2 -25l-51 23q0 21 4.5 39.5t16.5 33t33 23t54 8.5h300v-516
v0z" />
    <glyph glyph-name="K" unicode="K" horiz-adv-x="429" 
d="M347 0l-223 301v-301h-70v720h70v-301l223 301h82l-264 -360l264 -360h-82z" />
    <glyph glyph-name="L" unicode="L" 
d="M530 104q0 -21 -4.5 -39.5t-16.5 -33t-33 -23t-54 -8.5h-368v720h70v-659h280q26 0 41 5.5t23 14.5t10 21t2 25l50 -23v0z" />
    <glyph glyph-name="M" unicode="M" horiz-adv-x="882" 
d="M758 0v506q0 39 -6.5 71t-23 54.5t-43.5 35t-68 12.5t-68.5 -12.5t-43.5 -35.5t-22.5 -54.5t-6.5 -70.5v-506h-70v506q0 39 -6.5 71t-23 54.5t-43.5 35t-68 12.5t-68 -12.5t-43.5 -35.5t-23 -54.5t-6.5 -70.5v-506h-70v527q0 103 53.5 156.5t157.5 53.5q132 0 176 -98
q44 98 176 98q104 0 157.5 -53.5t53.5 -156.5v-527h-70z" />
    <glyph glyph-name="N" unicode="N" 
d="M406 0v506q0 39 -6.5 70.5t-23 54.5t-43.5 35.5t-68 12.5t-68.5 -12.5t-43.5 -35.5t-22.5 -54.5t-6.5 -70.5v-506h-70v527q0 103 53.5 156.5t157.5 53.5q105 0 158 -54t53 -156v-527h-70z" />
    <glyph glyph-name="O" unicode="O" horiz-adv-x="749" 
d="M642 360q0 61 -16.5 118.5t-49.5 102t-83.5 71t-118.5 26.5t-118 -26.5t-83 -71t-49.5 -102t-16.5 -118.5q0 -62 16.5 -119t49.5 -101.5t83 -71t118 -26.5t118 26.5t83 71t49.5 101.5t16.5 119h1zM712 360q0 -77 -22.5 -145t-65.5 -120t-106 -82t-144 -30t-144 30
t-106 82t-65 120t-22 145q0 76 22 144.5t65 120.5t106 82t144 30t144 -30t106 -82t65.5 -120.5t22.5 -144.5z" />
    <glyph glyph-name="P" unicode="P" horiz-adv-x="531" 
d="M427 511q0 75 -44.5 111.5t-129.5 36.5h-129v-298h126q37 0 69 9t56 27.5t38 47t14 66.5zM494 513q0 -52 -18 -91t-49.5 -65.5t-76 -39.5t-96.5 -13h-130v-304h-70v720h212q56 0 99 -15t71.5 -42.5t43 -65.5t14.5 -84z" />
    <glyph glyph-name="Q" unicode="Q" horiz-adv-x="749" 
d="M642 360q0 61 -16.5 118.5t-49.5 102t-83.5 71t-118.5 26.5t-118 -26.5t-83 -71t-49.5 -102t-16.5 -118.5q0 -62 16.5 -119t49.5 -101.5t83 -71t118 -26.5q54 0 100.5 20t80.5 62l-84 81q-12 12 -26 22t-29 11q-13 0 -24.5 -7t-20.5 -17l-12 53q15 14 32.5 23.5t37.5 9.5
q22 1 41 -12t39 -32l83 -79q26 41 37.5 88t11.5 95h1zM845 -38q-14 -14 -32 -23.5t-38 -9.5q-22 0 -41 12.5t-38 31.5l-104 102q-42 -47 -97.5 -69.5t-120.5 -22.5q-81 0 -144 30t-106 82t-65 120t-22 145q0 76 22 144.5t65 120.5t106 82t144 30t144 -30t106 -82
t65.5 -120.5t22.5 -144.5q0 -67 -17.5 -130.5t-55.5 -116.5l95 -89q13 -12 26 -22t29 -11q13 0 24 7t21 17l11 -53v0z" />
    <glyph glyph-name="R" unicode="R" horiz-adv-x="532" 
d="M425 524q0 65 -40 102t-132 37h-128v-290h124q33 0 65 8t56.5 26t39.5 47t15 70zM495 528q0 -69 -37.5 -116t-103.5 -64q41 -7 67 -24t40.5 -42t19.5 -57.5t5 -70.5v-154h-69v146q0 46 -8 79t-27 54t-51 31t-80 10h-126v-320h-70v720h218q48 0 89 -10.5t70.5 -33.5
t46 -59.5t16.5 -88.5z" />
    <glyph glyph-name="S" unicode="S" horiz-adv-x="593" 
d="M574 190q0 -55 -22 -94.5t-58 -64.5t-82.5 -36.5t-95.5 -11.5q-53 0 -107.5 13t-98 43t-70.5 79t-26 121h70q0 -55 18.5 -93.5t50 -62.5t74.5 -35t93 -11q35 0 68 8.5t59 26.5t41.5 46t15.5 67q0 44 -19.5 70.5t-51 42.5t-72.5 25.5t-83 20.5q-44 11 -87 23t-77 32
t-55.5 53t-21.5 86q0 55 22.5 93.5t59 61.5t82 33.5t91.5 10.5q54 0 101 -12t82.5 -38t56.5 -69t24 -104h-67q-1 46 -16.5 78t-42.5 52.5t-62.5 29.5t-75.5 9q-32 0 -65 -6.5t-60.5 -22.5t-45 -42t-17.5 -66q0 -41 21 -66t54 -41t75 -25.5t86 -20.5q47 -12 89.5 -25
t74.5 -34.5t51 -55.5t19 -88z" />
    <glyph glyph-name="T" unicode="T" 
d="M300 659v-659h-70v659h-104q-26 0 -41 -5.5t-23 -14.5t-10 -21t-2 -25l-50 23q0 21 4.5 39.5t16.5 33t33 23t54 8.5h422v-61h-230z" />
    <glyph glyph-name="U" unicode="U" 
d="M476 194q0 -103 -53.5 -157t-157.5 -54q-105 0 -158 54t-53 156v527h70v-506q0 -39 6.5 -70.5t23 -54.5t43.5 -35.5t68 -12.5t68.5 12.5t43.5 35.5t22.5 54.5t6.5 70.5v506h70v-526v0z" />
    <glyph glyph-name="V" unicode="V" horiz-adv-x="570" 
d="M321 0h-73l-248 720h73l212 -599l211 599h74z" />
    <glyph glyph-name="W" unicode="W" horiz-adv-x="882" 
d="M828 193q0 -103 -53.5 -156.5t-157.5 -53.5q-132 0 -176 98q-44 -98 -176 -98q-104 0 -157.5 53.5t-53.5 156.5v527h70v-506q0 -39 6.5 -71t23 -54.5t43.5 -35t68 -12.5t68.5 12.5t43.5 35.5t22.5 54.5t6.5 70.5v506h70v-506q0 -39 6.5 -71t23 -54.5t43.5 -35t68 -12.5
t68 12.5t43.5 35.5t23 54.5t6.5 70.5v506h70v-527v0z" />
    <glyph glyph-name="X" unicode="X" horiz-adv-x="611" 
d="M528 0l-223 301l-223 -301h-82l264 360l-264 360h82l223 -301l223 301h83l-265 -360l265 -360h-83z" />
    <glyph glyph-name="Y" unicode="Y" 
d="M476 542q0 -94 -44.5 -146.5t-131.5 -60.5v-335h-70v335q-88 8 -132 60.5t-44 146.5v178h70v-158q0 -39 6.5 -70.5t23 -54.5t43.5 -35.5t68 -12.5t68.5 12.5t43.5 35.5t22.5 54.5t6.5 70.5v158h70v-178v0z" />
    <glyph glyph-name="Z" unicode="Z" horiz-adv-x="558" 
d="M566 104q0 -21 -4.5 -39.5t-16.5 -33t-33 -23t-54 -8.5h-452v63l462 596h-431v61h519v-60l-463 -599h346q26 0 41 5.5t23 14.5t10 21t2 25l51 -23v0z" />
    <glyph glyph-name="bracketleft" unicode="[" horiz-adv-x="267" 
d="M54 -206v926h168v-53h-109v-820h109v-53h-168z" />
    <glyph glyph-name="backslash" unicode="\" horiz-adv-x="356" 
d="M303 0l-303 720h53l303 -720h-53z" />
    <glyph glyph-name="bracketright" unicode="]" horiz-adv-x="267" 
d="M47 -206v53h109v820h-109v53h168v-926h-168z" />
    <glyph glyph-name="asciicircum" unicode="^" horiz-adv-x="479" 
d="M426 289l-186 372l-187 -372h-53l217 431h45l217 -431h-53z" />
    <glyph glyph-name="underscore" unicode="_" horiz-adv-x="500" 
d="M0 -125v50h500v-50h-500z" />
    <glyph glyph-name="grave" unicode="`" horiz-adv-x="0" 
d="M185 711h74l119 -145h-46z" />
    <glyph glyph-name="a" unicode="a" horiz-adv-x="575" 
d="M457 349q0 27 -14.5 50.5t-38 40.5t-52 27t-55.5 10q-54 0 -91.5 -20t-60.5 -52t-33 -73t-10 -83q0 -43 11.5 -81.5t35 -67t58 -45t81.5 -16.5q32 0 62.5 10t54 28.5t38 45t14.5 60.5v166zM457 0v80q-27 -44 -73 -68t-106 -24q-56 0 -100.5 20t-75.5 55.5t-48 83
t-17 102.5q0 57 16 108t47.5 89t78.5 60t108 22q52 0 97.5 -21t71.5 -63v71h65v-515h-64z" />
    <glyph glyph-name="b" unicode="b" horiz-adv-x="575" 
d="M473 249q0 42 -10 83t-33 73t-60.5 52t-91.5 20q-27 0 -55.5 -10t-52 -27t-38 -40.5t-14.5 -50.5v-166q0 -34 14.5 -60.5t38 -45t54 -28.5t62.5 -10q46 0 81 16.5t58.5 45t35 67t11.5 81.5zM538 249q0 -55 -17 -102.5t-48 -83t-76 -55.5t-100 -20q-60 0 -106 24t-72 68
v-80h-65v720h64v-276q27 42 72.5 63t97.5 21q61 0 108 -22t78.5 -60t47.5 -89t16 -108z" />
    <glyph glyph-name="c" unicode="c" horiz-adv-x="538" 
d="M501 183q-5 -46 -23.5 -82t-47.5 -61t-68 -38.5t-84 -13.5q-56 0 -101 20.5t-76 56t-47.5 83t-16.5 101.5q0 57 16.5 108t48 89t78 60t107.5 22q41 0 78 -12t65.5 -35t47 -56t23.5 -76h-62q-9 60 -50 94t-101 34q-50 0 -85.5 -19t-58 -50.5t-33 -72.5t-10.5 -86
q0 -41 11 -79t33 -67t55.5 -46.5t78.5 -17.5q33 0 61 10.5t49 29t34 45t16 59.5h62v0z" />
    <glyph glyph-name="d" unicode="d" horiz-adv-x="575" 
d="M457 349q0 27 -14.5 50.5t-38 40.5t-52 27t-55.5 10q-54 0 -91.5 -20t-60.5 -52t-33 -73t-10 -83q0 -43 11.5 -81.5t35 -67t58 -45t81.5 -16.5q32 0 62.5 10t54 28.5t38 45t14.5 60.5v166zM457 0v80q-27 -44 -73 -68t-106 -24q-56 0 -100.5 20t-75.5 55.5t-48 83
t-17 102.5q0 57 16 108t47.5 89t78.5 60t108 22q52 0 97.5 -21t71.5 -63v276h65v-720h-64z" />
    <glyph glyph-name="e" unicode="e" horiz-adv-x="538" 
d="M433 369q-13 51 -51.5 79.5t-93.5 28.5q-48 0 -82.5 -17.5t-57 -47t-33.5 -68t-12 -81.5v-15l330 121v0zM501 183q-5 -46 -23.5 -82t-47.5 -61t-68 -38.5t-84 -13.5q-56 0 -101 20.5t-76 56t-47.5 83t-16.5 101.5q0 57 16.5 108t48 89t78 60t107.5 22q41 0 78 -12
t65.5 -35t47 -56t23.5 -76l-396 -144q4 -35 17.5 -65t35 -52.5t52 -35.5t69.5 -13q33 0 61 10.5t49 29t34 45t16 59.5h62v0z" />
    <glyph glyph-name="f" unicode="f" horiz-adv-x="173" 
d="M230 677q-6 2 -18 2.5t-26 0.5t-26 -2t-21.5 -10t-15 -23t-5.5 -41v-89h55v-49h-54v-466h-65v466h-54v46h54v110q0 34 9 55.5t23.5 34t34 17t40.5 4.5q26 0 40.5 -1.5t28.5 -1.5v-53v0z" />
    <glyph glyph-name="g" unicode="g" horiz-adv-x="569" 
d="M457 349q0 27 -14.5 50.5t-38 40.5t-52 27t-55.5 10q-54 0 -91.5 -20t-60.5 -52t-33 -73t-10 -83q0 -43 11.5 -81.5t35 -67t58 -45t81.5 -16.5q32 0 62.5 10t53.5 28.5t37.5 45t14.5 60.5zM521 -6q0 -49 -13 -89t-40.5 -68.5t-71 -44t-103.5 -15.5q-41 0 -78.5 8.5
t-67 28t-48 51t-21.5 77.5h64q2 -31 15 -54t33 -38t46 -22t55 -7q82 0 124 44.5t42 124.5v90q-27 -44 -73 -68t-106 -24q-56 0 -100.5 20t-75.5 55.5t-48 83t-17 102.5q0 57 16 108t47.5 89t78.5 60t108 22q52 0 97.5 -21t71.5 -63v71h65v-522v1z" />
    <glyph glyph-name="h" unicode="h" horiz-adv-x="536" 
d="M417 0v321q0 68 -34 110t-104 42q-41 0 -71 -15.5t-49.5 -41t-29.5 -59t-10 -70.5v-287h-65v720h64v-314q22 61 69.5 91.5t112.5 30.5q84 0 133 -49.5t49 -133.5v-345h-65z" />
    <glyph glyph-name="i" unicode="i" horiz-adv-x="173" 
d="M54 0v515h64v-515h-64zM136 692q0 -20 -15.5 -32.5t-34.5 -12.5t-34 12.5t-15 32.5t15 32.5t34 12.5t34.5 -12.5t15.5 -32.5z" />
    <glyph glyph-name="j" unicode="j" horiz-adv-x="173" 
d="M119 -6q0 -49 -13 -89t-40.5 -68.5t-71 -44t-103.5 -15.5q-41 0 -78.5 8.5t-67 28t-48 51t-21.5 77.5h64q2 -31 14.5 -54t33 -38t46 -22t54.5 -7q82 0 124 44.5t42 124.5v525h64v-522zM136 692q0 -20 -15.5 -32.5t-34.5 -12.5t-34 12.5t-15 32.5t15 32.5t34 12.5
t34.5 -12.5t15.5 -32.5z" />
    <glyph glyph-name="k" unicode="k" horiz-adv-x="344" 
d="M272 0l-153 205v-205h-65v720h64v-410l154 205h72l-189 -257l189 -258h-72z" />
    <glyph glyph-name="l" unicode="l" horiz-adv-x="173" 
d="M54 0v720h65v-720h-65z" />
    <glyph glyph-name="m" unicode="m" horiz-adv-x="899" 
d="M780 0v321q0 67 -34 109.5t-104 42.5q-41 0 -71 -15.5t-49.5 -41t-29.5 -59t-10 -70.5v-287h-65v321q0 67 -34 109.5t-104 42.5q-41 0 -71 -15.5t-49.5 -41t-29.5 -59t-10 -70.5v-287h-65v515h64v-109q22 61 69.5 91.5t112.5 30.5q72 0 117.5 -37t58.5 -101
q20 69 67.5 103.5t119.5 34.5q84 0 133 -49.5t49 -133.5v-345h-65z" />
    <glyph glyph-name="n" unicode="n" horiz-adv-x="536" 
d="M417 0v321q0 68 -34 110t-104 42q-41 0 -71 -15.5t-49.5 -41t-29.5 -59t-10 -70.5v-287h-65v515h64v-109q22 61 69.5 91.5t112.5 30.5q84 0 133 -49.5t49 -133.5v-345h-65z" />
    <glyph glyph-name="o" unicode="o" horiz-adv-x="563" 
d="M461 258q0 41 -11 80.5t-33 70t-56 49.5t-79 19q-46 0 -80 -19t-56.5 -49.5t-33.5 -70t-11 -80.5q0 -42 11 -81t33.5 -70t56.5 -49.5t80 -18.5q45 0 79 18.5t56 49t33 70t11 81.5zM526 258q0 -53 -15.5 -102t-46.5 -86.5t-76.5 -59.5t-106.5 -22q-60 0 -106 22
t-76.5 59.5t-46 86.5t-15.5 102t15.5 101.5t46 86t76.5 60t107 22.5q60 0 106 -22.5t76.5 -60t46 -86t15.5 -101.5z" />
    <glyph glyph-name="p" unicode="p" horiz-adv-x="575" 
d="M473 249q0 42 -10 83t-33 73t-60.5 52t-91.5 20q-27 0 -55.5 -10t-52 -27t-38 -40.5t-14.5 -50.5v-166q0 -34 14.5 -60.5t38 -45t54 -28.5t62.5 -10q46 0 81 16.5t58.5 45t35 67t11.5 81.5zM538 249q0 -55 -17 -102.5t-48 -83t-76 -55.5t-100 -20q-60 0 -106 24t-72 68
v-286h-65v721h64v-71q27 42 72.5 63t97.5 21q61 0 108 -22t78.5 -60t47.5 -89t16 -108z" />
    <glyph glyph-name="q" unicode="q" horiz-adv-x="575" 
d="M457 349q0 27 -14.5 50.5t-38 40.5t-52 27t-55.5 10q-54 0 -91.5 -20t-60.5 -52t-33 -73t-10 -83q0 -43 11.5 -81.5t35 -67t58 -45t81.5 -16.5q32 0 62.5 10t54 28.5t38 45t14.5 60.5v166zM457 -206v286q-27 -44 -73 -68t-106 -24q-56 0 -100.5 20t-75.5 55.5t-48 83
t-17 102.5q0 57 16 108t47.5 89t78.5 60t108 22q52 0 97.5 -21t71.5 -63v71h65v-721h-64z" />
    <glyph glyph-name="r" unicode="r" horiz-adv-x="321" 
d="M279 473q-41 0 -71 -15.5t-49.5 -41t-29.5 -59t-10 -70.5v-287h-65v515h64v-109q22 61 69.5 91t112.5 30h10.5t10.5 -1z" />
    <glyph glyph-name="s" unicode="s" horiz-adv-x="468" 
d="M445 141q0 -42 -18.5 -71.5t-47.5 -47.5t-65.5 -26t-73.5 -8q-50 0 -90.5 11t-69.5 33.5t-45 58t-16 84.5h62q1 -73 43.5 -107.5t116.5 -34.5q24 0 49 5.5t45.5 17.5t34 31t13.5 47t-12.5 46t-34 29.5t-51 18.5t-62.5 15q-38 9 -72 18t-59.5 24.5t-40 40t-14.5 63.5
q0 28 13 53.5t37.5 44.5t60 30t81.5 11q42 0 79 -9t64 -29t43 -51t16 -76h-60q0 64 -40 93t-101 29q-43 0 -69 -11.5t-39.5 -26.5t-18 -30.5t-4.5 -23.5q0 -33 20.5 -52t50 -30t62.5 -17t58 -13q28 -8 56 -17.5t50 -25t35.5 -38.5t13.5 -59z" />
    <glyph glyph-name="t" unicode="t" horiz-adv-x="173" 
d="M119 470v-470h-65v470h-54v45h54v128l64 50v-178h55v-45h-54z" />
    <glyph glyph-name="u" unicode="u" horiz-adv-x="536" 
d="M417 0v109q-21 -61 -68.5 -91t-112.5 -30q-85 0 -133.5 49t-48.5 133v345h64v-321q0 -68 34 -110t105 -42q40 0 70 15.5t50 41t30 59t10 70.5v287h65v-515h-65z" />
    <glyph glyph-name="v" unicode="v" horiz-adv-x="433" 
d="M251 0h-69l-182 515h68l149 -412l148 412h68z" />
    <glyph glyph-name="w" unicode="w" horiz-adv-x="899" 
d="M780 0v109q-21 -61 -69 -91t-112 -30q-72 0 -118 36.5t-58 100.5q-20 -69 -67.5 -103t-119.5 -34q-85 0 -133.5 49t-48.5 133v345h64v-321q0 -67 34 -109.5t105 -42.5q40 0 70 15.5t50 41t30 59t10 70.5v287h64v-321q0 -67 34 -109.5t105 -42.5q40 0 70 15.5t50 41t30 59
t10 70.5v287h65v-515h-65z" />
    <glyph glyph-name="x" unicode="x" horiz-adv-x="451" 
d="M379 0l-153 205l-153 -205h-73l189 258l-189 257h72l154 -205l153 205h72l-189 -257l189 -258h-72z" />
    <glyph glyph-name="y" unicode="y" horiz-adv-x="536" 
d="M482 -6q0 -49 -13 -89t-40.5 -68.5t-71 -44t-103.5 -15.5q-41 0 -78.5 8.5t-67 28t-48 51t-21.5 77.5h64q2 -31 14.5 -54t33 -38t46 -22t54.5 -7q82 0 124 44.5t42 124.5v119q-21 -61 -68.5 -91t-112.5 -30q-85 0 -133.5 49t-48.5 133v345h64v-321q0 -68 34 -110t105 -42
q40 0 70 15.5t50 41t30 59t10 70.5v287h65v-522v1z" />
    <glyph glyph-name="z" unicode="z" horiz-adv-x="444" 
d="M444 95q0 -19 -4 -36t-15.5 -30t-31 -21t-49.5 -8h-336v57l331 407h-305v51h384v-56l-329 -408h240q25 0 39 5t21.5 14t9.5 20.5t2 23.5l43 -19v0z" />
    <glyph glyph-name="braceleft" unicode="{" horiz-adv-x="321" 
d="M210 -206q-90 0 -90 115v178q0 54 -16.5 89t-58.5 57v53q15 2 29 14t24 30.5t16 43t6 51.5v181q0 114 90 114h66v-53h-44q-31 0 -42.5 -21t-11.5 -75v-169q0 -23 -6 -46t-16.5 -42.5t-26.5 -34.5t-35 -21q37 -13 60 -52t23 -96v-166q0 -57 13.5 -77t42.5 -20h43v-53h-66z
" />
    <glyph glyph-name="bar" unicode="|" horiz-adv-x="161" 
d="M54 0v720h53v-720h-53z" />
    <glyph glyph-name="braceright" unicode="}" horiz-adv-x="321" 
d="M276 233q-41 -22 -58 -57t-17 -89v-178q0 -115 -90 -115h-66v53h43q29 0 42.5 20t13.5 77v166q0 57 23 96t61 52q-20 6 -35.5 21t-26.5 34.5t-16.5 42.5t-5.5 46v169q0 54 -12 75t-42 21h-45v53h66q90 0 90 -114v-181q0 -27 6 -51.5t16 -43t24 -30.5t29 -14v-53v0z" />
    <glyph glyph-name="asciitilde" unicode="~" horiz-adv-x="524" 
d="M487 385q-10 -16 -21.5 -31.5t-25 -27.5t-29.5 -19.5t-37 -7.5q-26 0 -49 10t-49 22t-54 24.5t-66 12.5q-34 0 -56 -21.5t-39 -51.5l-24 39q18 35 46.5 60.5t73.5 26.5q26 0 56 -10t59 -24q29 -13 56 -24t47 -11q15 0 27.5 6.5t23 16.5t19.5 23l18 26l24 -39v0z" />
    <glyph glyph-name="Adieresis" unicode="&#xc4;" 
d="M406 506q0 39 -6.5 70.5t-23 54.5t-43.5 35.5t-68 12.5t-68.5 -12.5t-43.5 -35.5t-22.5 -54.5t-6.5 -70.5v-117h282v117zM406 0v331h-282v-331h-70v526q0 103 53.5 157t157.5 54q105 0 158 -54t53 -156v-527h-70zM226 816q0 -20 -15 -32.5t-34 -12.5t-34.5 12.5
t-15.5 32.5t15.5 32.5t34.5 12.5t34 -12.5t15 -32.5zM408 816q0 -20 -15 -32.5t-34 -12.5t-34 12.5t-15 32.5t15 32.5t34 12.5t34 -12.5t15 -32.5z" />
    <glyph glyph-name="Aring" unicode="&#xc5;" 
d="M406 506q0 39 -6.5 70.5t-23 54.5t-43.5 35.5t-68 12.5t-68.5 -12.5t-43.5 -35.5t-22.5 -54.5t-6.5 -70.5v-117h282v117zM329 837q0 26 -19 45t-45 19t-45 -19t-19 -45t19 -45.5t45 -19.5t45 19.5t19 45.5zM406 0v331h-282v-331h-70v526q0 103 53.5 157t157.5 54
q105 0 158 -54t53 -156v-527h-70zM359 837q0 -20 -7.5 -37t-20 -30t-30 -20.5t-36.5 -7.5t-36 7.5t-30 20.5t-20.5 30t-7.5 37q0 19 7.5 36t20.5 30t30 20.5t36 7.5t36 -7.5t30 -20.5t20.5 -30t7.5 -36z" />
    <glyph glyph-name="Ccedilla" unicode="&#xc7;" horiz-adv-x="717" 
d="M680 280q-6 -63 -29 -116.5t-60.5 -92.5t-89.5 -62t-116 -26l-29 -41q8 2 15.5 4t20.5 2q32 0 56.5 -15.5t24.5 -50.5q0 -23 -9 -38t-24 -23.5t-34 -12t-39 -3.5q-29 0 -52.5 6.5t-43.5 12.5l12 26q18 -6 37 -11.5t39 -5.5q13 0 25.5 2.5t23 8t17 15t6.5 23.5
q0 20 -18.5 29.5t-33.5 9.5q-29 0 -50 -12l-18 13l44 61q-76 3 -135.5 34t-100 82t-61.5 117t-21 139q0 78 22.5 147.5t66 121.5t107 82.5t146.5 30.5q53 0 105.5 -17t95 -48.5t70 -76.5t30.5 -102h-68q-5 43 -27 77t-54.5 58t-72.5 37t-80 13q-68 0 -118.5 -27.5
t-84.5 -72.5t-51 -103t-17 -119q0 -59 16.5 -115.5t49 -100.5t81.5 -71t114 -27q55 0 97 18t72 50t48.5 75.5t26.5 94.5h68v0z" />
    <glyph glyph-name="Eacute" unicode="&#xc9;" horiz-adv-x="547" 
d="M54 0v720h425v-61h-355v-270h327v-58h-327v-270h361v-61h-431zM253 765h-45l123 145h75z" />
    <glyph glyph-name="Ntilde" unicode="&#xd1;" 
d="M406 0v506q0 39 -6.5 70.5t-23 54.5t-43.5 35.5t-68 12.5t-68.5 -12.5t-43.5 -35.5t-22.5 -54.5t-6.5 -70.5v-506h-70v527q0 103 53.5 156.5t157.5 53.5q105 0 158 -54t53 -156v-527h-70zM436 869q-1 -36 -21 -63.5t-60 -27.5q-20 0 -37.5 8.5t-33.5 18t-31.5 18
t-31.5 8.5q-20 0 -32.5 -18.5t-13.5 -36.5h-35q0 16 5.5 32.5t16 30.5t25 23t32.5 9q19 0 37 -8.5t35 -18.5t32.5 -18.5t28.5 -8.5q22 0 34 15t14 37h36v0z" />
    <glyph glyph-name="Odieresis" unicode="&#xd6;" horiz-adv-x="749" 
d="M642 360q0 61 -16.5 118.5t-49.5 102t-83.5 71t-118.5 26.5t-118 -26.5t-83 -71t-49.5 -102t-16.5 -118.5q0 -62 16.5 -119t49.5 -101.5t83 -71t118 -26.5t118 26.5t83 71t49.5 101.5t16.5 119h1zM712 360q0 -77 -22.5 -145t-65.5 -120t-106 -82t-144 -30t-144 30
t-106 82t-65 120t-22 145q0 76 22 144.5t65 120.5t106 82t144 30t144 -30t106 -82t65.5 -120.5t22.5 -144.5zM327 816q0 -20 -15 -32.5t-34 -12.5t-34 12.5t-15 32.5t15 32.5t34 12.5t34 -12.5t15 -32.5zM510 816q0 -20 -15 -32.5t-35 -12.5q-19 0 -34 12.5t-15 32.5
t15 32.5t34 12.5q20 0 35 -12.5t15 -32.5z" />
    <glyph glyph-name="Udieresis" unicode="&#xdc;" 
d="M476 194q0 -103 -53.5 -157t-157.5 -54q-105 0 -158 54t-53 156v527h70v-506q0 -39 6.5 -70.5t23 -54.5t43.5 -35.5t68 -12.5t68.5 12.5t43.5 35.5t22.5 54.5t6.5 70.5v506h70v-527v1zM229 816q0 -20 -15 -32.5t-34 -12.5t-34 12.5t-15 32.5t15 32.5t34 12.5t34 -12.5
t15 -32.5zM411 816q0 -20 -15 -32.5t-34 -12.5t-34 12.5t-15 32.5t15 32.5t34 12.5t34 -12.5t15 -32.5z" />
    <glyph glyph-name="aacute" unicode="&#xe1;" horiz-adv-x="575" 
d="M457 349q0 27 -14.5 50.5t-38 40.5t-52 27t-55.5 10q-54 0 -91.5 -20t-60.5 -52t-33 -73t-10 -83q0 -43 11.5 -81.5t35 -67t58 -45t81.5 -16.5q32 0 62.5 10t54 28.5t38 45t14.5 60.5v166zM457 0v80q-27 -44 -73 -68t-106 -24q-56 0 -100.5 20t-75.5 55.5t-48 83
t-17 102.5q0 57 16 108t47.5 89t78.5 60t108 22q52 0 97.5 -21t71.5 -63v71h65v-515h-64zM236 566h-46l124 145h74z" />
    <glyph glyph-name="agrave" unicode="&#xe0;" horiz-adv-x="575" 
d="M457 349q0 27 -14.5 50.5t-38 40.5t-52 27t-55.5 10q-54 0 -91.5 -20t-60.5 -52t-33 -73t-10 -83q0 -43 11.5 -81.5t35 -67t58 -45t81.5 -16.5q32 0 62.5 10t54 28.5t38 45t14.5 60.5v166zM457 0v80q-27 -44 -73 -68t-106 -24q-56 0 -100.5 20t-75.5 55.5t-48 83
t-17 102.5q0 57 16 108t47.5 89t78.5 60t108 22q52 0 97.5 -21t71.5 -63v71h65v-515h-64zM326 566l-147 145h73l119 -145h-45z" />
    <glyph glyph-name="acircumflex" unicode="&#xe2;" horiz-adv-x="575" 
d="M457 349q0 27 -14.5 50.5t-38 40.5t-52 27t-55.5 10q-54 0 -91.5 -20t-60.5 -52t-33 -73t-10 -83q0 -43 11.5 -81.5t35 -67t58 -45t81.5 -16.5q32 0 62.5 10t54 28.5t38 45t14.5 60.5v166zM457 0v80q-27 -44 -73 -68t-106 -24q-56 0 -100.5 20t-75.5 55.5t-48 83
t-17 102.5q0 57 16 108t47.5 89t78.5 60t108 22q52 0 97.5 -21t71.5 -63v71h65v-515h-64zM375 570l-92 111l-88 -111h-52l115 141h52l117 -141h-52z" />
    <glyph glyph-name="adieresis" unicode="&#xe4;" horiz-adv-x="575" 
d="M457 349q0 27 -14.5 50.5t-38 40.5t-52 27t-55.5 10q-54 0 -91.5 -20t-60.5 -52t-33 -73t-10 -83q0 -43 11.5 -81.5t35 -67t58 -45t81.5 -16.5q32 0 62.5 10t54 28.5t38 45t14.5 60.5v166zM457 0v80q-27 -44 -73 -68t-106 -24q-56 0 -100.5 20t-75.5 55.5t-48 83
t-17 102.5q0 57 16 108t47.5 89t78.5 60t108 22q52 0 97.5 -21t71.5 -63v71h65v-515h-64zM259 617q0 -20 -15 -32.5t-34 -12.5t-34 12.5t-15 32.5t15 32.5t34 12.5t34 -12.5t15 -32.5zM442 617q0 -20 -15 -32.5t-35 -12.5q-19 0 -34 12.5t-15 32.5t15 32.5t34 12.5
q20 0 35 -12.5t15 -32.5z" />
    <glyph glyph-name="atilde" unicode="&#xe3;" horiz-adv-x="575" 
d="M457 349q0 27 -14.5 50.5t-38 40.5t-52 27t-55.5 10q-54 0 -91.5 -20t-60.5 -52t-33 -73t-10 -83q0 -43 11.5 -81.5t35 -67t58 -45t81.5 -16.5q32 0 62.5 10t54 28.5t38 45t14.5 60.5v166zM457 0v80q-27 -44 -73 -68t-106 -24q-56 0 -100.5 20t-75.5 55.5t-48 83
t-17 102.5q0 57 16 108t47.5 89t78.5 60t108 22q52 0 97.5 -21t71.5 -63v71h65v-515h-64zM450 671q-1 -37 -21 -64.5t-60 -27.5q-20 0 -37 8.5t-33 18t-32 18t-32 8.5q-20 0 -32.5 -18.5t-13.5 -36.5h-35q0 16 5.5 33t16 30.5t25 22.5t32.5 9q19 0 37 -8.5t35 -18.5
t32.5 -18.5t28.5 -8.5q22 0 34.5 15t13.5 38h36v0z" />
    <glyph glyph-name="aring" unicode="&#xe5;" horiz-adv-x="575" 
d="M457 349q0 27 -14.5 50.5t-38 40.5t-52 27t-55.5 10q-54 0 -91.5 -20t-60.5 -52t-33 -73t-10 -83q0 -43 11.5 -81.5t35 -67t58 -45t81.5 -16.5q32 0 62.5 10t54 28.5t38 45t14.5 60.5v166zM354 672q0 26 -19 45t-45 19t-45 -19t-19 -45t19 -45.5t45 -19.5t45 19.5
t19 45.5zM457 0v80q-27 -44 -73 -68t-106 -24q-56 0 -100.5 20t-75.5 55.5t-48 83t-17 102.5q0 57 16 108t47.5 89t78.5 60t108 22q52 0 97.5 -21t71.5 -63v71h65v-515h-64zM384 672q0 -19 -7.5 -36.5t-20 -30.5t-30 -20.5t-36.5 -7.5t-36 7.5t-30 20.5t-20.5 30t-7.5 37
q0 19 7.5 36t20.5 30t30 20.5t36 7.5t36 -7.5t30 -20.5t20.5 -30t7.5 -36z" />
    <glyph glyph-name="ccedilla" unicode="&#xe7;" horiz-adv-x="538" 
d="M501 183q-5 -44 -22 -79t-44 -60t-63.5 -39.5t-78.5 -16.5l-33 -46q8 2 15.5 4t20.5 2q32 0 56.5 -15.5t24.5 -50.5q0 -23 -9 -38t-24 -23.5t-34 -12t-39 -3.5q-29 0 -52.5 6.5t-43.5 12.5l12 26q18 -6 37 -11.5t39 -5.5q13 0 25.5 2.5t23 8t17 15t6.5 23.5
q0 20 -18.5 29.5t-33.5 9.5q-29 0 -50 -12l-18 13l48 66q-53 3 -95 24.5t-71 57t-44.5 81.5t-15.5 98q0 57 16.5 108t48 89t78 60t107.5 22q41 0 78 -12t65.5 -35t47 -56t23.5 -76h-62q-9 60 -50 94t-101 34q-50 0 -85.5 -19t-58 -50.5t-33 -72.5t-10.5 -86q0 -41 11 -79
t33 -67t55.5 -46.5t78.5 -17.5q33 0 61 10.5t49 29t34 45t16 59.5h62v0z" />
    <glyph glyph-name="eacute" unicode="&#xe9;" horiz-adv-x="524" 
d="M433 369q-13 51 -51.5 79.5t-93.5 28.5q-48 0 -82.5 -17.5t-57 -47t-33.5 -68t-12 -81.5v-15l330 121v0zM501 183q-5 -46 -23.5 -82t-47.5 -61t-68 -38.5t-84 -13.5q-56 0 -101 20.5t-76 56t-47.5 83t-16.5 101.5q0 57 16.5 108t48 89t78 60t107.5 22q41 0 78 -12
t65.5 -35t47 -56t23.5 -76l-396 -144q4 -35 17.5 -65t35 -52.5t52 -35.5t69.5 -13q33 0 61 10.5t49 29t34 45t16 59.5h62v0zM232 566h-45l123 145h75z" />
    <glyph glyph-name="egrave" unicode="&#xe8;" horiz-adv-x="524" 
d="M433 369q-13 51 -51.5 79.5t-93.5 28.5q-48 0 -82.5 -17.5t-57 -47t-33.5 -68t-12 -81.5v-15l330 121v0zM501 183q-5 -46 -23.5 -82t-47.5 -61t-68 -38.5t-84 -13.5q-56 0 -101 20.5t-76 56t-47.5 83t-16.5 101.5q0 57 16.5 108t48 89t78 60t107.5 22q41 0 78 -12
t65.5 -35t47 -56t23.5 -76l-396 -144q4 -35 17.5 -65t35 -52.5t52 -35.5t69.5 -13q33 0 61 10.5t49 29t34 45t16 59.5h62v0zM330 566l-147 145h73l119 -145h-45z" />
    <glyph glyph-name="ecircumflex" unicode="&#xea;" horiz-adv-x="524" 
d="M433 369q-13 51 -51.5 79.5t-93.5 28.5q-48 0 -82.5 -17.5t-57 -47t-33.5 -68t-12 -81.5v-15l330 121v0zM501 183q-5 -46 -23.5 -82t-47.5 -61t-68 -38.5t-84 -13.5q-56 0 -101 20.5t-76 56t-47.5 83t-16.5 101.5q0 57 16.5 108t48 89t78 60t107.5 22q41 0 78 -12
t65.5 -35t47 -56t23.5 -76l-396 -144q4 -35 17.5 -65t35 -52.5t52 -35.5t69.5 -13q33 0 61 10.5t49 29t34 45t16 59.5h62v0zM379 570l-92 111l-88 -111h-52l115 141h52l117 -141h-52z" />
    <glyph glyph-name="edieresis" unicode="&#xeb;" horiz-adv-x="524" 
d="M433 369q-13 51 -51.5 79.5t-93.5 28.5q-48 0 -82.5 -17.5t-57 -47t-33.5 -68t-12 -81.5v-15l330 121v0zM501 183q-5 -46 -23.5 -82t-47.5 -61t-68 -38.5t-84 -13.5q-56 0 -101 20.5t-76 56t-47.5 83t-16.5 101.5q0 57 16.5 108t48 89t78 60t107.5 22q41 0 78 -12
t65.5 -35t47 -56t23.5 -76l-396 -144q4 -35 17.5 -65t35 -52.5t52 -35.5t69.5 -13q33 0 61 10.5t49 29t34 45t16 59.5h62v0zM248 617q0 -20 -15 -32.5t-34 -12.5t-34 12.5t-15 32.5t15 32.5t34 12.5t34 -12.5t15 -32.5zM431 617q0 -20 -15 -32.5t-35 -12.5q-19 0 -34 12.5
t-15 32.5t15 32.5t34 12.5q20 0 35 -12.5t15 -32.5z" />
    <glyph glyph-name="iacute" unicode="&#xed;" horiz-adv-x="173" 
d="M54 0v515h65v-515h-65zM39 566h-45l123 145h75z" />
    <glyph glyph-name="igrave" unicode="&#xec;" horiz-adv-x="173" 
d="M54 0v515h64v-515h-64zM139 566l-147 145h74l119 -145h-46z" />
    <glyph glyph-name="icircumflex" unicode="&#xee;" horiz-adv-x="173" 
d="M54 0v515h64v-515h-64zM178 570l-91 111l-88 -111h-52l115 141h52l116 -141h-52z" />
    <glyph glyph-name="idieresis" unicode="&#xef;" horiz-adv-x="173" 
d="M54 0v515h65v-515h-65zM48 617q0 -20 -15 -32.5t-34 -12.5t-34.5 12.5t-15.5 32.5t15.5 32.5t34.5 12.5t34 -12.5t15 -32.5zM230 617q0 -20 -15 -32.5t-34 -12.5t-34 12.5t-15 32.5t15 32.5t34 12.5t34 -12.5t15 -32.5z" />
    <glyph glyph-name="ntilde" unicode="&#xf1;" horiz-adv-x="536" 
d="M417 0v321q0 68 -34 110t-104 42q-41 0 -71 -15.5t-49.5 -41t-29.5 -59t-10 -70.5v-287h-65v515h64v-109q22 61 69.5 91.5t112.5 30.5q84 0 133 -49.5t49 -133.5v-345h-65zM431 671q0 -37 -20 -64.5t-60 -27.5q-20 0 -37.5 8.5t-33.5 18t-31.5 18t-31.5 8.5
q-20 0 -33 -18.5t-14 -36.5h-35q0 16 5.5 33t16 30.5t25 22.5t32.5 9q19 0 37 -8.5t35 -18.5t32.5 -18.5t29.5 -8.5q21 0 33.5 15t14.5 38h35v0z" />
    <glyph glyph-name="oacute" unicode="&#xf3;" horiz-adv-x="563" 
d="M461 258q0 41 -11 80.5t-33 70t-56 49.5t-79 19q-46 0 -80 -19t-56.5 -49.5t-33.5 -70t-11 -80.5q0 -42 11 -81t33.5 -70t56.5 -49.5t80 -18.5q45 0 79 18.5t56 49t33 70t11 81.5zM526 258q0 -53 -15.5 -102t-46.5 -86.5t-76.5 -59.5t-106.5 -22q-60 0 -106 22
t-76.5 59.5t-46 86.5t-15.5 102t15.5 101.5t46 86t76.5 60t107 22.5q60 0 106 -22.5t76.5 -60t46 -86t15.5 -101.5zM245 566h-46l124 145h74z" />
    <glyph glyph-name="ograve" unicode="&#xf2;" horiz-adv-x="563" 
d="M461 258q0 41 -11 80.5t-33 70t-56 49.5t-79 19q-46 0 -80 -19t-56.5 -49.5t-33.5 -70t-11 -80.5q0 -42 11 -81t33.5 -70t56.5 -49.5t80 -18.5q45 0 79 18.5t56 49t33 70t11 81.5zM526 258q0 -53 -15.5 -102t-46.5 -86.5t-76.5 -59.5t-106.5 -22q-60 0 -106 22
t-76.5 59.5t-46 86.5t-15.5 102t15.5 101.5t46 86t76.5 60t107 22.5q60 0 106 -22.5t76.5 -60t46 -86t15.5 -101.5zM325 566l-147 145h73l119 -145h-45z" />
    <glyph glyph-name="ocircumflex" unicode="&#xf4;" horiz-adv-x="563" 
d="M461 258q0 41 -11 80.5t-33 70t-56 49.5t-79 19q-46 0 -80 -19t-56.5 -49.5t-33.5 -70t-11 -80.5q0 -42 11 -81t33.5 -70t56.5 -49.5t80 -18.5q45 0 79 18.5t56 49t33 70t11 81.5zM526 258q0 -53 -15.5 -102t-46.5 -86.5t-76.5 -59.5t-106.5 -22q-60 0 -106 22
t-76.5 59.5t-46 86.5t-15.5 102t15.5 101.5t46 86t76.5 60t107 22.5q60 0 106 -22.5t76.5 -60t46 -86t15.5 -101.5zM371 570l-91 111l-88 -111h-52l115 141h52l116 -141h-52z" />
    <glyph glyph-name="odieresis" unicode="&#xf6;" horiz-adv-x="563" 
d="M461 258q0 41 -11 80.5t-33 70t-56 49.5t-79 19q-46 0 -80 -19t-56.5 -49.5t-33.5 -70t-11 -80.5q0 -42 11 -81t33.5 -70t56.5 -49.5t80 -18.5q45 0 79 18.5t56 49t33 70t11 81.5zM526 258q0 -53 -15.5 -102t-46.5 -86.5t-76.5 -59.5t-106.5 -22q-60 0 -106 22
t-76.5 59.5t-46 86.5t-15.5 102t15.5 101.5t46 86t76.5 60t107 22.5q60 0 106 -22.5t76.5 -60t46 -86t15.5 -101.5zM241 617q0 -20 -15 -32.5t-34 -12.5t-34.5 12.5t-15.5 32.5t15.5 32.5t34.5 12.5t34 -12.5t15 -32.5zM423 617q0 -20 -15 -32.5t-34 -12.5t-34 12.5
t-15 32.5t15 32.5t34 12.5t34 -12.5t15 -32.5z" />
    <glyph glyph-name="otilde" unicode="&#xf5;" horiz-adv-x="563" 
d="M461 258q0 41 -11 80.5t-33 70t-56 49.5t-79 19q-46 0 -80 -19t-56.5 -49.5t-33.5 -70t-11 -80.5q0 -42 11 -81t33.5 -70t56.5 -49.5t80 -18.5q45 0 79 18.5t56 49t33 70t11 81.5zM526 258q0 -53 -15.5 -102t-46.5 -86.5t-76.5 -59.5t-106.5 -22q-60 0 -106 22
t-76.5 59.5t-46 86.5t-15.5 102t15.5 101.5t46 86t76.5 60t107 22.5q60 0 106 -22.5t76.5 -60t46 -86t15.5 -101.5zM429 671q-1 -37 -21 -64.5t-60 -27.5q-20 0 -37 8.5t-33 18t-32 18t-32 8.5q-20 0 -32.5 -18.5t-13.5 -36.5h-35q0 16 5.5 33t16 30.5t25 22.5t32.5 9
q19 0 37 -8.5t35 -18.5t32.5 -18.5t28.5 -8.5q22 0 34.5 15t13.5 38h36v0z" />
    <glyph glyph-name="uacute" unicode="&#xfa;" horiz-adv-x="536" 
d="M417 0v109q-21 -61 -68.5 -91t-112.5 -30q-85 0 -133.5 49t-48.5 133v345h64v-321q0 -68 34 -110t105 -42q40 0 70 15.5t50 41t30 59t10 70.5v287h65v-515h-65zM222 566h-46l124 145h74z" />
    <glyph glyph-name="ugrave" unicode="&#xf9;" horiz-adv-x="536" 
d="M417 0v109q-21 -61 -68.5 -91t-112.5 -30q-85 0 -133.5 49t-48.5 133v345h64v-321q0 -68 34 -110t105 -42q40 0 70 15.5t50 41t30 59t10 70.5v287h65v-515h-65zM302 566l-147 145h74l119 -145h-46z" />
    <glyph glyph-name="ucircumflex" unicode="&#xfb;" horiz-adv-x="536" 
d="M417 0v109q-21 -61 -68.5 -91t-112.5 -30q-85 0 -133.5 49t-48.5 133v345h64v-321q0 -68 34 -110t105 -42q40 0 70 15.5t50 41t30 59t10 70.5v287h65v-515h-65zM358 570l-92 111l-88 -111h-52l115 141h52l116 -141h-51z" />
    <glyph glyph-name="udieresis" unicode="&#xfc;" horiz-adv-x="536" 
d="M417 0v109q-21 -61 -68.5 -91t-112.5 -30q-85 0 -133.5 49t-48.5 133v345h64v-321q0 -68 34 -110t105 -42q40 0 70 15.5t50 41t30 59t10 70.5v287h65v-515h-65zM228 617q0 -20 -15 -32.5t-34 -12.5t-34 12.5t-15 32.5t15 32.5t34 12.5t34 -12.5t15 -32.5zM411 617
q0 -20 -15 -32.5t-35 -12.5q-19 0 -34 12.5t-15 32.5t15 32.5t34 12.5q20 0 35 -12.5t15 -32.5z" />
    <glyph glyph-name="dagger" unicode="&#x2020;" horiz-adv-x="554" 
d="M309 431l7 -637h-78l7 637l-200 -6v67l200 -7l-7 235h78l-7 -235l200 7v-67z" />
    <glyph glyph-name="degree" unicode="&#xb0;" horiz-adv-x="363" 
d="M292 587q0 22 -8.5 42t-23 35t-34.5 24t-44 9q-23 0 -43 -9t-35 -24t-24 -35t-9 -42q0 -24 9 -44.5t24 -35t35 -23t42 -8.5q48 0 79 32t31 79h1zM326 587q0 -30 -11 -57t-30.5 -46.5t-45.5 -31t-57 -11.5t-57.5 11t-46 30.5t-30.5 46.5t-11 58q0 30 11 56.5t30.5 46
t46 31t56.5 11.5q31 0 57.5 -11.5t46 -31t30.5 -46t11 -56.5z" />
    <glyph glyph-name="cent" unicode="&#xa2;" horiz-adv-x="538" 
d="M504 285q-9 -85 -62 -135t-134 -58v-92h-44v92q-53 3 -95 24.5t-70.5 56.5t-43.5 81t-15 98q0 54 14.5 102.5t42.5 85.5t70 60.5t97 27.5v92h44v-91q38 -2 72 -15t60 -36t42.5 -55t21.5 -72h-62q-9 60 -50 94t-101 34q-50 0 -85.5 -19t-58 -50.5t-33 -72.5t-10.5 -85
q0 -41 11 -79.5t33 -67.5t55.5 -46.5t78.5 -17.5q32 0 60 10.5t49.5 29t34.5 45t16 59.5h62v0z" />
    <glyph glyph-name="sterling" unicode="&#xa3;" horiz-adv-x="549" 
d="M551 70q-35 -39 -74.5 -63t-93.5 -24q-23 0 -45 6t-44 14t-43.5 14.5t-43.5 8.5q-43 3 -78.5 -7t-69.5 -36l-34 43q22 18 43.5 39t37.5 45t26 51.5t10 57.5q0 27 -6 57t-20 54h-86v47h67q-9 18 -19.5 37t-19.5 39.5t-15 41t-6 40.5q0 50 20 87t53 61t75.5 36t87.5 12
q58 0 104.5 -17t77.5 -49.5t46 -79t11 -104.5h-63q4 43 -6 79t-32.5 62t-56.5 40.5t-79 14.5q-33 0 -64 -8t-55 -25t-38 -43.5t-14 -63.5q0 -21 6.5 -41.5t16.5 -41t21 -40t20 -37.5h146v-47h-131q14 -25 18.5 -52.5t4.5 -55.5q0 -52 -24.5 -95t-63.5 -75q20 14 42.5 21.5
t46.5 7.5t46.5 -7t45 -15t45 -15t44.5 -7t40.5 6.5t34.5 18t30 25.5t28 29l30 -46v0z" />
    <glyph glyph-name="section" unicode="&#xa7;" horiz-adv-x="551" 
d="M460 234q0 39 -18.5 63t-46.5 39t-61.5 23t-63.5 16q-22 5 -44 10.5t-45 11.5q-39 -15 -65 -43.5t-26 -73.5q0 -39 18.5 -63.5t46.5 -39t61.5 -23t63.5 -15.5q23 -6 45 -11t45 -11q39 15 64.5 43.5t25.5 73.5zM532 -49q0 -48 -22.5 -81t-57.5 -54t-77.5 -30t-83.5 -9
q-51 0 -96.5 10.5t-80 34.5t-55.5 62.5t-22 94.5h68q1 -41 15.5 -70.5t39.5 -48.5t58 -28t72 -9q29 0 59 6.5t55 20.5t40.5 37.5t15.5 58.5q0 29 -12.5 49.5t-33 35.5t-46.5 24.5t-53.5 16.5t-54 12t-47.5 11q-36 10 -70.5 22t-62 31.5t-44.5 49t-17 73.5q0 51 23 88.5
t65 63.5q-45 23 -66.5 56t-21.5 84q0 48 22.5 81t57.5 54t77.5 30t83.5 9q51 0 96.5 -10.5t80 -34.5t55 -62.5t22.5 -94.5h-68q-1 41 -15.5 70.5t-39.5 48.5t-58 28t-72 9q-29 0 -59.5 -6.5t-55 -20.5t-40.5 -38t-16 -58q0 -43 27 -68.5t65.5 -40.5t81 -23.5t73.5 -16.5
q36 -10 71 -22t62.5 -31.5t44.5 -49t17 -73.5q0 -51 -23 -88.5t-65 -63.5q45 -23 66.5 -56t21.5 -84z" />
    <glyph glyph-name="bullet" unicode="&#x2022;" horiz-adv-x="297" 
d="M260 360q0 -23 -9 -43.5t-24 -35.5t-35.5 -24t-43.5 -9t-43.5 9t-35.5 24t-23.5 35.5t-8.5 43.5t8.5 43.5t23.5 35.5t35.5 23.5t43.5 8.5t43.5 -8.5t35.5 -23.5t24 -35.5t9 -43.5z" />
    <glyph glyph-name="paragraph" unicode="&#xb6;" horiz-adv-x="505" 
d="M402 -206v885h-94v-885h-49v549q-51 0 -92 14.5t-70 39t-44.5 58.5t-15.5 73q0 98 62 145t167 47h185v-926h-49z" />
    <glyph glyph-name="germandbls" unicode="&#xdf;" horiz-adv-x="529" 
d="M492 213q0 -110 -61 -162.5t-169 -52.5q-10 0 -19 0.5t-19 1.5v53q7 -1 14 -1.5t15 -0.5q84 0 129.5 40.5t45.5 126.5q0 48 -15 79t-41.5 48.5t-62 24t-76.5 6.5h-9v42h8q33 0 62.5 7t51 23t34.5 41.5t13 62.5q0 30 -11 54t-30 40t-44.5 24.5t-54.5 8.5q-66 0 -100 -36.5
t-34 -102.5v-540h-65v538q0 93 53 144t145 51q39 0 75 -11.5t64.5 -33.5t45.5 -54t17 -74q0 -60 -28.5 -102.5t-87.5 -56.5q39 -4 68 -19.5t48 -40.5t28.5 -58t9.5 -70z" />
    <glyph glyph-name="registered" unicode="&#xae;" horiz-adv-x="456" 
d="M284 589q0 23 -15.5 29.5t-36.5 6.5h-48v-74h45q20 0 37.5 6.5t17.5 31.5zM311 587q0 -26 -15 -39.5t-37 -16.5l61 -95h-31l-57 92q-11 -1 -25.5 -0.5t-21.5 0.5v-92h-27v212h75q78 0 78 -61zM388 545q0 33 -12.5 61.5t-34 50t-51 34t-62.5 12.5t-62.5 -12.5t-51.5 -34
t-34.5 -50t-12.5 -61.5t12.5 -61.5t34.5 -50t51.5 -34t62.5 -12.5t62.5 12.5t51 34t34 50t12.5 61.5zM419 545q0 -39 -15 -73t-41 -59.5t-61 -40t-74 -14.5q-40 0 -74.5 14.5t-60.5 40t-41 59.5t-15 73t15 73t41 59.5t60.5 40t74.5 14.5q39 0 74 -14.5t61 -40t41 -59.5
t15 -73z" />
    <glyph glyph-name="copyright" unicode="&#xa9;" horiz-adv-x="822" 
d="M602 287q-15 -72 -64 -114.5t-117 -42.5q-49 0 -89 17.5t-68 47.5t-43.5 71t-15.5 89t14.5 89t42 71t67 47t89.5 17q35 0 66 -10t55 -29.5t40 -48t22 -65.5h-39q-9 56 -49.5 84t-93.5 28q-41 0 -73 -13.5t-53.5 -38t-33 -57.5t-11.5 -72t12 -73t34.5 -59t54 -39.5
t71.5 -14.5q49 0 88.5 29.5t52.5 86.5h40h1zM739 360q0 68 -25.5 128t-70 105t-104.5 71t-128 26t-128 -26t-104.5 -71t-70 -105t-25.5 -128t25.5 -128t70 -105t104.5 -71t128 -26t128 26t104.5 71t70 105t25.5 128zM785 360q0 -78 -29.5 -146t-80 -118.5t-118.5 -80
t-146 -29.5t-146 29.5t-118.5 80t-80 118.5t-29.5 146t29.5 146t80 118.5t118.5 80t146 29.5t146 -29.5t118.5 -80t80 -118.5t29.5 -146z" />
    <glyph glyph-name="trademark" unicode="&#x2122;" horiz-adv-x="831" 
d="M210 680v-356h-46v356h-53q-26 0 -32.5 -9.5t-6.5 -26.5l-34 14q0 26 12.5 44t49.5 18h236v-40h-126zM732 324v277q0 42 -15.5 66t-58.5 24q-44 0 -59 -24.5t-15 -65.5v-277h-46v277q0 42 -15.5 66t-58.5 24q-44 0 -59 -24.5t-15 -65.5v-277h-45v288q0 57 30 87t89 30
q69 0 97 -46q28 46 97 46q59 0 89 -30t30 -87v-288h-45z" />
    <glyph glyph-name="acute" unicode="&#xb4;" horiz-adv-x="0" 
d="M228 566h-46l124 145h74z" />
    <glyph glyph-name="dieresis" unicode="&#xa8;" horiz-adv-x="0" 
d="M422 617q0 -20 -15 -32.5t-34 -12.5q-20 0 -35 12.5t-15 32.5t15 32.5t35 12.5q19 0 34 -12.5t15 -32.5zM239 617q0 -20 -15 -32.5t-34 -12.5t-34 12.5t-15 32.5t15 32.5t34 12.5t34 -12.5t15 -32.5z" />
    <glyph glyph-name="notequal" unicode="&#x2260;" horiz-adv-x="594" 
d="M45 333v54h504v-54h-504z" />
    <glyph glyph-name="AE" unicode="&#xc6;" horiz-adv-x="882" 
d="M406 506q0 39 -6.5 70.5t-23 54.5t-43.5 35.5t-68 12.5t-68.5 -12.5t-43.5 -35.5t-22.5 -54.5t-6.5 -70.5v-117h282v117zM406 0v331h-282v-331h-70v526q0 103 53.5 157t157.5 54q123 0 172 -80v63h394v-61h-355v-270h326v-58h-326v-270h361v-61h-431z" />
    <glyph glyph-name="Oslash" unicode="&#xd8;" horiz-adv-x="749" 
d="M642 357q0 63 -16 115t-45 91l-396 -438q71 -83 189 -83q59 0 108.5 22t84.5 63t55 99t20 131zM564 589q-35 40 -83 61.5t-107 21.5t-108 -22t-84.5 -63t-55 -99t-19.5 -131q0 -63 15.5 -115.5t44.5 -91.5l397 440v-1zM712 357q0 -78 -22.5 -146t-66 -118.5t-106 -80
t-143.5 -29.5q-74 0 -132.5 24.5t-100.5 69.5l-74 -83l-23 20l77 84q-42 51 -63 117t-21 142q0 78 22.5 146t65.5 118.5t105.5 80t143.5 29.5q74 0 132.5 -24.5t101.5 -69.5l65 72l23 -19l-68 -74q41 -51 62.5 -117t21.5 -142z" />
    <glyph glyph-name="infinity" unicode="&#x221e;" horiz-adv-x="161" 
d="M54 0v271h53v-271h-53zM54 449v271h53v-271h-53z" />
    <glyph glyph-name="plusminus" unicode="&#xb1;" horiz-adv-x="594" 
d="M45 107v53h504v-53h-504zM324 391v-169h-53v169h-226v53h225v169h54v-169h225v-53h-225z" />
    <glyph glyph-name="lessequal" unicode="&#x2264;" horiz-adv-x="593" 
d="M574 190q0 -55 -22 -94.5t-58 -64.5t-82.5 -36.5t-95.5 -11.5q-53 0 -107.5 13t-98 43t-70.5 79t-26 121h70q0 -55 18.5 -93.5t50 -62.5t74.5 -35t93 -11q35 0 68 8.5t59 26.5t41.5 46t15.5 67q0 44 -19.5 70.5t-51 42.5t-72.5 25.5t-83 20.5q-44 11 -87 23t-77 32
t-55.5 53t-21.5 86q0 55 22.5 93.5t59 61.5t82 33.5t91.5 10.5q54 0 101 -12t82.5 -38t56.5 -69t24 -104h-67q-1 46 -16.5 78t-42.5 52.5t-62.5 29.5t-75.5 9q-32 0 -65 -6.5t-60.5 -22.5t-45 -42t-17.5 -66q0 -41 21 -66t54 -41t75 -25.5t86 -20.5q47 -12 89.5 -25
t74.5 -34.5t51 -55.5t19 -88zM325 785h-53l-116 142h52l91 -112l89 112h52z" />
    <glyph glyph-name="greaterequal" unicode="&#x2265;" horiz-adv-x="468" 
d="M445 141q0 -42 -18.5 -71.5t-47.5 -47.5t-65.5 -26t-73.5 -8q-50 0 -90.5 11t-69.5 33.5t-45 58t-16 84.5h62q1 -73 43.5 -107.5t116.5 -34.5q24 0 49 5.5t45.5 17.5t34 31t13.5 47t-12.5 46t-34 29.5t-51 18.5t-62.5 15q-38 9 -72 18t-59.5 24.5t-40 40t-14.5 63.5
q0 28 13 53.5t37.5 44.5t60 30t81.5 11q42 0 79 -9t64 -29t43 -51t16 -76h-60q0 64 -40 93t-101 29q-43 0 -69 -11.5t-39.5 -26.5t-18 -30.5t-4.5 -23.5q0 -33 20.5 -52t50 -30t62.5 -17t58 -13q28 -8 56 -17.5t50 -25t35.5 -38.5t13.5 -59zM261 586h-52l-116 142h52
l91 -112l88 112h52z" />
    <glyph glyph-name="yen" unicode="&#xa5;" 
d="M476 557q0 -94 -44.5 -146.5t-131.5 -60.5v-83h148v-45h-148v-85h148v-45h-148v-92h-70v92h-148v45h148v85h-148v45h148v83q-88 8 -132 60.5t-44 146.5v163h70v-143q0 -39 6.5 -70.5t23 -54.5t43.5 -35.5t68 -12.5t68.5 12.5t43.5 35.5t22.5 54.5t6.5 70.5v143h70v-163v0
z" />
    <glyph glyph-name="mu" unicode="&#xb5;" horiz-adv-x="536" 
d="M417 0v109q-17 -57 -60 -86.5t-100 -31.5q-48 -2 -83 15.5t-55 49.5v-262h-65v721h64v-321q0 -68 34 -110t105 -42q40 0 70 15.5t50 41t30 59t10 70.5v287h65v-515h-65z" />
    <glyph glyph-name="partialdiff" unicode="&#x2202;" horiz-adv-x="536" 
d="M482 -6q0 -49 -13 -89t-40.5 -68.5t-71 -44t-103.5 -15.5q-41 0 -78.5 8.5t-67 28t-48 51t-21.5 77.5h64q2 -31 14.5 -54t33 -38t46 -22t54.5 -7q82 0 124 44.5t42 124.5v119q-21 -61 -68.5 -91t-112.5 -30q-85 0 -133.5 49t-48.5 133v345h64v-321q0 -68 34 -110t105 -42
q40 0 70 15.5t50 41t30 59t10 70.5v287h65v-522v1zM233 582h-45l124 146h74z" />
    <glyph glyph-name="summation" unicode="&#x2211;" horiz-adv-x="558" 
d="M566 104q0 -21 -4.5 -39.5t-16.5 -33t-33 -23t-54 -8.5h-452v63l462 596h-431v61h519v-60l-463 -599h346q26 0 41 5.5t23 14.5t10 21t2 25l51 -23v0zM316 785h-52l-116 142h51l92 -112l88 112h52z" />
    <glyph glyph-name="product" unicode="&#x220f;" horiz-adv-x="531" 
d="M427 397q0 75 -44.5 111.5t-129.5 36.5h-129v-298h126q37 0 69 9t56 27.5t38 47t14 66.5zM494 399q0 -52 -18 -91t-49.5 -65.5t-76 -39.5t-96.5 -13h-130v-190h-70v720h70v-114h142q56 0 99 -15t71.5 -42.5t43 -65.5t14.5 -84z" />
    <glyph glyph-name="pi" unicode="&#x3c0;" horiz-adv-x="575" 
d="M473 249q0 42 -10 83t-33 73t-60.5 52t-91.5 20q-27 0 -55.5 -10t-52 -27t-38 -40.5t-14.5 -50.5v-166q0 -34 14.5 -60.5t38 -45t54 -28.5t62.5 -10q46 0 81 16.5t58.5 45t35 67t11.5 81.5zM538 249q0 -55 -17 -102.5t-48 -83t-76 -55.5t-100 -20q-60 0 -106 24t-72 68
v-286h-65v926h64v-276q27 42 72.5 63t97.5 21q61 0 108 -22t78.5 -60t47.5 -89t16 -108z" />
    <glyph glyph-name="integral" unicode="&#x222b;" horiz-adv-x="717" 
d="M406 785h-52l-116 142h51l92 -112l88 112h52zM680 280q-6 -65 -30.5 -119.5t-64 -94t-94 -61.5t-121.5 -22q-80 0 -141.5 30.5t-104.5 81.5t-65 118.5t-22 141.5q0 78 22.5 147.5t66 121.5t107 82.5t146.5 30.5q53 0 105.5 -17t95 -48.5t70 -76.5t30.5 -102h-68
q-5 43 -27 77t-54.5 58t-72.5 37t-80 13q-68 0 -118.5 -27.5t-84.5 -72.5t-51 -103t-17 -119q0 -59 16.5 -115.5t49 -100.5t81.5 -71t114 -27q55 0 97 18t72 50t48.5 75.5t26.5 94.5h68v0z" />
    <glyph glyph-name="ordfeminine" unicode="&#xaa;" horiz-adv-x="390" 
d="M290 624q0 15 -8.5 28t-22 23t-29.5 15.5t-32 5.5q-32 0 -54 -11t-35.5 -29.5t-19.5 -42t-6 -48.5t7 -47t20.5 -38.5t34 -26t47.5 -9.5q19 0 37 5.5t31.5 16t21.5 26t8 34.5v98zM290 415v39q-39 -46 -104 -46q-34 0 -61.5 12.5t-46.5 33.5t-29.5 49.5t-10.5 61.5
q0 34 10 64.5t29.5 53t48 36t66.5 13.5q28 0 53 -10t45 -31v34h45v-310h-45z" />
    <glyph glyph-name="ordmasculine" unicode="&#xba;" horiz-adv-x="385" 
d="M303 570q0 23 -7 45.5t-21 40t-34.5 28.5t-47.5 11q-28 0 -48.5 -11t-34.5 -28.5t-21 -40t-7 -45.5t7 -46t21 -41t34.5 -29t48.5 -11q27 0 47.5 11t34.5 29t21 41t7 46zM348 570q0 -32 -10 -61.5t-29.5 -52t-48.5 -36t-68 -13.5q-38 0 -67 13.5t-48.5 36t-29.5 52
t-10 61.5t10 61t29.5 51.5t48.5 36t68 13.5q38 0 67 -13.5t48.5 -36t29.5 -51.5t10 -61z" />
    <glyph glyph-name="Omega" unicode="&#x2126;" horiz-adv-x="444" 
d="M444 95q0 -19 -4 -36t-15.5 -30t-31 -21t-49.5 -8h-336v57l331 407h-305v51h384v-56l-329 -408h240q25 0 39 5t21.5 14t9.5 20.5t2 23.5l43 -19v0zM249 586h-52l-116 142h52l91 -112l88 112h52z" />
    <glyph glyph-name="ae" unicode="&#xe6;" horiz-adv-x="958" 
d="M457 349q0 27 -14.5 50.5t-38 40.5t-52 27t-55.5 10q-54 0 -91.5 -20t-60.5 -52t-33 -73t-10 -83q0 -43 11.5 -81.5t35 -67t58 -45t81.5 -16.5q32 0 62.5 10t53.5 28.5t37.5 45t14.5 60.5zM853 369q-13 51 -51.5 79.5t-93.5 28.5q-48 0 -83 -17.5t-57.5 -47t-33.5 -68
t-12 -81.5v-15l331 121v0zM921 183q-5 -46 -23.5 -82t-47.5 -61t-68 -38.5t-84 -13.5q-69 0 -116 32.5t-73 83.5v-104h-52v80q-27 -44 -73 -68t-106 -24q-56 0 -100.5 20t-75.5 55.5t-48 83t-17 102.5q0 57 16 108t47.5 89t78.5 60t108 22q52 0 97.5 -21t71.5 -63v71h52
v-112q26 55 75 90t124 35q41 0 78 -12t65.5 -35t47 -56t23.5 -76l-397 -144q4 -35 17.5 -65t35.5 -52.5t52.5 -35.5t69.5 -13q32 0 60 10.5t49 29t34 45t16 59.5h63v0z" />
    <glyph glyph-name="oslash" unicode="&#xf8;" horiz-adv-x="563" 
d="M461 258q0 36 -9 70.5t-27 63.5l-275 -291q22 -29 54.5 -45.5t77.5 -16.5t79 18.5t56 49t33 70t11 81.5zM411 416q-22 28 -54 44.5t-75 16.5q-46 0 -80 -19t-56.5 -49.5t-33.5 -70t-11 -80.5q0 -36 9 -70.5t26 -62.5l274 291h1zM526 258q0 -53 -15.5 -102t-46.5 -86.5
t-76.5 -59.5t-106.5 -22q-54 0 -96.5 19t-72.5 51l-56 -61l-20 19l58 62q-29 36 -43 82.5t-14 97.5q0 53 15.5 101.5t46 86t76.5 60t107 22.5q54 0 95.5 -18.5t71.5 -50.5l46 50l20 -19l-48 -50q29 -36 44 -83t15 -99z" />
    <glyph glyph-name="questiondown" unicode="&#xbf;" horiz-adv-x="521" 
d="M483 230q1 -51 -13.5 -95t-43.5 -76.5t-73 -51.5t-102 -19q-49 0 -88.5 13t-67.5 36.5t-43 56t-15 70.5q0 40 11 68t27.5 48.5t35 35.5t33.5 27q25 21 42.5 39t27.5 38t14.5 43t4.5 55v92h61v-91q0 -29 -3.5 -55.5t-13.5 -51t-28 -48.5t-46 -48q-8 -6 -24 -17.5
t-32.5 -29.5t-29 -43t-12.5 -58q0 -60 41.5 -91.5t106.5 -31.5q42 0 73 13.5t52 38.5t30.5 58.5t7.5 74.5h67v0zM312 686q0 -20 -15 -32.5t-34 -12.5t-34 12.5t-15 32.5t15 32.5t34 12.5t34 -12.5t15 -32.5z" />
    <glyph glyph-name="exclamdown" unicode="&#xa1;" horiz-adv-x="173" 
d="M47 0l19 599h40l20 -599h-79zM136 687q0 -20 -15.5 -32.5t-34.5 -12.5t-34 12.5t-15 32.5t15 32.5t34 12.5t34.5 -12.5t15.5 -32.5z" />
    <glyph glyph-name="logicalnot" unicode="&#xac;" horiz-adv-x="173" 
d="M119 397v-397h-65v346l-54 -46v44l54 46v330h64v-279l55 46v-44z" />
    <glyph glyph-name="radical" unicode="&#x221a;" horiz-adv-x="563" 
d="M461 248q0 41 -11.5 78.5t-34 66.5t-56 46.5t-77.5 17.5q-45 0 -79 -17t-56.5 -46t-34 -67t-11.5 -79t11.5 -79t34 -67t56 -46t78.5 -17t78.5 17.5t56 46.5t34 66.5t11.5 78.5zM526 260q0 -56 -16 -105.5t-47 -86.5t-76.5 -58.5t-105.5 -21.5q-57 0 -102.5 20t-77 54.5
t-48 82t-16.5 102.5q0 53 16 99.5t46.5 81.5t74 55t98.5 20q42 0 82 -15t66 -46q-25 47 -65 94.5t-80 81.5l-107 -59l-30 30l102 57q-34 29 -78 52l48 31q19 -10 42.5 -26t40.5 -30l105 59l30 -32l-101 -56q43 -39 79.5 -81.5t63 -89.5t41.5 -100t15 -113z" />
    <glyph glyph-name="florin" unicode="&#x192;" horiz-adv-x="289" 
d="M320 677q-6 2 -18 2.5t-26 0.5t-26.5 -2t-23.5 -10t-19.5 -23t-13.5 -41l-17 -89h114l-12 -49h-114l-118 -566q-7 -34 -20.5 -55.5t-31.5 -34t-38.5 -17t-41.5 -4.5l-11 54q13 0 26 2t24 10t19.5 23.5t13.5 41.5l113 546h-114l11 46h114l23 110q7 34 20.5 55.5t31.5 34
t38.5 17t41.5 4.5q26 0 40 -1.5t28 -1.5z" />
    <glyph glyph-name="approxequal" unicode="&#x2248;" horiz-adv-x="431" 
d="M393 145l-178 179l-177 -179l-38 38l178 177l-178 178l37 37l177 -179l179 179l38 -37l-179 -178l179 -177z" />
    <glyph glyph-name="Delta" unicode="&#x2206;" horiz-adv-x="538" 
d="M313 586h-52l-116 142h52l91 -112l88 112h52zM501 183q-5 -46 -23.5 -82t-47.5 -61t-68 -38.5t-84 -13.5q-56 0 -101 20.5t-76 56t-47.5 83t-16.5 101.5q0 57 16.5 108t48 89t78 60t107.5 22q41 0 78 -12t65.5 -35t47 -56t23.5 -76h-62q-9 60 -50 94t-101 34
q-50 0 -85.5 -19t-58 -50.5t-33 -72.5t-10.5 -86q0 -41 11 -79t33 -67t55.5 -46.5t78.5 -17.5q33 0 61 10.5t49 29t34 45t16 59.5h62v0z" />
    <glyph glyph-name="guillemotleft" unicode="&#xab;" horiz-adv-x="327" 
d="M45 332v56l118 137v-65l-82 -100l82 -99v-66zM164 332v56l118 137v-65l-82 -100l82 -99v-66z" />
    <glyph glyph-name="guillemotright" unicode="&#xbb;" horiz-adv-x="327" 
d="M45 195v65l82 100l-82 99v66l118 -137v-56zM164 195v65l82 100l-82 99v66l118 -137v-56z" />
    <glyph glyph-name="ellipsis" unicode="&#x2026;" horiz-adv-x="1000" 
d="M216 42q0 -20 -15 -32.5t-34 -12.5t-34 12.5t-15 32.5t15 32.5t34 12.5t34 -12.5t15 -32.5zM549 42q0 -20 -15 -32.5t-34 -12.5t-34 12.5t-15 32.5t15 32.5t34 12.5t34 -12.5t15 -32.5zM882 42q0 -20 -15 -32.5t-34 -12.5t-34 12.5t-15 32.5t15 32.5t34 12.5t34 -12.5
t15 -32.5z" />
    <glyph glyph-name="Agrave" unicode="&#xc0;" 
d="M406 506q0 39 -6.5 70.5t-23 54.5t-43.5 35.5t-68 12.5t-68.5 -12.5t-43.5 -35.5t-22.5 -54.5t-6.5 -70.5v-117h282v117zM406 0v331h-282v-331h-70v526q0 103 53.5 157t157.5 54q105 0 158 -54t53 -156v-527h-70zM325 765l-147 145h73l119 -145h-45z" />
    <glyph glyph-name="Atilde" unicode="&#xc3;" 
d="M406 506q0 39 -6.5 70.5t-23 54.5t-43.5 35.5t-68 12.5t-68.5 -12.5t-43.5 -35.5t-22.5 -54.5t-6.5 -70.5v-117h282v117zM406 0v331h-282v-331h-70v526q0 103 53.5 157t157.5 54q105 0 158 -54t53 -156v-527h-70zM424 869q-1 -36 -21 -63.5t-60 -27.5q-20 0 -37 8.5
t-33 18t-32 18t-32 8.5q-20 0 -32.5 -18.5t-13.5 -36.5h-35q0 16 5.5 32.5t16 30.5t25 23t32.5 9q19 0 37 -8.5t35 -18.5t32.5 -18.5t28.5 -8.5q22 0 34.5 15t13.5 37h36v0z" />
    <glyph glyph-name="Otilde" unicode="&#xd5;" horiz-adv-x="749" 
d="M642 360q0 61 -16.5 118.5t-49.5 102t-83.5 71t-118.5 26.5t-118 -26.5t-83 -71t-49.5 -102t-16.5 -118.5q0 -62 16.5 -119t49.5 -101.5t83 -71t118 -26.5t118 26.5t83 71t49.5 101.5t16.5 119h1zM712 360q0 -77 -22.5 -145t-65.5 -120t-106 -82t-144 -30t-144 30
t-106 82t-65 120t-22 145q0 76 22 144.5t65 120.5t106 82t144 30t144 -30t106 -82t65.5 -120.5t22.5 -144.5zM530 869q0 -36 -20 -63.5t-60 -27.5q-20 0 -37.5 8.5t-33.5 18t-31.5 18t-31.5 8.5q-20 0 -33 -18.5t-13 -36.5h-35q0 16 5.5 32.5t16 30.5t25 23t32.5 9
q19 0 37 -8.5t35 -18.5t32 -18.5t29 -8.5q21 0 33.5 15t14.5 37h36h-1z" />
    <glyph glyph-name="OE" unicode="&#x152;" horiz-adv-x="1087" 
d="M612 493q-5 43 -27 77t-54.5 58t-72.5 37t-80 13q-68 0 -118.5 -27.5t-84.5 -72.5t-51 -103t-17 -119q0 -59 16.5 -115.5t49 -100.5t81.5 -71t114 -27q55 0 97 18t72 50t48.5 75.5t26.5 94.5v213zM619 0v147q-32 -74 -93.5 -119t-155.5 -45q-80 0 -141.5 30.5
t-104.5 81.5t-65 118.5t-22 141.5q0 78 22.5 147.5t66 121.5t107 82.5t146.5 30.5q34 0 69 -8.5t67.5 -24t59.5 -38t44 -50.5v104h420v-61h-355v-270h327v-58h-327v-270h361v-61h-426z" />
    <glyph glyph-name="oe" unicode="&#x153;" horiz-adv-x="962" 
d="M461 258q0 41 -11 80.5t-33 70t-56 49.5t-79 19q-46 0 -80 -19t-56.5 -49.5t-33.5 -70t-11 -80.5q0 -42 11 -81t33.5 -70t56.5 -49.5t80 -18.5q45 0 79 18.5t56 49t33 70t11 81.5zM858 368q-14 51 -52.5 79.5t-92.5 28.5q-48 0 -83 -17.5t-57.5 -47t-33.5 -68t-12 -81.5
v-15l331 121v0zM925 182q-5 -46 -23 -82t-47.5 -61t-68 -38.5t-83.5 -13.5q-40 0 -73.5 11.5t-60 31.5t-45.5 47.5t-31 59.5q-23 -64 -76.5 -106.5t-135.5 -42.5q-60 0 -106 22t-76.5 59.5t-46 86.5t-15.5 102t15.5 101.5t46 86t76.5 60t107 22.5q41 0 75.5 -12t61 -33
t46 -49.5t30.5 -61.5q12 33 31 61.5t46 49.5t62 32.5t77 11.5q41 0 78 -12t65.5 -35t47 -56t23.5 -76l-396 -144q4 -34 17.5 -64.5t35.5 -53t52 -35.5t69 -13q33 0 61 10.5t49 29t34 45t16 59.5h62v0z" />
    <glyph glyph-name="endash" unicode="&#x2013;" horiz-adv-x="590" 
d="M45 240v55h500v-54z" />
    <glyph glyph-name="emdash" unicode="&#x2014;" horiz-adv-x="1090" 
d="M45 240v55h1000v-54z" />
    <glyph glyph-name="quotedblleft" unicode="&#x201c;" horiz-adv-x="293" 
d="M132 477l-132 228l46 27l132 -228zM247 477l-131 228l46 27l131 -228z" />
    <glyph glyph-name="quotedblright" unicode="&#x201d;" horiz-adv-x="293" 
d="M46 477l-46 27l132 228l46 -27zM162 477l-46 27l131 228l46 -27z" />
    <glyph glyph-name="quoteleft" unicode="&#x2018;" horiz-adv-x="178" 
d="M132 477l-132 228l46 27l132 -228z" />
    <glyph glyph-name="quoteright" unicode="&#x2019;" horiz-adv-x="178" 
d="M46 477l-46 27l132 228l46 -27z" />
    <glyph glyph-name="divide" unicode="&#xf7;" horiz-adv-x="594" 
d="M353 149q0 -23 -14 -39.5t-42 -16.5q-27 0 -41.5 16.5t-14.5 39.5q0 24 16.5 40t39.5 16t39.5 -16t16.5 -40zM45 333v54h504v-54h-504zM353 571q0 -24 -14 -40t-42 -16q-26 0 -41 16t-15 40t16.5 40t39.5 16q24 0 40 -16.5t16 -39.5z" />
    <glyph glyph-name="lozenge" unicode="&#x25ca;" horiz-adv-x="551" 
d="M444 361q0 64 -15 119t-46.5 94.5t-80.5 62t-118 22.5h-60v-264h168v-46h-168v-288h48q68 0 119 23t85 63t51 95t17 119zM514 360q0 -81 -22.5 -147.5t-66 -113.5t-107 -73t-146.5 -26h-118v349h-61v45h61v326h152q81 0 139 -28t95.5 -77t55.5 -114.5t18 -140.5z" />
    <glyph glyph-name="ydieresis" unicode="&#xff;" horiz-adv-x="536" 
d="M482 -6q0 -49 -13 -89t-40.5 -68.5t-71 -44t-103.5 -15.5q-41 0 -78.5 8.5t-67 28t-48 51t-21.5 77.5h64q2 -31 14.5 -54t33 -38t46 -22t54.5 -7q82 0 124 44.5t42 124.5v119q-21 -61 -68.5 -91t-112.5 -30q-85 0 -133.5 49t-48.5 133v345h64v-321q0 -68 34 -110t105 -42
q40 0 70 15.5t50 41t30 59t10 70.5v287h65v-522v1zM231 633q0 -20 -15 -32.5t-35 -12.5q-19 0 -34 12.5t-15 32.5t15 32.5t34 12.5q20 0 35 -12.5t15 -32.5zM413 633q0 -20 -15 -32.5t-34 -12.5t-34.5 12.5t-15.5 32.5t15.5 32.5t34.5 12.5t34 -12.5t15 -32.5z" />
    <glyph glyph-name="Ydieresis" unicode="&#x178;" 
d="M476 542q0 -94 -44.5 -146.5t-131.5 -60.5v-335h-70v335q-88 8 -132 60.5t-44 146.5v178h70v-158q0 -39 6.5 -70.5t23 -54.5t43.5 -35.5t68 -12.5t68.5 12.5t43.5 35.5t22.5 54.5t6.5 70.5v158h70v-178v0zM225 816q0 -20 -15 -32.5t-34 -12.5t-34.5 12.5t-15.5 32.5
t15.5 32.5t34.5 12.5t34 -12.5t15 -32.5zM407 816q0 -20 -15 -32.5t-34 -12.5t-34 12.5t-15 32.5t15 32.5t34 12.5t34 -12.5t15 -32.5z" />
    <glyph glyph-name="fraction" unicode="&#x2044;" horiz-adv-x="167" 
d="M-113 0h-45l437 720h45z" />
    <glyph glyph-name="currency" unicode="&#xa4;" horiz-adv-x="572" 
d="M484 342q0 42 -16 78t-43 63t-63 42t-76 15t-76 -15t-63 -42t-43 -63t-16 -78t16 -78t43 -62.5t63 -42t76 -15.5t75.5 15t62.5 42t43 63t16 78h1zM535 342q0 -44 -16 -86t-45 -74l58 -57l-29 -30l-58 58q-32 -29 -73 -44t-86 -16q-45 0 -86 15t-74 45l-58 -58l-29 30
l58 57q-29 32 -44.5 73.5t-15.5 86.5t15.5 86.5t44.5 73.5l-58 57l30 29l57 -57q32 29 73.5 44.5t86.5 15.5t86 -15.5t73 -44.5l57 57l30 -29l-58 -57q29 -32 45 -73.5t16 -86.5z" />
    <glyph glyph-name="guilsinglleft" unicode="&#x2039;" horiz-adv-x="208" 
d="M45 332v56l118 137v-65l-82 -100l82 -99v-66z" />
    <glyph glyph-name="guilsinglright" unicode="&#x203a;" horiz-adv-x="208" 
d="M45 195v65l82 100l-82 99v66l118 -137v-56z" />
    <glyph glyph-name="fi" unicode="&#xfb01;" horiz-adv-x="345" 
d="M227 0v466h-108v-466h-65v466h-54v46h54v110q0 34 9 55.5t23.5 34t34 17t40.5 4.5q26 0 40.5 -1.5t28.5 -1.5v-53q-6 2 -18 2.5t-26 0.5t-26 -2t-21.5 -9.5t-15 -22t-5.5 -40.5v-91h173v-515h-64z" />
    <glyph glyph-name="fl" unicode="&#xfb02;" horiz-adv-x="345" 
d="M227 0v678q-8 1 -19 1.5t-22 0.5q-14 0 -26 -2t-21.5 -10t-15 -23t-5.5 -41v-89h55v-49h-54v-466h-65v466h-54v46h54v110q0 34 9 55.5t23.5 34t34 17t40.5 4.5q15 0 29 -2t28 -3q18 0 34 -1q13 -1 25 -1.5t14 -0.5v-725h-64z" />
    <glyph glyph-name="daggerdbl" unicode="&#x2021;" horiz-adv-x="554" 
d="M307 49l9 -255h-78l9 255l-202 -9v67l202 -9v370l-202 -9v67l202 -9l-9 203h78l-9 -203l202 9v-67l-202 9v-370l202 9v-67z" />
    <glyph glyph-name="periodcentered" unicode="&#xb7;" horiz-adv-x="173" 
d="M136 360q0 -20 -15.5 -32.5t-34.5 -12.5t-34 12.5t-15 32.5t15 32.5t34 12.5t34.5 -12.5t15.5 -32.5z" />
    <glyph glyph-name="quotesinglbase" unicode="&#x201a;" horiz-adv-x="178" 
d="M46 -129l-46 26l132 229l46 -27z" />
    <glyph glyph-name="quotedblbase" unicode="&#x201e;" horiz-adv-x="295" 
d="M46 -129l-46 26l132 229l46 -27zM163 -129l-46 26l132 229l46 -27z" />
    <glyph glyph-name="perthousand" unicode="&#x2030;" 
d="M476 542q0 -94 -44.5 -146.5t-131.5 -60.5v-335h-70v335q-88 8 -132 60.5t-44 146.5v178h70v-158q0 -39 6.5 -70.5t23 -54.5t43.5 -35.5t68 -12.5t68.5 12.5t43.5 35.5t22.5 54.5t6.5 70.5v158h70v-178v0zM249 781h-46l124 146h74z" />
    <glyph glyph-name="Acircumflex" unicode="&#xc2;" 
d="M356 768l-91 112l-88 -112h-52l115 142h52l116 -141zM406 506q0 39 -6.5 70.5t-23 54.5t-43.5 35.5t-68 12.5t-68.5 -12.5t-43.5 -35.5t-22.5 -54.5t-6.5 -70.5v-117h282v117zM406 0v331h-282v-331h-70v526q0 103 53.5 157t157.5 54q105 0 158 -54t53 -156v-527h-70z" />
    <glyph glyph-name="Ecircumflex" unicode="&#xca;" 
d="M357 768l-91 112l-88 -112h-52l115 142h52l116 -141zM54 0v720h425v-61h-355v-270h327v-58h-327v-270h361v-61h-431z" />
    <glyph glyph-name="Aacute" unicode="&#xc1;" 
d="M205 765h-46l124 145h74zM406 506q0 39 -6.5 70.5t-23 54.5t-43.5 35.5t-68 12.5t-68.5 -12.5t-43.5 -35.5t-22.5 -54.5t-6.5 -70.5v-117h282v117zM406 0v331h-282v-331h-70v526q0 103 53.5 157t157.5 54q105 0 158 -54t53 -156v-527h-70z" />
    <glyph glyph-name="Edieresis" unicode="&#xcb;" 
d="M407 816q0 -20 -15 -32.5t-35 -12.5q-19 0 -34 12.5t-15 32.5t15 32.5t34 12.5q20 0 35 -12.5t15 -32.5zM224 816q0 -20 -15 -32.5t-34 -12.5t-34 12.5t-15 32.5t15 32.5t34 12.5t34 -12.5t15 -32.5zM54 0v720h425v-61h-355v-270h327v-58h-327v-270h361v-61h-431z" />
    <glyph glyph-name="Egrave" unicode="&#xc8;" 
d="M161 910h74l119 -145h-46zM54 0v720h425v-61h-355v-270h327v-58h-327v-270h361v-61h-431z" />
    <glyph glyph-name="Iacute" unicode="&#xcd;" horiz-adv-x="178" 
d="M36 765h-46l124 145h74zM54 0v720h70v-720h-70z" />
    <glyph glyph-name="Icircumflex" unicode="&#xce;" horiz-adv-x="178" 
d="M180 768l-92 112l-88 -112h-52l115 142h52l117 -141zM54 0v720h70v-720h-70z" />
    <glyph glyph-name="Idieresis" unicode="&#xcf;" horiz-adv-x="178" 
d="M232 816q0 -20 -15 -32.5t-35 -12.5q-19 0 -34 12.5t-15 32.5t15 32.5t34 12.5q20 0 35 -12.5t15 -32.5zM49 816q0 -20 -15 -32.5t-34 -12.5t-34 12.5t-15 32.5t15 32.5t34 12.5t34 -12.5t15 -32.5zM54 0v720h70v-720h-70z" />
    <glyph glyph-name="Igrave" unicode="&#xcc;" horiz-adv-x="178" 
d="M-14 910h74l119 -145h-46zM54 0v720h70v-720h-70z" />
    <glyph glyph-name="Oacute" unicode="&#xd3;" horiz-adv-x="749" 
d="M339 765h-46l124 145h74zM642 360q0 61 -16.5 118.5t-49.5 102t-83.5 71t-118.5 26.5t-118 -26.5t-83 -71t-49.5 -102t-16.5 -118.5q0 -62 16.5 -119t49.5 -101.5t83 -71t118 -26.5t118 26.5t83 71t49.5 101.5t16.5 119h1zM712 360q0 -77 -22.5 -145t-65.5 -120t-106 -82
t-144 -30t-144 30t-106 82t-65 120t-22 145q0 76 22 144.5t65 120.5t106 82t144 30t144 -30t106 -82t65.5 -120.5t22.5 -144.5z" />
    <glyph glyph-name="Ocircumflex" unicode="&#xd4;" horiz-adv-x="749" 
d="M460 768l-91 112l-88 -112h-52l115 142h52l116 -141zM642 360q0 61 -16.5 118.5t-49.5 102t-83.5 71t-118.5 26.5t-118 -26.5t-83 -71t-49.5 -102t-16.5 -118.5q0 -62 16.5 -119t49.5 -101.5t83 -71t118 -26.5t118 26.5t83 71t49.5 101.5t16.5 119h1zM712 360
q0 -77 -22.5 -145t-65.5 -120t-106 -82t-144 -30t-144 30t-106 82t-65 120t-22 145q0 76 22 144.5t65 120.5t106 82t144 30t144 -30t106 -82t65.5 -120.5t22.5 -144.5z" />
    <glyph glyph-name="apple" unicode="&#xf8ff;" 
d="M530 104q0 -21 -4.5 -39.5t-16.5 -33t-33 -23t-54 -8.5h-368v252l-54 -38v50l54 38v418h70v-370l183 128v-50l-183 -128v-239h280q26 0 41 5.5t23 14.5t10 21t2 25l50 -23v0z" />
    <glyph glyph-name="Ograve" unicode="&#xd2;" horiz-adv-x="749" 
d="M242 910h73l119 -145h-45zM642 360q0 61 -16.5 118.5t-49.5 102t-83.5 71t-118.5 26.5t-118 -26.5t-83 -71t-49.5 -102t-16.5 -118.5q0 -62 16.5 -119t49.5 -101.5t83 -71t118 -26.5t118 26.5t83 71t49.5 101.5t16.5 119h1zM712 360q0 -77 -22.5 -145t-65.5 -120
t-106 -82t-144 -30t-144 30t-106 82t-65 120t-22 145q0 76 22 144.5t65 120.5t106 82t144 30t144 -30t106 -82t65.5 -120.5t22.5 -144.5z" />
    <glyph glyph-name="Uacute" unicode="&#xda;" 
d="M220 765h-45l124 145h74zM476 194q0 -103 -53.5 -157t-157.5 -54q-105 0 -158 54t-53 156v527h70v-506q0 -39 6.5 -70.5t23 -54.5t43.5 -35.5t68 -12.5t68.5 12.5t43.5 35.5t22.5 54.5t6.5 70.5v506h70v-526v0z" />
    <glyph glyph-name="Ucircumflex" unicode="&#xdb;" 
d="M353 768l-91 112l-88 -112h-52l115 142h52l116 -141zM476 194q0 -103 -53.5 -157t-157.5 -54q-105 0 -158 54t-53 156v527h70v-506q0 -39 6.5 -70.5t23 -54.5t43.5 -35.5t68 -12.5t68.5 12.5t43.5 35.5t22.5 54.5t6.5 70.5v506h70v-526v0z" />
    <glyph glyph-name="Ugrave" unicode="&#xd9;" 
d="M168 910h74l119 -145h-46zM476 194q0 -103 -53.5 -157t-157.5 -54q-105 0 -158 54t-53 156v527h70v-506q0 -39 6.5 -70.5t23 -54.5t43.5 -35.5t68 -12.5t68.5 12.5t43.5 35.5t22.5 54.5t6.5 70.5v506h70v-526v0z" />
    <glyph glyph-name="dotlessi" unicode="&#x131;" horiz-adv-x="173" 
d="M54 0v515h65v-515h-65z" />
    <glyph glyph-name="circumflex" unicode="&#x2c6;" horiz-adv-x="0" 
d="M371 570l-91 111l-88 -111h-52l115 141h52l116 -141h-52z" />
    <glyph glyph-name="tilde" unicode="&#x2dc;" horiz-adv-x="0" 
d="M429 671q0 -37 -20 -64.5t-60 -27.5q-20 0 -37.5 8.5t-33.5 18t-31.5 18t-31.5 8.5q-20 0 -33 -18.5t-14 -36.5h-34q0 16 5.5 33t16 30.5t25 22.5t32.5 9t36 -8.5t35 -18.5t32.5 -18.5t29.5 -8.5q21 0 33.5 15t14.5 38h35v0z" />
    <glyph glyph-name="macron" unicode="&#xaf;" horiz-adv-x="0" 
d="M152 606v38h259v-38h-259z" />
    <glyph glyph-name="breve" unicode="&#x2d8;" horiz-adv-x="0" 
d="M419 698q-5 -58 -44.5 -88.5t-95.5 -30.5q-57 0 -93.5 32t-41.5 87h34q3 -19 12 -34.5t23 -26t31 -16t36 -5.5q40 0 69.5 20t34.5 62h35v0z" />
    <glyph glyph-name="dotaccent" unicode="&#x2d9;" horiz-adv-x="0" 
d="M331 617q0 -20 -15 -32.5t-35 -12.5q-19 0 -34 12.5t-15 32.5t15 32.5t34 12.5q20 0 35 -12.5t15 -32.5z" />
    <glyph glyph-name="ring" unicode="&#x2da;" horiz-adv-x="0" 
d="M346 672q0 26 -19 45t-45 19t-45.5 -19t-19.5 -45t19 -45.5t45 -19.5t45 19.5t19 45.5h1zM376 672q0 -19 -7.5 -36.5t-20.5 -30.5t-30 -20.5t-36 -7.5t-36.5 7.5t-30.5 20.5t-20.5 30t-7.5 37q0 19 7.5 36t20.5 30t30 20.5t36 7.5t36.5 -7.5t30.5 -20.5t20.5 -30t7.5 -36
z" />
    <glyph glyph-name="cedilla" unicode="&#xb8;" horiz-adv-x="0" 
d="M383 -118q0 -23 -9 -38t-24 -23.5t-34.5 -12t-39.5 -3.5q-29 0 -52.5 6.5t-43.5 12.5l12 26q19 -6 37.5 -11.5t38.5 -5.5q13 0 25.5 2.5t23 8t17 15t6.5 23.5q0 20 -18.5 29.5t-33.5 9.5q-29 0 -50 -12l-18 13l57 78h29l-41 -58q8 2 15.5 4t20.5 2q32 0 57 -15.5
t25 -50.5z" />
    <glyph glyph-name="hungarumlaut" unicode="&#x2dd;" horiz-adv-x="0" 
d="M142 566h-39l124 145h64zM311 566h-39l124 145h64z" />
    <glyph glyph-name="ogonek" unicode="&#x2db;" horiz-adv-x="0" 
d="M374 -149q-18 -28 -45 -38t-54 -10q-39 0 -62.5 19t-23.5 47q0 19 10 37.5t25 35t33 31.5t34 27h40q-56 -44 -78.5 -72.5t-22.5 -53.5q0 -17 12.5 -29.5t37.5 -12.5q28 0 43.5 8.5t23.5 19.5l27 -9v0z" />
    <glyph glyph-name="caron" unicode="&#x2c7;" horiz-adv-x="0" 
d="M308 586h-52l-116 142h51l92 -112l88 112h52z" />
    <glyph glyph-name="NULL" horiz-adv-x="0" 
 />
    </font>
</defs>
</svg>
