<?xml version="1.0" standalone="no"?>
<!DOCTYPE svg PUBLIC "-//W3C//DTD SVG 1.1//EN" "http://www.w3.org/Graphics/SVG/1.1/DTD/svg11.dtd" >
<svg xmlns="http://www.w3.org/2000/svg" xmlns:xlink="http://www.w3.org/1999/xlink" version="1.1">
<metadata>
Created by FontForge 20161116 at Mon Nov 21 07:13:13 2011
 By Jimmy Wärting
\2512003 Prescott Design. All rights reserved.
</metadata>
<defs>
<font id="ClementePDag-Book" horiz-adv-x="548" >
  <font-face 
    font-family="ClementePDag"
    font-weight="400"
    font-stretch="normal"
    units-per-em="1000"
    panose-1="0 0 0 0 0 0 0 0 0 0"
    ascent="800"
    descent="-200"
    x-height="516"
    cap-height="720"
    bbox="-318 -223 1047 938"
    underline-thickness="50"
    underline-position="-54"
    unicode-range="U+000D-FB02"
  />
<missing-glyph horiz-adv-x="299" 
 />
    <glyph glyph-name=".notdef" horiz-adv-x="299" 
 />
    <glyph glyph-name="Eth" horiz-adv-x="580" 
d="M448 361q0 61 -14.5 112t-44.5 88t-76.5 57.5t-110.5 20.5h-53v-238h158v-58h-158v-262h46q63 0 110.5 21.5t79 59t47.5 89t16 111.5v-1zM543 360q0 -82 -22.5 -148.5t-66.5 -113.5t-108.5 -72.5t-148.5 -25.5h-143v342h-60v59h60v319h178q81 0 140 -28t97 -76.5
t56 -114.5t18 -141z" />
    <glyph glyph-name="Eth" horiz-adv-x="580" 
d="M448 361q0 61 -14.5 112t-44.5 88t-76.5 57.5t-110.5 20.5h-53v-238h158v-58h-158v-262h46q63 0 110.5 21.5t79 59t47.5 89t16 111.5v-1zM543 360q0 -82 -22.5 -148.5t-66.5 -113.5t-108.5 -72.5t-148.5 -25.5h-143v342h-60v59h60v319h178q81 0 140 -28t97 -76.5
t56 -114.5t18 -141z" />
    <glyph glyph-name="nonmarkingreturn" unicode="&#xd;" horiz-adv-x="0" 
 />
    <glyph glyph-name="space" unicode=" " horiz-adv-x="299" 
 />
    <glyph glyph-name="eth" unicode="&#xf0;" horiz-adv-x="576" 
d="M452 249q0 37 -10 72t-30.5 62t-51.5 43t-72 16q-42 0 -72.5 -16t-51 -42.5t-30.5 -61.5t-10 -73t10 -73t30 -62t51 -43.5t73 -16.5t72.5 16.5t51 43.5t30.5 62t10 73zM539 266q0 -58 -16 -109t-48 -88.5t-79 -59t-109 -21.5q-58 0 -104.5 19t-78.5 53.5t-49.5 82
t-17.5 104.5q0 53 16 99.5t47 81t74.5 54.5t99.5 20q38 0 75.5 -13.5t62.5 -40.5q-23 43 -59.5 85t-74.5 74l-99 -55l-36 39l91 51q-16 14 -33.5 25.5t-36.5 22.5l64 40q16 -9 39 -25t37 -27l96 53l38 -39l-91 -50q41 -38 76.5 -79.5t61 -88t40 -98.5t14.5 -110z" />
    <glyph glyph-name="Lslash" unicode="&#x141;" 
d="M548 114q0 -22 -4.5 -42.5t-17 -36.5t-34.5 -25.5t-58 -9.5h-380v243l-54 -38v64l54 38v413h95v-348l178 125v-64l-178 -125v-227h260q24 0 38.5 5t22 13.5t10 20t2.5 25.5l66 -31v0z" />
    <glyph glyph-name="lslash" unicode="&#x142;" horiz-adv-x="195" 
d="M141 400v-400h-87v332l-54 -45v54l54 45v334h87v-266l54 45v-54z" />
    <glyph glyph-name="Scaron" unicode="&#x160;" horiz-adv-x="604" 
d="M587 197q0 -58 -23 -98.5t-61 -66t-86.5 -37.5t-99.5 -12q-50 0 -103.5 12.5t-98.5 42t-73.5 79t-28.5 123.5h95q0 -50 16.5 -85.5t45.5 -57.5t68.5 -32t85.5 -10q31 0 61 7.5t54 23.5t38.5 41.5t14.5 61.5q0 39 -17.5 62.5t-46.5 38.5t-68 24.5t-82 20.5t-86 23.5
t-77.5 33t-56 54t-21.5 86.5q0 57 23 96t59.5 63t83 35t94.5 11q55 0 103 -12t84 -38.5t58 -69.5t25 -105h-91q0 42 -14.5 71t-39 47.5t-57 26.5t-68.5 8q-28 0 -58 -5.5t-54.5 -19.5t-40.5 -37.5t-16 -59.5q0 -38 20.5 -60.5t53 -37t73.5 -24.5t84 -21q45 -12 86.5 -25
t73 -34.5t50 -55.5t18.5 -88zM340 781h-71l-117 143h68l85 -105l83 105h68z" />
    <glyph glyph-name="scaron" unicode="&#x161;" horiz-adv-x="485" 
d="M462 146q0 -45 -19 -75t-50 -48.5t-69 -26.5t-77 -8q-49 0 -90.5 10.5t-71.5 33t-47.5 58t-17.5 84.5h83q1 -66 40.5 -97t106.5 -31q21 0 44 5t41.5 15.5t31 27.5t12.5 42q0 26 -11 42t-31 26.5t-48 17.5t-62 14q-41 9 -75.5 19t-60 26.5t-40 41.5t-14.5 63q0 32 14.5 58
t41 45t63.5 29t82 10q42 0 80 -8.5t66.5 -28t45.5 -51t18 -76.5h-80q0 58 -37 84.5t-91 26.5q-38 0 -61.5 -10t-36 -23.5t-17 -27.5t-4.5 -23q0 -30 21.5 -47.5t51.5 -28t63 -17t56 -12.5q28 -8 54.5 -17.5t47.5 -25t34 -39t13 -58.5zM279 583h-71l-117 143h68l85 -105
l84 105h67z" />
    <glyph glyph-name="Yacute" unicode="&#xdd;" 
d="M494 540q0 -94 -43.5 -148t-128.5 -65v-327h-95v327q-86 11 -129.5 65t-43.5 148v180h95v-160q0 -35 5.5 -64.5t20 -51t38.5 -34t61 -12.5t61 12.5t38.5 34.5t20 51.5t5.5 63.5v160h95v-180v0zM258 778h-60l119 146h97z" />
    <glyph glyph-name="yacute" unicode="&#xfd;" horiz-adv-x="554" 
d="M500 -1q0 -47 -12 -87.5t-40 -70.5t-72.5 -47t-110.5 -17q-42 0 -81 8.5t-69.5 28t-50.5 51t-23 78.5h86q2 -27 14 -48t30.5 -34.5t41.5 -20.5t49 -7q77 0 114.5 44.5t37.5 116.5v106q-24 -57 -70 -84.5t-109 -27.5q-83 0 -132 49t-49 132v347h87v-313q0 -31 7.5 -57.5
t22.5 -45.5t39 -30t57 -11q37 0 64.5 14t45.5 38t27 55t9 65v285h87v-517v0zM248 580h-61l120 146h97z" />
    <glyph glyph-name="Thorn" unicode="&#xde;" horiz-adv-x="550" 
d="M422 395q0 71 -42.5 103t-119.5 32h-111v-273h106q34 0 64.5 8t53 24.5t36 43t13.5 62.5zM513 398q0 -54 -18.5 -94.5t-51 -68t-78 -41t-99.5 -13.5h-117v-181h-95v720h95v-109h130q59 0 103 -16.5t73 -45.5t43.5 -67.5t14.5 -83.5z" />
    <glyph glyph-name="thorn" unicode="&#xfe;" horiz-adv-x="599" 
d="M475 251q0 40 -9.5 78t-31 67.5t-56.5 47.5t-86 18q-25 0 -52 -9t-49 -24.5t-36 -37t-14 -46.5v-158q0 -31 13.5 -55.5t36 -42t50.5 -26.5t58 -9q45 0 78 15t54.5 41.5t32.5 62.5t11 78zM562 251q0 -56 -17.5 -104t-50 -83.5t-78.5 -55.5t-102 -20q-57 0 -101.5 21.5
t-71.5 61.5v-277h-87v926h87v-267q28 37 71.5 56t94.5 19q60 0 107.5 -21.5t80.5 -59t50 -88t17 -108.5z" />
    <glyph glyph-name="Zcaron" unicode="&#x17d;" horiz-adv-x="578" 
d="M584 114q0 -22 -4.5 -42.5t-17 -36.5t-34.5 -25.5t-58 -9.5h-461v81l441 558h-411v81h533v-77l-443 -562h315q24 0 39 5t22.5 13.5t10 20t2.5 25.5l66 -31v0zM335 781h-71l-117 143h68l85 -105l83 105h68z" />
    <glyph glyph-name="zcaron" unicode="&#x17e;" horiz-adv-x="463" 
d="M463 101q0 -20 -4 -38t-15.5 -32t-31.5 -22.5t-51 -8.5h-352v73l317 376h-291v67h399v-73l-314 -377h220q23 0 36.5 4.5t21 13t9.5 19.5t2 23l54 -25v0zM268 583h-71l-117 143h68l85 -105l83 105h68z" />
    <glyph glyph-name="onehalf" unicode="&#xbd;" horiz-adv-x="707" 
d="M690 68q0 -31 -14 -49.5t-52 -18.5h-238q-1 31 11 56t32 46t45 38.5t49 33.5q16 10 32 22t28.5 25.5t20 28.5t7.5 31q0 33 -21.5 53t-55.5 20q-47 0 -66 -30.5t-18 -76.5h-57q-2 72 35 114t106 42q27 0 51.5 -7.5t43.5 -22t30 -36.5t11 -51q0 -28 -12 -51t-31 -43
t-42.5 -37.5t-45.5 -34t-40.5 -33.5t-27.5 -36h140q23 0 28.5 9.5t5.5 27.5l45 -20v0zM119 0h-56l426 720h56zM122 324v342h-7q-22 0 -26.5 -10t-4.5 -27l-47 21q0 28 13 49t55 21h80v-396h-63z" />
    <glyph glyph-name="onequarter" unicode="&#xbc;" horiz-adv-x="667" 
d="M484 328l-130 -171h130v171zM630 173q0 -27 -13 -47.5t-53 -20.5h-19v-105h-61v105h-182v53l185 238h58v-239h9q22 0 26.5 9.5t4.5 26.5l45 -20v0zM119 0h-56l426 720h56zM122 324v342h-7q-22 0 -26.5 -10t-4.5 -27l-47 21q0 28 13 49t55 21h80v-396h-63z" />
    <glyph glyph-name="onesuperior" unicode="&#xb9;" horiz-adv-x="239" 
d="M122 324v342h-7q-22 0 -26.5 -10t-4.5 -27l-47 21q0 28 13 49t55 21h80v-396h-63z" />
    <glyph glyph-name="threequarters" unicode="&#xbe;" horiz-adv-x="763" 
d="M580 328l-129 -171h129v171zM726 173q0 -27 -12.5 -47.5t-53.5 -20.5h-19v-105h-61v105h-182v53l185 238h58v-239h10q21 0 25.5 9.5t4.5 26.5l45 -20v0zM215 0h-55l426 720h55zM326 444q0 -29 -12.5 -51.5t-33 -38t-46.5 -23.5t-53 -8q-34 0 -63.5 9.5t-50.5 28.5t-32 47
t-8 66h57q-3 -50 22.5 -76t72.5 -26q35 0 60.5 20t25.5 55t-23 53t-58 18h-17v43h17q31 0 53.5 15.5t22.5 46.5q0 30 -24.5 45.5t-54.5 15.5q-41 0 -64.5 -23t-22.5 -68h-57q0 70 40.5 104.5t104.5 34.5q22 0 46 -6t44 -18.5t32.5 -31.5t12.5 -46q0 -26 -13 -51.5t-40 -36.5
q30 -11 46 -39.5t16 -58.5z" />
    <glyph glyph-name="threesuperior" unicode="&#xb3;" horiz-adv-x="358" 
d="M326 444q0 -29 -12.5 -51.5t-33 -38t-46.5 -23.5t-53 -8q-34 0 -63.5 9.5t-50.5 28.5t-32 47t-8 66h57q-3 -50 22.5 -76t72.5 -26q35 0 60.5 20t25.5 55t-23 53t-58 18h-17v43h17q31 0 53.5 15.5t22.5 46.5q0 30 -24.5 45.5t-54.5 15.5q-41 0 -64.5 -23t-22.5 -68h-57
q0 70 40.5 104.5t104.5 34.5q22 0 46 -6t44 -18.5t32.5 -31.5t12.5 -46q0 -26 -13 -51.5t-40 -36.5q30 -11 46 -39.5t16 -58.5z" />
    <glyph glyph-name="twosuperior" unicode="&#xb2;" horiz-adv-x="352" 
d="M334 397q0 -31 -14 -49.5t-52 -18.5h-238q-1 31 11 56.5t32 46.5t45 38.5t49 33.5q33 21 60.5 47.5t27.5 59.5q0 32 -21 52t-56 20q-47 0 -66 -30.5t-18 -76.5h-57q-2 72 35.5 114t106.5 42q27 0 51.5 -7.5t43 -22t30 -36.5t11.5 -51q0 -42 -26 -73.5t-60 -57.5
t-67 -50.5t-47 -52.5h140q24 0 29 9t5 27l45 -20v0z" />
    <glyph glyph-name="brokenbar" unicode="&#xa6;" horiz-adv-x="178" 
d="M54 0v269h70v-269h-70zM54 451v269h70v-269h-70z" />
    <glyph glyph-name="minus" unicode="&#x2212;" horiz-adv-x="594" 
d="M45 325v70h504v-70h-504z" />
    <glyph glyph-name="multiply" unicode="&#xd7;" horiz-adv-x="442" 
d="M392 139l-172 173l-171 -173l-49 50l172 171l-172 172l49 49l171 -173l172 173l50 -49l-173 -172l173 -171z" />
    <glyph glyph-name="exclam" unicode="!" horiz-adv-x="195" 
d="M158 42q0 -24 -19 -39t-42 -15t-41.5 15t-18.5 39t18.5 39t41.5 15t42 -15t19 -39zM122 138h-49l-28 582h104z" />
    <glyph glyph-name="quotedbl" unicode="&#x22;" horiz-adv-x="302" 
d="M54 437v283h70v-283h-70zM178 437v283h70v-283h-70z" />
    <glyph glyph-name="numbersign" unicode="#" horiz-adv-x="547" 
d="M217 426l-19 -132h133l18 132h-132zM540 426h-133l-19 -132h133l-8 -57h-132l-34 -237h-58l34 237h-133l-33 -237h-58l34 237h-133l8 57h132l19 132h-132l7 57h133l33 237h58l-33 -237h132l34 237h57l-33 -237h132z" />
    <glyph glyph-name="dollar" unicode="$" horiz-adv-x="485" 
d="M462 248q0 -41 -16.5 -70t-43.5 -48t-61 -28t-70 -11v-91h-57v91q-87 7 -140 51.5t-54 133.5h83q1 -66 40.5 -97t106.5 -31q21 0 44 5t41.5 15.5t31 28t12.5 42.5t-11 41.5t-31 27t-48 17.5t-62 14q-41 9 -75.5 19t-60 26t-40 41t-14.5 63q0 57 46 97t131 44v91h57v-91
q37 -3 69.5 -13.5t56 -30t37.5 -49t14 -70.5h-80q0 58 -37 84.5t-91 26.5q-38 0 -61.5 -10t-36 -23.5t-17 -27.5t-4.5 -23q0 -30 21.5 -47.5t51.5 -28t63 -17t56 -12.5q28 -8 54.5 -17.5t47.5 -25t34 -39t13 -58.5z" />
    <glyph glyph-name="percent" unicode="%" horiz-adv-x="725" 
d="M627 165q0 28 -5.5 52.5t-17.5 42.5t-31.5 28.5t-47.5 10.5t-47 -11t-31 -29t-17 -42.5t-5 -51.5q0 -26 5.5 -49.5t17.5 -42t31 -29.5t46 -11t46.5 11t32 29.5t18 42.5t5.5 49zM688 166q0 -38 -10 -70.5t-30.5 -56.5t-51 -37.5t-71.5 -13.5q-42 0 -72 14t-50 38
t-29.5 56.5t-9.5 68.5q0 39 10 72t30.5 57t50.5 37t70 13q41 0 71.5 -13t51 -37t30.5 -57t10 -72v1zM300 541q0 28 -5.5 52.5t-17.5 42.5t-31.5 28.5t-47.5 10.5t-47 -11t-31 -29t-17 -42.5t-5 -51.5q0 -26 5.5 -49.5t17.5 -42t31 -29.5t46 -11t46.5 11t32 29.5t18 42
t5.5 49.5zM172 0h-55l408 675h-218q27 -22 40.5 -56t13.5 -78q0 -37 -10 -69.5t-30.5 -56.5t-51 -37.5t-71.5 -13.5q-42 0 -72.5 14t-50 38t-29 56.5t-9.5 68.5q0 39 10 72t30.5 56.5t50.5 37t70 13.5h382v-45z" />
    <glyph glyph-name="ampersand" unicode="&#x26;" horiz-adv-x="729" 
d="M729 360q0 -21 -4.5 -40.5t-16.5 -35t-33.5 -24.5t-55.5 -9h-30q6 -66 -15 -115.5t-61.5 -82t-96.5 -49t-120 -16.5q-53 0 -102.5 14t-87.5 41t-61.5 67.5t-23.5 93.5q0 32 9.5 63.5t27.5 57t44.5 42t61.5 19.5q-32 4 -56 20t-40 39.5t-23.5 51t-7.5 54.5q0 46 21.5 80.5
t55.5 56.5t75.5 33t81.5 11q57 0 103.5 -15.5t80 -45.5t52 -75t18.5 -103h-83q2 79 -44.5 124t-124.5 45q-28 0 -55.5 -7.5t-49.5 -23t-36 -39t-14 -54.5q0 -32 12.5 -55.5t33.5 -39.5t48 -23.5t56 -7.5h20v-60h-20q-33 0 -62 -9t-50 -26.5t-33 -44t-12 -61.5q0 -36 17 -64
t44 -47.5t60.5 -29.5t67.5 -10q44 0 83 13t67 37.5t43 60t12 80.5h-41q-24 0 -38 -5t-21.5 -13.5t-10 -20t-2.5 -24.5l-62 29q0 21 4.5 41t16.5 35.5t33.5 24.5t55.5 9h155q24 0 38 5t21.5 13t10 19.5t2.5 25.5l62 -30v0z" />
    <glyph glyph-name="quotesingle" unicode="'" horiz-adv-x="178" 
d="M54 437v283h70v-283h-70z" />
    <glyph glyph-name="parenleft" unicode="(" horiz-adv-x="227" 
d="M151 -206q-29 57 -50 113t-35.5 113t-21.5 116t-7 123q0 121 28.5 237t84.5 224h77q-53 -110 -79.5 -224.5t-26.5 -236.5q0 -124 26.5 -238.5t79.5 -226.5h-76z" />
    <glyph glyph-name="parenright" unicode=")" horiz-adv-x="227" 
d="M190 255q0 -121 -28.5 -237t-84.5 -224h-76q52 110 79 224.5t27 236.5q0 124 -26.5 238.5t-80.5 226.5h77q28 -57 49 -113t35.5 -113t21.5 -116t7 -123z" />
    <glyph glyph-name="asterisk" unicode="*" horiz-adv-x="346" 
d="M213 535l86 -106l-51 -38l-75 115l-75 -115l-52 38l86 106l-132 36l20 61l128 -49l-7 137h64l-7 -137l128 49l20 -61z" />
    <glyph glyph-name="plus" unicode="+" horiz-adv-x="594" 
d="M332 325v-218h-70v218h-217v70h217v218h70v-218h217v-70h-217z" />
    <glyph glyph-name="comma" unicode="," horiz-adv-x="202" 
d="M61 -141l-61 35l141 245l61 -35z" />
    <glyph glyph-name="hyphen" unicode="-" horiz-adv-x="317" 
d="M45 231v74h227v-74h-227z" />
    <glyph glyph-name="period" unicode="." horiz-adv-x="195" 
d="M158 42q0 -24 -19 -39t-42 -15t-41.5 15t-18.5 39t18.5 39t41.5 15t42 -15t19 -39z" />
    <glyph glyph-name="slash" unicode="/" horiz-adv-x="367" 
d="M70 0h-70l297 720h70z" />
    <glyph glyph-name="zero" unicode="0" horiz-adv-x="632" 
d="M503 360q0 45 -7.5 98t-28.5 98.5t-57.5 75.5t-94.5 30t-94.5 -30t-57.5 -75t-28.5 -98t-7.5 -99q0 -45 7.5 -98t28 -98.5t57 -75.5t94.5 -30q39 0 68 14t50 37.5t34.5 54t22 64t11.5 67.5t3 65zM586 360q0 -63 -14.5 -129t-46.5 -120t-83.5 -88.5t-126.5 -34.5
t-126.5 34.5t-84 88.5t-47 120t-14.5 129t14.5 129t46.5 120t84 88.5t126 34.5q75 0 126.5 -34.5t84 -88.5t47 -120t14.5 -129z" />
    <glyph glyph-name="one" unicode="1" horiz-adv-x="632" 
d="M274 0v639h-15q-24 0 -38.5 -5t-22 -13.5t-10 -20.5t-2.5 -25l-66 31q0 22 4.5 42.5t17 36.5t34.5 25.5t58 9.5h135v-720h-95z" />
    <glyph glyph-name="two" unicode="2" horiz-adv-x="632" 
d="M584 109q0 -24 -5 -44t-18 -34.5t-34 -22.5t-53 -8h-423q-2 52 20 96t57.5 81.5t80 69t87.5 60.5q30 20 59 43t52.5 49t38 55t14.5 61q0 65 -41.5 105t-108.5 40q-45 0 -76.5 -16.5t-51 -44t-28 -63.5t-8.5 -75h-83q-1 61 15 111.5t47.5 85.5t78.5 54.5t107 19.5
q48 0 91 -13t75.5 -39t51.5 -65t19 -91q0 -41 -14.5 -77t-39.5 -68t-57 -60t-66 -52l-64 -46t-59 -47t-47.5 -48.5t-30.5 -49.5h280q23 0 37.5 5t22 13t10 19.5t2.5 25.5l62 -30v0z" />
    <glyph glyph-name="three" unicode="3" horiz-adv-x="632" 
d="M576 204q0 -52 -21.5 -92t-57 -67.5t-81 -42t-93.5 -14.5q-60 0 -111.5 17t-88.5 50.5t-56 82.5t-14 113h84q-6 -91 43.5 -141t139.5 -50q33 0 63.5 10t53 29.5t36 47.5t13.5 64q0 35 -12 61.5t-33 44t-50 26.5t-62 9h-21v60h21q29 0 56 7.5t47.5 23.5t33 39.5t12.5 55.5
q0 31 -13.5 54.5t-35.5 39t-49.5 23t-55.5 7.5q-78 0 -124.5 -45t-44.5 -124h-83q0 58 18.5 103t52 75t80 45.5t103.5 15.5q40 0 81.5 -11t75.5 -33t55.5 -56.5t21.5 -80.5q0 -27 -8 -54.5t-23.5 -51t-39.5 -39.5t-56 -20q34 -3 61 -19.5t45 -42t27.5 -57t9.5 -63.5z" />
    <glyph glyph-name="four" unicode="4" horiz-adv-x="632" 
d="M364 632l-267 -359h267v359zM609 306q0 -21 -4 -41t-16 -35.5t-33.5 -24.5t-55.5 -9h-45v-196h-91v196h-332v86l332 438h90v-447h21q24 0 38.5 5t22 13t10 19.5t2.5 24.5l61 -29v0z" />
    <glyph glyph-name="five" unicode="5" horiz-adv-x="632" 
d="M539 581q1 38 -18 50.5t-55 12.5h-263l-54 -257q31 40 78.5 58.5t97.5 18.5q53 0 96 -17t73 -48t46.5 -74.5t16.5 -95.5q0 -58 -20.5 -103t-56.5 -75.5t-84 -46.5t-103 -16q-52 0 -100 14t-84 42.5t-57 71.5t-18 101h86q1 -39 14.5 -68.5t36.5 -49t54.5 -29.5t69.5 -10
q39 0 71 12t55 34.5t35.5 54t12.5 70.5q0 38 -12.5 69.5t-35 54t-54 35t-69.5 12.5q-48 0 -90.5 -19.5t-66.5 -62.5h-86l80 400h356q110 0 109 -109z" />
    <glyph glyph-name="six" unicode="6" horiz-adv-x="632" 
d="M509 242q0 38 -14.5 71t-39.5 57.5t-58.5 38.5t-71.5 14t-70.5 -14t-57.5 -38.5t-39 -57.5t-14 -71t14 -71t38.5 -58t57.5 -39t71 -14t71.5 14t58.5 38.5t39.5 58t14.5 71.5zM591 243q0 -57 -20.5 -104t-56.5 -80.5t-84.5 -52t-104.5 -18.5q-69 0 -126.5 30t-92.5 81
q-34 51 -45 113t-11 126q0 70 14.5 140t48 126.5t89.5 92t139 35.5q38 0 75 -8.5t69 -28.5l-49 -56q-22 14 -47 20t-51 6q-60 0 -99 -29t-62 -73t-33 -97.5t-11 -101.5v-17q26 65 84 101.5t129 36.5q51 0 96 -18.5t78 -51t52 -76.5t19 -96z" />
    <glyph glyph-name="seven" unicode="7" horiz-adv-x="632" 
d="M347 0h-99l219 644h-280q-24 0 -38.5 -5t-22 -13.5t-10 -20t-2.5 -24.5l-61 30q0 21 4 40.5t16 35t33.5 24.5t56.5 9h402v-76z" />
    <glyph glyph-name="eight" unicode="8" horiz-adv-x="632" 
d="M481 210q0 35 -13 64.5t-35 50.5t-52.5 32.5t-64.5 11.5t-64 -11.5t-52.5 -32.5t-35.5 -50.5t-13 -64.5q0 -34 13.5 -62t36 -48.5t52 -31.5t62.5 -11t63 11t53 31.5t36.5 48.5t13.5 62zM445 546q0 28 -10 50.5t-27.5 38t-41 24t-50.5 8.5t-50.5 -8.5t-41 -24.5t-27.5 -38
t-10 -50q0 -27 10.5 -48.5t28 -37.5t40.5 -24.5t49 -8.5t49.5 8.5t41.5 24t28.5 37.5t10.5 49zM567 210q0 -52 -21 -93.5t-56 -70t-80.5 -43.5t-93.5 -15q-50 0 -95.5 15t-80 43.5t-55.5 69.5t-21 94q0 73 41 123t109 67q-51 17 -78.5 58.5t-27.5 95.5q0 43 17.5 76t47 55.5
t66.5 34.5t76 12t76.5 -12t67 -34.5t47.5 -56t18 -75.5q0 -53 -28.5 -95t-77.5 -59q33 -7 60.5 -24.5t47 -43t30.5 -57t11 -65.5z" />
    <glyph glyph-name="nine" unicode="9" horiz-adv-x="632" 
d="M493 478q0 38 -14 71t-38.5 58t-57.5 39t-71 14t-71.5 -14t-58.5 -38.5t-39.5 -58t-14.5 -71.5t14.5 -71t39.5 -57.5t58.5 -38.5t71.5 -14q37 0 70 14t58 38.5t39 57.5t14 71zM587 382q0 -70 -14 -140.5t-48 -126.5t-89.5 -91.5t-138.5 -35.5q-38 0 -75 8.5t-69 28.5
l49 56q21 -14 46 -20t51 -6q60 0 99.5 29t62.5 73t32.5 97.5t10.5 101.5v8.5t1 8.5q-26 -65 -84.5 -101.5t-129.5 -36.5q-51 0 -95.5 18.5t-77.5 51t-52 76.5t-19 96q0 57 20.5 104t56 80.5t84 52t104.5 18.5q69 0 127 -30t93 -82q33 -50 44 -112t11 -126z" />
    <glyph glyph-name="colon" unicode=":" horiz-adv-x="195" 
d="M158 42q0 -24 -19 -39t-42 -15t-41.5 15t-18.5 39t18.5 39t41.5 15t42 -15t19 -39zM158 474q0 -24 -19 -39t-42 -15t-41.5 15t-18.5 39t18.5 39t41.5 15t42 -15t19 -39z" />
    <glyph glyph-name="semicolon" unicode=";" horiz-adv-x="195" 
d="M61 -141l-61 35l141 245l61 -35zM158 474q0 -24 -19 -39t-42 -15t-41.5 15t-18.5 39t18.5 39t41.5 15t42 -15t19 -39z" />
    <glyph glyph-name="less" unicode="&#x3c;" horiz-adv-x="597" 
d="M45 329v62l507 230v-74l-408 -187l408 -187v-74z" />
    <glyph glyph-name="equal" unicode="=" horiz-adv-x="594" 
d="M45 219v70h504v-70h-504zM45 431v70h504v-70h-504z" />
    <glyph glyph-name="greater" unicode="&#x3e;" horiz-adv-x="597" 
d="M45 99v74l408 187l-408 187v74l507 -230v-62z" />
    <glyph glyph-name="question" unicode="?" horiz-adv-x="537" 
d="M324 42q0 -24 -18.5 -39t-41.5 -15t-42 15t-19 39t19 39t42 15t41.5 -15t18.5 -39zM500 550q0 -41 -11 -69t-28.5 -48.5t-37 -34.5t-35.5 -27q-24 -19 -40 -35.5t-25.5 -34.5t-13.5 -40t-4 -51v-85h-82v85q0 27 3 52.5t12 50t26 48.5t46 47q8 6 24 17t32.5 27.5t28.5 39
t12 52.5q0 54 -37 82.5t-95 28.5q-38 0 -66.5 -12.5t-47 -35t-27 -53.5t-6.5 -67h-91q0 50 14.5 94.5t44.5 77.5t75 52.5t106 19.5q53 0 94.5 -14t70 -39t43.5 -58t15 -70z" />
    <glyph glyph-name="at" unicode="@" horiz-adv-x="794" 
d="M530 428q-8 42 -39 64.5t-73 22.5q-38 0 -69 -20t-53.5 -51t-35 -68t-12.5 -71q0 -22 7.5 -42t21 -35t32 -23.5t41.5 -8.5q47 0 79 24.5t49 65.5q14 32 26.5 69.5t25.5 72.5zM757 428q0 -70 -27 -130q-17 -36 -46 -70t-67 -58q-22 -14 -46.5 -23t-49.5 -9q-23 0 -40.5 12
t-19.5 35q-1 6 0 13q-23 -32 -55.5 -46t-70.5 -14q-34 0 -61.5 13t-47 34.5t-30.5 51t-11 62.5q0 48 16.5 96.5t46.5 88t72.5 64.5t94.5 25q42 0 79.5 -19.5t55.5 -59.5l19 60h49l-85 -254q-6 -18 -11 -37t-5 -39q0 -16 8 -25.5t24 -9.5q17 0 32.5 6.5t29.5 16.5
q23 16 41 39.5t30 50.5t18 56.5t6 57.5q0 64 -23 113t-62.5 83t-92.5 51.5t-113 17.5q-68 0 -127.5 -24t-103.5 -67t-69.5 -101t-25.5 -127q0 -72 24 -131.5t67 -102t102.5 -66t130.5 -23.5q78 0 146 32t117 91h57q-53 -83 -137.5 -128.5t-182.5 -45.5q-83 0 -152 27.5
t-118.5 77t-77.5 118t-28 151.5q0 81 29 149t80 117t120.5 76.5t149.5 27.5q68 0 130 -20.5t109 -59.5t74.5 -95.5t27.5 -128.5z" />
    <glyph glyph-name="A" unicode="A" 
d="M399 499q0 34 -5.5 63.5t-20 51.5t-38.5 34.5t-61 12.5t-61 -12.5t-38.5 -34.5t-20 -51.5t-5.5 -63.5v-101h250v101zM399 0v322h-250v-322h-95v519q0 108 56 163t164 55q109 0 164.5 -56t55.5 -162v-519h-95z" />
    <glyph glyph-name="B" unicode="B" 
d="M416 211q0 34 -12 59t-33 41t-49.5 24t-61.5 8h-111v-267h106q32 0 61.5 7.5t51.5 24t35 42t13 61.5zM393 525q0 61 -40.5 90t-100.5 29h-103v-239h103q28 0 54 7.5t45 22.5t30.5 37.5t11.5 52.5zM511 204q0 -52 -20 -90t-53.5 -63.5t-77 -38t-90.5 -12.5h-216v720h219
q42 0 80.5 -10.5t67.5 -32.5t46 -56t17 -80q0 -30 -9.5 -56t-26 -46.5t-40.5 -34.5t-52 -20q71 -10 113 -59t42 -121z" />
    <glyph glyph-name="C" unicode="C" horiz-adv-x="724" 
d="M688 280q-6 -65 -30.5 -119.5t-65 -94t-96 -61.5t-121.5 -22q-80 0 -143 30t-106.5 81t-66 118.5t-22.5 143.5q0 79 23 148t67 121t108.5 82t147.5 30q56 0 109 -17t95 -49t69 -78.5t32 -106.5h-94q-4 40 -23.5 71.5t-49.5 54t-66.5 34.5t-73.5 12q-63 0 -110 -26
t-78 -68.5t-46 -96.5t-15 -111q0 -54 14.5 -107t44.5 -94.5t75 -67t106 -25.5q50 0 88.5 16.5t66 46t44.5 69t23 86.5h94v0z" />
    <glyph glyph-name="D" unicode="D" horiz-adv-x="580" 
d="M448 361q0 61 -14.5 112t-44.5 88t-76.5 57.5t-110.5 20.5h-53v-558h46q63 0 110.5 21.5t79 59t47.5 89t16 111.5v-1zM543 360q0 -82 -22.5 -148.5t-66.5 -113.5t-108.5 -72.5t-148.5 -25.5h-143v720h178q81 0 140 -28t97 -76.5t56 -114.5t18 -141z" />
    <glyph glyph-name="E" unicode="E" 
d="M54 0v720h442v-81h-347v-241h318v-76h-318v-241h354v-81h-449z" />
    <glyph glyph-name="F" unicode="F" 
d="M149 639v-241h318v-76h-318v-322h-95v720h442v-81h-347z" />
    <glyph glyph-name="G" unicode="G" horiz-adv-x="742" 
d="M720 -4q-27 0 -44.5 8.5t-28.5 25.5t-17 42t-10 59q-35 -67 -96 -107.5t-149 -40.5q-80 0 -143 30t-106.5 81t-66 118.5t-22.5 143.5q0 79 23 148t67 121t108.5 82t147.5 30q56 0 109 -17t95 -49t69 -78.5t32 -106.5h-94q-4 40 -23.5 71.5t-49.5 54t-66.5 34.5t-73.5 12
q-63 0 -110 -26t-78 -68.5t-46 -96.5t-15 -111q0 -54 14.5 -107t44.5 -94.5t75 -67t106 -25.5q47 0 83.5 14.5t63.5 41t44 62.5t25 78h-208v77h308v-193q0 -25 5 -40t13.5 -23t20.5 -10.5t27 -2.5z" />
    <glyph glyph-name="H" unicode="H" horiz-adv-x="593" 
d="M443 0v329h-294v-329h-95v720h95v-314h293v314h96v-720h-95z" />
    <glyph glyph-name="I" unicode="I" horiz-adv-x="203" 
d="M54 0v720h95v-720h-95z" />
    <glyph glyph-name="J" unicode="J" 
d="M494 213q0 -112 -52.5 -171t-170.5 -59q-57 0 -98 16t-67.5 45t-39 69t-12.5 88v79h87v-72q0 -70 29.5 -109.5t98.5 -39.5q70 0 100 41t30 121v418h-184q-24 0 -39 -5t-22.5 -13.5t-10 -20.5t-2.5 -25l-66 31q0 22 4.5 42.5t17 36.5t34.5 25.5t58 9.5h305v-507v0z" />
    <glyph glyph-name="K" unicode="K" horiz-adv-x="465" 
d="M354 0l-205 279v-279h-95v720h95v-279l205 279h111l-261 -360l261 -360h-111z" />
    <glyph glyph-name="L" unicode="L" 
d="M548 114q0 -22 -4.5 -42.5t-17 -36.5t-34.5 -25.5t-58 -9.5h-380v720h95v-639h260q24 0 38.5 5t22 13.5t10 20t2.5 25.5l66 -31v0z" />
    <glyph glyph-name="M" unicode="M" horiz-adv-x="893" 
d="M744 0v499q0 34 -5.5 64t-20 51.5t-38.5 34t-61 12.5t-61 -12.5t-38.5 -34t-20 -51.5t-5.5 -64v-499h-95v499q0 34 -5.5 64t-20 51.5t-38.5 34t-61 12.5t-61 -12.5t-38.5 -34t-20 -51.5t-5.5 -64v-499h-95v519q0 108 56 163t164 55q61 0 105 -21.5t68 -65.5
q23 44 67 65.5t105 21.5q108 0 164 -55t56 -163v-519h-95z" />
    <glyph glyph-name="N" unicode="N" 
d="M399 0v499q0 34 -5.5 63.5t-20 51.5t-38.5 34.5t-61 12.5t-61 -12.5t-38.5 -34.5t-20 -51.5t-5.5 -63.5v-499h-95v519q0 108 56 163t164 55q109 0 164.5 -56t55.5 -162v-519h-95z" />
    <glyph glyph-name="O" unicode="O" horiz-adv-x="757" 
d="M625 360q0 57 -15 110.5t-45.5 95.5t-77 67t-109.5 25t-109.5 -25t-76.5 -67t-45 -95.5t-15 -110.5t15 -110.5t45 -95.5t76.5 -67t109.5 -25t109.5 25t77 67t45.5 95.5t15 110.5zM720 360q0 -77 -23 -145.5t-66.5 -120t-107 -81.5t-145.5 -30q-81 0 -144.5 30t-107 81.5
t-66.5 120t-23 145.5t23 145.5t66.5 120t107 81.5t144.5 30q82 0 145.5 -30t107 -81.5t66.5 -120t23 -145.5z" />
    <glyph glyph-name="P" unicode="P" horiz-adv-x="550" 
d="M422 504q0 71 -42.5 103t-119.5 32h-111v-273h106q34 0 64.5 8t53 24.5t36 43t13.5 62.5zM513 507q0 -54 -18.5 -94.5t-51 -68t-78 -41t-99.5 -13.5h-117v-290h-95v720h225q59 0 103 -16.5t73 -45.5t43.5 -67.5t14.5 -83.5z" />
    <glyph glyph-name="Q" unicode="Q" horiz-adv-x="757" 
d="M625 360q0 57 -15 110.5t-45.5 95.5t-77 67t-109.5 25t-109.5 -25t-76.5 -67t-45 -95.5t-15 -110.5t15 -110.5t45 -95.5t76.5 -67t109.5 -25q47 0 86.5 17t69.5 52l-74 72q-12 12 -25 21.5t-28 10.5q-11 0 -22 -6t-21 -15l-12 70q16 14 35 24t40 10q23 1 43 -13t42 -35
l71 -69q23 35 32.5 76t9.5 83zM836 -46q-17 -14 -36 -24t-41 -10q-23 0 -43 13t-41 35l-93 95q-40 -41 -92 -60.5t-112 -19.5q-81 0 -144.5 30t-107 81.5t-66.5 120t-23 145.5t23 145.5t66.5 120t107 81.5t144.5 30q82 0 145.5 -30t107 -81.5t66.5 -120t23 -145.5
q0 -68 -18 -131.5t-56 -115.5l81 -78q12 -12 25 -21.5t28 -10.5q12 0 23 6t21 15l12 -70v0z" />
    <glyph glyph-name="R" unicode="R" horiz-adv-x="551" 
d="M419 516q0 60 -37 94t-124 34h-108v-265h106q30 0 59.5 7t52.5 23t37 42.5t14 64.5zM514 526q0 -66 -35.5 -114.5t-99.5 -65.5q39 -8 63.5 -25t39 -42.5t19.5 -57t5 -67.5v-154h-93v141q0 42 -7 73.5t-25 52.5t-48 31.5t-75 10.5h-108v-309h-95v720h236q48 0 89 -11
t70.5 -34t46.5 -60t17 -89z" />
    <glyph glyph-name="S" unicode="S" horiz-adv-x="604" 
d="M587 197q0 -58 -23 -98.5t-61 -66t-86.5 -37.5t-99.5 -12q-50 0 -103.5 12.5t-98.5 42t-73.5 79t-28.5 123.5h95q0 -50 16.5 -85.5t45.5 -57.5t68.5 -32t85.5 -10q31 0 61 7.5t54 23.5t38.5 41.5t14.5 61.5q0 39 -17.5 62.5t-46.5 38.5t-68 24.5t-82 20.5t-86 23.5
t-77.5 33t-56 54t-21.5 86.5q0 57 23 96t59.5 63t83 35t94.5 11q55 0 103 -12t84 -38.5t58 -69.5t25 -105h-91q0 42 -14.5 71t-39 47.5t-57 26.5t-68.5 8q-28 0 -58 -5.5t-54.5 -19.5t-40.5 -37.5t-16 -59.5q0 -38 20.5 -60.5t53 -37t73.5 -24.5t84 -21q45 -12 86.5 -25
t73 -34.5t50 -55.5t18.5 -88z" />
    <glyph glyph-name="T" unicode="T" 
d="M322 639v-639h-95v639h-88q-24 0 -38.5 -5t-22 -13.5t-10 -20.5t-2.5 -25l-66 31q0 22 4.5 42.5t17 36.5t34.5 25.5t58 9.5h434v-81h-226z" />
    <glyph glyph-name="U" unicode="U" 
d="M494 201q0 -108 -56 -163t-164 -55q-109 0 -164.5 56t-55.5 162v519h95v-499q0 -34 5.5 -63.5t20 -51.5t38.5 -34.5t61 -12.5t61 12.5t38.5 34.5t20 51.5t5.5 63.5v499h95v-519v0z" />
    <glyph glyph-name="V" unicode="V" horiz-adv-x="581" 
d="M340 0h-99l-241 720h98l192 -554l192 554h99z" />
    <glyph glyph-name="W" unicode="W" horiz-adv-x="893" 
d="M839 201q0 -108 -56 -163t-164 -55q-61 0 -105 21.5t-68 65.5q-23 -44 -67 -65.5t-105 -21.5q-108 0 -164 55t-56 163v519h95v-499q0 -35 5.5 -64.5t20 -51t38.5 -34t61 -12.5t61 12.5t38.5 34t20 51t5.5 64.5v499h95v-499q0 -35 5.5 -64.5t20 -51t38.5 -34t61 -12.5
t61 12.5t38.5 34t20 51t5.5 64.5v499h95v-519v0z" />
    <glyph glyph-name="X" unicode="X" horiz-adv-x="632" 
d="M521 0l-205 279l-206 -279h-110l261 360l-261 360h110l206 -279l205 279h111l-261 -360l261 -360h-111z" />
    <glyph glyph-name="Y" unicode="Y" 
d="M494 540q0 -94 -43.5 -148t-128.5 -65v-327h-95v327q-86 11 -129.5 65t-43.5 148v180h95v-160q0 -35 5.5 -64.5t20 -51t38.5 -34t61 -12.5t61 12.5t38.5 34.5t20 51.5t5.5 63.5v160h95v-180v0z" />
    <glyph glyph-name="Z" unicode="Z" horiz-adv-x="578" 
d="M584 114q0 -22 -4.5 -42.5t-17 -36.5t-34.5 -25.5t-58 -9.5h-461v81l441 558h-411v81h533v-77l-443 -562h315q24 0 39 5t22.5 13.5t10 20t2.5 25.5l66 -31v0z" />
    <glyph glyph-name="bracketleft" unicode="[" horiz-adv-x="294" 
d="M54 -206v926h195v-70h-116v-786h116v-70h-195z" />
    <glyph glyph-name="backslash" unicode="\" horiz-adv-x="367" 
d="M297 0l-297 720h69l298 -720h-70z" />
    <glyph glyph-name="bracketright" unicode="]" horiz-adv-x="294" 
d="M48 -206v70h116v786h-116v70h196v-926h-196z" />
    <glyph glyph-name="asciicircum" unicode="^" horiz-adv-x="478" 
d="M408 300l-169 342l-169 -342h-70l210 420h58l210 -420h-70z" />
    <glyph glyph-name="underscore" unicode="_" horiz-adv-x="500" 
d="M0 -125v50h500v-50h-500z" />
    <glyph glyph-name="grave" unicode="`" horiz-adv-x="0" 
d="M182 712h96l116 -145h-61z" />
    <glyph glyph-name="a" unicode="a" horiz-adv-x="599" 
d="M458 344q0 25 -14 47t-36 37.5t-49 24.5t-52 9q-51 0 -86 -18t-56.5 -47.5t-31 -67.5t-9.5 -78q0 -42 11 -78t32.5 -62.5t54.5 -41.5t78 -15q30 0 58 9t50.5 26.5t36 42t13.5 55.5v157zM458 0v71q-27 -40 -71.5 -61.5t-101.5 -21.5q-56 0 -102 20t-78.5 55.5t-50 83.5
t-17.5 104q0 58 17 108.5t50 88t80.5 59t107.5 21.5q51 0 94.5 -19t71.5 -56v63h87v-516h-87z" />
    <glyph glyph-name="b" unicode="b" horiz-adv-x="599" 
d="M475 251q0 40 -9.5 78t-31 67.5t-56.5 47.5t-86 18q-25 0 -52 -9t-49 -24.5t-36 -37t-14 -46.5v-158q0 -31 13.5 -55.5t36 -42t50.5 -26.5t58 -9q45 0 78 15t54.5 41.5t32.5 62.5t11 78zM562 251q0 -56 -17.5 -104t-50 -83.5t-78.5 -55.5t-102 -20q-57 0 -101.5 21.5
t-71.5 61.5v-71h-87v720h87v-267q28 37 71.5 56t94.5 19q60 0 107.5 -21.5t80.5 -59t50 -88t17 -108.5z" />
    <glyph glyph-name="c" unicode="c" horiz-adv-x="552" 
d="M515 187q-5 -47 -24.5 -84t-49.5 -62.5t-70 -39t-86 -13.5q-57 0 -103 20.5t-78 56t-49.5 83.5t-17.5 103q0 58 17 108.5t49.5 88t80 59t108.5 21.5q43 0 81.5 -12t68.5 -35.5t49 -57.5t24 -79h-83q-8 56 -45.5 87t-92.5 31q-47 0 -79 -17.5t-52.5 -47t-29.5 -67.5
t-9 -79q0 -38 9.5 -73.5t29 -63t50.5 -44t73 -16.5q30 0 55.5 9.5t45 27t31 42t14.5 54.5h83v0z" />
    <glyph glyph-name="d" unicode="d" horiz-adv-x="599" 
d="M458 344q0 25 -14 47t-36 37.5t-49 24.5t-52 9q-51 0 -86 -18t-56.5 -47.5t-31 -67.5t-9.5 -78q0 -42 11 -78t32.5 -62.5t54.5 -41.5t78 -15q30 0 58 9t50.5 26.5t36 42t13.5 55.5v157zM458 0v71q-27 -40 -71.5 -61.5t-101.5 -21.5q-56 0 -102 20t-78.5 55.5t-50 83.5
t-17.5 104q0 58 17 108.5t50 88t80.5 59t107.5 21.5q51 0 94.5 -19t71.5 -56v267h87v-720h-87z" />
    <glyph glyph-name="e" unicode="e" horiz-adv-x="552" 
d="M425 367q-13 45 -47.5 70t-83.5 25q-43 0 -74.5 -15.5t-52 -41.5t-31 -60.5t-11.5 -72.5v-14l300 109v0zM515 187q-5 -47 -24.5 -84t-49.5 -62.5t-70 -39t-86 -13.5q-57 0 -103 20.5t-78 56t-49.5 83.5t-17.5 103q0 58 17 108.5t49.5 88t80 59t108.5 21.5q43 0 81.5 -12
t68.5 -35.5t49 -57.5t24 -78l-388 -142q4 -31 16.5 -58t32 -47.5t47 -32t63.5 -11.5q30 0 55.5 9.5t45 27t31 42t14.5 54.5h83v0z" />
    <glyph glyph-name="f" unicode="f" horiz-adv-x="195" 
d="M251 661q-7 2 -18.5 2.5t-25.5 0.5t-26 -2.5t-21 -10t-14 -22.5t-5 -39v-74h54v-64h-54v-452h-87v452h-54v59h54v105q0 37 10 60t26.5 36t38 17.5t44.5 4.5q26 0 43.5 -2t34.5 -2v-69v0z" />
    <glyph glyph-name="g" unicode="g" horiz-adv-x="594" 
d="M458 344q0 25 -14 47t-36 37.5t-49 24.5t-52 9q-51 0 -86 -18t-56.5 -47.5t-31 -67.5t-9.5 -78q0 -42 11 -78t32.5 -62.5t54.5 -41.5t78 -15q30 0 58 9t50.5 26.5t36 42t13.5 55.5v157zM545 -1q0 -47 -12 -87.5t-40 -70.5t-72.5 -47t-110.5 -17q-42 0 -81 8.5t-69.5 28
t-50.5 51t-23 78.5h86q2 -27 14 -48t30.5 -34.5t41.5 -20.5t49 -7q76 0 113.5 45t37.5 116v77q-27 -40 -71.5 -61.5t-101.5 -21.5q-56 0 -102 20t-78.5 55.5t-50 83.5t-17.5 104q0 58 17 108.5t50 88t80.5 59t107.5 21.5q51 0 94.5 -19t71.5 -56v63h87v-517v0z" />
    <glyph glyph-name="h" unicode="h" horiz-adv-x="554" 
d="M414 0v313q0 31 -7.5 57.5t-23 45.5t-39.5 30t-57 11q-37 0 -64.5 -14t-45.5 -38t-27 -55t-9 -65v-285h-87v720h87v-305q23 58 69 85.5t109 27.5q84 0 132.5 -49t48.5 -132v-347h-86z" />
    <glyph glyph-name="i" unicode="i" horiz-adv-x="195" 
d="M54 0v516h87v-516h-87zM158 683q0 -24 -19 -39t-42 -15t-41.5 15t-18.5 39t18.5 39t41.5 15t42 -15t19 -39z" />
    <glyph glyph-name="j" unicode="j" horiz-adv-x="195" 
d="M141 -1q0 -47 -12 -87.5t-40 -70.5t-72.5 -47t-110.5 -17q-42 0 -81 8.5t-69.5 28t-50.5 51t-23 78.5h86q5 -55 44 -82.5t91 -27.5q76 0 113.5 44.5t37.5 116.5v522h87v-517v0zM158 683q0 -24 -19 -39t-42 -15t-41.5 15t-18.5 39t18.5 39t41.5 15t42 -15t19 -39z" />
    <glyph glyph-name="k" unicode="k" horiz-adv-x="376" 
d="M280 0l-139 188v-188h-87v720h87v-392l139 188h96l-187 -258l187 -258h-96z" />
    <glyph glyph-name="l" unicode="l" horiz-adv-x="195" 
d="M54 0v720h87v-720h-87z" />
    <glyph glyph-name="m" unicode="m" horiz-adv-x="914" 
d="M773 0v313q0 31 -7.5 57t-22.5 45.5t-39 30.5t-57 11q-38 0 -65.5 -14t-45.5 -38t-27 -55t-9 -65v-285h-86v313q0 31 -7.5 57t-23 45.5t-39.5 30.5t-57 11q-37 0 -64.5 -14t-45.5 -38t-27 -55t-9 -65v-285h-87v516h87v-101q23 58 69.5 85.5t108.5 27.5q69 0 114.5 -35
t59.5 -95q21 66 68.5 98t117.5 32q83 0 132 -49t49 -132v-347h-87z" />
    <glyph glyph-name="n" unicode="n" horiz-adv-x="554" 
d="M414 0v313q0 31 -7.5 57.5t-23 45.5t-39.5 30t-57 11q-37 0 -64.5 -14t-45.5 -38t-27 -55t-9 -65v-285h-87v516h87v-101q23 58 69 85.5t109 27.5q84 0 132.5 -49t48.5 -132v-347h-86z" />
    <glyph glyph-name="o" unicode="o" horiz-adv-x="576" 
d="M452 258q0 38 -9.5 74.5t-29.5 65.5t-51 46.5t-74 17.5t-74 -17.5t-51 -46.5t-29.5 -65.5t-9.5 -74.5t9.5 -75t29.5 -65.5t51 -46t74 -17.5t74 17.5t51 46t29.5 65.5t9.5 75zM539 258q0 -53 -15.5 -102t-47 -86.5t-78.5 -59.5t-110 -22t-110 22t-78.5 59.5t-47 86.5
t-15.5 102t15.5 102t47 86.5t78.5 59.5t110 22t110 -22t78.5 -59.5t47 -86.5t15.5 -102z" />
    <glyph glyph-name="p" unicode="p" horiz-adv-x="599" 
d="M475 251q0 40 -9.5 78t-31 67.5t-56.5 47.5t-86 18q-25 0 -52 -9t-49 -24.5t-36 -37t-14 -46.5v-158q0 -31 13.5 -55.5t36 -42t50.5 -26.5t58 -9q45 0 78 15t54.5 41.5t32.5 62.5t11 78zM562 251q0 -56 -17.5 -104t-50 -83.5t-78.5 -55.5t-102 -20q-57 0 -101.5 21.5
t-71.5 61.5v-277h-87v722h87v-63q28 37 71.5 56t94.5 19q60 0 107.5 -21.5t80.5 -59t50 -88t17 -108.5z" />
    <glyph glyph-name="q" unicode="q" horiz-adv-x="599" 
d="M458 344q0 25 -14 47t-36 37.5t-49 24.5t-52 9q-51 0 -86 -18t-56.5 -47.5t-31 -67.5t-9.5 -78q0 -42 11 -78t32.5 -62.5t54.5 -41.5t78 -15q30 0 58 9t50.5 26.5t36 42t13.5 55.5v157zM458 -206v277q-27 -40 -71.5 -61.5t-101.5 -21.5q-56 0 -102 20t-78.5 55.5
t-50 83.5t-17.5 104q0 58 17 108.5t50 88t80.5 59t107.5 21.5q51 0 94.5 -19t71.5 -56v63h87v-722h-87z" />
    <glyph glyph-name="r" unicode="r" horiz-adv-x="342" 
d="M287 457q-37 0 -64.5 -14t-45.5 -38t-27 -55t-9 -65v-285h-87v516h87v-101q23 58 69 85.5t109 27.5h12t11 -1z" />
    <glyph glyph-name="s" unicode="s" horiz-adv-x="485" 
d="M462 146q0 -45 -19 -75t-50 -48.5t-69 -26.5t-77 -8q-49 0 -90.5 10.5t-71.5 33t-47.5 58t-17.5 84.5h83q1 -66 40.5 -97t106.5 -31q21 0 44 5t41.5 15.5t31 27.5t12.5 42q0 26 -11 42t-31 26.5t-48 17.5t-62 14q-41 9 -75.5 19t-60 26.5t-40 41.5t-14.5 63q0 32 14.5 58
t41 45t63.5 29t82 10q42 0 80 -8.5t66.5 -28t45.5 -51t18 -76.5h-80q0 58 -37 84.5t-91 26.5q-38 0 -61.5 -10t-36 -23.5t-17 -27.5t-4.5 -23q0 -30 21.5 -47.5t51.5 -28t63 -17t56 -12.5q28 -8 54.5 -17.5t47.5 -25t34 -39t13 -58.5z" />
    <glyph glyph-name="t" unicode="t" horiz-adv-x="195" 
d="M141 458v-458h-87v458h-54v58h54v122l87 55v-177h54v-58h-54z" />
    <glyph glyph-name="u" unicode="u" horiz-adv-x="554" 
d="M414 0v100q-24 -57 -70 -84.5t-109 -27.5q-83 0 -132 49t-49 132v347h87v-313q0 -31 7.5 -57.5t22.5 -45.5t39 -30t57 -11q37 0 64.5 14t45.5 38t27 55t9 65v285h87v-516h-86z" />
    <glyph glyph-name="v" unicode="v" horiz-adv-x="452" 
d="M271 0h-91l-180 516h91l135 -378l134 378h92z" />
    <glyph glyph-name="w" unicode="w" horiz-adv-x="914" 
d="M773 0v100q-23 -57 -69.5 -84.5t-108.5 -27.5q-70 0 -115 35t-59 95q-21 -66 -68.5 -98t-117.5 -32q-83 0 -132 49t-49 132v347h87v-313q0 -31 7 -57.5t22.5 -45.5t39.5 -30t57 -11q37 0 64.5 14t45.5 38t27 55t9 65v285h87v-313q0 -31 7.5 -57.5t22.5 -45.5t39 -30
t57 -11q37 0 65 14t46 38t27 55t9 65v285h87v-516h-87z" />
    <glyph glyph-name="x" unicode="x" horiz-adv-x="470" 
d="M374 0l-139 188l-139 -188h-96l187 258l-187 258h96l139 -188l139 188h96l-187 -258l187 -258h-96z" />
    <glyph glyph-name="y" unicode="y" horiz-adv-x="554" 
d="M500 -1q0 -47 -12 -87.5t-40 -70.5t-72.5 -47t-110.5 -17q-42 0 -81 8.5t-69.5 28t-50.5 51t-23 78.5h86q2 -27 14 -48t30.5 -34.5t41.5 -20.5t49 -7q77 0 114.5 44.5t37.5 116.5v106q-24 -57 -70 -84.5t-109 -27.5q-83 0 -132 49t-49 132v347h87v-313q0 -31 7.5 -57.5
t22.5 -45.5t39 -30t57 -11q37 0 64.5 14t45.5 38t27 55t9 65v285h87v-517v0z" />
    <glyph glyph-name="z" unicode="z" horiz-adv-x="463" 
d="M463 101q0 -20 -4 -38t-15.5 -32t-31.5 -22.5t-51 -8.5h-352v73l317 376h-291v67h399v-73l-314 -377h220q23 0 36.5 4.5t21 13t9.5 19.5t2 23l54 -25v0z" />
    <glyph glyph-name="braceleft" unicode="{" horiz-adv-x="339" 
d="M220 -206q-47 0 -72.5 29.5t-25.5 87.5v180q0 52 -19 83.5t-58 49.5v70q15 1 29 11.5t24.5 27.5t16.5 39t6 48v184q0 58 26 87t73 29h74v-70h-43q-30 0 -41.5 -20.5t-11.5 -69.5v-167q0 -23 -6.5 -45t-18.5 -40.5t-28.5 -31.5t-36.5 -19q39 -11 64.5 -46.5t25.5 -92.5
v-163q0 -53 13 -72t43 -19h40v-70h-74z" />
    <glyph glyph-name="bar" unicode="|" horiz-adv-x="178" 
d="M54 0v720h70v-720h-70z" />
    <glyph glyph-name="braceright" unicode="}" horiz-adv-x="339" 
d="M294 224q-39 -18 -57.5 -49.5t-18.5 -83.5v-180q0 -58 -25.5 -87.5t-73.5 -29.5h-74v70h40q30 0 43.5 19t13.5 72v163q0 57 25 92.5t64 46.5q-20 6 -36.5 19t-28 31.5t-18 40.5t-6.5 45v167q0 49 -12 69.5t-42 20.5h-43v70h74q48 0 73.5 -29t25.5 -87v-184q0 -26 6 -48
t16.5 -39t24.5 -27.5t29 -11.5v-70v0z" />
    <glyph glyph-name="asciitilde" unicode="~" horiz-adv-x="526" 
d="M489 377q-10 -16 -21.5 -31.5t-25 -27.5t-30.5 -19.5t-38 -7.5q-26 0 -49.5 9.5t-49.5 22.5q-25 12 -53 24t-66 12q-34 0 -55.5 -21.5t-37.5 -50.5l-26 55q18 35 46.5 60.5t74.5 26.5q26 1 55.5 -9.5t58.5 -23.5t56 -24t47 -11q30 0 50.5 22.5t37.5 48.5l26 -55v0z" />
    <glyph glyph-name="Adieresis" unicode="&#xc4;" 
d="M399 499q0 34 -5.5 63.5t-20 51.5t-38.5 34.5t-61 12.5t-61 -12.5t-38.5 -34.5t-20 -51.5t-5.5 -63.5v-101h250v101zM399 0v322h-250v-322h-95v519q0 108 56 163t164 55q109 0 164.5 -56t55.5 -162v-519h-95zM240 819q0 -25 -18.5 -39.5t-41.5 -14.5t-42 14.5t-19 39.5
q0 24 19 39t42 15t41.5 -15t18.5 -39zM436 819q0 -25 -19 -39.5t-42 -14.5t-41.5 14.5t-18.5 39.5q0 24 18.5 39t41.5 15t42 -15t19 -39z" />
    <glyph glyph-name="Aring" unicode="&#xc5;" 
d="M399 499q0 34 -5.5 63.5t-20 51.5t-38.5 34.5t-61 12.5t-61 -12.5t-38.5 -34.5t-20 -51.5t-5.5 -63.5v-101h250v101zM336 841q0 25 -18.5 43.5t-43.5 18.5t-43.5 -18.5t-18.5 -43.5q0 -26 18 -44.5t44 -18.5t44 18.5t18 44.5zM399 0v322h-250v-322h-95v519q0 108 56 163
t164 55q109 0 164.5 -56t55.5 -162v-519h-95zM371 841q0 -20 -7.5 -37.5t-21 -31t-31 -21.5t-37.5 -8t-37.5 7.5t-31 21t-21 31.5t-7.5 38q0 19 8 37t21 31t30.5 21t37.5 8q19 0 37 -8t31 -21t21 -31t8 -37z" />
    <glyph glyph-name="Ccedilla" unicode="&#xc7;" horiz-adv-x="724" 
d="M688 280q-6 -63 -29 -116t-61 -92t-90 -62t-115 -26l-30 -44q8 2 16.5 4.5t20.5 2.5q33 0 59 -16t26 -52q0 -24 -9.5 -39.5t-25 -24.5t-35.5 -12.5t-40 -3.5q-32 0 -56.5 6.5t-47.5 14.5l14 29l38 -12t40 -6q24 0 46 10t22 37q0 20 -17.5 29.5t-32.5 9.5q-28 0 -49 -12
l-19 15l45 63q-77 3 -136.5 34t-100.5 82t-62.5 117t-21.5 140q0 79 23 148t67 121t108.5 82t147.5 30q56 0 109 -17t95 -49t69 -78.5t32 -106.5h-94q-4 40 -23.5 71.5t-49.5 54t-66.5 34.5t-73.5 12q-63 0 -110 -26t-78 -68.5t-46 -96.5t-15 -111q0 -54 14.5 -107
t44.5 -94.5t75 -67t106 -25.5q50 0 88.5 16.5t66 46t44.5 69t23 86.5h94v0z" />
    <glyph glyph-name="Eacute" unicode="&#xc9;" horiz-adv-x="573" 
d="M54 0v720h442v-81h-347v-241h318v-76h-318v-241h354v-81h-449zM265 765h-60l119 146h97z" />
    <glyph glyph-name="Ntilde" unicode="&#xd1;" 
d="M399 0v499q0 34 -5.5 63.5t-20 51.5t-38.5 34.5t-61 12.5t-61 -12.5t-38.5 -34.5t-20 -51.5t-5.5 -63.5v-499h-95v519q0 108 56 163t164 55q109 0 164.5 -56t55.5 -162v-519h-95zM451 876q-1 -40 -22.5 -69.5t-64.5 -29.5q-21 0 -39 8t-34.5 17t-32 17t-31.5 8
q-20 0 -32 -18t-14 -35h-42q0 17 5.5 35t16 33t26.5 25t36 10q19 0 38.5 -8t37 -18t33 -18t28.5 -8q20 0 32.5 14t14.5 37h44v0z" />
    <glyph glyph-name="Odieresis" unicode="&#xd6;" horiz-adv-x="757" 
d="M625 360q0 57 -15 110.5t-45.5 95.5t-77 67t-109.5 25t-109.5 -25t-76.5 -67t-45 -95.5t-15 -110.5t15 -110.5t45 -95.5t76.5 -67t109.5 -25t109.5 25t77 67t45.5 95.5t15 110.5zM720 360q0 -77 -23 -145.5t-66.5 -120t-107 -81.5t-145.5 -30q-81 0 -144.5 30t-107 81.5
t-66.5 120t-23 145.5t23 145.5t66.5 120t107 81.5t144.5 30q82 0 145.5 -30t107 -81.5t66.5 -120t23 -145.5zM336 819q0 -25 -19 -39.5t-42 -14.5t-41.5 14.5t-18.5 39.5q0 24 18.5 39t41.5 15t42 -15t19 -39zM531 819q0 -25 -18.5 -39.5t-41.5 -14.5t-41.5 14.5t-18.5 39.5
q0 24 18.5 39t41.5 15t41.5 -15t18.5 -39z" />
    <glyph glyph-name="Udieresis" unicode="&#xdc;" 
d="M494 201q0 -108 -56 -163t-164 -55q-109 0 -164.5 56t-55.5 162v519h95v-499q0 -34 5.5 -63.5t20 -51.5t38.5 -34.5t61 -12.5t61 12.5t38.5 34.5t20 51.5t5.5 63.5v499h95v-519v0zM241 819q0 -25 -18.5 -39.5t-41.5 -14.5t-42 14.5t-19 39.5q0 24 19 39t42 15t41.5 -15
t18.5 -39zM437 819q0 -25 -19 -39.5t-42 -14.5t-41.5 14.5t-18.5 39.5q0 24 18.5 39t41.5 15t42 -15t19 -39z" />
    <glyph glyph-name="aacute" unicode="&#xe1;" horiz-adv-x="599" 
d="M458 344q0 25 -14 47t-36 37.5t-49 24.5t-52 9q-51 0 -86 -18t-56.5 -47.5t-31 -67.5t-9.5 -78q0 -42 11 -78t32.5 -62.5t54.5 -41.5t78 -15q30 0 58 9t50.5 26.5t36 42t13.5 55.5v157zM458 0v71q-27 -40 -71.5 -61.5t-101.5 -21.5q-56 0 -102 20t-78.5 55.5t-50 83.5
t-17.5 104q0 58 17 108.5t50 88t80.5 59t107.5 21.5q51 0 94.5 -19t71.5 -56v63h87v-516h-87zM253 566h-61l120 146h97z" />
    <glyph glyph-name="agrave" unicode="&#xe0;" horiz-adv-x="599" 
d="M458 344q0 25 -14 47t-36 37.5t-49 24.5t-52 9q-51 0 -86 -18t-56.5 -47.5t-31 -67.5t-9.5 -78q0 -42 11 -78t32.5 -62.5t54.5 -41.5t78 -15q30 0 58 9t50.5 26.5t36 42t13.5 55.5v157zM458 0v71q-27 -40 -71.5 -61.5t-101.5 -21.5q-56 0 -102 20t-78.5 55.5t-50 83.5
t-17.5 104q0 58 17 108.5t50 88t80.5 59t107.5 21.5q51 0 94.5 -19t71.5 -56v63h87v-516h-87zM325 566l-151 146h96l116 -145z" />
    <glyph glyph-name="acircumflex" unicode="&#xe2;" horiz-adv-x="599" 
d="M458 344q0 25 -14 47t-36 37.5t-49 24.5t-52 9q-51 0 -86 -18t-56.5 -47.5t-31 -67.5t-9.5 -78q0 -42 11 -78t32.5 -62.5t54.5 -41.5t78 -15q30 0 58 9t50.5 26.5t36 42t13.5 55.5v157zM458 0v71q-27 -40 -71.5 -61.5t-101.5 -21.5q-56 0 -102 20t-78.5 55.5t-50 83.5
t-17.5 104q0 58 17 108.5t50 88t80.5 59t107.5 21.5q51 0 94.5 -19t71.5 -56v63h87v-516h-87zM376 570l-86 105l-82 -105h-68l116 142h71l117 -142h-68z" />
    <glyph glyph-name="adieresis" unicode="&#xe4;" horiz-adv-x="599" 
d="M458 344q0 25 -14 47t-36 37.5t-49 24.5t-52 9q-51 0 -86 -18t-56.5 -47.5t-31 -67.5t-9.5 -78q0 -42 11 -78t32.5 -62.5t54.5 -41.5t78 -15q30 0 58 9t50.5 26.5t36 42t13.5 55.5v157zM458 0v71q-27 -40 -71.5 -61.5t-101.5 -21.5q-56 0 -102 20t-78.5 55.5t-50 83.5
t-17.5 104q0 58 17 108.5t50 88t80.5 59t107.5 21.5q51 0 94.5 -19t71.5 -56v63h87v-516h-87zM274 621q0 -25 -19 -39.5t-42 -14.5t-41.5 14.5t-18.5 39.5q0 24 18.5 39t41.5 15t42 -15t19 -39zM469 621q0 -25 -18.5 -39.5t-41.5 -14.5t-41.5 14.5t-18.5 39.5q0 24 18.5 39
t41.5 15t41.5 -15t18.5 -39z" />
    <glyph glyph-name="atilde" unicode="&#xe3;" horiz-adv-x="599" 
d="M458 344q0 25 -14 47t-36 37.5t-49 24.5t-52 9q-51 0 -86 -18t-56.5 -47.5t-31 -67.5t-9.5 -78q0 -42 11 -78t32.5 -62.5t54.5 -41.5t78 -15q30 0 58 9t50.5 26.5t36 42t13.5 55.5v157zM458 0v71q-27 -40 -71.5 -61.5t-101.5 -21.5q-56 0 -102 20t-78.5 55.5t-50 83.5
t-17.5 104q0 58 17 108.5t50 88t80.5 59t107.5 21.5q51 0 94.5 -19t71.5 -56v63h87v-516h-87zM469 678q-2 -40 -23.5 -69.5t-63.5 -29.5q-21 0 -39 8t-34.5 17t-32.5 17t-32 8q-19 0 -31 -18t-14 -35h-42q0 17 5.5 35t16 33t26.5 25t36 10q19 0 38.5 -8t37 -18t33 -18
t28.5 -8q20 0 32.5 14t14.5 37h44v0z" />
    <glyph glyph-name="aring" unicode="&#xe5;" horiz-adv-x="599" 
d="M458 344q0 25 -14 47t-36 37.5t-49 24.5t-52 9q-51 0 -86 -18t-56.5 -47.5t-31 -67.5t-9.5 -78q0 -42 11 -78t32.5 -62.5t54.5 -41.5t78 -15q30 0 58 9t50.5 26.5t36 42t13.5 55.5v157zM357 671q0 25 -18.5 43.5t-43.5 18.5t-44 -18.5t-19 -43.5q0 -26 18.5 -44.5
t44.5 -18.5q25 0 43.5 18.5t18.5 44.5zM458 0v71q-27 -40 -71.5 -61.5t-101.5 -21.5q-56 0 -102 20t-78.5 55.5t-50 83.5t-17.5 104q0 58 17 108.5t50 88t80.5 59t107.5 21.5q51 0 94.5 -19t71.5 -56v63h87v-516h-87zM392 671q0 -20 -7.5 -37.5t-21 -31t-31 -21.5t-37.5 -8
t-37.5 7.5t-31 21t-21.5 31.5t-8 38q0 19 8 37t21.5 31t31 21t37.5 8q19 0 37 -8t31 -21t21 -31t8 -37z" />
    <glyph glyph-name="ccedilla" unicode="&#xe7;" horiz-adv-x="552" 
d="M515 187q-10 -91 -68 -142.5t-145 -56.5l-33 -48q8 2 16.5 4.5t20.5 2.5q33 0 59 -16t26 -52q0 -24 -9.5 -39.5t-25 -24.5t-35.5 -12.5t-40 -3.5q-32 0 -56.5 6.5t-47.5 14.5l14 29l38 -12t40 -6q24 0 46 10t22 37q0 20 -17.5 29.5t-32.5 9.5q-28 0 -49 -12l-19 15l48 68
q-53 3 -95.5 25t-72.5 57t-46 81.5t-16 99.5q0 58 17 108.5t49.5 88t80 59t108.5 21.5q43 0 81.5 -12t68.5 -35.5t49 -57.5t24 -79h-83q-8 56 -45.5 87t-92.5 31q-47 0 -79 -17.5t-52.5 -47t-29.5 -67.5t-9 -79q0 -38 9.5 -73.5t29 -63t50.5 -44t73 -16.5q30 0 55.5 9.5
t45 27t31 42t14.5 54.5h83v0z" />
    <glyph glyph-name="eacute" unicode="&#xe9;" horiz-adv-x="531" 
d="M425 367q-13 45 -47.5 70t-83.5 25q-43 0 -74.5 -15.5t-52 -41.5t-31 -60.5t-11.5 -72.5v-14l300 109v0zM515 187q-5 -47 -24.5 -84t-49.5 -62.5t-70 -39t-86 -13.5q-57 0 -103 20.5t-78 56t-49.5 83.5t-17.5 103q0 58 17 108.5t49.5 88t80 59t108.5 21.5q43 0 81.5 -12
t68.5 -35.5t49 -57.5t24 -78l-388 -142q4 -31 16.5 -58t32 -47.5t47 -32t63.5 -11.5q30 0 55.5 9.5t45 27t31 42t14.5 54.5h83v0zM243 566h-60l119 146h97z" />
    <glyph glyph-name="egrave" unicode="&#xe8;" horiz-adv-x="531" 
d="M425 367q-13 45 -47.5 70t-83.5 25q-43 0 -74.5 -15.5t-52 -41.5t-31 -60.5t-11.5 -72.5v-14l300 109v0zM515 187q-5 -47 -24.5 -84t-49.5 -62.5t-70 -39t-86 -13.5q-57 0 -103 20.5t-78 56t-49.5 83.5t-17.5 103q0 58 17 108.5t49.5 88t80 59t108.5 21.5q43 0 81.5 -12
t68.5 -35.5t49 -57.5t24 -78l-388 -142q4 -31 16.5 -58t32 -47.5t47 -32t63.5 -11.5q30 0 55.5 9.5t45 27t31 42t14.5 54.5h83v0zM327 566l-151 146h96l115 -145z" />
    <glyph glyph-name="ecircumflex" unicode="&#xea;" horiz-adv-x="531" 
d="M425 367q-13 45 -47.5 70t-83.5 25q-43 0 -74.5 -15.5t-52 -41.5t-31 -60.5t-11.5 -72.5v-14l300 109v0zM515 187q-5 -47 -24.5 -84t-49.5 -62.5t-70 -39t-86 -13.5q-57 0 -103 20.5t-78 56t-49.5 83.5t-17.5 103q0 58 17 108.5t49.5 88t80 59t108.5 21.5q43 0 81.5 -12
t68.5 -35.5t49 -57.5t24 -78l-388 -142q4 -31 16.5 -58t32 -47.5t47 -32t63.5 -11.5q30 0 55.5 9.5t45 27t31 42t14.5 54.5h83v0zM378 570l-86 105l-83 -105h-68l116 142h71l117 -142h-67z" />
    <glyph glyph-name="edieresis" unicode="&#xeb;" horiz-adv-x="531" 
d="M425 367q-13 45 -47.5 70t-83.5 25q-43 0 -74.5 -15.5t-52 -41.5t-31 -60.5t-11.5 -72.5v-14l300 109v0zM515 187q-5 -47 -24.5 -84t-49.5 -62.5t-70 -39t-86 -13.5q-57 0 -103 20.5t-78 56t-49.5 83.5t-17.5 103q0 58 17 108.5t49.5 88t80 59t108.5 21.5q43 0 81.5 -12
t68.5 -35.5t49 -57.5t24 -78l-388 -142q4 -31 16.5 -58t32 -47.5t47 -32t63.5 -11.5q30 0 55.5 9.5t45 27t31 42t14.5 54.5h83v0zM258 621q0 -25 -19 -39.5t-42 -14.5t-41.5 14.5t-18.5 39.5q0 24 18.5 39t41.5 15t42 -15t19 -39zM453 621q0 -25 -18.5 -39.5t-41.5 -14.5
t-41.5 14.5t-18.5 39.5q0 24 18.5 39t41.5 15t41.5 -15t18.5 -39z" />
    <glyph glyph-name="iacute" unicode="&#xed;" horiz-adv-x="195" 
d="M54 0v516h87v-516h-87zM56 566h-60l119 146h97z" />
    <glyph glyph-name="igrave" unicode="&#xec;" horiz-adv-x="195" 
d="M54 0v516h87v-516h-87zM143 566l-151 146h96l116 -145z" />
    <glyph glyph-name="icircumflex" unicode="&#xee;" horiz-adv-x="195" 
d="M54 0v516h87v-516h-87zM184 570l-85 105l-83 -105h-68l116 142h71l117 -142h-68z" />
    <glyph glyph-name="idieresis" unicode="&#xef;" horiz-adv-x="195" 
d="M54 0v516h87v-516h-87zM65 621q0 -25 -19 -39.5t-42 -14.5t-41.5 14.5t-18.5 39.5q0 24 18.5 39t41.5 15t42 -15t19 -39zM260 621q0 -25 -18.5 -39.5t-41.5 -14.5t-42 14.5t-19 39.5q0 24 19 39t42 15t41.5 -15t18.5 -39z" />
    <glyph glyph-name="ntilde" unicode="&#xf1;" horiz-adv-x="554" 
d="M414 0v313q0 31 -7.5 57.5t-23 45.5t-39.5 30t-57 11q-37 0 -64.5 -14t-45.5 -38t-27 -55t-9 -65v-285h-87v516h87v-101q23 58 69 85.5t109 27.5q84 0 132.5 -49t48.5 -132v-347h-86zM446 678q-1 -40 -22.5 -69.5t-64.5 -29.5q-21 0 -38.5 8t-34 17t-32.5 17t-32 8
q-20 0 -32 -18t-14 -35h-42q0 17 5.5 35t16.5 33t27 25t36 10q19 0 38 -8t36.5 -18t33 -18t28.5 -8q20 0 33 14t15 37h43v0z" />
    <glyph glyph-name="oacute" unicode="&#xf3;" horiz-adv-x="576" 
d="M452 258q0 38 -9.5 74.5t-29.5 65.5t-51 46.5t-74 17.5t-74 -17.5t-51 -46.5t-29.5 -65.5t-9.5 -74.5t9.5 -75t29.5 -65.5t51 -46t74 -17.5t74 17.5t51 46t29.5 65.5t9.5 75zM539 258q0 -53 -15.5 -102t-47 -86.5t-78.5 -59.5t-110 -22t-110 22t-78.5 59.5t-47 86.5
t-15.5 102t15.5 102t47 86.5t78.5 59.5t110 22t110 -22t78.5 -59.5t47 -86.5t15.5 -102zM257 566h-61l120 146h97z" />
    <glyph glyph-name="ograve" unicode="&#xf2;" horiz-adv-x="576" 
d="M452 258q0 38 -9.5 74.5t-29.5 65.5t-51 46.5t-74 17.5t-74 -17.5t-51 -46.5t-29.5 -65.5t-9.5 -74.5t9.5 -75t29.5 -65.5t51 -46t74 -17.5t74 17.5t51 46t29.5 65.5t9.5 75zM539 258q0 -53 -15.5 -102t-47 -86.5t-78.5 -59.5t-110 -22t-110 22t-78.5 59.5t-47 86.5
t-15.5 102t15.5 102t47 86.5t78.5 59.5t110 22t110 -22t78.5 -59.5t47 -86.5t15.5 -102zM324 566l-151 146h96l116 -145z" />
    <glyph glyph-name="ocircumflex" unicode="&#xf4;" horiz-adv-x="576" 
d="M452 258q0 38 -9.5 74.5t-29.5 65.5t-51 46.5t-74 17.5t-74 -17.5t-51 -46.5t-29.5 -65.5t-9.5 -74.5t9.5 -75t29.5 -65.5t51 -46t74 -17.5t74 17.5t51 46t29.5 65.5t9.5 75zM539 258q0 -53 -15.5 -102t-47 -86.5t-78.5 -59.5t-110 -22t-110 22t-78.5 59.5t-47 86.5
t-15.5 102t15.5 102t47 86.5t78.5 59.5t110 22t110 -22t78.5 -59.5t47 -86.5t15.5 -102zM371 570l-85 105l-83 -105h-68l116 142h71l117 -142h-68z" />
    <glyph glyph-name="odieresis" unicode="&#xf6;" horiz-adv-x="576" 
d="M452 258q0 38 -9.5 74.5t-29.5 65.5t-51 46.5t-74 17.5t-74 -17.5t-51 -46.5t-29.5 -65.5t-9.5 -74.5t9.5 -75t29.5 -65.5t51 -46t74 -17.5t74 17.5t51 46t29.5 65.5t9.5 75zM539 258q0 -53 -15.5 -102t-47 -86.5t-78.5 -59.5t-110 -22t-110 22t-78.5 59.5t-47 86.5
t-15.5 102t15.5 102t47 86.5t78.5 59.5t110 22t110 -22t78.5 -59.5t47 -86.5t15.5 -102zM252 621q0 -25 -19 -39.5t-42 -14.5t-41.5 14.5t-18.5 39.5q0 24 18.5 39t41.5 15t42 -15t19 -39zM447 621q0 -25 -18.5 -39.5t-41.5 -14.5t-42 14.5t-19 39.5q0 24 19 39t42 15
t41.5 -15t18.5 -39z" />
    <glyph glyph-name="otilde" unicode="&#xf5;" horiz-adv-x="576" 
d="M452 258q0 38 -9.5 74.5t-29.5 65.5t-51 46.5t-74 17.5t-74 -17.5t-51 -46.5t-29.5 -65.5t-9.5 -74.5t9.5 -75t29.5 -65.5t51 -46t74 -17.5t74 17.5t51 46t29.5 65.5t9.5 75zM539 258q0 -53 -15.5 -102t-47 -86.5t-78.5 -59.5t-110 -22t-110 22t-78.5 59.5t-47 86.5
t-15.5 102t15.5 102t47 86.5t78.5 59.5t110 22t110 -22t78.5 -59.5t47 -86.5t15.5 -102zM443 678q-2 -40 -23.5 -69.5t-63.5 -29.5q-21 0 -39 8t-34.5 17t-32.5 17t-32 8q-19 0 -31 -18t-14 -35h-42q0 17 5.5 35t16 33t26.5 25t36 10q19 0 38.5 -8t37 -18t33 -18t28.5 -8
q20 0 32.5 14t14.5 37h44v0z" />
    <glyph glyph-name="uacute" unicode="&#xfa;" horiz-adv-x="554" 
d="M414 0v100q-24 -57 -70 -84.5t-109 -27.5q-83 0 -132 49t-49 132v347h87v-313q0 -31 7.5 -57.5t22.5 -45.5t39 -30t57 -11q37 0 64.5 14t45.5 38t27 55t9 65v285h87v-516h-86zM238 566h-61l120 146h96z" />
    <glyph glyph-name="ugrave" unicode="&#xf9;" horiz-adv-x="554" 
d="M414 0v100q-24 -57 -70 -84.5t-109 -27.5q-83 0 -132 49t-49 132v347h87v-313q0 -31 7.5 -57.5t22.5 -45.5t39 -30t57 -11q37 0 64.5 14t45.5 38t27 55t9 65v285h87v-516h-86zM305 566l-151 146h96l116 -145z" />
    <glyph glyph-name="ucircumflex" unicode="&#xfb;" horiz-adv-x="554" 
d="M414 0v100q-24 -57 -70 -84.5t-109 -27.5q-83 0 -132 49t-49 132v347h87v-313q0 -31 7.5 -57.5t22.5 -45.5t39 -30t57 -11q37 0 64.5 14t45.5 38t27 55t9 65v285h87v-516h-86zM361 570l-86 105l-83 -105h-68l116 142h71l117 -142h-67z" />
    <glyph glyph-name="udieresis" unicode="&#xfc;" horiz-adv-x="554" 
d="M414 0v100q-24 -57 -70 -84.5t-109 -27.5q-83 0 -132 49t-49 132v347h87v-313q0 -31 7.5 -57.5t22.5 -45.5t39 -30t57 -11q37 0 64.5 14t45.5 38t27 55t9 65v285h87v-516h-86zM243 621q0 -25 -19 -39.5t-42 -14.5t-41.5 14.5t-18.5 39.5q0 24 18.5 39t41.5 15t42 -15
t19 -39zM438 621q0 -25 -18.5 -39.5t-41.5 -14.5t-41.5 14.5t-18.5 39.5q0 24 18.5 39t41.5 15t41.5 -15t18.5 -39z" />
    <glyph glyph-name="dagger" unicode="&#x2020;" horiz-adv-x="568" 
d="M327 421l7 -627h-100l7 627l-196 -7v86l196 -7l-7 227h100l-7 -227l196 7v-86z" />
    <glyph glyph-name="degree" unicode="&#xb0;" horiz-adv-x="365" 
d="M286 587q0 21 -8 39.5t-21.5 33t-33 22.5t-41.5 8q-21 0 -39.5 -8.5t-33 -22.5t-22.5 -32.5t-8 -39.5q0 -23 8 -42t22.5 -33t33 -22t39.5 -8q45 0 74.5 30t29.5 75zM328 587q0 -31 -11 -58t-30.5 -46.5t-46.5 -31t-58 -11.5t-57.5 11t-46 31t-30.5 46.5t-11 58.5
q0 30 11 56.5t30.5 46t46 31t57.5 11.5t57.5 -11.5t46 -31t31 -46t11.5 -56.5z" />
    <glyph glyph-name="cent" unicode="&#xa2;" horiz-adv-x="552" 
d="M519 289q-5 -43 -21 -77.5t-42 -59.5t-60.5 -40.5t-74.5 -19.5v-92h-56v92q-53 4 -94.5 25.5t-70 57t-44 81t-15.5 97.5q0 54 14.5 101.5t43 84.5t70.5 60.5t96 28.5v92h56v-91q39 -3 73.5 -16.5t60.5 -36.5t43 -55.5t21 -73.5h-83q-8 55 -45 86t-93 31q-47 0 -79 -17.5
t-52.5 -47t-29.5 -67.5t-9 -79q0 -38 9.5 -73.5t29.5 -63t50.5 -44t73.5 -16.5q60 0 100 36.5t45 96.5h83v0z" />
    <glyph glyph-name="sterling" unicode="&#xa3;" horiz-adv-x="559" 
d="M559 69q-35 -39 -75 -62.5t-94 -23.5q-22 0 -43 5.5t-41.5 12.5t-41 13.5t-41.5 8.5q-46 5 -83.5 -3t-75.5 -37l-41 54q22 17 42.5 37t36.5 43.5t26 50t10 56.5q0 24 -5.5 50.5t-16.5 47.5h-92v61h68q-18 33 -36.5 71t-18.5 77q0 51 20 88.5t54 62t77 37t90 12.5
q59 0 105.5 -17t78 -49t47.5 -78.5t13 -105.5h-85q3 39 -6 71.5t-29.5 56t-51 37t-70.5 13.5q-30 0 -57.5 -7t-49 -22.5t-34 -39.5t-12.5 -57q0 -19 6.5 -38.5t15.5 -38.5t19.5 -37.5t18.5 -35.5h140v-60h-122q11 -22 15.5 -46t4.5 -48q0 -48 -23 -89t-60 -71q38 27 81 27
q23 0 45 -6.5t44 -14t43.5 -14t42.5 -6.5t38 6.5t31.5 17t27.5 24.5l26 28l38 -62v0z" />
    <glyph glyph-name="section" unicode="&#xa7;" horiz-adv-x="572" 
d="M456 236q0 36 -16.5 57.5t-42 35t-55.5 21.5t-58 15q-21 5 -42 9.5t-42 10.5q-36 -14 -60 -40t-24 -67q0 -36 16.5 -58t41.5 -35.5t55.5 -21t57.5 -14.5q21 -5 42.5 -9.5t42.5 -10.5q36 14 60 40t24 67zM553 -44q0 -50 -23.5 -84.5t-60 -55.5t-81.5 -30t-87 -9
q-51 0 -97.5 10t-83 33.5t-59 62t-24.5 95.5h92q1 -37 15 -64t36.5 -44t53 -25.5t65.5 -8.5q27 0 54.5 5.5t50.5 19t37.5 35t14.5 53.5q0 40 -28 64t-67.5 38t-82.5 22t-72 16q-35 10 -69 22.5t-60 33t-42 49.5t-16 72q0 51 21.5 88t62.5 65q-43 23 -63.5 55.5t-20.5 83.5
q0 50 23.5 84.5t60 55.5t81 30t86.5 9q51 0 98 -10t83.5 -33.5t59 -62t24.5 -95.5h-93q-2 37 -15.5 64t-36 44t-53 25.5t-64.5 8.5q-27 0 -54.5 -5.5t-50.5 -19t-37.5 -35t-14.5 -53.5q0 -40 28 -64t67.5 -38t82 -22t71.5 -16q36 -10 69.5 -22.5t60 -33t42.5 -49.5t16 -72
q0 -51 -21.5 -88t-63.5 -65q43 -23 64 -55.5t21 -83.5z" />
    <glyph glyph-name="bullet" unicode="&#x2022;" horiz-adv-x="319" 
d="M282 360q0 -26 -9.5 -48t-26.5 -39t-39.5 -26.5t-47.5 -9.5q-26 0 -48 9.5t-38.5 26.5t-26 39t-9.5 48q0 25 9.5 47.5t26 39t38.5 26t48 9.5q25 0 47.5 -9.5t39.5 -26t26.5 -39t9.5 -47.5z" />
    <glyph glyph-name="paragraph" unicode="&#xb6;" horiz-adv-x="529" 
d="M412 -206v875h-89v-875h-64v554q-51 0 -92 14t-70 38.5t-44.5 58t-15.5 72.5q0 49 16.5 85t47 59t73 34t95.5 11h206v-926h-63z" />
    <glyph glyph-name="germandbls" unicode="&#xdf;" horiz-adv-x="550" 
d="M513 214q0 -108 -62 -162t-168 -54h-24t-24 2v70q15 -3 32 -3q75 0 117 38.5t42 116.5q0 45 -14 73.5t-38.5 45t-57.5 22.5t-71 6h-10v54h8q30 0 57.5 6t48 20.5t32.5 38t12 58.5q0 28 -10 49.5t-27.5 36.5t-40.5 22.5t-50 7.5q-62 0 -93 -35t-31 -96v-531h-87v526
q0 98 56 153t153 55q39 0 77 -11.5t68 -33.5t48 -55.5t18 -76.5q0 -58 -27.5 -99t-83.5 -58q38 -4 66 -20t47 -41t28 -57t9 -68z" />
    <glyph glyph-name="registered" unicode="&#xae;" horiz-adv-x="454" 
d="M280 588q0 21 -15 27t-34 6h-45v-68h44q19 0 34.5 6t15.5 29zM310 586q0 -27 -15 -40t-36 -16l58 -91h-34l-54 89q-8 -1 -22 -0.5t-21 0.5v-89h-29v208h75q78 0 78 -61zM382 545q0 31 -12 59t-33 49t-49.5 33t-60.5 12t-60 -12t-49 -33t-33 -49t-12 -59q0 -32 12 -59.5
t33 -48.5t49 -33t60 -12t60 12t49 33t33 48.5t12 59.5h1zM417 545q0 -39 -15 -73t-40.5 -59.5t-60.5 -40t-74 -14.5t-74 14.5t-60.5 40t-40.5 59.5t-15 73t15 73t40.5 59.5t60.5 40t74 14.5t74 -14.5t60.5 -40t40.5 -59.5t15 -73z" />
    <glyph glyph-name="copyright" unicode="&#xa9;" horiz-adv-x="822" 
d="M600 291q-14 -74 -63.5 -116t-116.5 -42q-48 0 -87.5 17.5t-67.5 47.5t-43 70.5t-15 87.5q0 48 14.5 88.5t41.5 70t66 46t88 16.5q35 0 65.5 -10t54.5 -29t40 -48t22 -66h-49q-8 51 -45 76.5t-87 25.5q-38 0 -67 -12.5t-49 -35t-30.5 -53.5t-10.5 -68q0 -36 11 -67.5
t31.5 -54.5t50 -36.5t66.5 -13.5q46 0 82.5 26t47.5 80h50v0zM726 360q0 66 -24.5 123.5t-67.5 101t-100 68.5t-123 25t-123 -25t-100 -68.5t-67.5 -101t-24.5 -123.5t24.5 -123.5t67.5 -101t100 -68.5t123 -25t123 25t100 68.5t67.5 101t24.5 123.5zM785 360
q0 -78 -29.5 -146t-80 -118.5t-118.5 -80t-146 -29.5t-146 29.5t-118.5 80t-80 118.5t-29.5 146t29.5 146t80 118.5t118.5 80t146 29.5t146 -29.5t118.5 -80t80 -118.5t29.5 -146z" />
    <glyph glyph-name="trademark" unicode="&#x2122;" horiz-adv-x="847" 
d="M220 670v-346h-58v346h-45q-25 0 -31.5 -9.5t-6.5 -26.5l-41 19q0 13 2.5 25.5t9.5 21.5t20 14.5t33 5.5h242v-50h-125zM735 324v273q0 37 -13.5 61t-52.5 24q-40 0 -53 -24t-13 -61v-273h-58v273q0 37 -13.5 61t-52.5 24t-52.5 -24t-13.5 -61v-273h-58v284q0 60 32 90.5
t92 30.5q32 0 56 -10t39 -31q15 21 39 31t56 10q60 0 92 -30.5t32 -90.5v-284h-58z" />
    <glyph glyph-name="acute" unicode="&#xb4;" horiz-adv-x="0" 
d="M240 566h-60l119 146h97z" />
    <glyph glyph-name="dieresis" unicode="&#xa8;" horiz-adv-x="0" 
d="M446 621q0 -25 -18.5 -39.5t-41.5 -14.5t-42 14.5t-19 39.5q0 24 19 39t42 15t41.5 -15t18.5 -39zM250 621q0 -25 -18.5 -39.5t-41.5 -14.5t-41.5 14.5t-18.5 39.5q0 24 18.5 39t41.5 15t41.5 -15t18.5 -39z" />
    <glyph glyph-name="notequal" unicode="&#x2260;" horiz-adv-x="594" 
d="M45 325v70h504v-70h-504z" />
    <glyph glyph-name="AE" unicode="&#xc6;" horiz-adv-x="893" 
d="M399 499q0 34 -5.5 63.5t-20 51.5t-38.5 34.5t-61 12.5t-61 -12.5t-38.5 -34.5t-20 -51.5t-5.5 -63.5v-101h250v101zM399 0v322h-250v-322h-95v519q0 108 56 163t164 55q120 0 172 -74v57h395v-81h-347v-241h318v-76h-318v-241h354v-81h-449z" />
    <glyph glyph-name="Oslash" unicode="&#xd8;" horiz-adv-x="757" 
d="M625 357q0 57 -13.5 104t-39.5 83l-367 -406q32 -38 76.5 -57t96.5 -19q53 0 98 19.5t78 57.5t52 92.5t19 125.5zM553 576q-68 76 -175 76q-53 0 -98 -19.5t-78 -57.5t-51.5 -93t-18.5 -125q0 -57 13.5 -105t38.5 -84l369 408v0zM720 357q0 -78 -23 -146.5t-67 -119
t-107.5 -79.5t-144.5 -29q-72 0 -130.5 24t-101.5 67l-76 -85l-26 23l78 86q-42 51 -63.5 117t-21.5 142q0 78 23 146.5t67 119t107 79.5t144 29q73 0 131.5 -24t102.5 -67l68 75l27 -22l-71 -78q41 -50 62.5 -116t21.5 -142z" />
    <glyph glyph-name="infinity" unicode="&#x221e;" horiz-adv-x="178" 
d="M54 0v269h70v-269h-70zM54 451v269h70v-269h-70z" />
    <glyph glyph-name="plusminus" unicode="&#xb1;" horiz-adv-x="594" 
d="M45 107v70h504v-70h-504zM332 389v-154h-70v154h-217v70h217v154h70v-154h217v-70h-217z" />
    <glyph glyph-name="lessequal" unicode="&#x2264;" horiz-adv-x="604" 
d="M587 197q0 -58 -23 -98.5t-61 -66t-86.5 -37.5t-99.5 -12q-50 0 -103.5 12.5t-98.5 42t-73.5 79t-28.5 123.5h95q0 -50 16.5 -85.5t45.5 -57.5t68.5 -32t85.5 -10q31 0 61 7.5t54 23.5t38.5 41.5t14.5 61.5q0 39 -17.5 62.5t-46.5 38.5t-68 24.5t-82 20.5t-86 23.5
t-77.5 33t-56 54t-21.5 86.5q0 57 23 96t59.5 63t83 35t94.5 11q55 0 103 -12t84 -38.5t58 -69.5t25 -105h-91q0 42 -14.5 71t-39 47.5t-57 26.5t-68.5 8q-28 0 -58 -5.5t-54.5 -19.5t-40.5 -37.5t-16 -59.5q0 -38 20.5 -60.5t53 -37t73.5 -24.5t84 -21q45 -12 86.5 -25
t73 -34.5t50 -55.5t18.5 -88zM340 781h-71l-117 143h68l85 -105l83 105h68z" />
    <glyph glyph-name="greaterequal" unicode="&#x2265;" horiz-adv-x="485" 
d="M462 146q0 -45 -19 -75t-50 -48.5t-69 -26.5t-77 -8q-49 0 -90.5 10.5t-71.5 33t-47.5 58t-17.5 84.5h83q1 -66 40.5 -97t106.5 -31q21 0 44 5t41.5 15.5t31 27.5t12.5 42q0 26 -11 42t-31 26.5t-48 17.5t-62 14q-41 9 -75.5 19t-60 26.5t-40 41.5t-14.5 63q0 32 14.5 58
t41 45t63.5 29t82 10q42 0 80 -8.5t66.5 -28t45.5 -51t18 -76.5h-80q0 58 -37 84.5t-91 26.5q-38 0 -61.5 -10t-36 -23.5t-17 -27.5t-4.5 -23q0 -30 21.5 -47.5t51.5 -28t63 -17t56 -12.5q28 -8 54.5 -17.5t47.5 -25t34 -39t13 -58.5zM279 583h-71l-117 143h68l85 -105
l84 105h67z" />
    <glyph glyph-name="yen" unicode="&#xa5;" 
d="M494 562q0 -94 -44 -147.5t-129 -64.5v-75h149v-58h-149v-77h149v-58h-148v-82h-95v82h-149v58h149v77h-149v58h149v75q-86 11 -129.5 64.5t-43.5 147.5v158h95v-138q0 -34 5.5 -63.5t20 -51t38.5 -34t61 -12.5t61 12.5t38.5 34t20 51t5.5 63.5v138h95v-158v0z" />
    <glyph glyph-name="mu" unicode="&#xb5;" horiz-adv-x="554" 
d="M414 0v100q-18 -51 -57 -78t-90 -30q-42 -2 -74 12t-52 41v-251h-87v722h87v-313q0 -31 7.5 -57.5t22.5 -45.5t39 -30t57 -11q37 0 64.5 14t45.5 38t27 55t9 65v285h87v-516h-86z" />
    <glyph glyph-name="partialdiff" unicode="&#x2202;" horiz-adv-x="554" 
d="M500 -1q0 -47 -12 -87.5t-40 -70.5t-72.5 -47t-110.5 -17q-42 0 -81 8.5t-69.5 28t-50.5 51t-23 78.5h86q2 -27 14 -48t30.5 -34.5t41.5 -20.5t49 -7q77 0 114.5 44.5t37.5 116.5v106q-24 -57 -70 -84.5t-109 -27.5q-83 0 -132 49t-49 132v347h87v-313q0 -31 7.5 -57.5
t22.5 -45.5t39 -30t57 -11q37 0 64.5 14t45.5 38t27 55t9 65v285h87v-517v0zM248 580h-61l120 146h97z" />
    <glyph glyph-name="summation" unicode="&#x2211;" horiz-adv-x="578" 
d="M584 114q0 -22 -4.5 -42.5t-17 -36.5t-34.5 -25.5t-58 -9.5h-461v81l441 558h-411v81h533v-77l-443 -562h315q24 0 39 5t22.5 13.5t10 20t2.5 25.5l66 -31v0zM335 781h-71l-117 143h68l85 -105l83 105h68z" />
    <glyph glyph-name="product" unicode="&#x220f;" horiz-adv-x="550" 
d="M422 395q0 71 -42.5 103t-119.5 32h-111v-273h106q34 0 64.5 8t53 24.5t36 43t13.5 62.5zM513 398q0 -54 -18.5 -94.5t-51 -68t-78 -41t-99.5 -13.5h-117v-181h-95v720h95v-109h130q59 0 103 -16.5t73 -45.5t43.5 -67.5t14.5 -83.5z" />
    <glyph glyph-name="pi" unicode="&#x3c0;" horiz-adv-x="599" 
d="M475 251q0 40 -9.5 78t-31 67.5t-56.5 47.5t-86 18q-25 0 -52 -9t-49 -24.5t-36 -37t-14 -46.5v-158q0 -31 13.5 -55.5t36 -42t50.5 -26.5t58 -9q45 0 78 15t54.5 41.5t32.5 62.5t11 78zM562 251q0 -56 -17.5 -104t-50 -83.5t-78.5 -55.5t-102 -20q-57 0 -101.5 21.5
t-71.5 61.5v-277h-87v926h87v-267q28 37 71.5 56t94.5 19q60 0 107.5 -21.5t80.5 -59t50 -88t17 -108.5z" />
    <glyph glyph-name="integral" unicode="&#x222b;" horiz-adv-x="724" 
d="M423 781h-71l-117 143h68l85 -105l83 105h68zM688 280q-6 -65 -30.5 -119.5t-65 -94t-96 -61.5t-121.5 -22q-80 0 -143 30t-106.5 81t-66 118.5t-22.5 143.5q0 79 23 148t67 121t108.5 82t147.5 30q56 0 109 -17t95 -49t69 -78.5t32 -106.5h-94q-4 40 -23.5 71.5
t-49.5 54t-66.5 34.5t-73.5 12q-63 0 -110 -26t-78 -68.5t-46 -96.5t-15 -111q0 -54 14.5 -107t44.5 -94.5t75 -67t106 -25.5q50 0 88.5 16.5t66 46t44.5 69t23 86.5h94v0z" />
    <glyph glyph-name="ordfeminine" unicode="&#xaa;" horiz-adv-x="403" 
d="M291 621q0 14 -8.5 26.5t-21 21.5t-28 14t-30.5 5q-30 0 -50.5 -10t-33 -27t-18.5 -39t-6 -46q0 -49 25.5 -81.5t78.5 -32.5q17 0 33.5 5.5t29.5 15t21 23.5t8 32v93zM291 415v34q-38 -41 -102 -41q-34 0 -62 12t-47.5 33.5t-30.5 50.5t-11 62q0 34 10.5 64.5t30.5 53
t49 35.5t66 13q27 0 52 -9t45 -29v31h57v-310h-57z" />
    <glyph glyph-name="ordmasculine" unicode="&#xba;" horiz-adv-x="389" 
d="M295 570q0 21 -6 42t-18.5 37.5t-31.5 27t-44 10.5q-26 0 -45 -10.5t-31.5 -27t-18.5 -37.5t-6 -42t6 -42.5t18.5 -38.5t31.5 -27.5t45 -10.5q25 0 44 10.5t31.5 27.5t18.5 38.5t6 42.5zM352 570q0 -32 -10 -61.5t-29.5 -52.5t-49 -36.5t-69.5 -13.5q-39 0 -68.5 13.5
t-49 36.5t-29.5 52.5t-10 61.5t10 61t29.5 51.5t49.5 36t69 13.5t68.5 -13.5t49 -36t29.5 -51.5t10 -61z" />
    <glyph glyph-name="Omega" unicode="&#x2126;" horiz-adv-x="463" 
d="M463 101q0 -20 -4 -38t-15.5 -32t-31.5 -22.5t-51 -8.5h-352v73l317 376h-291v67h399v-73l-314 -377h220q23 0 36.5 4.5t21 13t9.5 19.5t2 23l54 -25v0zM268 583h-71l-117 143h68l85 -105l83 105h68z" />
    <glyph glyph-name="ae" unicode="&#xe6;" horiz-adv-x="973" 
d="M458 344q0 25 -14 47t-36 37.5t-49 24.5t-52 9q-51 0 -86 -18t-56.5 -47.5t-31 -67.5t-9.5 -78q0 -42 11 -78t32.5 -62.5t54.5 -41.5t78 -15q30 0 58 9t50.5 26.5t36 42t13.5 55.5v157zM846 367q-12 45 -47 70t-84 25q-43 0 -74.5 -15.5t-52 -41.5t-30.5 -60.5t-11 -72.5
q0 -3 -0.5 -7t0.5 -7l299 109v0zM936 187q-5 -47 -24.5 -84t-49.5 -62.5t-70 -39t-86 -13.5q-63 0 -108.5 28t-71.5 73v-89h-68v71q-27 -40 -71.5 -61.5t-101.5 -21.5q-56 0 -102 20t-78.5 55.5t-50 83.5t-17.5 104q0 58 17 108.5t50 88t80.5 59t107.5 21.5q51 0 94.5 -19
t71.5 -56v63h68v-96q26 48 72.5 78t115.5 30q43 0 81 -12t68 -35.5t49 -57.5t24 -78l-387 -142q4 -31 16 -58t32 -47.5t47.5 -32t63.5 -11.5q60 0 100 36.5t45 96.5h83v0z" />
    <glyph glyph-name="oslash" unicode="&#xf8;" horiz-adv-x="576" 
d="M452 258q0 32 -7.5 63.5t-23.5 57.5l-252 -269q20 -26 49.5 -41t69.5 -15q43 0 74 17.5t51 46t29.5 65.5t9.5 75zM405 407q-19 25 -48 40t-69 15q-43 0 -74 -17.5t-51 -46.5t-29.5 -65.5t-9.5 -74.5q0 -32 7 -63t22 -57l252 269v0zM539 258q0 -53 -15.5 -102t-47 -86.5
t-78.5 -59.5t-110 -22q-54 0 -96 17.5t-73 47.5l-56 -61l-23 21l58 62q-31 36 -46 83.5t-15 99.5q0 53 15.5 102t47 86.5t78.5 59.5t110 22q54 0 95.5 -17t72.5 -47l47 51l22 -21l-48 -51q31 -37 46.5 -84.5t15.5 -100.5z" />
    <glyph glyph-name="questiondown" unicode="&#xbf;" horiz-adv-x="537" 
d="M500 232q0 -50 -15 -94.5t-45 -77.5t-75 -52.5t-105 -19.5q-53 0 -94.5 14t-70 39t-43.5 57.5t-15 70.5q0 41 11 69t28.5 48.5t37 34.5t35.5 27q24 19 40 35.5t25.5 34.5t13.5 40t4 51v85h82v-85q0 -27 -3 -52.5t-12 -50.5t-26.5 -48.5t-46.5 -46.5q-8 -6 -24 -17
t-32 -27.5t-28 -39t-12 -52.5q0 -54 36.5 -82.5t95.5 -28.5q38 0 66 12.5t46.5 35t27 53.5t7.5 67h91v0zM333 677q0 -24 -18.5 -39t-41.5 -15t-41.5 15t-18.5 39t18.5 39t41.5 15t41.5 -15t18.5 -39z" />
    <glyph glyph-name="exclamdown" unicode="&#xa1;" horiz-adv-x="195" 
d="M45 0l28 582h49l28 -582h-105zM158 678q0 -24 -19 -39t-42 -15t-41.5 15t-18.5 39t18.5 39t41.5 15t42 -15t19 -39z" />
    <glyph glyph-name="logicalnot" unicode="&#xac;" horiz-adv-x="195" 
d="M141 400v-400h-87v332l-54 -45v54l54 45v334h87v-266l54 45v-54z" />
    <glyph glyph-name="radical" unicode="&#x221a;" horiz-adv-x="576" 
d="M452 249q0 37 -10 72t-30.5 62t-51.5 43t-72 16q-42 0 -72.5 -16t-51 -42.5t-30.5 -61.5t-10 -73t10 -73t30 -62t51 -43.5t73 -16.5t72.5 16.5t51 43.5t30.5 62t10 73zM539 266q0 -58 -16 -109t-48 -88.5t-79 -59t-109 -21.5q-58 0 -104.5 19t-78.5 53.5t-49.5 82
t-17.5 104.5q0 53 16 99.5t47 81t74.5 54.5t99.5 20q38 0 75.5 -13.5t62.5 -40.5q-23 43 -59.5 85t-74.5 74l-99 -55l-36 39l91 51q-16 14 -33.5 25.5t-36.5 22.5l64 40q16 -9 39 -25t37 -27l96 53l38 -39l-91 -50q41 -38 76.5 -79.5t61 -88t40 -98.5t14.5 -110z" />
    <glyph glyph-name="florin" unicode="&#x192;" horiz-adv-x="313" 
d="M342 661q-14 3 -44 3q-14 0 -26.5 -2.5t-23.5 -10t-19 -22t-13 -39.5l-14 -74h112l-16 -64h-112l-118 -544q-8 -37 -23 -60t-35 -36t-42.5 -17.5t-45.5 -4.5l-16 70q14 0 27 2.5t23.5 10.5t19 23t13.5 40l110 516h-112l15 59h112l22 105q8 37 23.5 60t35 36t42 17.5
t45.5 4.5q27 0 44 -2t34 -2z" />
    <glyph glyph-name="approxequal" unicode="&#x2248;" horiz-adv-x="442" 
d="M392 139l-172 173l-171 -173l-49 50l172 171l-172 172l49 49l171 -173l172 173l50 -49l-173 -172l173 -171z" />
    <glyph glyph-name="Delta" unicode="&#x2206;" horiz-adv-x="552" 
d="M328 583h-71l-117 143h68l85 -105l83 105h68zM515 187q-5 -47 -24.5 -84t-49.5 -62.5t-70 -39t-86 -13.5q-57 0 -103 20.5t-78 56t-49.5 83.5t-17.5 103q0 58 17 108.5t49.5 88t80 59t108.5 21.5q43 0 81.5 -12t68.5 -35.5t49 -57.5t24 -79h-83q-8 56 -45.5 87t-92.5 31
q-47 0 -79 -17.5t-52.5 -47t-29.5 -67.5t-9 -79q0 -38 9.5 -73.5t29 -63t50.5 -44t73 -16.5q30 0 55.5 9.5t45 27t31 42t14.5 54.5h83v0z" />
    <glyph glyph-name="guillemotleft" unicode="&#xab;" horiz-adv-x="348" 
d="M45 322v76l126 135v-79l-82 -94l81 -93v-80zM177 322v76l126 135v-79l-82 -94l82 -93v-80z" />
    <glyph glyph-name="guillemotright" unicode="&#xbb;" horiz-adv-x="348" 
d="M45 187v79l81 94l-81 93v80l125 -135v-76zM177 187v79l81 94l-81 93v80l126 -135v-76z" />
    <glyph glyph-name="ellipsis" unicode="&#x2026;" horiz-adv-x="1000" 
d="M227 50q0 -25 -18.5 -40t-41.5 -15t-41.5 15t-18.5 40q0 24 18.5 39t41.5 15t41.5 -15t18.5 -39zM560 50q0 -25 -18.5 -40t-41.5 -15t-41.5 15t-18.5 40q0 24 18.5 39t41.5 15t41.5 -15t18.5 -39zM893 50q0 -25 -18.5 -40t-41.5 -15t-41.5 15t-18.5 40q0 24 18.5 39
t41.5 15t41.5 -15t18.5 -39z" />
    <glyph glyph-name="Agrave" unicode="&#xc0;" 
d="M399 499q0 34 -5.5 63.5t-20 51.5t-38.5 34.5t-61 12.5t-61 -12.5t-38.5 -34.5t-20 -51.5t-5.5 -63.5v-101h250v101zM399 0v322h-250v-322h-95v519q0 108 56 163t164 55q109 0 164.5 -56t55.5 -162v-519h-95zM325 765l-151 146h96l116 -146h-61z" />
    <glyph glyph-name="Atilde" unicode="&#xc3;" 
d="M399 499q0 34 -5.5 63.5t-20 51.5t-38.5 34.5t-61 12.5t-61 -12.5t-38.5 -34.5t-20 -51.5t-5.5 -63.5v-101h250v101zM399 0v322h-250v-322h-95v519q0 108 56 163t164 55q109 0 164.5 -56t55.5 -162v-519h-95zM441 876q-1 -40 -22.5 -69.5t-64.5 -29.5q-21 0 -38.5 8
t-34 17t-32.5 17t-32 8q-20 0 -32 -18t-13 -35h-43q0 17 5.5 35t16.5 33t27 25t36 10q19 0 38 -8t36.5 -18t33 -18t28.5 -8q21 0 33.5 14t14.5 37h43v0z" />
    <glyph glyph-name="Otilde" unicode="&#xd5;" horiz-adv-x="757" 
d="M625 360q0 57 -15 110.5t-45.5 95.5t-77 67t-109.5 25t-109.5 -25t-76.5 -67t-45 -95.5t-15 -110.5t15 -110.5t45 -95.5t76.5 -67t109.5 -25t109.5 25t77 67t45.5 95.5t15 110.5zM720 360q0 -77 -23 -145.5t-66.5 -120t-107 -81.5t-145.5 -30q-81 0 -144.5 30t-107 81.5
t-66.5 120t-23 145.5t23 145.5t66.5 120t107 81.5t144.5 30q82 0 145.5 -30t107 -81.5t66.5 -120t23 -145.5zM544 876q-1 -40 -22.5 -69.5t-63.5 -29.5q-21 0 -39 8t-34.5 17t-32.5 17t-32 8q-20 0 -32 -18t-13 -35h-42q0 17 5.5 35t16 33t26.5 25t36 10q19 0 38.5 -8
t37 -18t33 -18t27.5 -8q21 0 33.5 14t14.5 37h43v0z" />
    <glyph glyph-name="OE" unicode="&#x152;" horiz-adv-x="1088" 
d="M594 486q-4 40 -23.5 71.5t-49.5 54t-66.5 34.5t-73.5 12q-63 0 -110 -26t-78 -68.5t-46 -96.5t-15 -111q0 -54 14.5 -107t44.5 -94.5t75 -67t106 -25.5q50 0 88.5 16.5t66 46t44.5 69t23 86.5v206zM606 0v125q-32 -64 -89.5 -103t-141.5 -39q-80 0 -143 30t-106.5 81
t-66 118.5t-22.5 143.5q0 79 23 148t67 121t108.5 82t147.5 30q31 0 63.5 -7t62.5 -20.5t55 -33t42 -44.5v88h435v-81h-348v-241h318v-76h-318v-241h354v-81h-441z" />
    <glyph glyph-name="oe" unicode="&#x153;" horiz-adv-x="967" 
d="M452 258q0 38 -9.5 74.5t-29.5 65.5t-51 46.5t-74 17.5t-74 -17.5t-51 -46.5t-29.5 -65.5t-9.5 -74.5t9.5 -75t29.5 -65.5t51 -46t74 -17.5t74 17.5t51 46t29.5 65.5t9.5 75zM840 367q-13 45 -47.5 69.5t-83.5 24.5q-43 0 -74.5 -15.5t-52 -41.5t-31 -60.5t-11.5 -72.5
v-13l300 109v0zM930 186q-5 -47 -24.5 -84t-49.5 -62.5t-70 -39t-86 -13.5q-76 0 -127.5 38t-76.5 97q-26 -58 -78 -96t-130 -38q-63 0 -110 22t-78.5 59.5t-47 86.5t-15.5 102t15.5 102t47 86.5t78.5 59.5t110 22q39 0 72 -10.5t59.5 -29.5t46 -44t31.5 -55q26 61 78 100
t132 39q43 0 81.5 -12t68.5 -35.5t49 -57.5t24 -79l-388 -141q4 -31 16.5 -58t32 -47.5t47 -32.5t63.5 -12q30 0 55.5 9.5t44.5 27t31 42t15 54.5h83v0z" />
    <glyph glyph-name="endash" unicode="&#x2013;" horiz-adv-x="590" 
d="M45 232v72h500v-72h-500z" />
    <glyph glyph-name="emdash" unicode="&#x2014;" horiz-adv-x="1090" 
d="M45 232v72h1000v-72h-1000z" />
    <glyph glyph-name="quotedblleft" unicode="&#x201c;" horiz-adv-x="337" 
d="M141 452l-141 245l61 35l141 -245zM276 452l-141 245l60 35l142 -245z" />
    <glyph glyph-name="quotedblright" unicode="&#x201d;" horiz-adv-x="337" 
d="M61 452l-61 35l141 245l61 -35zM195 452l-60 35l141 245l61 -35z" />
    <glyph glyph-name="quoteleft" unicode="&#x2018;" horiz-adv-x="202" 
d="M141 452l-141 245l61 35l141 -245z" />
    <glyph glyph-name="quoteright" unicode="&#x2019;" horiz-adv-x="202" 
d="M61 452l-61 35l141 245l61 -35z" />
    <glyph glyph-name="divide" unicode="&#xf7;" horiz-adv-x="594" 
d="M361 150q0 -26 -17 -45t-47 -19q-29 0 -46 19t-17 45q0 27 18.5 45.5t44.5 18.5q27 0 45.5 -19t18.5 -45zM45 325v70h504v-70h-504zM361 570q0 -26 -17 -45t-47 -19q-29 0 -46 19t-17 45q0 27 18.5 45.5t44.5 18.5q27 0 45.5 -19t18.5 -45z" />
    <glyph glyph-name="lozenge" unicode="&#x25ca;" horiz-adv-x="580" 
d="M448 361q0 61 -14.5 112t-44.5 88t-76.5 57.5t-110.5 20.5h-53v-238h158v-58h-158v-262h46q63 0 110.5 21.5t79 59t47.5 89t16 111.5v-1zM543 360q0 -82 -22.5 -148.5t-66.5 -113.5t-108.5 -72.5t-148.5 -25.5h-143v342h-60v59h60v319h178q81 0 140 -28t97 -76.5
t56 -114.5t18 -141z" />
    <glyph glyph-name="ydieresis" unicode="&#xff;" horiz-adv-x="554" 
d="M500 -1q0 -47 -12 -87.5t-40 -70.5t-72.5 -47t-110.5 -17q-42 0 -81 8.5t-69.5 28t-50.5 51t-23 78.5h86q2 -27 14 -48t30.5 -34.5t41.5 -20.5t49 -7q77 0 114.5 44.5t37.5 116.5v106q-24 -57 -70 -84.5t-109 -27.5q-83 0 -132 49t-49 132v347h87v-313q0 -31 7.5 -57.5
t22.5 -45.5t39 -30t57 -11q37 0 64.5 14t45.5 38t27 55t9 65v285h87v-517v0zM244 634q0 -24 -18.5 -39t-41.5 -15t-42 15t-19 39q0 25 19 39.5t42 14.5t41.5 -14.5t18.5 -39.5zM440 634q0 -24 -19 -39t-42 -15t-41.5 15t-18.5 39q0 25 18.5 39.5t41.5 14.5t42 -14.5
t19 -39.5z" />
    <glyph glyph-name="Ydieresis" unicode="&#x178;" 
d="M494 540q0 -94 -43.5 -148t-128.5 -65v-327h-95v327q-86 11 -129.5 65t-43.5 148v180h95v-160q0 -35 5.5 -64.5t20 -51t38.5 -34t61 -12.5t61 12.5t38.5 34.5t20 51.5t5.5 63.5v160h95v-180v0zM238 819q0 -25 -18.5 -39.5t-41.5 -14.5t-42 14.5t-19 39.5q0 24 19 39
t42 15t41.5 -15t18.5 -39zM434 819q0 -25 -19 -39.5t-42 -14.5t-41.5 14.5t-18.5 39.5q0 24 18.5 39t41.5 15t42 -15t19 -39z" />
    <glyph glyph-name="fraction" unicode="&#x2044;" horiz-adv-x="167" 
d="M-102 0h-56l426 720h56z" />
    <glyph glyph-name="currency" unicode="&#xa4;" horiz-adv-x="572" 
d="M469 343q0 39 -15 72.5t-40 58t-58 38.5t-70 14q-36 0 -69.5 -14t-58.5 -38.5t-40 -58t-15 -72.5t15 -72.5t40 -58t58.5 -38.5t69.5 -14t69.5 14t58.5 38.5t40 58t15 72.5zM535 343q0 -43 -15 -84.5t-42 -71.5l58 -57l-37 -37l-58 58q-31 -28 -70.5 -42.5t-84.5 -14.5
q-44 0 -84 14t-72 42l-58 -57l-37 37l58 57q-26 30 -41 71t-15 85q0 45 15 86t41 70l-58 57l38 37l57 -57q29 26 70.5 41t85.5 15t85 -15t70 -41l57 57l38 -37l-58 -57q27 -29 42 -70t15 -86z" />
    <glyph glyph-name="guilsinglleft" unicode="&#x2039;" horiz-adv-x="216" 
d="M45 322v76l126 135v-79l-82 -94l82 -93v-80z" />
    <glyph glyph-name="guilsinglright" unicode="&#x203a;" horiz-adv-x="216" 
d="M45 187v79l81 94l-81 93v80l126 -135v-76z" />
    <glyph glyph-name="fi" unicode="&#xfb01;" horiz-adv-x="390" 
d="M249 0v452h-108v-452h-87v452h-54v59h54v105q0 37 10 60t26.5 36t38 17.5t44.5 4.5q26 0 43.5 -2t34.5 -2v-69q-7 2 -18.5 2.5t-25.5 0.5q-15 0 -27 -2t-20.5 -9.5t-13.5 -21.5t-5 -39v-76h195v-516h-87z" />
    <glyph glyph-name="fl" unicode="&#xfb02;" horiz-adv-x="390" 
d="M249 0v662q-8 1 -19.5 1.5t-22.5 0.5q-14 0 -26 -2.5t-21 -10t-14 -22.5t-5 -39v-74h54v-64h-54v-452h-87v452h-54v59h54v105q0 37 10 60t26.5 36t38 17.5t44.5 4.5q18 0 35 -3t33 -4q26 0 46 -1q17 -1 32 -1.5t17 -0.5v-724h-87z" />
    <glyph glyph-name="daggerdbl" unicode="&#x2021;" horiz-adv-x="568" 
d="M324 44l10 -250h-100l10 250l-199 -10v85l199 -11v346l-199 -11v85l199 -10l-10 202h100l-10 -202l199 10v-85l-199 11v-346l199 11v-85z" />
    <glyph glyph-name="periodcentered" unicode="&#xb7;" horiz-adv-x="195" 
d="M158 360q0 -24 -19 -39t-42 -15t-41.5 15t-18.5 39t18.5 39t41.5 15t42 -15t19 -39z" />
    <glyph glyph-name="quotesinglbase" unicode="&#x201a;" horiz-adv-x="202" 
d="M61 -141l-61 35l141 245l61 -35z" />
    <glyph glyph-name="quotedblbase" unicode="&#x201e;" horiz-adv-x="338" 
d="M61 -141l-61 35l141 245l61 -35zM197 -141l-61 35l142 245l60 -35z" />
    <glyph glyph-name="perthousand" unicode="&#x2030;" 
d="M494 540q0 -94 -43.5 -148t-128.5 -65v-327h-95v327q-86 11 -129.5 65t-43.5 148v180h95v-160q0 -35 5.5 -64.5t20 -51t38.5 -34t61 -12.5t61 12.5t38.5 34.5t20 51.5t5.5 63.5v160h95v-180v0zM258 778h-60l119 146h97z" />
    <glyph glyph-name="Acircumflex" unicode="&#xc2;" 
d="M360 768l-86 105l-83 -105h-67l116 143h70l118 -143h-68zM399 499q0 34 -5.5 63.5t-20 51.5t-38.5 34.5t-61 12.5t-61 -12.5t-38.5 -34.5t-20 -51.5t-5.5 -63.5v-101h250v101zM399 0v322h-250v-322h-95v519q0 108 56 163t164 55q109 0 164.5 -56t55.5 -162v-519h-95z" />
    <glyph glyph-name="Ecircumflex" unicode="&#xca;" 
d="M361 768l-86 105l-83 -105h-67l116 143h70l118 -143h-68zM54 0v720h442v-81h-347v-241h318v-76h-318v-241h354v-81h-449z" />
    <glyph glyph-name="Aacute" unicode="&#xc1;" 
d="M223 765h-61l120 146h96zM399 499q0 34 -5.5 63.5t-20 51.5t-38.5 34.5t-61 12.5t-61 -12.5t-38.5 -34.5t-20 -51.5t-5.5 -63.5v-101h250v101zM399 0v322h-250v-322h-95v519q0 108 56 163t164 55q109 0 164.5 -56t55.5 -162v-519h-95z" />
    <glyph glyph-name="Edieresis" unicode="&#xcb;" 
d="M433 819q0 -25 -18.5 -39.5t-41.5 -14.5t-42 14.5t-19 39.5q0 24 19 39t42 15t41.5 -15t18.5 -39zM237 819q0 -25 -18.5 -39.5t-41.5 -14.5t-41.5 14.5t-18.5 39.5q0 24 18.5 39t41.5 15t41.5 -15t18.5 -39zM54 0v720h442v-81h-347v-241h318v-76h-318v-241h354v-81h-449z
" />
    <glyph glyph-name="Egrave" unicode="&#xc8;" 
d="M159 911h96l116 -146h-61zM54 0v720h442v-81h-347v-241h318v-76h-318v-241h354v-81h-449z" />
    <glyph glyph-name="Iacute" unicode="&#xcd;" horiz-adv-x="203" 
d="M56 765h-60l119 146h97zM54 0v720h95v-720h-95z" />
    <glyph glyph-name="Icircumflex" unicode="&#xce;" horiz-adv-x="203" 
d="M187 768l-86 105l-82 -105h-68l116 143h71l117 -143h-68zM54 0v720h95v-720h-95z" />
    <glyph glyph-name="Idieresis" unicode="&#xcf;" horiz-adv-x="203" 
d="M263 819q0 -25 -18.5 -39.5t-41.5 -14.5t-42 14.5t-19 39.5q0 24 19 39t42 15t41.5 -15t18.5 -39zM67 819q0 -25 -18.5 -39.5t-41.5 -14.5t-41.5 14.5t-18.5 39.5q0 24 18.5 39t41.5 15t41.5 -15t18.5 -39zM54 0v720h95v-720h-95z" />
    <glyph glyph-name="Igrave" unicode="&#xcc;" horiz-adv-x="203" 
d="M-11 911h96l116 -146h-61zM54 0v720h95v-720h-95z" />
    <glyph glyph-name="Oacute" unicode="&#xd3;" horiz-adv-x="757" 
d="M347 765h-60l119 146h97zM625 360q0 57 -15 110.5t-45.5 95.5t-77 67t-109.5 25t-109.5 -25t-76.5 -67t-45 -95.5t-15 -110.5t15 -110.5t45 -95.5t76.5 -67t109.5 -25t109.5 25t77 67t45.5 95.5t15 110.5zM720 360q0 -77 -23 -145.5t-66.5 -120t-107 -81.5t-145.5 -30
q-81 0 -144.5 30t-107 81.5t-66.5 120t-23 145.5t23 145.5t66.5 120t107 81.5t144.5 30q82 0 145.5 -30t107 -81.5t66.5 -120t23 -145.5z" />
    <glyph glyph-name="Ocircumflex" unicode="&#xd4;" horiz-adv-x="757" 
d="M459 768l-85 105l-83 -105h-68l116 143h71l117 -143h-68zM625 360q0 57 -15 110.5t-45.5 95.5t-77 67t-109.5 25t-109.5 -25t-76.5 -67t-45 -95.5t-15 -110.5t15 -110.5t45 -95.5t76.5 -67t109.5 -25t109.5 25t77 67t45.5 95.5t15 110.5zM720 360q0 -77 -23 -145.5
t-66.5 -120t-107 -81.5t-145.5 -30q-81 0 -144.5 30t-107 81.5t-66.5 120t-23 145.5t23 145.5t66.5 120t107 81.5t144.5 30q82 0 145.5 -30t107 -81.5t66.5 -120t23 -145.5z" />
    <glyph glyph-name="apple" unicode="&#xf8ff;" 
d="M548 114q0 -22 -4.5 -42.5t-17 -36.5t-34.5 -25.5t-58 -9.5h-380v243l-54 -38v64l54 38v413h95v-348l178 125v-64l-178 -125v-227h260q24 0 38.5 5t22 13.5t10 20t2.5 25.5l66 -31v0z" />
    <glyph glyph-name="Ograve" unicode="&#xd2;" horiz-adv-x="757" 
d="M234 911h96l115 -146h-60zM625 360q0 57 -15 110.5t-45.5 95.5t-77 67t-109.5 25t-109.5 -25t-76.5 -67t-45 -95.5t-15 -110.5t15 -110.5t45 -95.5t76.5 -67t109.5 -25t109.5 25t77 67t45.5 95.5t15 110.5zM720 360q0 -77 -23 -145.5t-66.5 -120t-107 -81.5t-145.5 -30
q-81 0 -144.5 30t-107 81.5t-66.5 120t-23 145.5t23 145.5t66.5 120t107 81.5t144.5 30q82 0 145.5 -30t107 -81.5t66.5 -120t23 -145.5z" />
    <glyph glyph-name="Uacute" unicode="&#xda;" 
d="M237 765h-60l120 146h96zM494 201q0 -108 -56 -163t-164 -55q-109 0 -164.5 56t-55.5 162v519h95v-499q0 -34 5.5 -63.5t20 -51.5t38.5 -34.5t61 -12.5t61 12.5t38.5 34.5t20 51.5t5.5 63.5v499h95v-519v0z" />
    <glyph glyph-name="Ucircumflex" unicode="&#xdb;" 
d="M356 768l-85 105l-83 -105h-68l116 143h71l117 -143h-68zM494 201q0 -108 -56 -163t-164 -55q-109 0 -164.5 56t-55.5 162v519h95v-499q0 -34 5.5 -63.5t20 -51.5t38.5 -34.5t61 -12.5t61 12.5t38.5 34.5t20 51.5t5.5 63.5v499h95v-519v0z" />
    <glyph glyph-name="Ugrave" unicode="&#xd9;" 
d="M166 911h96l116 -146h-61zM494 201q0 -108 -56 -163t-164 -55q-109 0 -164.5 56t-55.5 162v519h95v-499q0 -34 5.5 -63.5t20 -51.5t38.5 -34.5t61 -12.5t61 12.5t38.5 34.5t20 51.5t5.5 63.5v499h95v-519v0z" />
    <glyph glyph-name="dotlessi" unicode="&#x131;" horiz-adv-x="195" 
d="M54 0v516h87v-516h-87z" />
    <glyph glyph-name="circumflex" unicode="&#x2c6;" horiz-adv-x="0" 
d="M372 570l-86 105l-82 -105h-68l116 142h71l117 -142h-68z" />
    <glyph glyph-name="tilde" unicode="&#x2dc;" horiz-adv-x="0" 
d="M444 678q-1 -40 -22.5 -69.5t-64.5 -29.5q-21 0 -39 8t-34.5 17t-32 17t-31.5 8q-20 0 -32 -18t-14 -35h-42q0 17 5.5 35t16.5 33t26.5 25t36.5 10q19 0 38 -8t36.5 -18t33 -18t28.5 -8q20 0 32.5 14t14.5 37h44v0z" />
    <glyph glyph-name="macron" unicode="&#xaf;" horiz-adv-x="0" 
d="M152 600v46h272v-46h-272z" />
    <glyph glyph-name="breve" unicode="&#x2d8;" horiz-adv-x="0" 
d="M433 703q-5 -61 -47 -92.5t-101 -31.5q-60 0 -98.5 32.5t-43.5 91.5h42q5 -38 35 -58.5t67 -20.5q39 0 69 18.5t35 60.5h42v0z" />
    <glyph glyph-name="dotaccent" unicode="&#x2d9;" horiz-adv-x="0" 
d="M348 621q0 -25 -18.5 -39.5t-41.5 -14.5t-42 14.5t-19 39.5q0 24 19 39t42 15t41.5 -15t18.5 -39z" />
    <glyph glyph-name="ring" unicode="&#x2da;" horiz-adv-x="0" 
d="M350 671q0 25 -18.5 43.5t-43.5 18.5t-43.5 -18.5t-18.5 -43.5q0 -26 18 -44.5t44 -18.5t44 18.5t18 44.5zM385 671q0 -20 -7.5 -37.5t-21 -31t-31 -21.5t-37.5 -8t-37.5 7.5t-31 21t-21 31.5t-7.5 38q0 19 8 37t21 31t30.5 21t37.5 8q19 0 37 -8t31 -21t21 -31t8 -37z
" />
    <glyph glyph-name="cedilla" unicode="&#xb8;" horiz-adv-x="0" 
d="M395 -121q0 -24 -10 -39.5t-25.5 -24.5t-35.5 -12.5t-40 -3.5q-32 0 -56 6.5t-47 14.5l14 29l38 -12t39 -6q24 0 46.5 10t22.5 37q0 20 -18 29.5t-33 9.5q-27 0 -48 -12l-19 15l56 80h35l-42 -60q8 2 17 4.5t21 2.5q16 0 31.5 -4t27.5 -12t19 -21t7 -31z" />
    <glyph glyph-name="hungarumlaut" unicode="&#x2dd;" horiz-adv-x="0" 
d="M149 566h-51l120 146h81zM327 566h-51l120 146h81z" />
    <glyph glyph-name="ogonek" unicode="&#x2db;" horiz-adv-x="0" 
d="M385 -148q-17 -31 -45 -42t-57 -11q-41 0 -66.5 19t-25.5 49q0 19 10.5 37.5t26 36t34 32.5t34.5 27h46q-55 -44 -77 -72.5t-22 -53.5q0 -18 12.5 -30t35.5 -12q26 0 39.5 8t21.5 19l33 -8v1z" />
    <glyph glyph-name="caron" unicode="&#x2c7;" horiz-adv-x="0" 
d="M323 583h-70l-117 143h67l86 -105l83 105h68z" />
    <glyph glyph-name="NULL" horiz-adv-x="0" 
 />
    </font>
</defs>
</svg>
