<?xml version="1.0" standalone="no"?>
<!DOCTYPE svg PUBLIC "-//W3C//DTD SVG 1.1//EN" "http://www.w3.org/Graphics/SVG/1.1/DTD/svg11.dtd" >
<svg xmlns="http://www.w3.org/2000/svg" xmlns:xlink="http://www.w3.org/1999/xlink" version="1.1">
<metadata>
Created by FontForge 20161116 at Wed Sep  7 20:57:59 2005
 By Jimmy Wärting
(c) 2005 Jess Latham www.bvfonts.com V.20
</metadata>
<defs>
<font id="PrintClearly" horiz-adv-x="69" >
  <font-face 
    font-family="Print Clearly"
    font-weight="400"
    font-stretch="normal"
    units-per-em="1000"
    panose-1="0 0 4 0 0 0 0 0 0 0"
    ascent="800"
    descent="-200"
    x-height="318"
    cap-height="604"
    bbox="-1120 -207 6393 800"
    underline-thickness="20"
    underline-position="-143"
    unicode-range="U+0020-2260"
  />
<missing-glyph horiz-adv-x="500" 
d="M63 0v800h375v-800h-375zM125 63h250v675h-250v-675z" />
    <glyph glyph-name=".notdef" horiz-adv-x="500" 
d="M63 0v800h375v-800h-375zM125 63h250v675h-250v-675z" />
    <glyph glyph-name=".null" horiz-adv-x="0" 
 />
    <glyph glyph-name="glyph2" horiz-adv-x="297" 
 />
    <glyph glyph-name="space" unicode=" " horiz-adv-x="297" 
 />
    <glyph glyph-name="Eth" unicode="&#xd0;" horiz-adv-x="538" 
d="M469 302q0 -65 -16 -123q-20 -73 -62 -123q-51 -61 -116 -61h-139q-3 -2 -6 -2q-14 0 -14 14v304q-34 0 -28 0q-19 1 -19 14t19 15q-6 -1 28 -1v255q0 15 15 15h144q65 0 116 -62q42 -50 62 -122q16 -59 16 -123zM144 339h111q14 0 14 -14t-14 -14h-111v-288h131
q56 0 100 56q34 44 51 108q15 54 15 115q0 60 -15 115q-17 64 -51 108q-44 56 -100 56h-131v-242z" />
    <glyph glyph-name="eth" unicode="&#xf0;" horiz-adv-x="461" 
d="M392 213v-27q-1 -18 -1 -26q0 -70 -46 -122t-115 -52t-115 52t-46 122q0 69 46 121t115 52q85 0 133 -75q-10 184 -97 266q-80 -71 -85 -71q-14 0 -14 14q0 6 78 75q-42 31 -93 37q-10 0 -28 2q-14 2 -14 14q0 14 14 14q79 0 142 -48q51 46 56 46q14 0 14 -14
q0 -7 -49 -51q105 -100 105 -329zM230 14q59 0 97 46q36 43 36 104q0 56 -39 98.5t-94 42.5q-57 0 -95 -43.5t-38 -101.5t38 -102t95 -44z" />
    <glyph glyph-name="Lslash" unicode="&#x141;" 
 />
    <glyph glyph-name="lslash" unicode="&#x142;" 
 />
    <glyph glyph-name="Scaron" unicode="&#x160;" horiz-adv-x="490" 
d="M97 469q0 -56 47 -90q29 -21 97 -44q180 -61 180 -187q0 -74 -48 -118.5t-122 -44.5q-80 0 -131 50t-51 129q0 14 14 14q12 0 14 -14q0 -9 2 -26q9 -66 64 -101q36 -24 87 -24q63 0 103 36.5t40 98.5q0 107 -161 160q-76 25 -111 54q-52 41 -52 107q0 64 47.5 107.5
t112.5 43.5q72 0 119 -46.5t47 -117.5q0 -14 -15 -14q-10 0 -14 14q0 13 -5 39q-25 94 -127 96l-5 1q-53 1 -92.5 -35t-39.5 -88zM233 643q-8 0 -12 6q-61 93 -61 97q0 14 14 14q7 0 11 -6l48 -72l48 72q4 6 12 6q14 0 14 -14q0 -4 -62 -97q-4 -6 -12 -6z" />
    <glyph glyph-name="scaron" unicode="&#x161;" horiz-adv-x="411" 
d="M101 249q0 -35 62 -51l116 -28q63 -25 63 -80q0 -49 -45 -79q-39 -25 -90 -25q-57 0 -94 22q-44 28 -44 81q0 23 17 23q11 0 11 -16q0 -82 110 -82q40 0 70 17q37 22 37 59q0 42 -63 60l-116 28q-62 21 -62 70q0 45 44 67q34 17 84 17q55 0 90 -21q43 -26 43 -77
q0 -13 -15 -13q-12 0 -13 15q-2 24 -16 40q-24 28 -89 28q-100 0 -100 -55zM197 363q-8 0 -12 6q-61 93 -61 97q0 14 14 14q8 0 12 -6l47 -72l48 72q4 6 12 6q14 0 14 -14q0 -4 -61 -97q-4 -6 -13 -6z" />
    <glyph glyph-name="Yacute" unicode="&#xdd;" horiz-adv-x="478" 
d="M400 611q14 0 14 -14q0 -4 -161 -308v-279q0 -14 -14 -14t-14 14v280q-161 303 -161 307q0 14 14 14q8 0 12 -8l149 -280l149 280q4 8 12 8zM199 653q0 6 4 10l93 93q4 4 10 4q14 0 14 -14q0 -5 -4 -9l-93 -93q-4 -5 -10 -5q-14 0 -14 14z" />
    <glyph glyph-name="yacute" unicode="&#xfd;" horiz-adv-x="408" 
d="M330 329q14 0 14 -14q0 -2 -196 -506q-3 -9 -13 -9q-14 0 -14 14q0 3 72 188q-3 3 -66 155.5t-63 157.5q0 14 14 14q9 0 13 -8l116 -283l110 282q4 9 13 9zM169 363q0 6 4 10l93 93q4 4 10 4q14 0 14 -14q0 -5 -4 -9l-93 -93q-4 -5 -10 -5q-14 0 -14 14z" />
    <glyph glyph-name="HT" 
 />
    <glyph glyph-name="LF" 
 />
    <glyph glyph-name="Thorn" unicode="&#xde;" horiz-adv-x="454" 
d="M97 475h120q71 0 122 -50.5t51 -122.5q0 -71 -51 -121.5t-122 -50.5h-120v-122q0 -14 -14 -14t-14 14v589q0 14 14 14t14 -14v-122zM362 302q0 60 -42.5 102t-102.5 42h-120v-288h120q60 0 102.5 42.5t42.5 101.5z" />
    <glyph glyph-name="thorn" unicode="&#xfe;" horiz-adv-x="462" 
d="M83 603q14 0 14 -14v-342q47 87 140 87q68 0 114.5 -52t46.5 -122q0 -69 -46.5 -121.5t-114.5 -52.5q-93 0 -140 88v-257q0 -14 -14 -14t-14 14v772q0 14 14 14zM237 306q-58 0 -96 -44t-38 -102t38 -102t96 -44q57 0 95 44t38 102t-38 102t-95 44z" />
    <glyph glyph-name="nonmarkingreturn" 
 />
    <glyph glyph-name="Zcaron" unicode="&#x17d;" horiz-adv-x="495" 
d="M426 589q0 -3 -319 -556h295q14 0 14 -14t-14 -14h-319q-14 0 -14 14q0 4 319 556h-294q-14 0 -14 14t14 14h318q14 0 14 -14zM241 639q-61 93 -61 97q0 14 14 14q8 0 12 -6l47 -72l48 72q4 6 12 6q14 0 14 -14q0 -4 -61 -97h-25z" />
    <glyph glyph-name="zcaron" unicode="&#x17e;" horiz-adv-x="408" 
d="M339 304q0 -5 -4 -9l-222 -264h201q14 0 14 -14t-14 -14h-231q-14 0 -14 14q0 6 3 9l222 264h-201q-14 0 -14 14t14 14h232q14 0 14 -14zM207 363q-8 0 -12 6q-61 93 -61 97q0 14 14 14q8 0 12 -6l47 -72l48 72q4 6 12 6q14 0 14 -14q0 -4 -61 -97q-4 -6 -13 -6z" />
    <glyph glyph-name="DLE" 
 />
    <glyph glyph-name="DC1" 
 />
    <glyph glyph-name="DC2" 
 />
    <glyph glyph-name="DC3" 
 />
    <glyph glyph-name="DC4" 
 />
    <glyph glyph-name="onehalf" unicode="&#xbd;" horiz-adv-x="609" 
d="M136 358q28 0 28 -14t-14 -14h-55q-14 0 -14 14t27 14v247q-21 -14 -25 -14q-14 0 -14 14q0 7 6 11q43 29 47 29q14 0 14 -14v0v-273zM122 -12q-14 0 -14 14q0 3 280 591q4 8 13 8q13 0 13 -14q0 -3 -279 -591q-4 -8 -13 -8zM540 223q0 -50 -37 -83l-72 -50
q-40 -28 -45 -63h137q14 0 14 -14t-14 -14h-153l-5 1l-4 3l-3 4l-2 6q0 52 41 86q37 26 75 51q40 31 40 74q0 27 -18.5 46.5t-45.5 19.5t-46 -19.5t-19 -46.5q0 -14 -14 -14t-14 14q0 39 27 66.5t66 27.5t65.5 -28t26.5 -67z" />
    <glyph glyph-name="onequarter" unicode="&#xbc;" horiz-adv-x="594" 
d="M136 358q28 0 28 -14t-14 -14h-55q-14 0 -14 14t27 14v247q-21 -14 -25 -14q-14 0 -14 14q0 7 6 11q43 29 47 29q14 0 14 -14v0v-273zM122 -12q-14 0 -14 14q0 3 280 591q4 8 13 8q13 0 13 -14q0 -3 -279 -591q-4 -8 -13 -8zM525 166q0 -12 -14 -14h-22v-139
q0 -14 -14 -14t-14 14v139h-112q-14 0 -14 14q0 1 25 144q2 12 14 12q14 0 14 -14q0 -1 -22 -128h95v128q0 14 14 14t14 -14v-128h22q14 -2 14 -14z" />
    <glyph glyph-name="onesuperior" unicode="&#xb9;" horiz-adv-x="233" 
d="M136 312q28 0 28 -14t-14 -14h-55q-14 0 -14 14t27 14v247q-21 -15 -25 -15q-14 0 -14 14q0 8 6 12q43 29 47 29q14 0 14 -14v0v-273z" />
    <glyph glyph-name="threequarters" unicode="&#xbe;" horiz-adv-x="684" 
d="M212 -12q-13 0 -13 14q0 3 279 591q4 8 13 8q14 0 14 -14q0 -3 -280 -591q-4 -8 -13 -8zM615 166q0 -12 -13 -14h-23v-139q0 -14 -14 -14t-14 14v139h-112q-14 0 -14 14q0 1 25 144q2 12 14 12q14 0 14 -14q0 -1 -22 -128h95v128q0 14 14 14t14 -14v-128h23q13 -2 13 -14
zM167 304q29 0 49.5 19.5t20.5 47.5q0 29 -20.5 48.5t-49.5 19.5q-14 0 -14 14t14 14q25 0 44 16t19 40t-19 40t-44 16q-24 0 -43.5 -16t-19.5 -40q0 -14 -14 -14t-14 14q0 36 27.5 60t63.5 24t63.5 -24t27.5 -60q0 -45 -40 -70q47 -28 47 -82q0 -39 -29 -67t-69 -28t-69 28
t-29 67q0 14 14 14t14 -14q0 -28 21 -47.5t49 -19.5z" />
    <glyph glyph-name="threesuperior" unicode="&#xb3;" horiz-adv-x="334" 
d="M167 304q29 0 49.5 19.5t20.5 47.5q0 29 -20.5 48.5t-49.5 19.5q-14 0 -14 14t14 14q25 0 44 15.5t19 40.5q0 24 -19 39.5t-44 15.5q-24 0 -43.5 -15.5t-19.5 -39.5q0 -14 -14 -14t-14 14q0 35 27.5 59t63.5 24t63.5 -24t27.5 -59q0 -45 -40 -70q47 -28 47 -82
q0 -40 -29 -67.5t-69 -27.5t-69 27.5t-29 67.5q0 14 14 14t14 -14q0 -28 21 -47.5t49 -19.5z" />
    <glyph glyph-name="twosuperior" unicode="&#xb2;" horiz-adv-x="323" 
d="M254 510q0 -50 -38 -83q-35 -25 -71 -50q-41 -28 -46 -63h138q14 0 14 -14t-14 -14h-153l-5 1l-5 3l-3 4l-1 6q0 51 40 86q38 26 75 51q41 31 41 74q0 27 -19 46.5t-46 19.5q-26 0 -45 -19.5t-19 -46.5q0 -14 -14 -14t-14 14q0 39 27 66.5t65 27.5q39 0 66 -28t27 -67z
" />
    <glyph glyph-name="brokenbar" unicode="&#xa6;" horiz-adv-x="166" 
d="M83 119q14 0 14 -14v-294q0 -14 -14 -14t-14 14v294q0 14 14 14zM83 610q14 0 14 -14v-295q0 -14 -14 -14t-14 14v295q0 14 14 14z" />
    <glyph glyph-name="minus" unicode="&#xad;" horiz-adv-x="363" 
d="M83 310q-14 0 -14 14t14 14h198q13 0 13 -14t-13 -14h-198z" />
    <glyph glyph-name="minus" unicode="&#x2212;" horiz-adv-x="363" 
d="M83 310q-14 0 -14 14t14 14h198q13 0 13 -14t-13 -14h-198z" />
    <glyph glyph-name="multiply" unicode="&#xd7;" horiz-adv-x="358" 
d="M181 302l-88 -89q-4 -4 -10 -4q-14 0 -14 14q0 6 4 10l89 88l-89 89q-4 4 -4 10q0 5 4 10q10 9 20 0l88 -89l89 89q10 9 19 0q10 -10 0 -20l-88 -89l88 -88q10 -10 0 -20q-9 -10 -19 0z" />
    <glyph glyph-name="exclam" unicode="!" horiz-adv-x="184" 
d="M92 117q-14 0 -14 15v466q0 14 14 14t14 -14v-466q0 -15 -14 -15zM92 41q23 0 23 -22q0 -23 -23 -23t-23 23q0 22 23 22z" />
    <glyph glyph-name="quotedbl" unicode="&#x22;" horiz-adv-x="236" 
d="M153 610q14 0 14 -14v-162q0 -14 -14 -14t-14 14v162q0 14 14 14zM83 610q14 0 14 -14v-162q0 -14 -14 -14t-14 14v162q0 14 14 14z" />
    <glyph glyph-name="numbersign" unicode="#" horiz-adv-x="458" 
d="M151 377l-19 -79q-2 -11 -13 -11q-14 0 -14 14q0 1 17 76h-39q-14 0 -14 14t14 14h46l20 86h-66q-14 0 -14 13q0 14 14 14h72l19 80q2 10 13 10q14 0 14 -14q0 -1 -17 -76h123l19 80q2 10 13 10q14 0 14 -14q0 -1 -17 -76h39q14 0 14 -14q0 -13 -14 -13h-46l-20 -86h66
q14 0 14 -14t-14 -14h-72l-19 -79q-2 -11 -13 -11q-14 0 -14 14q0 1 17 76h-123zM177 491l-20 -86h124l20 86h-124z" />
    <glyph glyph-name="dollar" unicode="$" horiz-adv-x="487" 
d="M83 176q12 0 14 -14q0 -10 2 -28q10 -64 63 -99q25 -17 62 -22v294q-155 51 -155 157q0 63 45.5 105.5t109.5 44.5q0 25 0 24q2 15 14 15t14 -16q0 2 0 -25q63 -8 101.5 -53t38.5 -108q0 -13 -14 -13q-10 0 -12.5 13t-6.5 37q-21 83 -107 96v-257q166 -59 166 -182
q0 -72 -46.5 -116t-119.5 -45v-103q0 -14 -14 -14t-14 14v104q-71 9 -113 57t-42 120q0 14 14 14zM224 586q-52 -2 -89.5 -36.5t-37.5 -85.5q0 -84 127 -128v250zM252 297v-285q61 1 99.5 37t38.5 97q0 99 -138 151z" />
    <glyph glyph-name="percent" unicode="%" horiz-adv-x="731" 
d="M200 271q-60 0 -98 59q-33 51 -33 114t33 114q38 59 98 59t97 -59q33 -51 33 -114t-33 -114q-37 -59 -97 -59zM200 589q-49 0 -78 -51q-25 -42 -25 -94t25 -94q29 -51 78 -51q48 0 77 51q25 42 25 94t-25 94q-29 51 -77 51zM401 144q0 63 32 114q38 58 98 58t98 -58
q33 -51 33 -114t-33 -114q-38 -59 -98 -59t-98 59q-32 51 -32 114zM531 289q-48 0 -78 -51q-25 -43 -25 -94q0 -52 25 -95q30 -50 78 -50t78 50q25 43 25 95q0 51 -25 94q-30 51 -78 51zM229 -12q-14 0 -14 14q0 3 280 591q4 8 13 8q13 0 13 -14q0 -3 -279 -591
q-4 -8 -13 -8z" />
    <glyph glyph-name="ampersand" unicode="&#x26;" horiz-adv-x="776" 
d="M303 -66q-169 0 -217 101q-17 36 -17 71q0 64 64 128q35 35 118 91q-74 91 -74 163q0 59 47 98q43 36 104 36q53 0 87.5 -31t34.5 -84q0 -57 -55 -110q-26 -25 -103 -78q91 -101 284 -231q47 68 47 147q0 13 -5 37.5t-5 33.5q0 14 14 14q23 0 23 -85q0 -88 -50 -163
q36 -22 101 -65q6 -5 6 -12q0 -14 -13 -14q-8 0 -111 69q-93 -116 -280 -116zM205 489q0 -64 68 -148q74 49 95 69q54 49 54 97q0 41 -26 64t-68 23q-49 0 -84 -28q-39 -30 -39 -77zM269 304q-78 -53 -110 -83q-62 -60 -62 -117q0 -74 69 -112q55 -30 136 -30q174 0 258 103
q-197 133 -291 239z" />
    <glyph glyph-name="quotesingle" unicode="'" horiz-adv-x="166" 
d="M83 610q14 0 14 -14v-162q0 -14 -14 -14t-14 14v162q0 14 14 14z" />
    <glyph glyph-name="parenleft" unicode="(" horiz-adv-x="308" 
d="M225 -207q-59 0 -101 94q-28 62 -42 144q-13 76 -13 161t13 162q14 81 42 144q42 94 101 94q14 0 14 -14t-14 -14q-46 0 -82 -91q-24 -60 -35 -130t-11 -151q0 -80 11 -150.5t35 -130.5q36 -91 82 -91q14 0 14 -13q0 -14 -14 -14z" />
    <glyph glyph-name="parenright" unicode=")" horiz-adv-x="308" 
d="M83 -207q59 0 101 94q28 62 42 144q13 76 13 161t-13 162q-14 81 -42 144q-42 94 -101 94q-14 0 -14 -14t14 -14q46 0 82 -91q24 -60 35 -130t11 -151q0 -80 -11 -150.5t-35 -130.5q-36 -91 -82 -91q-14 0 -14 -13q0 -14 14 -14z" />
    <glyph glyph-name="asterisk" unicode="*" horiz-adv-x="412" 
d="M83 340q-14 0 -14 14q0 7 6 12l111 74l-111 75q-6 5 -6 12q0 14 14 14q4 0 110 -72v115q0 14 14 14t14 -14v-120q104 71 108 71q14 0 14 -14q0 -7 -6 -12l-102 -69l102 -68q6 -5 6 -12q0 -14 -14 -14q-4 0 -108 71v-120q0 -14 -14 -14t-14 14v115q-106 -72 -110 -72z" />
    <glyph glyph-name="plus" unicode="+" horiz-adv-x="444" 
d="M208 307h-125q-14 0 -14 14t14 14h125v125q0 14 14 14t14 -14v-125h125q14 0 14 -14t-14 -14h-125v-125q0 -14 -14 -14t-14 14v125z" />
    <glyph glyph-name="comma" unicode="," horiz-adv-x="194" 
d="M125 20v-6q1 -20 -12 -56q-15 -40 -30 -40q-14 0 -14 14q12 24 26 66q-16 5 -16 22q0 23 23 23q22 0 23 -23z" />
    <glyph glyph-name="hyphen" unicode="-" horiz-adv-x="363" 
d="M83 310q-14 0 -14 14t14 14h198q13 0 13 -14t-13 -14h-198z" />
    <glyph glyph-name="hyphen" unicode="&#x2010;" horiz-adv-x="363" 
d="M83 310q-14 0 -14 14t14 14h198q13 0 13 -14t-13 -14h-198z" />
    <glyph glyph-name="period" unicode="." horiz-adv-x="184" 
d="M92 41q23 0 23 -22q0 -23 -23 -23t-23 23q0 22 23 22z" />
    <glyph glyph-name="slash" unicode="/" horiz-adv-x="342" 
d="M83 -12q-14 0 -14 14q0 2 177 592q3 10 13 10q14 0 14 -14q0 -2 -177 -592q-3 -10 -13 -10z" />
    <glyph glyph-name="zero" unicode="0" horiz-adv-x="542" 
d="M271 622q43 0 83 -26q62 -41 95 -130q29 -76 29 -161q0 -86 -29 -162q-33 -88 -95 -130q-40 -26 -83 -26q-44 0 -83 26q-62 42 -95 130q-29 76 -29 162q0 85 29 161q33 89 95 130q39 26 83 26zM271 15q35 0 67 22q56 37 86 119q26 70 26 149q0 78 -26 148q-30 83 -86 120
q-32 21 -67 21t-67 -21q-56 -37 -87 -120q-25 -70 -25 -148q0 -79 25 -149q31 -82 87 -119q32 -22 67 -22z" />
    <glyph glyph-name="one" unicode="1" horiz-adv-x="423" 
d="M237 29h41q14 0 14 -14t-14 -14h-109q-14 0 -14 14t14 14h40v535q-60 -41 -64 -41q-14 0 -14 14q0 7 6 11q82 56 86 56q14 0 14 -14v0v-561z" />
    <glyph glyph-name="two" unicode="2" horiz-adv-x="470" 
d="M235 616q71 0 121 -51t50 -123q0 -99 -78 -167q-74 -52 -147 -103q-81 -62 -86 -145h290q14 0 14 -14t-14 -14h-305l-5 1l-5 3l-3 5l-1 5q0 100 81 168q75 52 150 105q80 64 80 154q0 61 -41 104.5t-101 43.5t-101.5 -43t-41.5 -103q0 -14 -14 -14t-14 14q0 72 50 123
t121 51z" />
    <glyph glyph-name="three" unicode="3" horiz-adv-x="493" 
d="M316 325q51 -20 82 -64.5t31 -98.5q0 -74 -54 -125.5t-129 -51.5q-74 0 -128 51.5t-54 125.5q0 14 14 14t14 -14q0 -63 46 -106t108 -43q63 0 109 43t46 106q0 62 -46 105.5t-109 43.5q-13 0 -13 14t14 14q55 0 97 36t42 90t-42 90t-97 36q-56 0 -98 -36t-42 -90
q0 -14 -14 -14t-14 14q0 66 50.5 110t117.5 44q66 0 116.5 -44t50.5 -110q0 -46 -27 -83.5t-71 -56.5z" />
    <glyph glyph-name="four" unicode="4" horiz-adv-x="480" 
d="M344 331h58q14 0 14 -14t-14 -14h-58v-292q0 -14 -14 -14t-14 14v292h-238q-14 0 -14 14v3l49 283q2 12 14 12q15 0 14 -14v-2l-46 -268h221v270q0 14 14 14t14 -14v-270z" />
    <glyph glyph-name="five" unicode="5" horiz-adv-x="475" 
d="M238 419q78 0 128 -71q45 -63 45 -144t-45 -145q-50 -70 -128 -70q-76 0 -125 57t-49 135q0 37 17 37q12 0 12 -16v-11q-1 -7 -1 -10q0 -67 39 -114q42 -50 107 -50q66 0 108 62q37 55 37 125q0 69 -37 124q-42 63 -108 63q-67 0 -126 -58q-7 -6 -15 -3q-8 -3 -14 2
t-5 12l28 243q1 12 14 12h262q14 0 14 -14t-14 -14h-250l-23 -201q58 49 129 49z" />
    <glyph glyph-name="six" unicode="6" horiz-adv-x="495" 
d="M248 379q78 0 132 -59q51 -57 51 -136q0 -78 -51 -135q-54 -59 -132 -59q-70 0 -121 49t-60 119q-3 6 -3 46q0 102 37 194q39 98 111 162q64 57 101 57q14 0 14 -14q0 -9 -12 -13.5t-37 -16.5q-69 -39 -118 -118q-44 -73 -60 -157q55 81 148 81zM248 18q66 0 112 50
q43 49 43 116t-43 116q-46 51 -112 51t-110.5 -50t-44.5 -117t44.5 -116.5t110.5 -49.5z" />
    <glyph glyph-name="seven" unicode="7" horiz-adv-x="470" 
d="M77 599h315q14 0 14 -14q0 -2 -220 -582q-4 -9 -13 -9q-14 0 -14 14q0 2 212 563h-293q-14 0 -14 14t13 14z" />
    <glyph glyph-name="eight" unicode="8" horiz-adv-x="493" 
d="M316 329q51 -21 82 -65.5t31 -98.5q0 -74 -54 -125.5t-129 -51.5q-74 0 -128 51.5t-54 125.5q0 54 31 98.5t82 65.5q-44 18 -71 55.5t-27 83.5q0 66 50.5 110t117.5 44q66 0 116.5 -44t50.5 -110q0 -46 -27 -83.5t-71 -55.5zM107 468q0 -54 42 -90t98 -36q55 0 97 36
t42 90t-42 90t-97 36q-56 0 -98 -36t-42 -90zM246 16q63 0 109 43.5t46 105.5q0 63 -46 106t-109 43q-62 0 -108 -43t-46 -106q0 -62 46 -105.5t108 -43.5z" />
    <glyph glyph-name="nine" unicode="9" horiz-adv-x="493" 
d="M246 617q80 0 131.5 -54t51.5 -134q0 -101 -48 -207q-45 -98 -120 -177q-19 -19 -58 -52q-4 -3 -8 -3q-14 0 -14 14q0 6 5 11q19 16 55 51q111 118 146 261q-55 -64 -141 -64q-74 0 -128 51t-54 126q0 74 54 125.5t128 51.5zM246 291q63 0 109 43t46 106q0 62 -46 105
t-109 43q-62 0 -108 -43t-46 -105q0 -63 46 -106t108 -43z" />
    <glyph glyph-name="colon" unicode=":" horiz-adv-x="184" 
d="M92 41q23 0 23 -23t-23 -23t-23 23t23 23zM92 281q-23 0 -23 23q0 22 23 22t23 -22q0 -23 -23 -23z" />
    <glyph glyph-name="semicolon" unicode=";" horiz-adv-x="194" 
d="M102 281q-23 0 -23 23q0 22 23 22t23 -22q0 -23 -23 -23zM125 20v-6q1 -20 -12 -56q-15 -40 -30 -40q-14 0 -14 14q12 24 26 66q-16 5 -16 22q0 23 23 23q22 0 23 -23z" />
    <glyph glyph-name="less" unicode="&#x3c;" horiz-adv-x="385" 
d="M302 161q-4 0 -8 2l-219 147q-6 4 -6 16q0 7 6 12l219 146q4 3 8 3q14 0 14 -14q0 -8 -6 -12l-206 -137l206 -138q6 -4 6 -11q0 -14 -14 -14z" />
    <glyph glyph-name="equal" unicode="=" horiz-adv-x="444" 
d="M83 366q-14 0 -14 14t14 14h278q14 0 14 -14t-14 -14h-278zM83 261q-14 0 -14 14t14 14h278q14 0 14 -14t-14 -14h-278z" />
    <glyph glyph-name="greater" unicode="&#x3e;" horiz-adv-x="385" 
d="M83 161q4 0 8 2l219 147q6 4 6 16q0 7 -6 12l-219 146q-4 3 -8 3q-14 0 -14 -14q0 -8 6 -12l206 -137l-206 -138q-6 -4 -6 -11q0 -14 14 -14z" />
    <glyph glyph-name="question" unicode="?" horiz-adv-x="482" 
d="M69 449q0 76 49 122t126 46q71 0 120 -44t49 -115q0 -58 -36 -101q-17 -20 -82 -70q-40 -31 -54.5 -61.5t-14.5 -81.5q0 -27 -13 -27q-15 0 -15 20v7q0 58 17.5 94t62.5 71q61 47 73 61q34 37 34 87q0 59 -41 95.5t-101 36.5q-63 0 -104.5 -37t-41.5 -99q0 -17 -13 -17
q-15 0 -15 13zM211 41q23 0 23 -23t-23 -23t-23 23t23 23z" />
    <glyph glyph-name="at" unicode="@" horiz-adv-x="860" 
d="M470 596q138 0 229.5 -91.5t91.5 -229.5q0 -191 -123 -283q-56 -42 -103 -42q-41 0 -41 45q0 4 10 77q-58 -85 -149 -85q-61 0 -100 43t-39 106q0 75 54.5 135.5t129.5 60.5q93 0 128 -88l10 70q2 12 16 12t11 -16l-42 -304q-2 -8 -2 -11q0 -17 14 -17q91 0 149 109
q49 91 49 188q0 126 -83 209.5t-210 83.5q-55 0 -106 -18q-123 -43 -195 -144.5t-72 -231.5q0 -149 99.5 -250t249.5 -101q152 0 232 101q5 6 11 6q14 0 14 -14q0 -4 -2 -8q-36 -55 -114 -86q-68 -27 -142 -27q-160 0 -268 109.5t-108 270.5q0 138 77 246.5t208 154.5
q56 20 116 20zM385 15q64 0 110.5 52t46.5 116q0 51 -31 86t-81 35q-63 0 -109.5 -52t-46.5 -116q0 -51 30.5 -86t80.5 -35z" />
    <glyph glyph-name="A" unicode="A" horiz-adv-x="550" 
d="M78 -7q-14 0 -14 14q0 2 197 603q3 9 14 9t14 -9q197 -601 197 -603q0 -14 -14 -14q-10 0 -14 10l-75 230h-216l-76 -230q-3 -10 -13 -10zM275 562l-99 -301h198z" />
    <glyph glyph-name="B" unicode="B" horiz-adv-x="464" 
d="M84 -6q-15 0 -15 16v589q0 14 14 14h136q59 0 99 -45.5t40 -106.5q0 -91 -74 -134q51 -18 83.5 -62.5t32.5 -98.5q0 -72 -52 -122t-124 -50h-140zM372 166q0 60 -44 102t-104 42h-127v-288h127q60 0 104 42t44 102zM330 461q0 49 -31.5 86.5t-79.5 37.5h-122v-247h121
q48 0 80 37t32 86z" />
    <glyph glyph-name="C" unicode="C" horiz-adv-x="509" 
d="M271 -12q-44 0 -83 26q-62 41 -95 130q-29 76 -29 161q0 86 29 162q33 88 95 130q39 26 83 26q87 0 148 -95q26 -41 26 -53q0 -14 -14 -14q-9 0 -13 9q-62 125 -147 125q-35 0 -67 -22q-56 -37 -87 -119q-25 -70 -25 -149q0 -78 25 -148q31 -82 87 -120q32 -21 67 -21
q85 0 147 125q4 9 13 9q14 0 14 -14q0 -12 -26 -53q-61 -95 -148 -95z" />
    <glyph glyph-name="D" unicode="D" horiz-adv-x="486" 
d="M83 -6q-14 0 -14 14v588q0 15 15 15h144q65 0 116 -62q42 -50 62 -123q16 -58 16 -123q0 -64 -16 -123q-20 -73 -62 -123q-51 -61 -116 -61h-139q-3 -2 -6 -2zM394 303q0 61 -15 115q-17 64 -51 108q-44 57 -100 57h-131v-559h131q56 0 100 56q34 44 51 108q15 55 15 115
z" />
    <glyph glyph-name="E" unicode="E" horiz-adv-x="431" 
d="M83 -3q-14 0 -14 14v586q0 14 14 14h270q14 0 14 -14t-14 -14h-256v-242h167q14 0 14 -14t-14 -14h-167v-288h256q14 0 14 -14t-14 -14h-270z" />
    <glyph glyph-name="F" unicode="F" horiz-adv-x="431" 
d="M83 -4q-14 0 -14 14v586q0 14 14 14h270q14 0 14 -14t-14 -14h-256v-242h167q14 0 14 -14t-14 -14h-167v-302q0 -14 -14 -14z" />
    <glyph glyph-name="G" unicode="G" horiz-adv-x="542" 
d="M271 -11q-44 0 -83 26q-62 42 -95 130q-29 76 -29 162q0 85 29 161q33 89 95 130q39 26 83 26q87 0 148 -95q26 -41 26 -53q0 -14 -14 -14q-9 0 -13 9q-7 14 -23 43q-52 82 -124 82q-35 0 -67 -21q-56 -38 -87 -120q-25 -70 -25 -148q0 -79 25 -149q31 -82 87 -120
q32 -21 67 -21q63 0 111 64q39 51 56 121q9 41 11 91h-129q-14 0 -14 14t14 14h144q14 0 14 -14q0 -86 -29 -162q-33 -88 -95 -130q-40 -26 -83 -26z" />
    <glyph glyph-name="H" unicode="H" horiz-adv-x="457" 
d="M83 -5q-14 0 -14 14v590q0 14 14 14t14 -14v-262h263v262q0 14 14 14t14 -14v-590q0 -14 -14 -14t-14 14v300h-263v-300q0 -14 -14 -14z" />
    <glyph glyph-name="I" unicode="I" horiz-adv-x="266" 
d="M64 17q0 14 14 14h41v545h-41q-14 0 -14 14t14 14h110q14 0 14 -14t-14 -14h-41v-545h41q14 0 14 -14t-14 -14h-110q-14 0 -14 14z" />
    <glyph glyph-name="J" unicode="J" horiz-adv-x="543" 
d="M232 -10q-68 0 -118 46.5t-50 114.5q0 14 14 14t14 -14q0 -56 42 -94.5t98 -38.5q141 0 141 168v388q0 3 1 5h-67q-14 0 -14 14t14 14h158q14 0 14 -14t-14 -14h-65q1 -2 1 -393q0 -196 -169 -196z" />
    <glyph glyph-name="K" unicode="K" horiz-adv-x="490" 
d="M83 -4q-14 0 -14 14v590q0 14 14 14t14 -14v-287l286 296q4 5 10 5q14 0 14 -14q0 -6 -4 -10l-205 -213q228 -365 228 -369q0 -14 -14 -14q-8 0 -12 7l-222 355l-81 -84v-262q0 -14 -14 -14z" />
    <glyph glyph-name="L" unicode="L" horiz-adv-x="431" 
d="M83 0q-14 0 -14 14v585q0 14 14 14t14 -14v-571h256q14 0 14 -14t-14 -14h-270z" />
    <glyph glyph-name="M" unicode="M" horiz-adv-x="594" 
d="M83 -6q-14 0 -14 14v587q0 14 14 14q11 0 16 -13l198 -540l200 544q3 9 14 9q14 0 14 -14v-587q0 -14 -14 -14t-14 14v510l-185 -504q0 -15 -14 -15q-10 0 -13 10l-188 511v-512q0 -14 -14 -14z" />
    <glyph glyph-name="N" unicode="N" horiz-adv-x="458" 
d="M389 10q0 -14 -14 -14q-9 0 -12 8l-266 534v-530q0 -14 -14 -14t-14 14v590q0 14 14 14q9 0 13 -8l265 -534v530q0 14 14 14t14 -14v-590z" />
    <glyph glyph-name="O" unicode="O" horiz-adv-x="542" 
d="M271 622q43 0 83 -26q62 -41 95 -130q29 -76 29 -161q0 -86 -29 -162q-33 -88 -95 -130q-40 -26 -83 -26q-44 0 -83 26q-62 42 -95 130q-29 76 -29 162q0 85 29 161q33 89 95 130q39 26 83 26zM271 15q35 0 67 22q56 37 86 119q26 70 26 149q0 78 -26 148q-30 83 -86 120
q-32 21 -67 21t-67 -21q-56 -37 -87 -120q-25 -70 -25 -148q0 -79 25 -149q31 -82 87 -119q32 -22 67 -22z" />
    <glyph glyph-name="P" unicode="P" horiz-adv-x="449" 
d="M212 611q71 0 122 -50.5t51 -121.5t-51 -121.5t-122 -50.5h-115v-259q0 -14 -14 -14t-14 14v589q0 14 14 14h129zM212 295q60 0 102.5 42t42.5 102t-42.5 102t-102.5 42h-115v-288h115z" />
    <glyph glyph-name="Q" unicode="Q" horiz-adv-x="542" 
d="M271 621q43 0 83 -26q62 -41 95 -130q29 -75 29 -161q0 -138 -63 -229q50 -67 50 -72q0 -14 -14 -14q-7 0 -11 6l-43 57q-55 -66 -126 -66q-44 0 -83 26q-62 42 -95 130q-29 76 -29 162q0 85 29 161q33 89 95 130q39 26 83 26zM397 99q53 85 53 205q0 78 -26 148
q-30 83 -86 120q-32 21 -67 21t-67 -21q-56 -37 -87 -120q-25 -70 -25 -148t25 -148q31 -83 87 -120q32 -22 67 -22q60 0 109 61q-55 74 -55 79q0 14 14 14q7 0 11 -6z" />
    <glyph glyph-name="R" unicode="R" horiz-adv-x="445" 
d="M258 271q136 -258 136 -261q0 -14 -14 -14q-8 0 -12 7l-139 263q-9 -1 -132 -1v-256q0 -14 -14 -14t-14 14v584q0 14 14 14h129q71 0 122 -50t51 -121q0 -58 -35.5 -104t-91.5 -61zM212 293q60 0 102.5 42t42.5 101t-42.5 101t-102.5 42h-115v-286h115z" />
    <glyph glyph-name="S" unicode="S" horiz-adv-x="480" 
d="M92 469q0 -56 47 -90q29 -21 97 -44q180 -61 180 -187q0 -74 -48 -118.5t-122 -44.5q-80 0 -131 50t-51 129q0 14 14 14q12 0 14 -14q0 -9 2 -26q9 -66 64 -101q36 -24 87 -24q63 0 103 36.5t40 98.5q0 107 -161 160q-76 25 -111 54q-52 41 -52 107q0 64 47.5 107.5
t112.5 43.5q72 0 119 -46.5t47 -117.5q0 -14 -15 -14q-10 0 -14 14q0 13 -5 39q-25 94 -127 96l-5 1q-53 1 -92.5 -35t-39.5 -88z" />
    <glyph glyph-name="T" unicode="T" horiz-adv-x="464" 
d="M386 604q14 0 14 -14t-14 -14h-140v-564q0 -14 -14 -14t-14 14v564h-140q-14 0 -14 14t14 14h308z" />
    <glyph glyph-name="U" unicode="U" horiz-adv-x="505" 
d="M422 615q14 0 14 -14v-442q0 -81 -50.5 -126t-132.5 -45q-81 0 -132.5 45.5t-51.5 125.5v442q0 14 14 14t14 -14v-442q0 -68 45 -107q41 -36 111 -36t112.5 37t42.5 106v442q0 14 14 14z" />
    <glyph glyph-name="V" unicode="V" horiz-adv-x="550" 
d="M472 611q14 0 14 -14q0 -2 -197 -608q-3 -9 -14 -9t-14 9q-197 606 -197 608q0 14 14 14q10 0 13 -9l184 -565l183 565q4 9 14 9z" />
    <glyph glyph-name="W" unicode="W" horiz-adv-x="840" 
d="M762 612q14 0 14 -14q0 -2 -171 -608q-2 -10 -14 -10q-11 0 -14 10l-157 557l-157 -557q-3 -10 -14 -10t-14 10q-171 606 -171 608q0 14 14 14q11 0 14 -11l157 -557l157 557q3 10 14 10t14 -10l157 -557l158 557q3 11 13 11z" />
    <glyph glyph-name="X" unicode="X" horiz-adv-x="484" 
d="M406 609q14 0 14 -14q0 -3 -162 -291q162 -289 162 -292q0 -14 -14 -14q-8 0 -13 7l-151 270l-152 -270q-4 -7 -12 -7q-14 0 -14 14q0 3 162 292q-162 288 -162 291q0 14 14 14q8 0 12 -7l152 -270l151 270q5 7 13 7z" />
    <glyph glyph-name="Y" unicode="Y" horiz-adv-x="478" 
d="M400 611q14 0 14 -14q0 -4 -161 -308v-279q0 -14 -14 -14t-14 14v280q-161 303 -161 307q0 14 14 14q8 0 12 -8l149 -280l149 280q4 8 12 8z" />
    <glyph glyph-name="Z" unicode="Z" horiz-adv-x="485" 
d="M421 589q0 -3 -319 -556h295q14 0 14 -14t-14 -14h-319q-14 0 -14 14q0 4 319 556h-294q-14 0 -14 14t14 14h318q14 0 14 -14z" />
    <glyph glyph-name="bracketleft" unicode="[" horiz-adv-x="6631" 
d="M6393 587q0 -14 -14 -14h-124v-745h124q14 0 14 -14t-14 -14h-138q-14 0 -14 14v773q0 14 14 14h138q14 0 14 -14z" />
    <glyph glyph-name="backslash" unicode="\" horiz-adv-x="6631" 
d="M3887 -12q-14 0 -14 14q0 2 177 592q3 10 13 10q14 0 14 -14q0 -2 -177 -592q-3 -10 -13 -10z" />
    <glyph glyph-name="bracketright" unicode="]" horiz-adv-x="6631" 
d="M6227 587q0 -14 14 -14h125v-745h-125q-14 0 -14 -14t14 -14h138q14 0 14 14v773q0 14 -14 14h-138q-14 0 -14 -14z" />
    <glyph glyph-name="asciicircum" unicode="^" horiz-adv-x="6631" 
d="M4407 342q-9 0 -12 8l-94 196l-94 -196q-3 -8 -12 -8q-14 0 -14 14q0 3 106 225q3 8 14 8t14 -8q106 -222 106 -225q0 -14 -14 -14z" />
    <glyph glyph-name="underscore" unicode="_" horiz-adv-x="519" 
d="M69 -40h381v-14h-381v14z" />
    <glyph glyph-name="grave" unicode="`" horiz-adv-x="258" 
d="M83 590q6 0 10 -4l92 -92q4 -4 4 -10q0 -14 -14 -14q-6 0 -10 4l-92 92q-4 4 -4 10q0 14 14 14z" />
    <glyph glyph-name="a" unicode="a" horiz-adv-x="462" 
d="M379 329q14 0 14 -14v-305q0 -14 -14 -14t-14 14v64q-47 -87 -140 -87q-69 0 -115 52t-46 122t46 122t115 52q93 0 140 -87v67q0 14 14 14zM225 15q57 0 95 44t38 102t-38 102t-95 44t-95 -44t-38 -102t38 -102t95 -44z" />
    <glyph glyph-name="b" unicode="b" horiz-adv-x="462" 
d="M237 333q68 0 116 -54q45 -51 45 -120q0 -70 -45 -121q-48 -53 -116 -53q-93 0 -140 87v-65q0 -14 -14 -14t-14 14v586q0 14 14 14t14 -14v-348q47 88 140 88zM237 13q57 0 95 44t38 102t-38 102t-95 44t-95.5 -44t-38.5 -102t38.5 -102t95.5 -44z" />
    <glyph glyph-name="c" unicode="c" horiz-adv-x="426" 
d="M362 72q0 -4 -3 -8v0q-48 -77 -134 -77q-69 0 -115 52t-46 122t46 122t115 52q67 0 115 -51q20 -23 20 -32q0 -14 -14 -14q-6 0 -11 5q-39 64 -110 64q-57 0 -95 -44t-38 -102t38 -102t95 -44q32 0 63 17.5t46 44.5q5 9 13 9q15 0 15 -14z" />
    <glyph glyph-name="d" unicode="d" horiz-adv-x="462" 
d="M379 608q14 0 14 -14v-585q0 -14 -14 -14t-14 14v64q-47 -87 -140 -87q-68 0 -114.5 52t-46.5 122q0 69 46 121.5t115 52.5q93 0 140 -88v348q0 14 14 14zM225 14q57 0 95 44t38 102t-38 102t-95 44t-95 -44t-38 -102t38 -102t95 -44z" />
    <glyph glyph-name="e" unicode="e" horiz-adv-x="451" 
d="M225 335q69 0 115.5 -52t46.5 -122q0 -14 -15 -14h-279q5 -54 42 -93t90 -39q73 0 115 59q5 7 12 7q14 0 14 -14q0 -4 -2 -7q-42 -73 -139 -73q-68 0 -114.5 52t-46.5 122t46 122t115 52zM93 175h264q-5 54 -42 93t-90 39t-90 -39t-42 -93z" />
    <glyph glyph-name="f" unicode="f" horiz-adv-x="431" 
d="M285 328q0 -14 -14 -14h-101v-307q0 -14 -14 -14t-14 14v307h-64q-14 0 -14 14t14 14h64v163q0 50 30 77t81 27q28 0 63 -16.5t48 -38.5q3 -5 3 -9q0 -14 -14 -14l-32 25t-67 25q-84 0 -84 -70v-169h101q14 0 14 -14z" />
    <glyph glyph-name="g" unicode="g" horiz-adv-x="457" 
d="M374 328q14 0 14 -14v-400q0 -9 -7 -26q-34 -84 -149 -84q-31 0 -69 13q-44 14 -61 35q-5 5 -5 10q0 14 14 14q-3 0 38 -22t83 -22q94 0 122 62q6 13 6 20v153q-48 -79 -135 -79q-69 0 -115 52.5t-46 121.5q0 70 46 122t115 52q87 0 135 -79v57q0 14 14 14zM225 16
q57 0 95 44t38 102t-38 102t-95 44t-95 -44t-38 -102t38 -102t95 -44z" />
    <glyph glyph-name="h" unicode="h" horiz-adv-x="407" 
d="M214 334q59 0 95 -46q34 -42 34 -102v-178q0 -14 -14 -14t-14 14v178q0 49 -26 82q-28 38 -75 38q-61 0 -93 -47q-29 -43 -25 -105q1 -13 1 -12v-134q0 -14 -14 -14t-14 14v585q0 14 14 14t14 -14v-331q40 72 117 72z" />
    <glyph glyph-name="i" unicode="i" horiz-adv-x="184" 
d="M115 424q0 -22 -23 -22t-23 22q0 23 23 23t23 -23zM92 326q14 0 14 -14v-304q0 -14 -14 -14t-14 14v304q0 14 14 14z" />
    <glyph glyph-name="j" unicode="j" horiz-adv-x="190" 
d="M121 424q0 -22 -22 -22q-23 0 -23 22q0 23 23 23q22 0 22 -23zM99 326q14 0 14 -14v-377q0 -55 -28 -90q-29 -39 -82 -39q-14 0 -14 14q0 13 14 14q46 4 65 34q17 27 17 70v374q0 14 14 14z" />
    <glyph glyph-name="k" unicode="k" horiz-adv-x="364" 
d="M177 203l134 -188q2 -4 2 -8q0 -14 -14 -14q-7 0 -11 6l-133 186l-58 -48v-130q0 -14 -14 -14t-14 14v586q0 14 14 14t14 -14v-419l188 154q4 4 9 4q14 0 14 -14q0 -7 -5 -11z" />
    <glyph glyph-name="l" unicode="l" horiz-adv-x="166" 
d="M83 607q14 0 14 -14v-586q0 -14 -14 -14t-14 14v586q0 14 14 14z" />
    <glyph glyph-name="m" unicode="m" horiz-adv-x="652" 
d="M459 334q59 0 94 -43.5t35 -103.5v-179q0 -14 -14 -14t-14 14v179q0 49 -26 82q-27 37 -75 37q-58 0 -90 -53q-26 -45 -26 -107v-138q0 -14 -14 -14t-14 14v179q0 49 -26 82q-28 37 -75 37q-61 0 -92 -44q-27 -41 -25 -112v-7v-135q0 -14 -14 -14t-14 14v306q0 14 14 14
t14 -14v-51q40 71 117 71q89 0 119 -89q39 89 126 89z" />
    <glyph glyph-name="n" unicode="n" horiz-adv-x="406" 
d="M213 336q59 0 95 -46q34 -42 34 -102v-178q0 -14 -14 -14t-14 14v178q0 49 -27 84.5t-74 35.5q-59 0 -90 -48q-26 -42 -26 -111v-140q0 -14 -14 -14t-14 14v306q0 14 14 14t14 -14v-49q41 70 116 70z" />
    <glyph glyph-name="o" unicode="o" horiz-adv-x="451" 
d="M225 336q69 0 115.5 -52.5t46.5 -121.5q0 -70 -46.5 -122t-115.5 -52t-115 52t-46 122q0 69 46 121.5t115 52.5zM225 16q57 0 95 44t38 102t-38 101.5t-95 43.5t-95 -43.5t-38 -101.5t38 -102t95 -44z" />
    <glyph glyph-name="p" unicode="p" horiz-adv-x="462" 
d="M237 335q68 0 116 -53q45 -51 45 -121t-45 -121q-48 -53 -116 -53q-93 0 -140 87v-257q0 -14 -14 -14t-14 14v498q0 14 14 14t14 -14v-68q47 88 140 88zM237 15q57 0 95 44t38 102t-38 102t-95 44t-95.5 -44t-38.5 -102t38.5 -102t95.5 -44z" />
    <glyph glyph-name="q" unicode="q" horiz-adv-x="462" 
d="M379 329q14 0 14 -14v-498q0 -14 -14 -14t-14 14v257q-47 -87 -140 -87q-69 0 -115 52t-46 122t46 122t115 52q93 0 140 -87v67q0 14 14 14zM225 15q57 0 95 44t38 102t-38 102t-95 44t-95 -44t-38 -102t38 -102t95 -44z" />
    <glyph glyph-name="r" unicode="r" horiz-adv-x="293" 
d="M214 328q15 0 15 -13t-13 -15q-59 -8 -90 -54q-29 -41 -29 -103v-134q0 -14 -14 -14t-14 14v305q0 14 14 14t14 -14v-62q19 32 49 53q34 23 68 23z" />
    <glyph glyph-name="s" unicode="s" horiz-adv-x="401" 
d="M96 249q0 -35 62 -51l116 -28q63 -25 63 -80q0 -49 -45 -79q-39 -25 -90 -25q-57 0 -94 22q-44 28 -44 81q0 23 17 23q11 0 11 -16q0 -82 110 -82q40 0 70 17q37 22 37 59q0 42 -63 60l-116 28q-62 21 -62 70q0 45 44 67q34 17 84 17q55 0 90 -21q43 -26 43 -77
q0 -13 -15 -13q-12 0 -13 15q-2 24 -16 40q-24 28 -89 28q-100 0 -100 -55z" />
    <glyph glyph-name="t" unicode="t" horiz-adv-x="303" 
d="M164 328h75q14 0 14 -14t-14 -14h-75v-294q0 -14 -14 -14t-14 14v294h-72q-14 0 -14 14t14 14h72v108q0 14 14 14t14 -14v-108z" />
    <glyph glyph-name="u" unicode="u" horiz-adv-x="406" 
d="M323 326q14 0 14 -14v-306q0 -14 -14 -14t-14 14v58q-39 -79 -116 -79q-59 0 -95 46q-34 42 -34 102v179q0 14 14 14t14 -14v-179q0 -49 25 -82q28 -38 76 -38q116 0 116 185v114q0 14 14 14z" />
    <glyph glyph-name="v" unicode="v" horiz-adv-x="402" 
d="M324 328q14 0 14 -14q0 -3 -122 -319q-3 -9 -15 -9t-15 9q-122 316 -122 319q0 14 14 14q10 0 13 -9l110 -286l110 286q4 9 13 9z" />
    <glyph glyph-name="w" unicode="w" horiz-adv-x="614" 
d="M536 330q14 0 14 -14q0 -2 -113 -318q-3 -9 -15 -9t-15 9l-100 280l-100 -280q-3 -9 -15 -9t-15 9q-113 316 -113 318q0 14 14 14q10 0 13 -9l101 -283l101 283q3 9 14 9t15 -9l100 -283l101 283q3 9 13 9z" />
    <glyph glyph-name="x" unicode="x" horiz-adv-x="366" 
d="M288 329q14 0 14 -14q0 -4 -2 -8l-100 -145l100 -146q2 -4 2 -8q0 -14 -14 -14q-7 0 -11 6l-94 137l-93 -137q-5 -6 -12 -6q-14 0 -14 14q0 4 2 8l100 146l-100 145q-2 4 -2 8q0 14 14 14q7 0 12 -6l93 -136l94 136q4 6 11 6z" />
    <glyph glyph-name="y" unicode="y" horiz-adv-x="408" 
d="M330 329q14 0 14 -14q0 -2 -196 -506q-3 -9 -13 -9q-14 0 -14 14q0 3 72 188q-3 3 -66 155.5t-63 157.5q0 14 14 14q9 0 13 -8l116 -283l110 282q4 9 13 9z" />
    <glyph glyph-name="z" unicode="z" horiz-adv-x="398" 
d="M334 304q0 -5 -4 -9l-222 -264h201q14 0 14 -14t-14 -14h-231q-14 0 -14 14q0 6 3 9l222 264h-201q-14 0 -14 14t14 14h232q14 0 14 -14z" />
    <glyph glyph-name="braceleft" unicode="{" horiz-adv-x="370" 
d="M301 595q0 -14 -14 -14h-70q-24 0 -40 -17.5t-16 -41.5v-250q0 -51 -14 -67q14 -15 14 -67v-250q0 -24 16 -41.5t40 -17.5h70q14 0 14 -14t-14 -14h-70q-35 0 -59.5 26t-24.5 61v250q0 35 -2 40q-5 13 -33 13h-19q-10 3 -10 14q0 15 13 15q39 0 45 5.5t6 46.5v250
q0 36 24.5 61.5t59.5 25.5h70q14 0 14 -14z" />
    <glyph glyph-name="bar" unicode="|" horiz-adv-x="166" 
d="M69 597q0 14 14 14t14 -14v-783q0 -14 -14 -14t-14 14v783z" />
    <glyph glyph-name="braceright" unicode="}" horiz-adv-x="370" 
d="M69 595q0 -14 14 -14h70q23 0 39.5 -17.5t16.5 -41.5v-250q0 -51 14 -67q-14 -15 -14 -67v-250q0 -24 -16.5 -41.5t-39.5 -17.5h-70q-14 0 -14 -14t14 -14h70q35 0 59.5 26t24.5 61v250q0 35 2 40q5 13 32 13h20q10 3 10 14q0 15 -13 15q-39 0 -45 5.5t-6 46.5v250
q0 36 -24.5 61.5t-59.5 25.5h-70q-14 0 -14 -14z" />
    <glyph glyph-name="asciitilde" unicode="~" horiz-adv-x="478" 
d="M394 355q15 0 15 -18q0 -43 -17 -71q-21 -33 -61 -33q-48 0 -95.5 49.5t-80.5 49.5q-58 0 -58 -77q0 -14 -14 -14t-14 14q0 44 21 72q23 33 65 33q45 0 92 -49.5t84 -49.5q50 0 50 76q0 18 13 18z" />
    <glyph glyph-name="Adieresis" unicode="&#xc4;" horiz-adv-x="550" 
d="M78 -7q-14 0 -14 14q0 2 197 603q3 9 14 9t14 -9q197 -601 197 -603q0 -14 -14 -14q-10 0 -14 10l-75 230h-216l-76 -230q-3 -10 -13 -10zM275 562l-99 -301h198zM232 701q23 0 23 -23t-23 -23t-23 23t23 23zM348 678q0 -23 -23 -23t-23 23t23 23t23 -23z" />
    <glyph glyph-name="Aring" unicode="&#xc5;" horiz-adv-x="550" 
d="M78 -7q-14 0 -14 14q0 2 197 603q3 9 14 9t14 -9q197 -601 197 -603q0 -14 -14 -14q-10 0 -14 10l-75 230h-216l-76 -230q-3 -10 -13 -10zM275 562l-99 -301h198zM272 791q38 0 65 -27.5t27 -65.5t-27 -65.5t-65 -27.5q-39 0 -66 27.5t-27 65.5t27 65.5t66 27.5zM272 626
q29 0 50 21.5t21 50.5t-21 50.5t-50 21.5q-30 0 -51 -21.5t-21 -50.5t21 -50.5t51 -21.5z" />
    <glyph glyph-name="Ccedilla" unicode="&#xc7;" horiz-adv-x="509" 
d="M271 -12q-44 0 -83 26q-62 41 -95 130q-29 76 -29 161q0 86 29 162q33 88 95 130q39 26 83 26q87 0 148 -95q26 -41 26 -53q0 -14 -14 -14q-9 0 -13 9q-62 125 -147 125q-35 0 -67 -22q-56 -37 -87 -119q-25 -70 -25 -149q0 -78 25 -148q31 -82 87 -120q32 -21 67 -21
q85 0 147 125q4 9 13 9q14 0 14 -14q0 -12 -26 -53q-61 -95 -148 -95zM256 -151q0 11 13 13q19 3 39 22.5t20 38.5q0 12 -9 12q-12 0 -32.5 -12t-23.5 -12q-14 0 -14 15l12 73q2 11 14 11q14 0 14 -14q0 -1 -7 -44q21 11 38 11q36 0 36 -40q0 -29 -29 -59t-58 -30
q-13 0 -13 15z" />
    <glyph glyph-name="Eacute" unicode="&#xc9;" horiz-adv-x="431" 
d="M83 -3q-14 0 -14 14v586q0 14 14 14h270q14 0 14 -14t-14 -14h-256v-242h167q14 0 14 -14t-14 -14h-167v-288h256q14 0 14 -14t-14 -14h-270zM179 653q0 6 4 10l93 93q4 4 10 4q14 0 14 -14q0 -5 -4 -9l-93 -93q-4 -5 -10 -5q-14 0 -14 14z" />
    <glyph glyph-name="Ntilde" unicode="&#xd1;" horiz-adv-x="458" 
d="M389 10q0 -14 -14 -14q-9 0 -12 8l-266 534v-530q0 -14 -14 -14t-14 14v590q0 14 14 14q9 0 13 -8l265 -534v530q0 14 14 14t14 -14v-590zM139 655q0 32 11 55q15 29 43 29q26 0 49.5 -36.5t37.5 -36.5q18 0 21 58q1 15 14 15q14 0 14 -14q0 -87 -51 -87
q-26 0 -50.5 36.5t-35.5 36.5q-20 0 -25 -56q-1 -14 -14 -14q-14 0 -14 14z" />
    <glyph glyph-name="Odieresis" unicode="&#xd6;" horiz-adv-x="542" 
d="M271 622q43 0 83 -26q62 -41 95 -130q29 -76 29 -161q0 -86 -29 -162q-33 -88 -95 -130q-40 -26 -83 -26q-44 0 -83 26q-62 42 -95 130q-29 76 -29 162q0 85 29 161q33 89 95 130q39 26 83 26zM271 15q35 0 67 22q56 37 86 119q26 70 26 149q0 78 -26 148q-30 83 -86 120
q-32 21 -67 21t-67 -21q-56 -37 -87 -120q-25 -70 -25 -148q0 -79 25 -149q31 -82 87 -119q32 -22 67 -22zM222 701q23 0 23 -23t-23 -23t-23 23t23 23zM338 678q0 -23 -23 -23t-23 23t23 23t23 -23z" />
    <glyph glyph-name="Udieresis" unicode="&#xdc;" horiz-adv-x="505" 
d="M422 615q14 0 14 -14v-442q0 -81 -50.5 -126t-132.5 -45q-81 0 -132.5 45.5t-51.5 125.5v442q0 14 14 14t14 -14v-442q0 -68 45 -107q41 -36 111 -36t112.5 37t42.5 106v442q0 14 14 14zM202 701q23 0 23 -23t-23 -23t-23 23t23 23zM318 678q0 -23 -23 -23t-23 23t23 23
t23 -23z" />
    <glyph glyph-name="aacute" unicode="&#xe1;" horiz-adv-x="462" 
d="M379 329q14 0 14 -14v-305q0 -14 -14 -14t-14 14v64q-47 -87 -140 -87q-69 0 -115 52t-46 122t46 122t115 52q93 0 140 -87v67q0 14 14 14zM225 15q57 0 95 44t38 102t-38 102t-95 44t-95 -44t-38 -102t38 -102t95 -44zM199 373q0 6 4 10l93 93q4 4 10 4q14 0 14 -14
q0 -5 -4 -9l-93 -93q-4 -5 -10 -5q-14 0 -14 14z" />
    <glyph glyph-name="agrave" unicode="&#xe0;" horiz-adv-x="462" 
d="M379 329q14 0 14 -14v-305q0 -14 -14 -14t-14 14v64q-47 -87 -140 -87q-69 0 -115 52t-46 122t46 122t115 52q93 0 140 -87v67q0 14 14 14zM225 15q57 0 95 44t38 102t-38 102t-95 44t-95 -44t-38 -102t38 -102t95 -44zM183 480q6 0 10 -4l92 -92q4 -4 4 -10
q0 -14 -14 -14q-6 0 -10 4l-92 92q-4 4 -4 10q0 14 14 14z" />
    <glyph glyph-name="acircumflex" unicode="&#xe2;" horiz-adv-x="462" 
d="M379 329q14 0 14 -14v-305q0 -14 -14 -14t-14 14v64q-47 -87 -140 -87q-69 0 -115 52t-46 122t46 122t115 52q93 0 140 -87v67q0 14 14 14zM225 15q57 0 95 44t38 102t-38 102t-95 44t-95 -44t-38 -102t38 -102t95 -44zM292 357q14 0 14 14q0 5 -61 97q-4 6 -13 6
q-8 0 -12 -6q-61 -92 -61 -97q0 -14 14 -14q8 0 12 7l47 72l48 -72q4 -7 12 -7z" />
    <glyph glyph-name="adieresis" unicode="&#xe4;" horiz-adv-x="462" 
d="M379 329q14 0 14 -14v-305q0 -14 -14 -14t-14 14v64q-47 -87 -140 -87q-69 0 -115 52t-46 122t46 122t115 52q93 0 140 -87v67q0 14 14 14zM225 15q57 0 95 44t38 102t-38 102t-95 44t-95 -44t-38 -102t38 -102t95 -44zM172 421q23 0 23 -23t-23 -23t-23 23t23 23z
M288 398q0 -23 -23 -23t-23 23t23 23t23 -23z" />
    <glyph glyph-name="atilde" unicode="&#xe3;" horiz-adv-x="462" 
d="M379 329q14 0 14 -14v-305q0 -14 -14 -14t-14 14v64q-47 -87 -140 -87q-69 0 -115 52t-46 122t46 122t115 52q93 0 140 -87v67q0 14 14 14zM225 15q57 0 95 44t38 102t-38 102t-95 44t-95 -44t-38 -102t38 -102t95 -44zM129 385q0 32 11 55q15 29 43 29q26 0 49.5 -36.5
t37.5 -36.5q18 0 21 58q1 15 14 15q14 0 14 -14q0 -87 -51 -87q-26 0 -50.5 36.5t-35.5 36.5q-20 0 -25 -56q-1 -14 -14 -14q-14 0 -14 14z" />
    <glyph glyph-name="aring" unicode="&#xe5;" horiz-adv-x="462" 
d="M379 329q14 0 14 -14v-305q0 -14 -14 -14t-14 14v64q-47 -87 -140 -87q-69 0 -115 52t-46 122t46 122t115 52q93 0 140 -87v67q0 14 14 14zM225 15q57 0 95 44t38 102t-38 102t-95 44t-95 -44t-38 -102t38 -102t95 -44zM232 501q38 0 65 -27.5t27 -65.5t-27 -65.5
t-65 -27.5q-39 0 -66 27.5t-27 65.5t27 65.5t66 27.5zM232 336q29 0 50 21.5t21 50.5t-21 50.5t-50 21.5q-30 0 -51 -21.5t-21 -50.5t21 -50.5t51 -21.5z" />
    <glyph glyph-name="ccedilla" unicode="&#xe7;" horiz-adv-x="426" 
d="M362 72q0 -4 -3 -8v0q-48 -77 -134 -77q-69 0 -115 52t-46 122t46 122t115 52q67 0 115 -51q20 -23 20 -32q0 -14 -14 -14q-6 0 -11 5q-39 64 -110 64q-57 0 -95 -44t-38 -102t38 -102t95 -44q32 0 63 17.5t46 44.5q5 9 13 9q15 0 15 -14zM206 -151q0 11 13 13
q19 3 39 22.5t20 38.5q0 12 -9 12q-12 0 -32.5 -12t-23.5 -12q-14 0 -14 15l12 73q2 11 14 11q14 0 14 -14q0 -1 -7 -44q21 11 38 11q36 0 36 -40q0 -29 -29 -59t-58 -30q-13 0 -13 15z" />
    <glyph glyph-name="eacute" unicode="&#xe9;" horiz-adv-x="451" 
d="M225 335q69 0 115.5 -52t46.5 -122q0 -14 -15 -14h-279q5 -54 42 -93t90 -39q73 0 115 59q5 7 12 7q14 0 14 -14q0 -4 -2 -7q-42 -73 -139 -73q-68 0 -114.5 52t-46.5 122t46 122t115 52zM93 175h264q-5 54 -42 93t-90 39t-90 -39t-42 -93zM169 373q0 6 4 10l93 93
q4 4 10 4q14 0 14 -14q0 -5 -4 -9l-93 -93q-4 -5 -10 -5q-14 0 -14 14z" />
    <glyph glyph-name="egrave" unicode="&#xe8;" horiz-adv-x="451" 
d="M225 335q69 0 115.5 -52t46.5 -122q0 -14 -15 -14h-279q5 -54 42 -93t90 -39q73 0 115 59q5 7 12 7q14 0 14 -14q0 -4 -2 -7q-42 -73 -139 -73q-68 0 -114.5 52t-46.5 122t46 122t115 52zM93 175h264q-5 54 -42 93t-90 39t-90 -39t-42 -93zM143 480q6 0 10 -4l92 -92
q4 -4 4 -10q0 -14 -14 -14q-6 0 -10 4l-92 92q-4 4 -4 10q0 14 14 14z" />
    <glyph glyph-name="ecircumflex" unicode="&#xea;" horiz-adv-x="451" 
d="M225 335q69 0 115.5 -52t46.5 -122q0 -14 -15 -14h-279q5 -54 42 -93t90 -39q73 0 115 59q5 7 12 7q14 0 14 -14q0 -4 -2 -7q-42 -73 -139 -73q-68 0 -114.5 52t-46.5 122t46 122t115 52zM93 175h264q-5 54 -42 93t-90 39t-90 -39t-42 -93zM282 357q14 0 14 14
q0 5 -61 97q-4 6 -13 6q-8 0 -12 -6q-61 -92 -61 -97q0 -14 14 -14q8 0 12 7l47 72l48 -72q4 -7 12 -7z" />
    <glyph glyph-name="edieresis" unicode="&#xeb;" horiz-adv-x="451" 
d="M225 335q69 0 115.5 -52t46.5 -122q0 -14 -15 -14h-279q5 -54 42 -93t90 -39q73 0 115 59q5 7 12 7q14 0 14 -14q0 -4 -2 -7q-42 -73 -139 -73q-68 0 -114.5 52t-46.5 122t46 122t115 52zM93 175h264q-5 54 -42 93t-90 39t-90 -39t-42 -93zM172 421q23 0 23 -23t-23 -23
t-23 23t23 23zM288 398q0 -23 -23 -23t-23 23t23 23t23 -23z" />
    <glyph glyph-name="iacute" unicode="&#xed;" horiz-adv-x="184" 
d="M92 326q14 0 14 -14v-304q0 -14 -14 -14t-14 14v304q0 14 14 14zM79 373q0 6 4 10l93 93q4 4 10 4q14 0 14 -14q0 -5 -4 -9l-93 -93q-4 -5 -10 -5q-14 0 -14 14z" />
    <glyph glyph-name="igrave" unicode="&#xec;" horiz-adv-x="184" 
d="M92 326q14 0 14 -14v-304q0 -14 -14 -14t-14 14v304q0 14 14 14zM3 480q6 0 10 -4l92 -92q4 -4 4 -10q0 -14 -14 -14q-6 0 -10 4l-92 92q-4 4 -4 10q0 14 14 14z" />
    <glyph glyph-name="icircumflex" unicode="&#xee;" horiz-adv-x="184" 
d="M92 326q14 0 14 -14v-304q0 -14 -14 -14t-14 14v304q0 14 14 14zM152 367q14 0 14 14q0 5 -61 97q-4 6 -13 6q-8 0 -12 -6q-61 -92 -61 -97q0 -14 14 -14q8 0 12 7l47 72l48 -72q4 -7 12 -7z" />
    <glyph glyph-name="idieresis" unicode="&#xef;" horiz-adv-x="184" 
d="M92 326q14 0 14 -14v-304q0 -14 -14 -14t-14 14v304q0 14 14 14zM42 421q23 0 23 -23t-23 -23t-23 23t23 23zM158 398q0 -23 -23 -23t-23 23t23 23t23 -23z" />
    <glyph glyph-name="ntilde" unicode="&#xf1;" horiz-adv-x="406" 
d="M213 336q59 0 95 -46q34 -42 34 -102v-178q0 -14 -14 -14t-14 14v178q0 49 -27 84.5t-74 35.5q-59 0 -90 -48q-26 -42 -26 -111v-140q0 -14 -14 -14t-14 14v306q0 14 14 14t14 -14v-49q41 70 116 70zM109 385q0 32 11 55q15 29 43 29q26 0 49.5 -36.5t37.5 -36.5
q18 0 21 58q1 15 14 15q14 0 14 -14q0 -87 -51 -87q-26 0 -50.5 36.5t-35.5 36.5q-20 0 -25 -56q-1 -14 -14 -14q-14 0 -14 14z" />
    <glyph glyph-name="oacute" unicode="&#xf3;" horiz-adv-x="451" 
d="M225 336q69 0 115.5 -52.5t46.5 -121.5q0 -70 -46.5 -122t-115.5 -52t-115 52t-46 122q0 69 46 121.5t115 52.5zM225 16q57 0 95 44t38 102t-38 101.5t-95 43.5t-95 -43.5t-38 -101.5t38 -102t95 -44zM209 373q0 6 4 10l93 93q4 4 10 4q14 0 14 -14q0 -5 -4 -9l-93 -93
q-4 -5 -10 -5q-14 0 -14 14z" />
    <glyph glyph-name="ograve" unicode="&#xf2;" horiz-adv-x="451" 
d="M225 336q69 0 115.5 -52.5t46.5 -121.5q0 -70 -46.5 -122t-115.5 -52t-115 52t-46 122q0 69 46 121.5t115 52.5zM225 16q57 0 95 44t38 102t-38 101.5t-95 43.5t-95 -43.5t-38 -101.5t38 -102t95 -44zM133 480q6 0 10 -4l92 -92q4 -4 4 -10q0 -14 -14 -14q-6 0 -10 4
l-92 92q-4 4 -4 10q0 14 14 14z" />
    <glyph glyph-name="ocircumflex" unicode="&#xf4;" horiz-adv-x="451" 
d="M225 336q69 0 115.5 -52.5t46.5 -121.5q0 -70 -46.5 -122t-115.5 -52t-115 52t-46 122q0 69 46 121.5t115 52.5zM225 16q57 0 95 44t38 102t-38 101.5t-95 43.5t-95 -43.5t-38 -101.5t38 -102t95 -44zM282 347q14 0 14 14q0 5 -61 97q-4 6 -13 6q-8 0 -12 -6
q-61 -92 -61 -97q0 -14 14 -14q8 0 12 7l47 72l48 -72q4 -7 12 -7z" />
    <glyph glyph-name="odieresis" unicode="&#xf6;" horiz-adv-x="451" 
d="M225 336q69 0 115.5 -52.5t46.5 -121.5q0 -70 -46.5 -122t-115.5 -52t-115 52t-46 122q0 69 46 121.5t115 52.5zM225 16q57 0 95 44t38 102t-38 101.5t-95 43.5t-95 -43.5t-38 -101.5t38 -102t95 -44zM172 421q23 0 23 -23t-23 -23t-23 23t23 23zM288 398q0 -23 -23 -23
t-23 23t23 23t23 -23z" />
    <glyph glyph-name="otilde" unicode="&#xf5;" horiz-adv-x="451" 
d="M225 336q69 0 115.5 -52.5t46.5 -121.5q0 -70 -46.5 -122t-115.5 -52t-115 52t-46 122q0 69 46 121.5t115 52.5zM225 16q57 0 95 44t38 102t-38 101.5t-95 43.5t-95 -43.5t-38 -101.5t38 -102t95 -44zM119 375q0 32 11 55q15 29 43 29q26 0 49.5 -36.5t37.5 -36.5
q18 0 21 58q1 15 14 15q14 0 14 -14q0 -87 -51 -87q-26 0 -50.5 36.5t-35.5 36.5q-20 0 -25 -56q-1 -14 -14 -14q-14 0 -14 14z" />
    <glyph glyph-name="uacute" unicode="&#xfa;" horiz-adv-x="406" 
d="M323 326q14 0 14 -14v-306q0 -14 -14 -14t-14 14v58q-39 -79 -116 -79q-59 0 -95 46q-34 42 -34 102v179q0 14 14 14t14 -14v-179q0 -49 25 -82q28 -38 76 -38q116 0 116 185v114q0 14 14 14zM159 363q0 6 4 10l93 93q4 4 10 4q14 0 14 -14q0 -5 -4 -9l-93 -93
q-4 -5 -10 -5q-14 0 -14 14z" />
    <glyph glyph-name="ugrave" unicode="&#xf9;" horiz-adv-x="406" 
d="M323 326q14 0 14 -14v-306q0 -14 -14 -14t-14 14v58q-39 -79 -116 -79q-59 0 -95 46q-34 42 -34 102v179q0 14 14 14t14 -14v-179q0 -49 25 -82q28 -38 76 -38q116 0 116 185v114q0 14 14 14zM143 450q6 0 10 -4l92 -92q4 -4 4 -10q0 -14 -14 -14q-6 0 -10 4l-92 92
q-4 4 -4 10q0 14 14 14z" />
    <glyph glyph-name="ucircumflex" unicode="&#xfb;" horiz-adv-x="406" 
d="M323 326q14 0 14 -14v-306q0 -14 -14 -14t-14 14v58q-39 -79 -116 -79q-59 0 -95 46q-34 42 -34 102v179q0 14 14 14t14 -14v-179q0 -49 25 -82q28 -38 76 -38q116 0 116 185v114q0 14 14 14zM262 347q14 0 14 14q0 5 -61 97q-4 6 -13 6q-8 0 -12 -6q-61 -92 -61 -97
q0 -14 14 -14q8 0 12 7l47 72l48 -72q4 -7 12 -7z" />
    <glyph glyph-name="udieresis" unicode="&#xfc;" horiz-adv-x="406" 
d="M323 326q14 0 14 -14v-306q0 -14 -14 -14t-14 14v58q-39 -79 -116 -79q-59 0 -95 46q-34 42 -34 102v179q0 14 14 14t14 -14v-179q0 -49 25 -82q28 -38 76 -38q116 0 116 185v114q0 14 14 14zM152 421q23 0 23 -23t-23 -23t-23 23t23 23zM268 398q0 -23 -23 -23t-23 23
t23 23t23 -23z" />
    <glyph glyph-name="dagger" unicode="&#x2020;" horiz-adv-x="426" 
d="M227 432h116q14 0 14 -14t-14 -14h-116v-591q0 -14 -14 -14t-14 14v591h-116q-14 0 -14 14t14 14h116v165q0 14 14 14t14 -14v-165z" />
    <glyph glyph-name="degree" unicode="&#xb0;" horiz-adv-x="323" 
d="M162 611q38 0 65 -27.5t27 -65.5t-27 -65.5t-65 -27.5q-39 0 -66 27.5t-27 65.5t27 65.5t66 27.5zM162 446q29 0 50 21.5t21 50.5t-21 50.5t-50 21.5q-30 0 -51 -21.5t-21 -50.5t21 -50.5t51 -21.5z" />
    <glyph glyph-name="cent" unicode="&#xa2;" horiz-adv-x="432" 
d="M363 402q-4 7 -12 7q-14 0 -14 -14q0 -3 1 -5q-24 37 -61 52l-78 -277q14 -4 31 -4q69 0 108 61q-1 -2 -1 -5q0 -14 14 -14q8 0 12 6q-47 -76 -133 -76q-20 0 -39 5l-36 -128q-2 -10 -13 -10q-14 0 -14 14q0 2 37 133q-44 22 -70 65.5t-26 93.5q0 69 46.5 121t114.5 52
q13 0 27 -2l34 118q3 11 13 11q14 0 14 -14q0 -2 -34 -123q50 -19 79 -67zM97 306q0 -41 20 -77t56 -54l77 275q-11 1 -20 1q-57 0 -95 -43.5t-38 -101.5z" />
    <glyph glyph-name="sterling" unicode="&#xa3;" horiz-adv-x="550" 
d="M426 12q11 0 24.5 6t16.5 6q14 0 14 -14q0 -12 -22 -20q-17 -6 -33 -6q-21 0 -66 15q-66 22 -112 22q-64 0 -126 -25q-11 -5 -15 -5q-6 0 -12 8v2l-1 5q0 8 20 17q55 24 55 112q0 59 -43 163q-50 0 -34 -1q-23 2 -23 15t19 15q-7 -1 27 -1q-19 52 -19 99q0 79 55 134
t134 55q49 0 109 -37q66 -40 66 -84q0 -14 -14 -14q-8 0 -13 10t-18 31q-48 66 -130 66q-67 0 -114 -47t-47 -114q0 -44 21 -99h131q14 0 14 -14t-14 -14h-119q40 -101 40 -163q0 -56 -25 -95q39 9 76 9q51 0 121 -24q40 -13 57 -13z" />
    <glyph glyph-name="section" unicode="&#xa7;" horiz-adv-x="488" 
d="M97 466q0 -55 47 -89q29 -21 96 -44q179 -61 179 -186q0 -54 -27 -94q27 -40 27 -88q0 -74 -47.5 -118.5t-121.5 -44.5q-80 0 -130.5 50t-50.5 129q0 14 14 14q12 0 14 -14q0 -10 2 -31q11 -62 63 -96q36 -24 88 -24q62 0 102 36.5t40 98.5q0 106 -160 159
q-76 26 -111 54q-52 41 -52 107q0 53 33 92q-33 37 -33 89q0 65 47 108t112 43q72 0 118.5 -46t46.5 -118q0 -13 -14 -13q-10 0 -12 13.5t-7 40.5q-26 92 -126 95h-6q-52 1 -91.5 -34.5t-39.5 -88.5zM97 285q0 -56 47 -90q29 -22 96 -44q89 -29 133 -76q19 32 19 72
q0 106 -160 159q-75 25 -109 52q-26 -31 -26 -73z" />
    <glyph glyph-name="bullet" unicode="&#x2022;" horiz-adv-x="356" 
d="M178 444q47 0 78 -36t31 -83q0 -48 -31 -84t-78 -36t-78 36t-31 84q0 47 31 83t78 36z" />
    <glyph glyph-name="paragraph" unicode="&#xb6;" horiz-adv-x="595" 
d="M468 599h44q14 0 14 -14q0 -13 -20 -14q11 0 -29 0v-764q0 -14 -14 -14t-14 14v764h-153v-764q0 -14 -13 -14q-14 0 -14 14v472h-40q-66 0 -113 47t-47 113t47 113t113 47h48q3 1 6 1q2 0 5 -1h170q2 1 5 1t5 -1zM269 307v264h-40q-54 0 -93 -38.5t-39 -93.5t39 -93.5
t93 -38.5h40z" />
    <glyph glyph-name="germandbls" unicode="&#xdf;" horiz-adv-x="432" 
d="M176 578q-79 0 -79 -65v-506q0 -14 -14 -14t-14 14v506q0 45 30 69t77 24q54 0 92.5 -39.5t38.5 -93.5q0 -32 -20 -66q-12 -21 -36 -48q-20 -21 -20 -25q0 -10 58 -67q37 -35 73 -70q35 -38 35 -87q0 -52 -35 -90t-87 -38q-77 0 -144 77q-4 4 -4 10q0 14 14 14l46 -36.5
t88 -36.5q40 0 67 29.5t27 70.5q0 38 -28 68q-38 36 -75 73q-55 53 -61 72q-2 7 -2 12q0 12 38 55.5t38 82.5q0 43 -30.5 74t-72.5 31z" />
    <glyph glyph-name="registered" unicode="&#xae;" horiz-adv-x="774" 
d="M387 617q132 0 225 -93t93 -225q0 -131 -93 -224.5t-225 -93.5q-131 0 -224.5 93.5t-93.5 224.5q0 132 93.5 225t224.5 93zM387 9q120 0 205 85t85 205t-85 205t-205 85t-205 -85t-85 -205t85 -205t205 -85zM433 278q92 -128 92 -133q0 -13 -14 -13q-7 0 -11 5l-97 136
q-7 -1 -89 -1v-127q0 -14 -14 -14q-13 0 -13 14v306q0 14 13 14h92q46 0 84 -25q43 -27 43 -71q0 -34 -25.5 -58t-60.5 -33zM314 300h78q35 0 64 17q35 19 35 52q0 32 -35 51q-29 17 -64 17h-78v-137z" />
    <glyph glyph-name="copyright" unicode="&#xa9;" horiz-adv-x="774" 
d="M387 616q132 0 225 -93.5t93 -225.5q0 -131 -93 -224.5t-225 -93.5q-131 0 -224.5 93.5t-93.5 224.5q0 132 93.5 225.5t224.5 93.5zM387 7q120 0 205 85.5t85 204.5q0 120 -85 205.5t-205 85.5t-205 -85.5t-85 -205.5q0 -119 85 -204.5t205 -85.5zM394 437
q-56 0 -94 -43.5t-38 -101.5q0 -57 38 -101t94 -44q55 0 94 42q6 10 14.5 20.5t16.5 10.5q12 0 12 -13q0 -12 -23 -36q-47 -52 -114 -52t-113.5 52t-46.5 121q0 70 46.5 121.5t113.5 51.5t114 -51q22 -24 22 -33q0 -13 -13 -13q-9 0 -16 9.5t-13 17.5q-39 42 -94 42z" />
    <glyph glyph-name="trademark" unicode="&#x2122;" horiz-adv-x="576" 
d="M236 599q14 0 14 -14q0 -13 -14 -13h-62v-275q0 -14 -14 -14t-14 14v275h-63q-14 0 -14 13q0 14 14 14h153zM493 603q14 0 14 -14v-292q0 -14 -14 -14t-14 14v215l-78 -214q-5 -13 -14 -13q-10 0 -13 10l-80 217v-215q0 -14 -14 -14t-14 14v292q0 14 14 14q11 0 15 -11
l92 -251l93 253q3 9 13 9z" />
    <glyph glyph-name="acute" unicode="&#xb4;" horiz-adv-x="259" 
d="M69 653q0 6 4 10l93 93q4 4 10 4q14 0 14 -14q0 -5 -4 -9l-93 -93q-4 -5 -10 -5q-14 0 -14 14z" />
    <glyph glyph-name="dieresis" unicode="&#xa8;" horiz-adv-x="277" 
d="M92 551q23 0 23 -23t-23 -23t-23 23t23 23zM208 528q0 -23 -23 -23t-23 23t23 23t23 -23z" />
    <glyph glyph-name="notequal" unicode="&#x2260;" 
 />
    <glyph glyph-name="AE" unicode="&#xc6;" horiz-adv-x="835" 
d="M766 594q0 -14 -14 -14h-255v-241h167q14 0 14 -14t-14 -14h-167v-287h255q14 0 14 -14t-14 -14h-269q-14 0 -14 14v222q0 -1 -221 -1l-153 -232q-5 -7 -12 -7q-14 0 -14 14q0 5 2 8l390 590q4 6 11 6t9 -3q1 0 2 1h269q14 0 14 -14zM267 259h202v307z" />
    <glyph glyph-name="Oslash" unicode="&#xd8;" horiz-adv-x="551" 
d="M276 621q64 0 117 -56q6 14 13 28q10 20 20 20q14 0 14 -14q0 -4 -28 -57q70 -95 70 -238q0 -86 -28 -162q-33 -88 -96 -130q-39 -26 -82 -26q-32 0 -65.5 16t-53.5 41l-12 -26q-10 -19 -19 -19q-14 0 -14 14q0 4 26 55q-69 94 -69 237q0 85 28 161q34 88 96 130
q39 26 83 26zM454 304q0 133 -56 210l-227 -444q47 -56 105 -56q35 0 67 22q56 37 86 119q25 70 25 149zM379 538q-46 55 -103 55q-35 0 -68 -22q-56 -37 -86 -119q-25 -70 -25 -148q0 -134 55 -209z" />
    <glyph glyph-name="yen" unicode="&#xa5;" horiz-adv-x="487" 
d="M404 607q14 0 14 -14q0 -3 -159 -303h124q14 0 14 -14q0 -13 -14 -13h-126v-77h126q14 0 14 -14t-14 -14h-126v-150q0 -14 -14 -14t-14 14v150h-125q-14 0 -14 14t14 14h125v77h-125q-14 0 -14 13q0 14 14 14h124q-159 300 -159 303q0 14 14 14q8 0 12 -7l148 -280
l149 280q4 7 12 7z" />
    <glyph glyph-name="mu" unicode="&#xb5;" 
 />
    <glyph glyph-name="mu" unicode="&#x3bc;" 
 />
    <glyph glyph-name="partialdiff" unicode="&#x2202;" 
 />
    <glyph glyph-name="summation" unicode="&#x2211;" 
 />
    <glyph glyph-name="product" unicode="&#x220f;" 
 />
    <glyph glyph-name="pi" unicode="&#x3c0;" 
 />
    <glyph glyph-name="integral" unicode="&#x222b;" 
 />
    <glyph glyph-name="ordfeminine" unicode="&#xaa;" horiz-adv-x="373" 
d="M290 604q14 0 14 -14v-212q0 -14 -14 -14q-13 0 -14 16q0 -2 0 26q-35 -47 -91 -47q-49 0 -82.5 37.5t-33.5 87.5t33.5 87.5t82.5 37.5q56 0 91 -46q0 27 0 25q1 16 14 16zM185 387q38 0 63.5 29.5t25.5 67.5q0 39 -25.5 68.5t-63.5 29.5t-63 -29.5t-25 -68.5
q0 -38 25 -67.5t63 -29.5z" />
    <glyph glyph-name="ordmasculine" unicode="&#xba;" horiz-adv-x="371" 
d="M185 609q50 0 83.5 -37.5t33.5 -88.5q0 -50 -33.5 -87.5t-83.5 -37.5q-49 0 -82.5 37.5t-33.5 87.5q0 51 33.5 88.5t82.5 37.5zM185 386q38 0 63.5 29.5t25.5 67.5q0 39 -25.5 68.5t-63.5 29.5t-63 -29.5t-25 -68.5q0 -38 25 -67.5t63 -29.5z" />
    <glyph glyph-name="Omega" unicode="&#x3a9;" 
 />
    <glyph glyph-name="Omega" unicode="&#x2126;" 
 />
    <glyph glyph-name="ae" unicode="&#xe6;" horiz-adv-x="746" 
d="M522 333q68 0 114 -52t46 -121q0 -14 -14 -14h-278q5 -54 42 -93t90 -39q72 0 114 59q5 7 12 7q14 0 14 -14q0 -4 -2 -7q-42 -73 -138 -73q-86 0 -134 77v-55q0 -14 -14 -14t-14 14v59q-47 -81 -135 -81q-69 0 -115 52t-46 122q0 69 46 121t115 52q88 0 135 -81v60
q0 14 14 14t14 -14v-55q48 76 134 76zM225 14q57 0 95 44t38 102t-38 101.5t-95 43.5t-95 -43.5t-38 -101.5t38 -102t95 -44zM390 174h263q-5 54 -41.5 92.5t-89.5 38.5t-90 -38.5t-42 -92.5z" />
    <glyph glyph-name="oslash" unicode="&#xf8;" horiz-adv-x="455" 
d="M91 -9q-14 0 -14 14q0 6 29 40q-42 50 -42 117q0 70 46 122t115 52q56 0 100 -38q28 32 34 32q14 0 14 -14q0 -5 -28 -38q41 -50 41 -116q0 -70 -46 -122t-115 -52q-55 0 -99 37q-29 -34 -35 -34zM358 162q0 53 -32 94l-181 -210q35 -30 80 -30q57 0 95 44t38 102z
M92 162q0 -54 33 -96l182 211q-36 31 -82 31q-57 0 -95 -44t-38 -102z" />
    <glyph glyph-name="questiondown" unicode="&#xbf;" horiz-adv-x="482" 
d="M413 -17q0 -75 -49 -121.5t-126 -46.5q-72 0 -120.5 44.5t-48.5 115.5q0 58 36 100q17 21 82 71q40 30 54 61t14 81q0 28 14 28t14 -21v-7q0 -57 -17 -93.5t-62 -70.5q-61 -47 -74 -62q-33 -37 -33 -87q0 -59 40.5 -95.5t100.5 -36.5q64 0 105.5 37t41.5 99q0 17 13 17
q15 0 15 -13zM271 392q-23 0 -23 22q0 23 23 23t23 -23q0 -22 -23 -22z" />
    <glyph glyph-name="exclamdown" unicode="&#xa1;" horiz-adv-x="184" 
d="M92 360q14 0 14 -14v-466q0 -14 -14 -14t-14 14v466q0 14 14 14zM92 436q-23 0 -23 23t23 23t23 -23t-23 -23z" />
    <glyph glyph-name="florin" unicode="&#x192;" horiz-adv-x="334" 
d="M251 615q53 0 53 -19q0 -14 -14 -14q-6 0 -19 2.5t-20 2.5q-49 0 -56 -47l-27 -195h72q14 0 14 -14t-14 -14h-76l-63 -450q-9 -68 -81 -68q-61 0 -61 22q0 14 14 14q5 0 21.5 -4t24.5 -4q48 0 54 43l63 447h-52q-14 0 -14 14t14 14h56l27 198q11 72 84 72z" />
    <glyph glyph-name="guillemotleft" unicode="&#xab;" horiz-adv-x="6358" 
d="M-1092 159q71 -151 71 -154q0 -14 -14 -14q-9 0 -13 8l-71 152q-1 1 -1 8t1 8l71 152q4 9 13 9q14 0 14 -14q0 -4 -71 -155zM-948 328q14 0 14 -14q0 -3 -71 -154q71 -152 71 -155q0 -14 -14 -14q-9 0 -12 8l-72 152v9v8l72 152q3 8 12 8z" />
    <glyph glyph-name="guillemotright" unicode="&#xbb;" horiz-adv-x="6358" 
d="M-961 159q-71 -151 -71 -154q0 -14 13 -14q9 0 13 8l71 152q1 1 1 8t-1 8l-71 152q-4 9 -13 9q-13 0 -13 -14q0 -4 71 -155zM-1106 328q-14 0 -14 -14q0 -3 71 -154q-71 -152 -71 -155q0 -14 14 -14q9 0 13 8l71 152q1 2 1 9t-1 8l-71 152q-4 8 -13 8z" />
    <glyph glyph-name="ellipsis" unicode="&#x2026;" horiz-adv-x="526" 
d="M92 41q23 0 23 -22q0 -23 -23 -23t-23 23q0 22 23 22zM430 42q23 0 23 -23t-23 -23t-23 23t23 23zM263 42q23 0 23 -23t-23 -23t-23 23t23 23z" />
    <glyph glyph-name="nonbreakingspace" unicode="&#xa0;" horiz-adv-x="363" 
 />
    <glyph glyph-name="Agrave" unicode="&#xc0;" horiz-adv-x="550" 
d="M78 -7q-14 0 -14 14q0 2 197 603q3 9 14 9t14 -9q197 -601 197 -603q0 -14 -14 -14q-10 0 -14 10l-75 230h-216l-76 -230q-3 -10 -13 -10zM275 562l-99 -301h198zM183 770q6 0 10 -4l92 -92q4 -4 4 -10q0 -14 -14 -14q-6 0 -10 4l-92 92q-4 4 -4 10q0 14 14 14z" />
    <glyph glyph-name="Atilde" unicode="&#xc3;" horiz-adv-x="550" 
d="M78 -7q-14 0 -14 14q0 2 197 603q3 9 14 9t14 -9q197 -601 197 -603q0 -14 -14 -14q-10 0 -14 10l-75 230h-216l-76 -230q-3 -10 -13 -10zM275 562l-99 -301h198zM179 665q0 32 11 55q15 29 43 29q26 0 49.5 -36.5t37.5 -36.5q18 0 21 58q1 15 14 15q14 0 14 -14
q0 -87 -51 -87q-26 0 -50.5 36.5t-35.5 36.5q-20 0 -25 -56q-1 -14 -14 -14q-14 0 -14 14z" />
    <glyph glyph-name="Otilde" unicode="&#xd5;" horiz-adv-x="542" 
d="M271 622q43 0 83 -26q62 -41 95 -130q29 -76 29 -161q0 -86 -29 -162q-33 -88 -95 -130q-40 -26 -83 -26q-44 0 -83 26q-62 42 -95 130q-29 76 -29 162q0 85 29 161q33 89 95 130q39 26 83 26zM271 15q35 0 67 22q56 37 86 119q26 70 26 149q0 78 -26 148q-30 83 -86 120
q-32 21 -67 21t-67 -21q-56 -37 -87 -120q-25 -70 -25 -148q0 -79 25 -149q31 -82 87 -119q32 -22 67 -22zM169 665q0 32 11 55q15 29 43 29q26 0 49.5 -36.5t37.5 -36.5q18 0 21 58q1 15 14 15q14 0 14 -14q0 -87 -51 -87q-26 0 -50.5 36.5t-35.5 36.5q-20 0 -25 -56
q-1 -14 -14 -14q-14 0 -14 14z" />
    <glyph glyph-name="OE" unicode="&#x152;" horiz-adv-x="819" 
d="M69 314q0 85 28 161q34 88 96 129q39 26 82 26q61 0 111 -49q42 -41 67 -106v120q0 14 14 14h269q14 0 14 -14t-14 -14h-255v-241h166q14 0 14 -14t-14 -14h-166v-24q-1 -15 -1 -24l1 -239h255q14 0 14 -14t-14 -14h-269q-14 0 -14 14v141q-25 -64 -67 -105
q-50 -50 -111 -50q-43 0 -82 26q-62 41 -96 130q-28 75 -28 161zM275 602q-35 0 -67 -21q-56 -37 -86 -120q-25 -69 -25 -147t25 -148q30 -82 86 -120q32 -21 67 -21q79 0 132 96q46 82 46 168q0 61 -3 84q-11 83 -51 148q-51 81 -124 81z" />
    <glyph glyph-name="oe" unicode="&#x153;" horiz-adv-x="752" 
d="M648 80q14 0 14 -14q0 -3 -2 -7q-43 -72 -138 -72q-48 0 -87.5 28t-58.5 73q-19 -46 -58.5 -74t-87.5 -28q-69 0 -115 52t-46 121q0 70 46 122t115 52q48 0 87 -28t59 -74q19 46 58.5 74.5t87.5 28.5q69 0 115 -52t46 -122q0 -14 -14 -14h-278q4 -54 40 -91
q38 -40 91 -40q73 0 114 58q5 7 12 7zM522 306q-53 0 -90 -39t-41 -93h263q-5 54 -42 93t-90 39zM230 14q58 0 96 45q35 42 35 101q0 58 -37 101.5t-94 43.5t-95 -44t-38 -102t38 -101.5t95 -43.5z" />
    <glyph glyph-name="endash" unicode="&#x2013;" horiz-adv-x="481" 
d="M398 338q14 0 14 -14t-14 -14h-315q-14 0 -14 14t14 14h315z" />
    <glyph glyph-name="emdash" unicode="&#x2014;" horiz-adv-x="596" 
d="M513 338q14 0 14 -14t-14 -14h-430q-14 0 -14 14t14 14h430z" />
    <glyph glyph-name="quotedblleft" unicode="&#x201c;" horiz-adv-x="283" 
d="M74 504v6q-1 20 12 56q15 40 30 40q14 0 14 -14q-11 -25 -26 -67q16 -5 16 -21q0 -23 -23 -23q-21 0 -23 23zM158 498v6q-1 20 12 56q15 40 30 40q14 0 14 -14q-12 -25 -26 -67q16 -5 16 -21q0 -23 -23 -23q-22 0 -23 23z" />
    <glyph glyph-name="quotedblright" unicode="&#x201d;" horiz-adv-x="283" 
d="M214 577v-6q1 -20 -12 -56q-15 -40 -30 -40q-14 0 -14 14q11 25 26 67q-16 5 -16 21q0 23 23 23q21 0 23 -23zM130 583v-6q1 -20 -12 -56q-15 -40 -30 -40q-14 0 -14 14q12 25 26 67q-16 5 -16 21q0 23 23 23q22 0 23 -23z" />
    <glyph glyph-name="quoteleft" unicode="&#x2018;" horiz-adv-x="194" 
d="M74 504v6q-1 20 12 56q15 40 30 40q14 0 14 -14q-11 -25 -26 -67q16 -5 16 -21q0 -23 -23 -23q-21 0 -23 23z" />
    <glyph glyph-name="quoteright" unicode="&#x2019;" horiz-adv-x="194" 
d="M130 583v-6q1 -20 -12 -56q-15 -40 -30 -40q-14 0 -14 14q12 25 26 67q-16 5 -16 21q0 23 23 23q22 0 23 -23z" />
    <glyph glyph-name="divide" unicode="&#xf7;" horiz-adv-x="363" 
d="M83 310q-14 0 -14 14t14 14h198q13 0 13 -14t-13 -14h-198zM182 289q23 0 23 -23t-23 -23t-23 23t23 23zM182 364q-23 0 -23 23t23 23t23 -23t-23 -23z" />
    <glyph glyph-name="ydieresis" unicode="&#xff;" horiz-adv-x="408" 
d="M330 329q14 0 14 -14q0 -2 -196 -506q-3 -9 -13 -9q-14 0 -14 14q0 3 72 188q-3 3 -66 155.5t-63 157.5q0 14 14 14q9 0 13 -8l116 -283l110 282q4 9 13 9zM152 421q23 0 23 -23t-23 -23t-23 23t23 23zM268 398q0 -23 -23 -23t-23 23t23 23t23 -23z" />
    <glyph glyph-name="Ydieresis" unicode="&#x178;" horiz-adv-x="478" 
d="M400 611q14 0 14 -14q0 -4 -161 -308v-279q0 -14 -14 -14t-14 14v280q-161 303 -161 307q0 14 14 14q8 0 12 -8l149 -280l149 280q4 8 12 8zM192 671q23 0 23 -23t-23 -23t-23 23t23 23zM308 648q0 -23 -23 -23t-23 23t23 23t23 -23z" />
    <glyph glyph-name="currency" unicode="&#xa4;" horiz-adv-x="507" 
d="M316 590q-70 0 -120 -76q-39 -60 -52 -140h181q14 0 14 -14t-14 -14h-185q-2 -21 -2 -40h187q14 0 14 -14t-14 -14h-187q5 -93 46 -170q51 -97 132 -97q38 0 73 26l35 26q14 0 14 -14q0 -6 -4 -10q-48 -56 -118 -56q-94 0 -153 104q-48 86 -53 191q-28 0 -25 -1
q-16 2 -16 15q0 12 16 14q-3 0 25 0q0 19 2 40q-31 0 -26 -1q-17 2 -17 15t19 15q-9 -1 27 -1q15 92 61 160q58 84 140 84q70 0 118 -57q4 -4 4 -9q0 -14 -14 -14l-35 26t-73 26z" />
    <glyph glyph-name="guilsinglleft" unicode="&#x2039;" horiz-adv-x="237" 
d="M97 159q71 -151 71 -154q0 -14 -14 -14q-9 0 -13 8l-71 152q-1 1 -1 8t1 8l71 152q4 9 13 9q14 0 14 -14q0 -4 -71 -155z" />
    <glyph glyph-name="guilsinglright" unicode="&#x203a;" horiz-adv-x="237" 
d="M140 159q-71 -151 -71 -154q0 -14 14 -14q9 0 13 8l71 152q1 1 1 8t-1 8l-71 152q-4 9 -13 9q-14 0 -14 -14q0 -4 71 -155z" />
    <glyph glyph-name="daggerdbl" unicode="&#x2021;" horiz-adv-x="6282" 
d="M6102 -21q0 14 14 14h116v411h-116q-14 0 -14 14t14 14h116v165q0 14 14 14t14 -14v-165h116q14 0 14 -14t-14 -14h-116v-411h116q14 0 14 -14t-14 -14h-116v-152q0 -14 -14 -14t-14 14v152h-116q-14 0 -14 14z" />
    <glyph glyph-name="quotesinglbase" unicode="&#x201a;" horiz-adv-x="194" 
d="M125 20v-6q1 -20 -12 -56q-15 -40 -30 -40q-14 0 -14 14q12 24 26 66q-16 5 -16 22q0 23 23 23q22 0 23 -23z" />
    <glyph glyph-name="quotedblbase" unicode="&#x201e;" horiz-adv-x="266" 
d="M125 20v-6q1 -20 -12 -56q-15 -40 -30 -40q-14 0 -14 14q12 24 26 66q-16 5 -16 22q0 23 23 23q22 0 23 -23zM200 17v-6q1 -20 -12 -56q-15 -40 -30 -40q-14 0 -14 14q12 25 26 67q-16 5 -16 21q0 23 23 23q22 0 23 -23z" />
    <glyph glyph-name="perthousand" unicode="&#x2030;" horiz-adv-x="1025" 
d="M200 271q-60 0 -98 59q-33 51 -33 114t33 114q38 59 98 59t97 -59q33 -51 33 -114t-33 -114q-37 -59 -97 -59zM200 589q-49 0 -78 -51q-25 -42 -25 -94t25 -94q29 -51 78 -51q48 0 77 51q25 42 25 94t-25 94q-29 51 -77 51zM401 144q0 63 32 114q38 58 98 58t98 -58
q33 -51 33 -114t-33 -114q-38 -59 -98 -59t-98 59q-32 51 -32 114zM531 289q-48 0 -78 -51q-25 -43 -25 -94q0 -52 25 -95q30 -50 78 -50t78 50q25 43 25 95q0 51 -25 94q-30 51 -78 51zM229 -12q-14 0 -14 14q0 3 280 591q4 8 13 8q13 0 13 -14q0 -3 -279 -591
q-4 -8 -13 -8zM700 143q0 63 33 114q38 59 98 59t98 -59q33 -51 33 -114t-33 -114q-38 -59 -98 -59t-98 59q-33 51 -33 114zM831 288q-48 0 -78 -50q-25 -43 -25 -95q0 -51 25 -94q30 -51 78 -51t78 51q25 43 25 94q0 52 -25 95q-30 50 -78 50z" />
    <glyph glyph-name="Acircumflex" unicode="&#xc2;" horiz-adv-x="550" 
d="M78 -7q-14 0 -14 14q0 2 197 603q3 9 14 9t14 -9q197 -601 197 -603q0 -14 -14 -14q-10 0 -14 10l-75 230h-216l-76 -230q-3 -10 -13 -10zM275 562l-99 -301h198zM342 647q14 0 14 14q0 5 -61 97q-4 6 -13 6q-8 0 -12 -6q-61 -92 -61 -97q0 -14 14 -14q8 0 12 7l47 72
l48 -72q4 -7 12 -7z" />
    <glyph glyph-name="Ecircumflex" unicode="&#xca;" horiz-adv-x="431" 
d="M83 -3q-14 0 -14 14v586q0 14 14 14h270q14 0 14 -14t-14 -14h-256v-242h167q14 0 14 -14t-14 -14h-167v-288h256q14 0 14 -14t-14 -14h-270zM272 647q14 0 14 14q0 5 -61 97q-4 6 -13 6q-8 0 -12 -6q-61 -92 -61 -97q0 -14 14 -14q8 0 12 7l47 72l48 -72q4 -7 12 -7z
" />
    <glyph glyph-name="Aacute" unicode="&#xc1;" horiz-adv-x="550" 
d="M78 -7q-14 0 -14 14q0 2 197 603q3 9 14 9t14 -9q197 -601 197 -603q0 -14 -14 -14q-10 0 -14 10l-75 230h-216l-76 -230q-3 -10 -13 -10zM275 562l-99 -301h198zM269 653q0 6 4 10l93 93q4 4 10 4q14 0 14 -14q0 -5 -4 -9l-93 -93q-4 -5 -10 -5q-14 0 -14 14z" />
    <glyph glyph-name="Edieresis" unicode="&#xcb;" horiz-adv-x="431" 
d="M83 -3q-14 0 -14 14v586q0 14 14 14h270q14 0 14 -14t-14 -14h-256v-242h167q14 0 14 -14t-14 -14h-167v-288h256q14 0 14 -14t-14 -14h-270zM172 711q23 0 23 -23t-23 -23t-23 23t23 23zM288 688q0 -23 -23 -23t-23 23t23 23t23 -23z" />
    <glyph glyph-name="Egrave" unicode="&#xc8;" horiz-adv-x="431" 
d="M83 -3q-14 0 -14 14v586q0 14 14 14h270q14 0 14 -14t-14 -14h-256v-242h167q14 0 14 -14t-14 -14h-167v-288h256q14 0 14 -14t-14 -14h-270zM163 760q6 0 10 -4l92 -92q4 -4 4 -10q0 -14 -14 -14q-6 0 -10 4l-92 92q-4 4 -4 10q0 14 14 14z" />
    <glyph glyph-name="Iacute" unicode="&#xcd;" horiz-adv-x="266" 
d="M64 17q0 14 14 14h41v545h-41q-14 0 -14 14t14 14h110q14 0 14 -14t-14 -14h-41v-545h41q14 0 14 -14t-14 -14h-110q-14 0 -14 14zM69 653q0 6 4 10l93 93q4 4 10 4q14 0 14 -14q0 -5 -4 -9l-93 -93q-4 -5 -10 -5q-14 0 -14 14z" />
    <glyph glyph-name="Icircumflex" unicode="&#xce;" horiz-adv-x="266" 
d="M64 17q0 14 14 14h41v545h-41q-14 0 -14 14t14 14h110q14 0 14 -14t-14 -14h-41v-545h41q14 0 14 -14t-14 -14h-110q-14 0 -14 14zM192 637q14 0 14 14q0 5 -61 97q-4 6 -13 6q-8 0 -12 -6q-61 -92 -61 -97q0 -14 14 -14q8 0 12 7l47 72l48 -72q4 -7 12 -7z" />
    <glyph glyph-name="Idieresis" unicode="&#xcf;" horiz-adv-x="266" 
d="M64 17q0 14 14 14h41v545h-41q-14 0 -14 14t14 14h110q14 0 14 -14t-14 -14h-41v-545h41q14 0 14 -14t-14 -14h-110q-14 0 -14 14zM82 701q23 0 23 -23t-23 -23t-23 23t23 23zM198 678q0 -23 -23 -23t-23 23t23 23t23 -23z" />
    <glyph glyph-name="Igrave" unicode="&#xcc;" horiz-adv-x="266" 
d="M64 17q0 14 14 14h41v545h-41q-14 0 -14 14t14 14h110q14 0 14 -14t-14 -14h-41v-545h41q14 0 14 -14t-14 -14h-110q-14 0 -14 14zM83 760q6 0 10 -4l92 -92q4 -4 4 -10q0 -14 -14 -14q-6 0 -10 4l-92 92q-4 4 -4 10q0 14 14 14z" />
    <glyph glyph-name="Oacute" unicode="&#xd3;" horiz-adv-x="542" 
d="M271 622q43 0 83 -26q62 -41 95 -130q29 -76 29 -161q0 -86 -29 -162q-33 -88 -95 -130q-40 -26 -83 -26q-44 0 -83 26q-62 42 -95 130q-29 76 -29 162q0 85 29 161q33 89 95 130q39 26 83 26zM271 15q35 0 67 22q56 37 86 119q26 70 26 149q0 78 -26 148q-30 83 -86 120
q-32 21 -67 21t-67 -21q-56 -37 -87 -120q-25 -70 -25 -148q0 -79 25 -149q31 -82 87 -119q32 -22 67 -22zM219 653q0 6 4 10l93 93q4 4 10 4q14 0 14 -14q0 -5 -4 -9l-93 -93q-4 -5 -10 -5q-14 0 -14 14z" />
    <glyph glyph-name="Ocircumflex" unicode="&#xd4;" horiz-adv-x="542" 
d="M271 622q43 0 83 -26q62 -41 95 -130q29 -76 29 -161q0 -86 -29 -162q-33 -88 -95 -130q-40 -26 -83 -26q-44 0 -83 26q-62 42 -95 130q-29 76 -29 162q0 85 29 161q33 89 95 130q39 26 83 26zM271 15q35 0 67 22q56 37 86 119q26 70 26 149q0 78 -26 148q-30 83 -86 120
q-32 21 -67 21t-67 -21q-56 -37 -87 -120q-25 -70 -25 -148q0 -79 25 -149q31 -82 87 -119q32 -22 67 -22zM332 637q14 0 14 14q0 5 -61 97q-4 6 -13 6q-8 0 -12 -6q-61 -92 -61 -97q0 -14 14 -14q8 0 12 7l47 72l48 -72q4 -7 12 -7z" />
    <glyph glyph-name="Ograve" unicode="&#xd2;" horiz-adv-x="542" 
d="M271 622q43 0 83 -26q62 -41 95 -130q29 -76 29 -161q0 -86 -29 -162q-33 -88 -95 -130q-40 -26 -83 -26q-44 0 -83 26q-62 42 -95 130q-29 76 -29 162q0 85 29 161q33 89 95 130q39 26 83 26zM271 15q35 0 67 22q56 37 86 119q26 70 26 149q0 78 -26 148q-30 83 -86 120
q-32 21 -67 21t-67 -21q-56 -37 -87 -120q-25 -70 -25 -148q0 -79 25 -149q31 -82 87 -119q32 -22 67 -22zM173 770q6 0 10 -4l92 -92q4 -4 4 -10q0 -14 -14 -14q-6 0 -10 4l-92 92q-4 4 -4 10q0 14 14 14z" />
    <glyph glyph-name="Uacute" unicode="&#xda;" horiz-adv-x="505" 
d="M422 615q14 0 14 -14v-442q0 -81 -50.5 -126t-132.5 -45q-81 0 -132.5 45.5t-51.5 125.5v442q0 14 14 14t14 -14v-442q0 -68 45 -107q41 -36 111 -36t112.5 37t42.5 106v442q0 14 14 14zM219 653q0 6 4 10l93 93q4 4 10 4q14 0 14 -14q0 -5 -4 -9l-93 -93q-4 -5 -10 -5
q-14 0 -14 14z" />
    <glyph glyph-name="Ucircumflex" unicode="&#xdb;" horiz-adv-x="505" 
d="M422 615q14 0 14 -14v-442q0 -81 -50.5 -126t-132.5 -45q-81 0 -132.5 45.5t-51.5 125.5v442q0 14 14 14t14 -14v-442q0 -68 45 -107q41 -36 111 -36t112.5 37t42.5 106v442q0 14 14 14zM312 647q14 0 14 14q0 5 -61 97q-4 6 -13 6q-8 0 -12 -6q-61 -92 -61 -97
q0 -14 14 -14q8 0 12 7l47 72l48 -72q4 -7 12 -7z" />
    <glyph glyph-name="Ugrave" unicode="&#xd9;" horiz-adv-x="505" 
d="M422 615q14 0 14 -14v-442q0 -81 -50.5 -126t-132.5 -45q-81 0 -132.5 45.5t-51.5 125.5v442q0 14 14 14t14 -14v-442q0 -68 45 -107q41 -36 111 -36t112.5 37t42.5 106v442q0 14 14 14zM193 750q6 0 10 -4l92 -92q4 -4 4 -10q0 -14 -14 -14q-6 0 -10 4l-92 92
q-4 4 -4 10q0 14 14 14z" />
    <glyph glyph-name="dotlessi" unicode="&#x131;" horiz-adv-x="184" 
d="M92 326q14 0 14 -14v-304q0 -14 -14 -14t-14 14v304q0 14 14 14z" />
    <glyph glyph-name="circumflex" unicode="&#x2c6;" horiz-adv-x="285" 
d="M202 467q14 0 14 14q0 5 -61 97q-4 6 -13 6q-8 0 -12 -6q-61 -92 -61 -97q0 -14 14 -14q8 0 12 7l47 72l48 -72q4 -7 12 -7z" />
    <glyph glyph-name="tilde" unicode="&#x2dc;" horiz-adv-x="328" 
d="M69 485q0 32 11 55q15 29 43 29q26 0 49.5 -36.5t37.5 -36.5q18 0 21 58q1 15 14 15q14 0 14 -14q0 -87 -51 -87q-26 0 -50.5 36.5t-35.5 36.5q-20 0 -25 -56q-1 -14 -14 -14q-14 0 -14 14z" />
    <glyph glyph-name="macron" unicode="&#xaf;" 
 />
    <glyph glyph-name="macron" unicode="&#x2c9;" 
 />
    <glyph glyph-name="breve" unicode="&#x2d8;" 
 />
    <glyph glyph-name="dotaccent" unicode="&#x2d9;" 
 />
    <glyph glyph-name="ring" unicode="&#x2da;" horiz-adv-x="323" 
d="M162 611q38 0 65 -27.5t27 -65.5t-27 -65.5t-65 -27.5q-39 0 -66 27.5t-27 65.5t27 65.5t66 27.5zM162 446q29 0 50 21.5t21 50.5t-21 50.5t-50 21.5q-30 0 -51 -21.5t-21 -50.5t21 -50.5t51 -21.5z" />
    <glyph glyph-name="cedilla" unicode="&#xb8;" horiz-adv-x="245" 
d="M76 -151q0 11 13 13q19 3 39 22.5t20 38.5q0 12 -9 12q-12 0 -32.5 -12t-23.5 -12q-14 0 -14 15l12 73q2 11 14 11q14 0 14 -14q0 -1 -7 -44q21 11 38 11q36 0 36 -40q0 -29 -29 -59t-58 -30q-13 0 -13 15z" />
    <glyph glyph-name="hungarumlaut" unicode="&#x2dd;" 
 />
    <glyph glyph-name="ogonek" unicode="&#x2db;" 
 />
    <glyph glyph-name="caron" unicode="&#x2c7;" horiz-adv-x="285" 
d="M142 643q-8 0 -12 6q-61 93 -61 97q0 14 14 14q8 0 12 -6l47 -72l48 72q4 6 12 6q14 0 14 -14q0 -4 -61 -97q-4 -6 -13 -6z" />
    <glyph glyph-name="euro" unicode="&#x20ac;" horiz-adv-x="6322" 
d="M5172 590q-70 0 -119 -76q-40 -60 -53 -140h181q14 0 14 -14t-14 -14h-185q-2 -21 -2 -40h187q14 0 14 -14t-14 -14h-187q5 -93 46 -170q51 -97 132 -97q38 0 73 26l35 26q14 0 14 -14q0 -6 -4 -10q-48 -56 -118 -56q-94 0 -153 104q-48 86 -53 191q-28 0 -25 -1
q-16 2 -16 15q0 12 16 14q-3 0 25 0q0 19 2 40q-31 0 -26 -1q-17 2 -17 15t19 15q-9 -1 28 -1q14 92 60 160q58 84 140 84q70 0 118 -57q4 -4 4 -9q0 -14 -14 -14l-35 26t-73 26z" />
    </font>
</defs>
</svg>
